%TF.GenerationSoftware,KiCad,Pcbnew,7.0.1-0*%
%TF.CreationDate,2023-07-04T20:45:15+01:00*%
%TF.ProjectId,Penfold_ADSR,50656e66-6f6c-4645-9f41-4453522e6b69,rev?*%
%TF.SameCoordinates,Original*%
%TF.FileFunction,Soldermask,Bot*%
%TF.FilePolarity,Negative*%
%FSLAX46Y46*%
G04 Gerber Fmt 4.6, Leading zero omitted, Abs format (unit mm)*
G04 Created by KiCad (PCBNEW 7.0.1-0) date 2023-07-04 20:45:15*
%MOMM*%
%LPD*%
G01*
G04 APERTURE LIST*
%ADD10R,1.050000X1.500000*%
%ADD11O,1.050000X1.500000*%
%ADD12C,1.600000*%
%ADD13O,1.600000X1.600000*%
%ADD14R,2.200000X2.200000*%
%ADD15O,2.200000X2.200000*%
%ADD16C,3.200000*%
%ADD17R,1.700000X1.700000*%
%ADD18O,1.700000X1.700000*%
%ADD19R,1.600000X1.600000*%
%ADD20R,1.500000X1.050000*%
%ADD21O,1.500000X1.050000*%
%ADD22R,2.400000X1.600000*%
%ADD23O,2.400000X1.600000*%
G04 APERTURE END LIST*
D10*
%TO.C,Q6*%
X146230000Y-94360000D03*
D11*
X147500000Y-94360000D03*
X148770000Y-94360000D03*
%TD*%
D12*
%TO.C,R3*%
X99000000Y-68420000D03*
D13*
X99000000Y-78580000D03*
%TD*%
D14*
%TO.C,D1*%
X84420000Y-69000000D03*
D15*
X94580000Y-69000000D03*
%TD*%
D10*
%TO.C,Q3*%
X112960000Y-95500000D03*
D11*
X114230000Y-95500000D03*
X115500000Y-95500000D03*
%TD*%
D12*
%TO.C,C6*%
X135000000Y-81500000D03*
X135000000Y-76500000D03*
%TD*%
%TO.C,R13*%
X138920000Y-88000000D03*
D13*
X149080000Y-88000000D03*
%TD*%
D16*
%TO.C,H1*%
X77000000Y-65000000D03*
%TD*%
D17*
%TO.C,J1*%
X76000000Y-73220000D03*
D18*
X78540000Y-73220000D03*
X76000000Y-75760000D03*
X78540000Y-75760000D03*
X76000000Y-78300000D03*
X78540000Y-78300000D03*
X76000000Y-80840000D03*
X78540000Y-80840000D03*
X76000000Y-83380000D03*
X78540000Y-83380000D03*
X76000000Y-85920000D03*
X78540000Y-85920000D03*
X76000000Y-88460000D03*
X78540000Y-88460000D03*
X76000000Y-91000000D03*
X78540000Y-91000000D03*
%TD*%
D12*
%TO.C,C5*%
X140000000Y-81000000D03*
X140000000Y-83500000D03*
%TD*%
D17*
%TO.C,RV1*%
X116000000Y-102500000D03*
D18*
X113460000Y-102500000D03*
X110920000Y-102500000D03*
%TD*%
D12*
%TO.C,R12*%
X139500000Y-77000000D03*
D13*
X149660000Y-77000000D03*
%TD*%
D19*
%TO.C,C1*%
X94500000Y-75500000D03*
D12*
X92500000Y-75500000D03*
%TD*%
D17*
%TO.C,J4*%
X165040000Y-102500000D03*
D18*
X162500000Y-102500000D03*
X159960000Y-102500000D03*
%TD*%
D12*
%TO.C,C3*%
X98500000Y-84000000D03*
X103500000Y-84000000D03*
%TD*%
D10*
%TO.C,Q2*%
X139460000Y-94500000D03*
D11*
X140730000Y-94500000D03*
X142000000Y-94500000D03*
%TD*%
D12*
%TO.C,R8*%
X130500000Y-90500000D03*
D13*
X120340000Y-90500000D03*
%TD*%
D12*
%TO.C,R7*%
X135000000Y-95580000D03*
D13*
X135000000Y-85420000D03*
%TD*%
D20*
%TO.C,Q1*%
X129500000Y-79500000D03*
D21*
X129500000Y-78230000D03*
X129500000Y-76960000D03*
%TD*%
D12*
%TO.C,R17*%
X181500000Y-96080000D03*
D13*
X181500000Y-85920000D03*
%TD*%
D17*
%TO.C,J2*%
X91040000Y-102000000D03*
D18*
X88500000Y-102000000D03*
X85960000Y-102000000D03*
%TD*%
D20*
%TO.C,Q5*%
X122500000Y-79500000D03*
D21*
X122500000Y-78230000D03*
X122500000Y-76960000D03*
%TD*%
D17*
%TO.C,RV4*%
X141920000Y-102500000D03*
D18*
X144460000Y-102500000D03*
X147000000Y-102500000D03*
%TD*%
D16*
%TO.C,H3*%
X182000000Y-102000000D03*
%TD*%
D17*
%TO.C,RV2*%
X125420000Y-102500000D03*
D18*
X127960000Y-102500000D03*
X130500000Y-102500000D03*
%TD*%
D22*
%TO.C,U1*%
X108675000Y-68800000D03*
D23*
X108675000Y-71340000D03*
X108675000Y-73880000D03*
X108675000Y-76420000D03*
X108675000Y-78960000D03*
X108675000Y-81500000D03*
X108675000Y-84040000D03*
X116295000Y-84040000D03*
X116295000Y-81500000D03*
X116295000Y-78960000D03*
X116295000Y-76420000D03*
X116295000Y-73880000D03*
X116295000Y-71340000D03*
X116295000Y-68800000D03*
%TD*%
D12*
%TO.C,R2*%
X98420000Y-88500000D03*
D13*
X108580000Y-88500000D03*
%TD*%
D12*
%TO.C,R11*%
X148420000Y-73000000D03*
D13*
X158580000Y-73000000D03*
%TD*%
D12*
%TO.C,R4*%
X130580000Y-95500000D03*
D13*
X120420000Y-95500000D03*
%TD*%
D12*
%TO.C,R10*%
X134420000Y-73000000D03*
D13*
X144580000Y-73000000D03*
%TD*%
D17*
%TO.C,RV3*%
X155500000Y-82525000D03*
D18*
X155500000Y-79985000D03*
X155500000Y-77445000D03*
%TD*%
D14*
%TO.C,D2*%
X94580000Y-82000000D03*
D15*
X84420000Y-82000000D03*
%TD*%
D19*
%TO.C,C2*%
X86500000Y-75500000D03*
D12*
X84500000Y-75500000D03*
%TD*%
D10*
%TO.C,Q4*%
X112960000Y-89500000D03*
D11*
X114230000Y-89500000D03*
X115500000Y-89500000D03*
%TD*%
D12*
%TO.C,R6*%
X120920000Y-73000000D03*
D13*
X131080000Y-73000000D03*
%TD*%
D12*
%TO.C,R15*%
X131080000Y-69000000D03*
D13*
X120920000Y-69000000D03*
%TD*%
D12*
%TO.C,R1*%
X83920000Y-88500000D03*
D13*
X94080000Y-88500000D03*
%TD*%
D16*
%TO.C,H4*%
X77000000Y-102000000D03*
%TD*%
D12*
%TO.C,R16*%
X153420000Y-97500000D03*
D13*
X163580000Y-97500000D03*
%TD*%
D16*
%TO.C,H2*%
X182000000Y-65000000D03*
%TD*%
D22*
%TO.C,U2*%
X163675000Y-72700000D03*
D23*
X163675000Y-75240000D03*
X163675000Y-77780000D03*
X163675000Y-80320000D03*
X171295000Y-80320000D03*
X171295000Y-77780000D03*
X171295000Y-75240000D03*
X171295000Y-72700000D03*
%TD*%
D12*
%TO.C,C4*%
X104175000Y-75500000D03*
X104175000Y-78000000D03*
%TD*%
%TO.C,R5*%
X120420000Y-85500000D03*
D13*
X130580000Y-85500000D03*
%TD*%
D12*
%TO.C,R18*%
X181500000Y-82580000D03*
D13*
X181500000Y-72420000D03*
%TD*%
D12*
%TO.C,R14*%
X153420000Y-93000000D03*
D13*
X163580000Y-93000000D03*
%TD*%
D12*
%TO.C,R9*%
X176500000Y-88580000D03*
D13*
X176500000Y-78420000D03*
%TD*%
D12*
%TO.C,R19*%
X153420000Y-88000000D03*
D13*
X163580000Y-88000000D03*
%TD*%
D10*
%TO.C,Q7*%
X177000000Y-96500000D03*
D11*
X175730000Y-96500000D03*
X174460000Y-96500000D03*
%TD*%
M02*
