%TF.GenerationSoftware,KiCad,Pcbnew,7.0.1-0*%
%TF.CreationDate,2023-07-04T20:45:14+01:00*%
%TF.ProjectId,Penfold_ADSR,50656e66-6f6c-4645-9f41-4453522e6b69,rev?*%
%TF.SameCoordinates,Original*%
%TF.FileFunction,Copper,L2,Bot*%
%TF.FilePolarity,Positive*%
%FSLAX46Y46*%
G04 Gerber Fmt 4.6, Leading zero omitted, Abs format (unit mm)*
G04 Created by KiCad (PCBNEW 7.0.1-0) date 2023-07-04 20:45:14*
%MOMM*%
%LPD*%
G01*
G04 APERTURE LIST*
%TA.AperFunction,ComponentPad*%
%ADD10R,1.050000X1.500000*%
%TD*%
%TA.AperFunction,ComponentPad*%
%ADD11O,1.050000X1.500000*%
%TD*%
%TA.AperFunction,ComponentPad*%
%ADD12C,1.600000*%
%TD*%
%TA.AperFunction,ComponentPad*%
%ADD13O,1.600000X1.600000*%
%TD*%
%TA.AperFunction,ComponentPad*%
%ADD14R,2.200000X2.200000*%
%TD*%
%TA.AperFunction,ComponentPad*%
%ADD15O,2.200000X2.200000*%
%TD*%
%TA.AperFunction,ComponentPad*%
%ADD16R,1.700000X1.700000*%
%TD*%
%TA.AperFunction,ComponentPad*%
%ADD17O,1.700000X1.700000*%
%TD*%
%TA.AperFunction,ComponentPad*%
%ADD18R,1.600000X1.600000*%
%TD*%
%TA.AperFunction,ComponentPad*%
%ADD19R,1.500000X1.050000*%
%TD*%
%TA.AperFunction,ComponentPad*%
%ADD20O,1.500000X1.050000*%
%TD*%
%TA.AperFunction,ComponentPad*%
%ADD21R,2.400000X1.600000*%
%TD*%
%TA.AperFunction,ComponentPad*%
%ADD22O,2.400000X1.600000*%
%TD*%
%TA.AperFunction,ViaPad*%
%ADD23C,0.800000*%
%TD*%
%TA.AperFunction,Conductor*%
%ADD24C,0.500000*%
%TD*%
%TA.AperFunction,Conductor*%
%ADD25C,0.300000*%
%TD*%
G04 APERTURE END LIST*
D10*
%TO.P,Q6,1,C*%
%TO.N,Net-(Q6-C)*%
X146230000Y-94360000D03*
D11*
%TO.P,Q6,2,B*%
%TO.N,Net-(Q6-B)*%
X147500000Y-94360000D03*
%TO.P,Q6,3,E*%
%TO.N,GND*%
X148770000Y-94360000D03*
%TD*%
D12*
%TO.P,R3,1*%
%TO.N,+12V*%
X99000000Y-68420000D03*
D13*
%TO.P,R3,2*%
%TO.N,Net-(C4-Pad2)*%
X99000000Y-78580000D03*
%TD*%
D14*
%TO.P,D1,1,K*%
%TO.N,Net-(D1-K)*%
X84420000Y-69000000D03*
D15*
%TO.P,D1,2,A*%
%TO.N,-12V*%
X94580000Y-69000000D03*
%TD*%
D10*
%TO.P,Q3,1,C*%
%TO.N,Net-(Q3-C)*%
X112960000Y-95500000D03*
D11*
%TO.P,Q3,2,B*%
%TO.N,Net-(Q3-B)*%
X114230000Y-95500000D03*
%TO.P,Q3,3,E*%
%TO.N,GND*%
X115500000Y-95500000D03*
%TD*%
D12*
%TO.P,C6,1*%
%TO.N,GND*%
X135000000Y-81500000D03*
%TO.P,C6,2*%
%TO.N,+12V*%
X135000000Y-76500000D03*
%TD*%
%TO.P,R13,1*%
%TO.N,Net-(Q2-B)*%
X138920000Y-88000000D03*
D13*
%TO.P,R13,2*%
%TO.N,Net-(Q6-C)*%
X149080000Y-88000000D03*
%TD*%
D16*
%TO.P,J1,1,Pin_1*%
%TO.N,Net-(D1-K)*%
X76000000Y-73220000D03*
D17*
%TO.P,J1,2,Pin_2*%
X78540000Y-73220000D03*
%TO.P,J1,3,Pin_3*%
%TO.N,GND*%
X76000000Y-75760000D03*
%TO.P,J1,4,Pin_4*%
X78540000Y-75760000D03*
%TO.P,J1,5,Pin_5*%
X76000000Y-78300000D03*
%TO.P,J1,6,Pin_6*%
X78540000Y-78300000D03*
%TO.P,J1,7,Pin_7*%
X76000000Y-80840000D03*
%TO.P,J1,8,Pin_8*%
X78540000Y-80840000D03*
%TO.P,J1,9,Pin_9*%
%TO.N,Net-(D2-A)*%
X76000000Y-83380000D03*
%TO.P,J1,10,Pin_10*%
X78540000Y-83380000D03*
%TO.P,J1,11,Pin_11*%
%TO.N,+5V*%
X76000000Y-85920000D03*
%TO.P,J1,12,Pin_12*%
X78540000Y-85920000D03*
%TO.P,J1,13,Pin_13*%
%TO.N,CV Bus*%
X76000000Y-88460000D03*
%TO.P,J1,14,Pin_14*%
X78540000Y-88460000D03*
%TO.P,J1,15,Pin_15*%
%TO.N,Gate Bus*%
X76000000Y-91000000D03*
%TO.P,J1,16,Pin_16*%
X78540000Y-91000000D03*
%TD*%
D12*
%TO.P,C5,1*%
%TO.N,GND*%
X140000000Y-81000000D03*
%TO.P,C5,2*%
%TO.N,B*%
X140000000Y-83500000D03*
%TD*%
D16*
%TO.P,RV1,1,1*%
%TO.N,unconnected-(RV1-Pad1)*%
X116000000Y-102500000D03*
D17*
%TO.P,RV1,2,2*%
%TO.N,Net-(R8-Pad2)*%
X113460000Y-102500000D03*
%TO.P,RV1,3,3*%
%TO.N,Net-(Q4-C)*%
X110920000Y-102500000D03*
%TD*%
D12*
%TO.P,R12,1*%
%TO.N,GND*%
X139500000Y-77000000D03*
D13*
%TO.P,R12,2*%
%TO.N,Net-(U2A--)*%
X149660000Y-77000000D03*
%TD*%
D18*
%TO.P,C1,1*%
%TO.N,+12V*%
X94500000Y-75500000D03*
D12*
%TO.P,C1,2*%
%TO.N,GND*%
X92500000Y-75500000D03*
%TD*%
D16*
%TO.P,J4,1,Pin_1*%
%TO.N,GND*%
X165040000Y-102500000D03*
D17*
%TO.P,J4,2,Pin_2*%
X162500000Y-102500000D03*
%TO.P,J4,3,Pin_3*%
%TO.N,B*%
X159960000Y-102500000D03*
%TD*%
D12*
%TO.P,C3,1*%
%TO.N,A*%
X98500000Y-84000000D03*
%TO.P,C3,2*%
%TO.N,GND*%
X103500000Y-84000000D03*
%TD*%
D10*
%TO.P,Q2,1,C*%
%TO.N,Net-(Q2-C)*%
X139460000Y-94500000D03*
D11*
%TO.P,Q2,2,B*%
%TO.N,Net-(Q2-B)*%
X140730000Y-94500000D03*
%TO.P,Q2,3,E*%
%TO.N,GND*%
X142000000Y-94500000D03*
%TD*%
D12*
%TO.P,R8,1*%
%TO.N,B*%
X130500000Y-90500000D03*
D13*
%TO.P,R8,2*%
%TO.N,Net-(R8-Pad2)*%
X120340000Y-90500000D03*
%TD*%
D12*
%TO.P,R7,1*%
%TO.N,Net-(R7-Pad1)*%
X135000000Y-95580000D03*
D13*
%TO.P,R7,2*%
%TO.N,B*%
X135000000Y-85420000D03*
%TD*%
D19*
%TO.P,Q1,1,C*%
%TO.N,C*%
X129500000Y-79500000D03*
D20*
%TO.P,Q1,2,B*%
%TO.N,Net-(Q1-B)*%
X129500000Y-78230000D03*
%TO.P,Q1,3,E*%
%TO.N,+12V*%
X129500000Y-76960000D03*
%TD*%
D12*
%TO.P,R17,1*%
%TO.N,Net-(Q7-C)*%
X181500000Y-96080000D03*
D13*
%TO.P,R17,2*%
%TO.N,Net-(Q1-B)*%
X181500000Y-85920000D03*
%TD*%
D16*
%TO.P,J2,1,Pin_1*%
%TO.N,GND*%
X91040000Y-102000000D03*
D17*
%TO.P,J2,2,Pin_2*%
X88500000Y-102000000D03*
%TO.P,J2,3,Pin_3*%
%TO.N,Gate In*%
X85960000Y-102000000D03*
%TD*%
D19*
%TO.P,Q5,1,C*%
%TO.N,Net-(Q5-C)*%
X122500000Y-79500000D03*
D20*
%TO.P,Q5,2,B*%
%TO.N,C*%
X122500000Y-78230000D03*
%TO.P,Q5,3,E*%
%TO.N,+12V*%
X122500000Y-76960000D03*
%TD*%
D16*
%TO.P,RV4,1,1*%
%TO.N,Net-(Q2-C)*%
X141920000Y-102500000D03*
D17*
%TO.P,RV4,2,2*%
%TO.N,Net-(R19-Pad1)*%
X144460000Y-102500000D03*
%TO.P,RV4,3,3*%
%TO.N,unconnected-(RV4-Pad3)*%
X147000000Y-102500000D03*
%TD*%
D16*
%TO.P,RV2,1,1*%
%TO.N,Net-(Q5-C)*%
X125420000Y-102500000D03*
D17*
%TO.P,RV2,2,2*%
%TO.N,Net-(R7-Pad1)*%
X127960000Y-102500000D03*
%TO.P,RV2,3,3*%
%TO.N,unconnected-(RV2-Pad3)*%
X130500000Y-102500000D03*
%TD*%
D21*
%TO.P,U1,1*%
%TO.N,A*%
X108675000Y-68800000D03*
D22*
%TO.P,U1,2*%
%TO.N,Net-(U1-Pad2)*%
X108675000Y-71340000D03*
%TO.P,U1,3*%
%TO.N,Net-(C4-Pad1)*%
X108675000Y-73880000D03*
%TO.P,U1,4*%
%TO.N,Net-(U1-Pad2)*%
X108675000Y-76420000D03*
%TO.P,U1,5*%
%TO.N,Net-(C4-Pad2)*%
X108675000Y-78960000D03*
%TO.P,U1,6*%
X108675000Y-81500000D03*
%TO.P,U1,7,VSS*%
%TO.N,GND*%
X108675000Y-84040000D03*
%TO.P,U1,8*%
%TO.N,Net-(U1-Pad11)*%
X116295000Y-84040000D03*
%TO.P,U1,9*%
%TO.N,Net-(U1-Pad2)*%
X116295000Y-81500000D03*
%TO.P,U1,10*%
%TO.N,E*%
X116295000Y-78960000D03*
%TO.P,U1,11*%
%TO.N,Net-(U1-Pad11)*%
X116295000Y-76420000D03*
%TO.P,U1,12*%
%TO.N,E*%
X116295000Y-73880000D03*
%TO.P,U1,13*%
%TO.N,G*%
X116295000Y-71340000D03*
%TO.P,U1,14,VDD*%
%TO.N,+12V*%
X116295000Y-68800000D03*
%TD*%
D12*
%TO.P,R2,1*%
%TO.N,A*%
X98420000Y-88500000D03*
D13*
%TO.P,R2,2*%
%TO.N,GND*%
X108580000Y-88500000D03*
%TD*%
D12*
%TO.P,R11,1*%
%TO.N,Net-(U2A--)*%
X148420000Y-73000000D03*
D13*
%TO.P,R11,2*%
%TO.N,+12V*%
X158580000Y-73000000D03*
%TD*%
D12*
%TO.P,R4,1*%
%TO.N,D*%
X130580000Y-95500000D03*
D13*
%TO.P,R4,2*%
%TO.N,Net-(Q3-B)*%
X120420000Y-95500000D03*
%TD*%
D12*
%TO.P,R10,1*%
%TO.N,B*%
X134420000Y-73000000D03*
D13*
%TO.P,R10,2*%
%TO.N,F*%
X144580000Y-73000000D03*
%TD*%
D16*
%TO.P,RV3,1,1*%
%TO.N,GND*%
X155500000Y-82525000D03*
D17*
%TO.P,RV3,2,2*%
%TO.N,Net-(U2B-+)*%
X155500000Y-79985000D03*
%TO.P,RV3,3,3*%
%TO.N,Net-(U2A--)*%
X155500000Y-77445000D03*
%TD*%
D14*
%TO.P,D2,1,K*%
%TO.N,+12V*%
X94580000Y-82000000D03*
D15*
%TO.P,D2,2,A*%
%TO.N,Net-(D2-A)*%
X84420000Y-82000000D03*
%TD*%
D18*
%TO.P,C2,1*%
%TO.N,GND*%
X86500000Y-75500000D03*
D12*
%TO.P,C2,2*%
%TO.N,-12V*%
X84500000Y-75500000D03*
%TD*%
D10*
%TO.P,Q4,1,C*%
%TO.N,Net-(Q4-C)*%
X112960000Y-89500000D03*
D11*
%TO.P,Q4,2,B*%
%TO.N,Net-(Q3-C)*%
X114230000Y-89500000D03*
%TO.P,Q4,3,E*%
%TO.N,GND*%
X115500000Y-89500000D03*
%TD*%
D12*
%TO.P,R6,1*%
%TO.N,C*%
X120920000Y-73000000D03*
D13*
%TO.P,R6,2*%
%TO.N,E*%
X131080000Y-73000000D03*
%TD*%
D12*
%TO.P,R15,1*%
%TO.N,Net-(Q6-B)*%
X131080000Y-69000000D03*
D13*
%TO.P,R15,2*%
%TO.N,A*%
X120920000Y-69000000D03*
%TD*%
D12*
%TO.P,R1,1*%
%TO.N,Gate In*%
X83920000Y-88500000D03*
D13*
%TO.P,R1,2*%
%TO.N,A*%
X94080000Y-88500000D03*
%TD*%
D12*
%TO.P,R16,1*%
%TO.N,Net-(Q6-C)*%
X153420000Y-97500000D03*
D13*
%TO.P,R16,2*%
%TO.N,Net-(Q7-B)*%
X163580000Y-97500000D03*
%TD*%
D21*
%TO.P,U2,1*%
%TO.N,G*%
X163675000Y-72700000D03*
D22*
%TO.P,U2,2,-*%
%TO.N,Net-(U2A--)*%
X163675000Y-75240000D03*
%TO.P,U2,3,+*%
%TO.N,F*%
X163675000Y-77780000D03*
%TO.P,U2,4,V-*%
%TO.N,GND*%
X163675000Y-80320000D03*
%TO.P,U2,5,+*%
%TO.N,Net-(U2B-+)*%
X171295000Y-80320000D03*
%TO.P,U2,6,-*%
%TO.N,Net-(U2B--)*%
X171295000Y-77780000D03*
%TO.P,U2,7*%
%TO.N,D*%
X171295000Y-75240000D03*
%TO.P,U2,8,V+*%
%TO.N,+12V*%
X171295000Y-72700000D03*
%TD*%
D12*
%TO.P,C4,1*%
%TO.N,Net-(C4-Pad1)*%
X104175000Y-75500000D03*
%TO.P,C4,2*%
%TO.N,Net-(C4-Pad2)*%
X104175000Y-78000000D03*
%TD*%
%TO.P,R5,1*%
%TO.N,Net-(Q3-C)*%
X120420000Y-85500000D03*
D13*
%TO.P,R5,2*%
%TO.N,E*%
X130580000Y-85500000D03*
%TD*%
D12*
%TO.P,R18,1*%
%TO.N,Net-(Q1-B)*%
X181500000Y-82580000D03*
D13*
%TO.P,R18,2*%
%TO.N,+12V*%
X181500000Y-72420000D03*
%TD*%
D12*
%TO.P,R14,1*%
%TO.N,Net-(Q6-C)*%
X153420000Y-93000000D03*
D13*
%TO.P,R14,2*%
%TO.N,+12V*%
X163580000Y-93000000D03*
%TD*%
D12*
%TO.P,R9,1*%
%TO.N,B*%
X176500000Y-88580000D03*
D13*
%TO.P,R9,2*%
%TO.N,Net-(U2B--)*%
X176500000Y-78420000D03*
%TD*%
D12*
%TO.P,R19,1*%
%TO.N,Net-(R19-Pad1)*%
X153420000Y-88000000D03*
D13*
%TO.P,R19,2*%
%TO.N,B*%
X163580000Y-88000000D03*
%TD*%
D10*
%TO.P,Q7,1,C*%
%TO.N,Net-(Q7-C)*%
X177000000Y-96500000D03*
D11*
%TO.P,Q7,2,B*%
%TO.N,Net-(Q7-B)*%
X175730000Y-96500000D03*
%TO.P,Q7,3,E*%
%TO.N,GND*%
X174460000Y-96500000D03*
%TD*%
D23*
%TO.N,GND*%
X158500000Y-84000000D03*
X158500000Y-92500000D03*
%TD*%
D24*
%TO.N,+12V*%
X176187767Y-93000000D02*
X163580000Y-93000000D01*
X170045000Y-73950000D02*
X171295000Y-72700000D01*
X158580000Y-73000000D02*
X162110000Y-76530000D01*
X159530000Y-73950000D02*
X170045000Y-73950000D01*
X162110000Y-76530000D02*
X172842233Y-76530000D01*
X137250000Y-74250000D02*
X135000000Y-76500000D01*
X157330000Y-74250000D02*
X137250000Y-74250000D01*
X158580000Y-73000000D02*
X157330000Y-74250000D01*
X182750000Y-85402233D02*
X182750000Y-86437767D01*
X182017767Y-84670000D02*
X182750000Y-85402233D01*
X172842233Y-76530000D02*
X180982233Y-84670000D01*
X158580000Y-73000000D02*
X159530000Y-73950000D01*
X182750000Y-86437767D02*
X176187767Y-93000000D01*
X180982233Y-84670000D02*
X182017767Y-84670000D01*
D25*
%TO.N,B*%
X145650000Y-89150000D02*
X140000000Y-83500000D01*
X175920000Y-88000000D02*
X176500000Y-88580000D01*
X163580000Y-88000000D02*
X175920000Y-88000000D01*
X162430000Y-89150000D02*
X145650000Y-89150000D01*
X163580000Y-88000000D02*
X162430000Y-89150000D01*
%TO.N,Net-(Q1-B)*%
X167180000Y-86500000D02*
X167800000Y-87120000D01*
X147500000Y-86500000D02*
X167180000Y-86500000D01*
X139230000Y-78230000D02*
X147500000Y-86500000D01*
X129500000Y-78230000D02*
X139230000Y-78230000D01*
X167800000Y-87120000D02*
X180300000Y-87120000D01*
X180300000Y-87120000D02*
X181500000Y-85920000D01*
%TO.N,E*%
X116295000Y-73880000D02*
X116565000Y-74150000D01*
X129930000Y-74150000D02*
X131080000Y-73000000D01*
X116565000Y-74150000D02*
X129930000Y-74150000D01*
X128400000Y-75680000D02*
X131080000Y-73000000D01*
X130580000Y-85500000D02*
X128400000Y-83320000D01*
X128400000Y-83320000D02*
X128400000Y-75680000D01*
%TO.N,G*%
X163675000Y-72700000D02*
X162315000Y-71340000D01*
X162315000Y-71340000D02*
X116295000Y-71340000D01*
%TD*%
%TA.AperFunction,Conductor*%
%TO.N,GND*%
G36*
X158862543Y-74081299D02*
G01*
X158913544Y-74112069D01*
X159132592Y-74331117D01*
X159135534Y-74334161D01*
X159182156Y-74384081D01*
X159198013Y-74396538D01*
X161712592Y-76911117D01*
X161715534Y-76914161D01*
X161716361Y-76915047D01*
X161759320Y-76961044D01*
X161794434Y-76982397D01*
X161804914Y-76989530D01*
X161837658Y-77014361D01*
X161854354Y-77020945D01*
X161873281Y-77030345D01*
X161888618Y-77039672D01*
X161888620Y-77039672D01*
X161888621Y-77039673D01*
X161928181Y-77050757D01*
X161940213Y-77054803D01*
X161978436Y-77069876D01*
X161996285Y-77071711D01*
X162017046Y-77075656D01*
X162034335Y-77080500D01*
X162075418Y-77080500D01*
X162088098Y-77081149D01*
X162128972Y-77085352D01*
X162146656Y-77082303D01*
X162167725Y-77080500D01*
X162193334Y-77080500D01*
X162255334Y-77097113D01*
X162300721Y-77142500D01*
X162317334Y-77204500D01*
X162300721Y-77266499D01*
X162296343Y-77274081D01*
X162269396Y-77320754D01*
X162200655Y-77519366D01*
X162171504Y-77722125D01*
X162170746Y-77727398D01*
X162178779Y-77896030D01*
X162180746Y-77937330D01*
X162230297Y-78141580D01*
X162317602Y-78332752D01*
X162402624Y-78452147D01*
X162439514Y-78503952D01*
X162591622Y-78648986D01*
X162641539Y-78681066D01*
X162768425Y-78762612D01*
X162790519Y-78771457D01*
X162942186Y-78832175D01*
X162991718Y-78868342D01*
X163017858Y-78923824D01*
X163014211Y-78985048D01*
X162981669Y-79037035D01*
X162928193Y-79067067D01*
X162828673Y-79093733D01*
X162622519Y-79189865D01*
X162436180Y-79320341D01*
X162275341Y-79481180D01*
X162144865Y-79667519D01*
X162048733Y-79873673D01*
X161996128Y-80069999D01*
X161996128Y-80070000D01*
X165353872Y-80070000D01*
X165353871Y-80069999D01*
X165301266Y-79873673D01*
X165205134Y-79667519D01*
X165074658Y-79481180D01*
X164913819Y-79320341D01*
X164727480Y-79189865D01*
X164521326Y-79093733D01*
X164417617Y-79065944D01*
X164362448Y-79034266D01*
X164330247Y-78979401D01*
X164329490Y-78915788D01*
X164360377Y-78860173D01*
X164414775Y-78827192D01*
X164485875Y-78806316D01*
X164672682Y-78710011D01*
X164837886Y-78580092D01*
X164975519Y-78421256D01*
X165080604Y-78239244D01*
X165149344Y-78040633D01*
X165179254Y-77832602D01*
X165169254Y-77622670D01*
X165119704Y-77418424D01*
X165119454Y-77417877D01*
X165045533Y-77256011D01*
X165034643Y-77195654D01*
X165054012Y-77137461D01*
X165098900Y-77095668D01*
X165158327Y-77080500D01*
X169813334Y-77080500D01*
X169875334Y-77097113D01*
X169920721Y-77142500D01*
X169937334Y-77204500D01*
X169920721Y-77266499D01*
X169916343Y-77274081D01*
X169889396Y-77320754D01*
X169820655Y-77519366D01*
X169791504Y-77722125D01*
X169790746Y-77727398D01*
X169798779Y-77896030D01*
X169800746Y-77937330D01*
X169850297Y-78141580D01*
X169937602Y-78332752D01*
X170022624Y-78452147D01*
X170059514Y-78503952D01*
X170211622Y-78648986D01*
X170261539Y-78681066D01*
X170388425Y-78762612D01*
X170410519Y-78771457D01*
X170583543Y-78840725D01*
X170684449Y-78860173D01*
X170789914Y-78880500D01*
X170789915Y-78880500D01*
X171747420Y-78880500D01*
X171747425Y-78880500D01*
X171904218Y-78865528D01*
X172105875Y-78806316D01*
X172292682Y-78710011D01*
X172457886Y-78580092D01*
X172595519Y-78421256D01*
X172700604Y-78239244D01*
X172769344Y-78040633D01*
X172799254Y-77832602D01*
X172789254Y-77622670D01*
X172775793Y-77567183D01*
X172777156Y-77503584D01*
X172809878Y-77449028D01*
X172865346Y-77417877D01*
X172928961Y-77418331D01*
X172983979Y-77450271D01*
X180584811Y-85051102D01*
X180587725Y-85054116D01*
X180620039Y-85088715D01*
X180648404Y-85138458D01*
X180651393Y-85195644D01*
X180628368Y-85248076D01*
X180560326Y-85338178D01*
X180469418Y-85520748D01*
X180413602Y-85716916D01*
X180394785Y-85919999D01*
X180413603Y-86123084D01*
X180448197Y-86244669D01*
X180448949Y-86309773D01*
X180416612Y-86366284D01*
X180149716Y-86633181D01*
X180109488Y-86660061D01*
X180062035Y-86669500D01*
X168037965Y-86669500D01*
X167990512Y-86660061D01*
X167950284Y-86633181D01*
X167521368Y-86204265D01*
X167512102Y-86193897D01*
X167489879Y-86166030D01*
X167442608Y-86133800D01*
X167438870Y-86131148D01*
X167388035Y-86093629D01*
X167383424Y-86091302D01*
X167323049Y-86072679D01*
X167318644Y-86071230D01*
X167259023Y-86050368D01*
X167253914Y-86049500D01*
X167247902Y-86049500D01*
X167190738Y-86049500D01*
X167186101Y-86049413D01*
X167122970Y-86047050D01*
X167104365Y-86049500D01*
X147737965Y-86049500D01*
X147690512Y-86040061D01*
X147650284Y-86013181D01*
X144412103Y-82775000D01*
X154150000Y-82775000D01*
X154150000Y-83422824D01*
X154156402Y-83482375D01*
X154206647Y-83617089D01*
X154292811Y-83732188D01*
X154407910Y-83818352D01*
X154542624Y-83868597D01*
X154602176Y-83875000D01*
X155250000Y-83875000D01*
X155250000Y-82775000D01*
X155750000Y-82775000D01*
X155750000Y-83875000D01*
X156397824Y-83875000D01*
X156457375Y-83868597D01*
X156592089Y-83818352D01*
X156707188Y-83732188D01*
X156793352Y-83617089D01*
X156843597Y-83482375D01*
X156850000Y-83422824D01*
X156850000Y-82775000D01*
X155750000Y-82775000D01*
X155250000Y-82775000D01*
X154150000Y-82775000D01*
X144412103Y-82775000D01*
X143912103Y-82275000D01*
X154150000Y-82275000D01*
X156850000Y-82275000D01*
X156850000Y-81627176D01*
X156843597Y-81567624D01*
X156793352Y-81432910D01*
X156707188Y-81317811D01*
X156592089Y-81231647D01*
X156457375Y-81181402D01*
X156397824Y-81175000D01*
X156199366Y-81175000D01*
X156138029Y-81158767D01*
X156092751Y-81114318D01*
X156075387Y-81053291D01*
X156090484Y-80991665D01*
X156134087Y-80945573D01*
X156196302Y-80907052D01*
X156353872Y-80763407D01*
X156482366Y-80593255D01*
X156482366Y-80593253D01*
X156482368Y-80593252D01*
X156493946Y-80570000D01*
X161996128Y-80570000D01*
X162048733Y-80766326D01*
X162144865Y-80972480D01*
X162275341Y-81158819D01*
X162436180Y-81319658D01*
X162622519Y-81450134D01*
X162828673Y-81546266D01*
X163048397Y-81605141D01*
X163218235Y-81620000D01*
X163425000Y-81620000D01*
X163425000Y-80570000D01*
X163925000Y-80570000D01*
X163925000Y-81620000D01*
X164131765Y-81620000D01*
X164301602Y-81605141D01*
X164521326Y-81546266D01*
X164727480Y-81450134D01*
X164913819Y-81319658D01*
X165074658Y-81158819D01*
X165205134Y-80972480D01*
X165301266Y-80766326D01*
X165353872Y-80570000D01*
X163925000Y-80570000D01*
X163425000Y-80570000D01*
X161996128Y-80570000D01*
X156493946Y-80570000D01*
X156541905Y-80473683D01*
X156577405Y-80402389D01*
X156615814Y-80267398D01*
X169790746Y-80267398D01*
X169800746Y-80477330D01*
X169842100Y-80647794D01*
X169850297Y-80681580D01*
X169937602Y-80872752D01*
X170028215Y-80999999D01*
X170059514Y-81043952D01*
X170211622Y-81188986D01*
X170270153Y-81226602D01*
X170388425Y-81302612D01*
X170426391Y-81317811D01*
X170583543Y-81380725D01*
X170712228Y-81405527D01*
X170789914Y-81420500D01*
X170789915Y-81420500D01*
X171747420Y-81420500D01*
X171747425Y-81420500D01*
X171904218Y-81405528D01*
X172105875Y-81346316D01*
X172292682Y-81250011D01*
X172457886Y-81120092D01*
X172595519Y-80961256D01*
X172700604Y-80779244D01*
X172769344Y-80580633D01*
X172799254Y-80372602D01*
X172789254Y-80162670D01*
X172739704Y-79958424D01*
X172739702Y-79958419D01*
X172652397Y-79767247D01*
X172552710Y-79627257D01*
X172530486Y-79596048D01*
X172378378Y-79451014D01*
X172313545Y-79409348D01*
X172201574Y-79337387D01*
X172045609Y-79274949D01*
X172006457Y-79259275D01*
X172006456Y-79259274D01*
X172006454Y-79259274D01*
X171800086Y-79219500D01*
X171800085Y-79219500D01*
X170842575Y-79219500D01*
X170744579Y-79228857D01*
X170685779Y-79234472D01*
X170484126Y-79293683D01*
X170297315Y-79389990D01*
X170132115Y-79519906D01*
X169994479Y-79678745D01*
X169889396Y-79860754D01*
X169820655Y-80059366D01*
X169800757Y-80197767D01*
X169790746Y-80267398D01*
X156615814Y-80267398D01*
X156635756Y-80197310D01*
X156655429Y-79985000D01*
X156635756Y-79772690D01*
X156634207Y-79767247D01*
X156586977Y-79601254D01*
X156577405Y-79567611D01*
X156553219Y-79519038D01*
X156482368Y-79376747D01*
X156353873Y-79206594D01*
X156196301Y-79062947D01*
X156077433Y-78989347D01*
X156015019Y-78950702D01*
X156015017Y-78950701D01*
X155816198Y-78873679D01*
X155816197Y-78873678D01*
X155619385Y-78836888D01*
X155558634Y-78806637D01*
X155522906Y-78748934D01*
X155522906Y-78681066D01*
X155558634Y-78623363D01*
X155619385Y-78593111D01*
X155816198Y-78556321D01*
X156015019Y-78479298D01*
X156196302Y-78367052D01*
X156353872Y-78223407D01*
X156482366Y-78053255D01*
X156482366Y-78053253D01*
X156482368Y-78053252D01*
X156559038Y-77899275D01*
X156577405Y-77862389D01*
X156635756Y-77657310D01*
X156655429Y-77445000D01*
X156635756Y-77232690D01*
X156634207Y-77227247D01*
X156589952Y-77071710D01*
X156577405Y-77027611D01*
X156563657Y-77000001D01*
X156482368Y-76836747D01*
X156353873Y-76666594D01*
X156196301Y-76522947D01*
X156084802Y-76453909D01*
X156015019Y-76410702D01*
X156015017Y-76410701D01*
X155816198Y-76333679D01*
X155816197Y-76333678D01*
X155606610Y-76294500D01*
X155393390Y-76294500D01*
X155253664Y-76320619D01*
X155183801Y-76333679D01*
X154984982Y-76410701D01*
X154803698Y-76522947D01*
X154646126Y-76666594D01*
X154517631Y-76836747D01*
X154422595Y-77027609D01*
X154364243Y-77232689D01*
X154344571Y-77445000D01*
X154364243Y-77657310D01*
X154422595Y-77862390D01*
X154517631Y-78053252D01*
X154646126Y-78223405D01*
X154646128Y-78223407D01*
X154803698Y-78367052D01*
X154984981Y-78479298D01*
X155183802Y-78556321D01*
X155380613Y-78593111D01*
X155441365Y-78623363D01*
X155477093Y-78681066D01*
X155477093Y-78748934D01*
X155441365Y-78806637D01*
X155380613Y-78836888D01*
X155256052Y-78860173D01*
X155183801Y-78873679D01*
X154984982Y-78950701D01*
X154803698Y-79062947D01*
X154646126Y-79206594D01*
X154517631Y-79376747D01*
X154422595Y-79567609D01*
X154364243Y-79772689D01*
X154344571Y-79985000D01*
X154364243Y-80197310D01*
X154422595Y-80402390D01*
X154517631Y-80593252D01*
X154646126Y-80763405D01*
X154646128Y-80763407D01*
X154803698Y-80907052D01*
X154865912Y-80945573D01*
X154909516Y-80991665D01*
X154924613Y-81053291D01*
X154907249Y-81114318D01*
X154861971Y-81158767D01*
X154800634Y-81175000D01*
X154602176Y-81175000D01*
X154542624Y-81181402D01*
X154407910Y-81231647D01*
X154292811Y-81317811D01*
X154206647Y-81432910D01*
X154156402Y-81567624D01*
X154150000Y-81627176D01*
X154150000Y-82275000D01*
X143912103Y-82275000D01*
X140014972Y-78377869D01*
X139984392Y-78327475D01*
X139980537Y-78268655D01*
X140004277Y-78214701D01*
X140050249Y-78177806D01*
X140152479Y-78130135D01*
X140225472Y-78079025D01*
X139500000Y-77353553D01*
X139146448Y-77000001D01*
X139853553Y-77000001D01*
X140579025Y-77725472D01*
X140630134Y-77652480D01*
X140726266Y-77446326D01*
X140785141Y-77226602D01*
X140804966Y-77000000D01*
X148554785Y-77000000D01*
X148573602Y-77203083D01*
X148629418Y-77399251D01*
X148720324Y-77581818D01*
X148843236Y-77744580D01*
X148993958Y-77881981D01*
X149148045Y-77977387D01*
X149167363Y-77989348D01*
X149357544Y-78063024D01*
X149558024Y-78100500D01*
X149761974Y-78100500D01*
X149761976Y-78100500D01*
X149962456Y-78063024D01*
X150152637Y-77989348D01*
X150326041Y-77881981D01*
X150435680Y-77782032D01*
X150476763Y-77744580D01*
X150476764Y-77744579D01*
X150599673Y-77581821D01*
X150599673Y-77581819D01*
X150599675Y-77581818D01*
X150645719Y-77489347D01*
X150690582Y-77399250D01*
X150746397Y-77203083D01*
X150765215Y-77000000D01*
X150746397Y-76796917D01*
X150745452Y-76793597D01*
X150706640Y-76657188D01*
X150690582Y-76600750D01*
X150671797Y-76563024D01*
X150599675Y-76418181D01*
X150476763Y-76255419D01*
X150326041Y-76118018D01*
X150152638Y-76010652D01*
X149962457Y-75936976D01*
X149876847Y-75920973D01*
X149761976Y-75899500D01*
X149558024Y-75899500D01*
X149461732Y-75917500D01*
X149357542Y-75936976D01*
X149167361Y-76010652D01*
X148993958Y-76118018D01*
X148843236Y-76255419D01*
X148720324Y-76418181D01*
X148629418Y-76600748D01*
X148573602Y-76796916D01*
X148554785Y-77000000D01*
X140804966Y-77000000D01*
X140785141Y-76773397D01*
X140726266Y-76553673D01*
X140630133Y-76347515D01*
X140579025Y-76274526D01*
X139853553Y-77000000D01*
X139853553Y-77000001D01*
X139146448Y-77000001D01*
X138420973Y-76274527D01*
X138369865Y-76347516D01*
X138273733Y-76553672D01*
X138214858Y-76773397D01*
X138195033Y-76999999D01*
X138214858Y-77226602D01*
X138273733Y-77446326D01*
X138346836Y-77603095D01*
X138358189Y-77663610D01*
X138339035Y-77722125D01*
X138294097Y-77764214D01*
X138234454Y-77779500D01*
X135407008Y-77779500D01*
X135341730Y-77760927D01*
X135296008Y-77710771D01*
X135283537Y-77644058D01*
X135308054Y-77580773D01*
X135362213Y-77539873D01*
X135492637Y-77489348D01*
X135666041Y-77381981D01*
X135733204Y-77320754D01*
X135816763Y-77244580D01*
X135825743Y-77232689D01*
X135939673Y-77081821D01*
X135939673Y-77081819D01*
X135939675Y-77081818D01*
X135993982Y-76972753D01*
X136030582Y-76899250D01*
X136086397Y-76703083D01*
X136105215Y-76500000D01*
X136086397Y-76296917D01*
X136083127Y-76285428D01*
X136082374Y-76220325D01*
X136114710Y-76163813D01*
X136357550Y-75920973D01*
X138774526Y-75920973D01*
X139500000Y-76646446D01*
X139500001Y-76646446D01*
X140225472Y-75920974D01*
X140225471Y-75920972D01*
X140152484Y-75869866D01*
X139946326Y-75773733D01*
X139726602Y-75714858D01*
X139500000Y-75695033D01*
X139273397Y-75714858D01*
X139053672Y-75773733D01*
X138847516Y-75869865D01*
X138774527Y-75920973D01*
X138774526Y-75920973D01*
X136357550Y-75920973D01*
X137441705Y-74836819D01*
X137481934Y-74809939D01*
X137529387Y-74800500D01*
X157318478Y-74800500D01*
X157322711Y-74800572D01*
X157386824Y-74802762D01*
X157386824Y-74802761D01*
X157386826Y-74802762D01*
X157426751Y-74793031D01*
X157439196Y-74790666D01*
X157479920Y-74785070D01*
X157496383Y-74777918D01*
X157516419Y-74771180D01*
X157533852Y-74766933D01*
X157569695Y-74746778D01*
X157581015Y-74741157D01*
X157618720Y-74724780D01*
X157632635Y-74713458D01*
X157650111Y-74701563D01*
X157665759Y-74692766D01*
X157694813Y-74663710D01*
X157704230Y-74655211D01*
X157736108Y-74629278D01*
X157746461Y-74614610D01*
X157760073Y-74598450D01*
X158246456Y-74112067D01*
X158297455Y-74081299D01*
X158356916Y-74077861D01*
X158478024Y-74100500D01*
X158681973Y-74100500D01*
X158681976Y-74100500D01*
X158803082Y-74077861D01*
X158862543Y-74081299D01*
G37*
%TD.AperFunction*%
%TA.AperFunction,Conductor*%
G36*
X182002562Y-60000605D02*
G01*
X182217600Y-60009500D01*
X182413455Y-60018052D01*
X182423330Y-60018881D01*
X182636706Y-60045479D01*
X182636793Y-60045490D01*
X182834945Y-60071577D01*
X182844192Y-60073153D01*
X183053521Y-60117044D01*
X183054765Y-60117312D01*
X183250386Y-60160680D01*
X183258901Y-60162889D01*
X183463665Y-60223850D01*
X183465325Y-60224359D01*
X183656696Y-60284698D01*
X183664453Y-60287431D01*
X183863363Y-60365046D01*
X183865513Y-60365911D01*
X184051024Y-60442752D01*
X184057972Y-60445886D01*
X184225903Y-60527982D01*
X184249587Y-60539561D01*
X184252383Y-60540972D01*
X184430420Y-60633652D01*
X184436636Y-60637118D01*
X184619793Y-60746255D01*
X184622929Y-60748187D01*
X184686491Y-60788681D01*
X184792282Y-60856078D01*
X184797710Y-60859741D01*
X184971184Y-60983599D01*
X184974616Y-60986140D01*
X185133912Y-61108372D01*
X185138567Y-61112126D01*
X185301226Y-61249891D01*
X185304838Y-61253072D01*
X185452925Y-61388769D01*
X185456807Y-61392486D01*
X185607512Y-61543191D01*
X185611232Y-61547076D01*
X185746921Y-61695155D01*
X185750107Y-61698772D01*
X185887872Y-61861431D01*
X185891626Y-61866086D01*
X186013858Y-62025382D01*
X186016399Y-62028814D01*
X186140257Y-62202288D01*
X186143920Y-62207716D01*
X186251800Y-62377052D01*
X186253743Y-62380205D01*
X186362880Y-62563362D01*
X186366346Y-62569578D01*
X186459026Y-62747615D01*
X186460437Y-62750411D01*
X186554099Y-62941997D01*
X186557260Y-62949005D01*
X186634051Y-63134395D01*
X186634991Y-63136734D01*
X186652157Y-63180724D01*
X186712559Y-63335523D01*
X186715302Y-63343309D01*
X186775602Y-63534554D01*
X186776186Y-63536460D01*
X186837105Y-63741084D01*
X186839321Y-63749627D01*
X186882671Y-63945166D01*
X186882971Y-63946559D01*
X186926844Y-64155802D01*
X186928422Y-64165062D01*
X186954459Y-64362829D01*
X186954568Y-64363677D01*
X186981114Y-64576641D01*
X186981948Y-64586570D01*
X186990513Y-64782728D01*
X186990525Y-64783013D01*
X186999394Y-64997438D01*
X186999500Y-65002562D01*
X186999500Y-101997438D01*
X186999394Y-102002563D01*
X186990525Y-102216987D01*
X186990513Y-102217271D01*
X186981948Y-102413428D01*
X186981114Y-102423357D01*
X186954568Y-102636321D01*
X186954459Y-102637169D01*
X186928422Y-102834936D01*
X186926844Y-102844196D01*
X186882971Y-103053439D01*
X186882671Y-103054832D01*
X186839321Y-103250371D01*
X186837105Y-103258914D01*
X186776186Y-103463538D01*
X186775602Y-103465444D01*
X186715302Y-103656689D01*
X186712559Y-103664475D01*
X186635008Y-103863224D01*
X186634051Y-103865603D01*
X186557260Y-104050993D01*
X186554099Y-104058001D01*
X186460437Y-104249587D01*
X186459026Y-104252383D01*
X186366346Y-104430420D01*
X186362880Y-104436636D01*
X186253743Y-104619793D01*
X186251800Y-104622946D01*
X186143920Y-104792282D01*
X186140257Y-104797710D01*
X186016399Y-104971184D01*
X186013858Y-104974616D01*
X185891626Y-105133912D01*
X185887872Y-105138567D01*
X185750107Y-105301226D01*
X185746908Y-105304858D01*
X185611254Y-105452899D01*
X185607512Y-105456807D01*
X185456807Y-105607512D01*
X185452899Y-105611254D01*
X185304858Y-105746908D01*
X185301226Y-105750107D01*
X185138567Y-105887872D01*
X185133912Y-105891626D01*
X184974616Y-106013858D01*
X184971184Y-106016399D01*
X184797710Y-106140257D01*
X184792282Y-106143920D01*
X184622946Y-106251800D01*
X184619793Y-106253743D01*
X184436636Y-106362880D01*
X184430420Y-106366346D01*
X184252383Y-106459026D01*
X184249587Y-106460437D01*
X184058001Y-106554099D01*
X184050993Y-106557260D01*
X183865603Y-106634051D01*
X183863224Y-106635008D01*
X183664475Y-106712559D01*
X183656689Y-106715302D01*
X183465444Y-106775602D01*
X183463538Y-106776186D01*
X183258914Y-106837105D01*
X183250371Y-106839321D01*
X183054832Y-106882671D01*
X183053439Y-106882971D01*
X182844196Y-106926844D01*
X182834936Y-106928422D01*
X182637169Y-106954459D01*
X182636321Y-106954568D01*
X182423357Y-106981114D01*
X182413428Y-106981948D01*
X182217381Y-106990508D01*
X182217097Y-106990520D01*
X182002563Y-106999394D01*
X181997438Y-106999500D01*
X77002562Y-106999500D01*
X76997437Y-106999394D01*
X76782901Y-106990520D01*
X76782617Y-106990508D01*
X76586570Y-106981948D01*
X76576641Y-106981114D01*
X76363677Y-106954568D01*
X76362829Y-106954459D01*
X76165062Y-106928422D01*
X76155802Y-106926844D01*
X75946559Y-106882971D01*
X75945166Y-106882671D01*
X75749627Y-106839321D01*
X75741084Y-106837105D01*
X75536460Y-106776186D01*
X75534554Y-106775602D01*
X75343309Y-106715302D01*
X75335523Y-106712559D01*
X75206985Y-106662404D01*
X75136734Y-106634991D01*
X75134395Y-106634051D01*
X74949005Y-106557260D01*
X74941997Y-106554099D01*
X74750411Y-106460437D01*
X74747615Y-106459026D01*
X74569578Y-106366346D01*
X74563362Y-106362880D01*
X74380205Y-106253743D01*
X74377052Y-106251800D01*
X74207716Y-106143920D01*
X74202288Y-106140257D01*
X74028814Y-106016399D01*
X74025382Y-106013858D01*
X73866086Y-105891626D01*
X73861431Y-105887872D01*
X73698772Y-105750107D01*
X73695155Y-105746921D01*
X73547076Y-105611232D01*
X73543191Y-105607512D01*
X73392486Y-105456807D01*
X73388769Y-105452925D01*
X73253072Y-105304838D01*
X73249891Y-105301226D01*
X73112126Y-105138567D01*
X73108372Y-105133912D01*
X72986140Y-104974616D01*
X72983599Y-104971184D01*
X72859741Y-104797710D01*
X72856078Y-104792282D01*
X72748198Y-104622946D01*
X72746255Y-104619793D01*
X72637118Y-104436636D01*
X72633652Y-104430420D01*
X72540972Y-104252383D01*
X72539561Y-104249587D01*
X72527982Y-104225903D01*
X72445886Y-104057972D01*
X72442752Y-104051024D01*
X72365911Y-103865513D01*
X72365046Y-103863363D01*
X72287431Y-103664453D01*
X72284696Y-103656689D01*
X72282745Y-103650500D01*
X72224359Y-103465325D01*
X72223850Y-103463665D01*
X72162889Y-103258901D01*
X72160680Y-103250386D01*
X72117312Y-103054765D01*
X72117027Y-103053439D01*
X72111495Y-103027057D01*
X72073153Y-102844192D01*
X72071576Y-102834936D01*
X72045490Y-102636793D01*
X72045483Y-102636743D01*
X72018881Y-102423330D01*
X72018052Y-102413455D01*
X72009486Y-102217271D01*
X72003302Y-102067764D01*
X75145787Y-102067764D01*
X75175413Y-102337016D01*
X75209610Y-102467820D01*
X75243928Y-102599088D01*
X75339034Y-102822891D01*
X75349871Y-102848392D01*
X75490982Y-103079611D01*
X75656421Y-103278407D01*
X75664255Y-103287820D01*
X75865998Y-103468582D01*
X76091910Y-103618044D01*
X76103197Y-103623335D01*
X76337177Y-103733021D01*
X76537710Y-103793352D01*
X76596569Y-103811060D01*
X76864561Y-103850500D01*
X77067631Y-103850500D01*
X77067634Y-103850500D01*
X77270156Y-103835677D01*
X77343782Y-103819276D01*
X77534553Y-103776780D01*
X77787558Y-103680014D01*
X78023777Y-103547441D01*
X78238177Y-103381888D01*
X78426186Y-103186881D01*
X78583799Y-102966579D01*
X78707656Y-102725675D01*
X78795118Y-102469305D01*
X78844319Y-102202933D01*
X78851735Y-102000000D01*
X84804571Y-102000000D01*
X84806239Y-102018003D01*
X84824243Y-102212310D01*
X84882595Y-102417390D01*
X84977631Y-102608252D01*
X85106126Y-102778405D01*
X85106128Y-102778407D01*
X85263698Y-102922052D01*
X85444981Y-103034298D01*
X85643802Y-103111321D01*
X85853390Y-103150500D01*
X86066608Y-103150500D01*
X86066610Y-103150500D01*
X86276198Y-103111321D01*
X86475019Y-103034298D01*
X86656302Y-102922052D01*
X86813872Y-102778407D01*
X86942366Y-102608255D01*
X87009324Y-102473783D01*
X87055722Y-102423213D01*
X87121913Y-102405066D01*
X87187617Y-102424905D01*
X87232705Y-102476651D01*
X87326399Y-102677576D01*
X87461893Y-102871081D01*
X87628918Y-103038106D01*
X87822423Y-103173600D01*
X88036507Y-103273430D01*
X88249999Y-103330635D01*
X88250000Y-103330636D01*
X88250000Y-102250000D01*
X88750000Y-102250000D01*
X88750000Y-103330635D01*
X88963492Y-103273430D01*
X89177576Y-103173600D01*
X89371077Y-103038109D01*
X89493521Y-102915665D01*
X89546268Y-102884369D01*
X89607561Y-102882180D01*
X89662405Y-102909633D01*
X89697385Y-102960012D01*
X89746647Y-103092088D01*
X89832811Y-103207188D01*
X89947910Y-103293352D01*
X90082624Y-103343597D01*
X90142176Y-103350000D01*
X90790000Y-103350000D01*
X90790000Y-102250000D01*
X91290000Y-102250000D01*
X91290000Y-103350000D01*
X91937824Y-103350000D01*
X91997375Y-103343597D01*
X92132089Y-103293352D01*
X92247188Y-103207188D01*
X92333352Y-103092089D01*
X92383597Y-102957375D01*
X92390000Y-102897824D01*
X92390000Y-102500000D01*
X109764571Y-102500000D01*
X109784243Y-102712310D01*
X109842595Y-102917390D01*
X109937631Y-103108252D01*
X110066126Y-103278405D01*
X110066128Y-103278407D01*
X110223698Y-103422052D01*
X110404981Y-103534298D01*
X110603802Y-103611321D01*
X110813390Y-103650500D01*
X111026608Y-103650500D01*
X111026610Y-103650500D01*
X111236198Y-103611321D01*
X111435019Y-103534298D01*
X111616302Y-103422052D01*
X111773872Y-103278407D01*
X111902366Y-103108255D01*
X111902366Y-103108253D01*
X111902368Y-103108252D01*
X111969323Y-102973786D01*
X111997405Y-102917389D01*
X112055756Y-102712310D01*
X112066529Y-102596047D01*
X112086633Y-102538996D01*
X112129410Y-102499999D01*
X112250589Y-102499999D01*
X112293367Y-102538996D01*
X112313471Y-102596048D01*
X112324243Y-102712310D01*
X112382595Y-102917390D01*
X112477631Y-103108252D01*
X112606126Y-103278405D01*
X112606128Y-103278407D01*
X112763698Y-103422052D01*
X112944981Y-103534298D01*
X113143802Y-103611321D01*
X113353390Y-103650500D01*
X113566608Y-103650500D01*
X113566610Y-103650500D01*
X113776198Y-103611321D01*
X113975019Y-103534298D01*
X114156302Y-103422052D01*
X114313872Y-103278407D01*
X114442366Y-103108255D01*
X114442366Y-103108253D01*
X114442368Y-103108252D01*
X114509323Y-102973786D01*
X114537405Y-102917389D01*
X114595756Y-102712310D01*
X114602029Y-102644605D01*
X114623200Y-102585971D01*
X114670228Y-102545047D01*
X114731226Y-102532179D01*
X114790777Y-102550620D01*
X114833829Y-102595708D01*
X114849500Y-102656047D01*
X114849500Y-103394867D01*
X114852414Y-103419988D01*
X114852414Y-103419990D01*
X114852415Y-103419991D01*
X114873869Y-103468580D01*
X114897795Y-103522767D01*
X114977232Y-103602204D01*
X114977233Y-103602204D01*
X114977235Y-103602206D01*
X115080009Y-103647585D01*
X115105135Y-103650500D01*
X116894864Y-103650499D01*
X116894867Y-103650499D01*
X116907427Y-103649042D01*
X116919991Y-103647585D01*
X117022765Y-103602206D01*
X117102206Y-103522765D01*
X117147585Y-103419991D01*
X117150500Y-103394867D01*
X124269500Y-103394867D01*
X124272414Y-103419988D01*
X124272414Y-103419990D01*
X124272415Y-103419991D01*
X124293869Y-103468580D01*
X124317795Y-103522767D01*
X124397232Y-103602204D01*
X124397233Y-103602204D01*
X124397235Y-103602206D01*
X124500009Y-103647585D01*
X124525135Y-103650500D01*
X126314864Y-103650499D01*
X126314867Y-103650499D01*
X126327427Y-103649042D01*
X126339991Y-103647585D01*
X126442765Y-103602206D01*
X126522206Y-103522765D01*
X126567585Y-103419991D01*
X126570500Y-103394865D01*
X126570499Y-102656046D01*
X126586170Y-102595710D01*
X126629221Y-102550622D01*
X126688772Y-102532181D01*
X126749770Y-102545049D01*
X126796799Y-102585972D01*
X126817970Y-102644607D01*
X126824243Y-102712310D01*
X126882595Y-102917390D01*
X126977631Y-103108252D01*
X127106126Y-103278405D01*
X127106128Y-103278407D01*
X127263698Y-103422052D01*
X127444981Y-103534298D01*
X127643802Y-103611321D01*
X127853390Y-103650500D01*
X128066608Y-103650500D01*
X128066610Y-103650500D01*
X128276198Y-103611321D01*
X128475019Y-103534298D01*
X128656302Y-103422052D01*
X128813872Y-103278407D01*
X128942366Y-103108255D01*
X128942366Y-103108253D01*
X128942368Y-103108252D01*
X129009323Y-102973786D01*
X129037405Y-102917389D01*
X129095756Y-102712310D01*
X129106529Y-102596047D01*
X129126633Y-102538996D01*
X129169410Y-102499999D01*
X129290589Y-102499999D01*
X129333367Y-102538996D01*
X129353471Y-102596048D01*
X129364243Y-102712310D01*
X129422595Y-102917390D01*
X129517631Y-103108252D01*
X129646126Y-103278405D01*
X129646128Y-103278407D01*
X129803698Y-103422052D01*
X129984981Y-103534298D01*
X130183802Y-103611321D01*
X130393390Y-103650500D01*
X130606608Y-103650500D01*
X130606610Y-103650500D01*
X130816198Y-103611321D01*
X131015019Y-103534298D01*
X131196302Y-103422052D01*
X131226122Y-103394867D01*
X140769500Y-103394867D01*
X140772414Y-103419988D01*
X140772414Y-103419990D01*
X140772415Y-103419991D01*
X140793869Y-103468580D01*
X140817795Y-103522767D01*
X140897232Y-103602204D01*
X140897233Y-103602204D01*
X140897235Y-103602206D01*
X141000009Y-103647585D01*
X141025135Y-103650500D01*
X142814864Y-103650499D01*
X142814867Y-103650499D01*
X142827427Y-103649042D01*
X142839991Y-103647585D01*
X142942765Y-103602206D01*
X143022206Y-103522765D01*
X143067585Y-103419991D01*
X143070500Y-103394865D01*
X143070499Y-102656046D01*
X143086170Y-102595710D01*
X143129221Y-102550622D01*
X143188772Y-102532181D01*
X143249770Y-102545049D01*
X143296799Y-102585972D01*
X143317970Y-102644607D01*
X143324243Y-102712310D01*
X143382595Y-102917390D01*
X143477631Y-103108252D01*
X143606126Y-103278405D01*
X143606128Y-103278407D01*
X143763698Y-103422052D01*
X143944981Y-103534298D01*
X144143802Y-103611321D01*
X144353390Y-103650500D01*
X144566608Y-103650500D01*
X144566610Y-103650500D01*
X144776198Y-103611321D01*
X144975019Y-103534298D01*
X145156302Y-103422052D01*
X145313872Y-103278407D01*
X145442366Y-103108255D01*
X145442366Y-103108253D01*
X145442368Y-103108252D01*
X145509323Y-102973786D01*
X145537405Y-102917389D01*
X145595756Y-102712310D01*
X145606529Y-102596047D01*
X145626633Y-102538996D01*
X145669410Y-102499999D01*
X145790589Y-102499999D01*
X145833367Y-102538996D01*
X145853471Y-102596048D01*
X145864243Y-102712310D01*
X145922595Y-102917390D01*
X146017631Y-103108252D01*
X146146126Y-103278405D01*
X146146128Y-103278407D01*
X146303698Y-103422052D01*
X146484981Y-103534298D01*
X146683802Y-103611321D01*
X146893390Y-103650500D01*
X147106608Y-103650500D01*
X147106610Y-103650500D01*
X147316198Y-103611321D01*
X147515019Y-103534298D01*
X147696302Y-103422052D01*
X147853872Y-103278407D01*
X147982366Y-103108255D01*
X147982366Y-103108253D01*
X147982368Y-103108252D01*
X148049323Y-102973786D01*
X148077405Y-102917389D01*
X148135756Y-102712310D01*
X148155429Y-102500000D01*
X148155429Y-102499999D01*
X158804571Y-102499999D01*
X158824243Y-102712310D01*
X158882595Y-102917390D01*
X158977631Y-103108252D01*
X159106126Y-103278405D01*
X159106128Y-103278407D01*
X159263698Y-103422052D01*
X159444981Y-103534298D01*
X159643802Y-103611321D01*
X159853390Y-103650500D01*
X160066608Y-103650500D01*
X160066610Y-103650500D01*
X160276198Y-103611321D01*
X160475019Y-103534298D01*
X160656302Y-103422052D01*
X160813872Y-103278407D01*
X160942366Y-103108255D01*
X161009324Y-102973783D01*
X161055722Y-102923213D01*
X161121913Y-102905066D01*
X161187617Y-102924905D01*
X161232705Y-102976651D01*
X161326399Y-103177576D01*
X161461893Y-103371081D01*
X161628918Y-103538106D01*
X161822423Y-103673600D01*
X162036507Y-103773430D01*
X162249999Y-103830635D01*
X162250000Y-103830636D01*
X162250000Y-102750000D01*
X162750000Y-102750000D01*
X162750000Y-103830635D01*
X162963492Y-103773430D01*
X163177576Y-103673600D01*
X163371077Y-103538109D01*
X163493521Y-103415665D01*
X163546268Y-103384369D01*
X163607561Y-103382180D01*
X163662405Y-103409633D01*
X163697385Y-103460012D01*
X163746647Y-103592088D01*
X163832811Y-103707188D01*
X163947910Y-103793352D01*
X164082624Y-103843597D01*
X164142176Y-103850000D01*
X164790000Y-103850000D01*
X164790000Y-102750000D01*
X165290000Y-102750000D01*
X165290000Y-103850000D01*
X165937824Y-103850000D01*
X165997375Y-103843597D01*
X166132089Y-103793352D01*
X166247188Y-103707188D01*
X166333352Y-103592089D01*
X166383597Y-103457375D01*
X166390000Y-103397824D01*
X166390000Y-102750000D01*
X165290000Y-102750000D01*
X164790000Y-102750000D01*
X162750000Y-102750000D01*
X162250000Y-102750000D01*
X162250000Y-102250000D01*
X162750000Y-102250000D01*
X164790000Y-102250000D01*
X164790000Y-101150000D01*
X165290000Y-101150000D01*
X165290000Y-102250000D01*
X166390000Y-102250000D01*
X166390000Y-102067764D01*
X180145787Y-102067764D01*
X180175413Y-102337016D01*
X180209610Y-102467820D01*
X180243928Y-102599088D01*
X180339034Y-102822891D01*
X180349871Y-102848392D01*
X180490982Y-103079611D01*
X180656421Y-103278407D01*
X180664255Y-103287820D01*
X180865998Y-103468582D01*
X181091910Y-103618044D01*
X181103197Y-103623335D01*
X181337177Y-103733021D01*
X181537710Y-103793352D01*
X181596569Y-103811060D01*
X181864561Y-103850500D01*
X182067631Y-103850500D01*
X182067634Y-103850500D01*
X182270156Y-103835677D01*
X182343782Y-103819276D01*
X182534553Y-103776780D01*
X182787558Y-103680014D01*
X183023777Y-103547441D01*
X183238177Y-103381888D01*
X183426186Y-103186881D01*
X183583799Y-102966579D01*
X183707656Y-102725675D01*
X183795118Y-102469305D01*
X183844319Y-102202933D01*
X183854212Y-101932235D01*
X183824586Y-101662982D01*
X183756072Y-101400912D01*
X183650130Y-101151610D01*
X183509018Y-100920390D01*
X183509017Y-100920388D01*
X183335746Y-100712181D01*
X183230758Y-100618112D01*
X183134002Y-100531418D01*
X182908090Y-100381956D01*
X182908086Y-100381954D01*
X182662822Y-100266978D01*
X182403437Y-100188941D01*
X182403431Y-100188940D01*
X182135439Y-100149500D01*
X181932369Y-100149500D01*
X181932366Y-100149500D01*
X181729843Y-100164322D01*
X181465449Y-100223219D01*
X181212441Y-100319986D01*
X180976223Y-100452559D01*
X180761825Y-100618109D01*
X180573813Y-100813120D01*
X180416201Y-101033420D01*
X180292342Y-101274329D01*
X180204881Y-101530695D01*
X180155680Y-101797066D01*
X180145787Y-102067764D01*
X166390000Y-102067764D01*
X166390000Y-101602176D01*
X166383597Y-101542624D01*
X166333352Y-101407910D01*
X166247188Y-101292811D01*
X166132089Y-101206647D01*
X165997375Y-101156402D01*
X165937824Y-101150000D01*
X165290000Y-101150000D01*
X164790000Y-101150000D01*
X164142176Y-101150000D01*
X164082624Y-101156402D01*
X163947910Y-101206647D01*
X163832811Y-101292811D01*
X163746647Y-101407911D01*
X163697385Y-101539987D01*
X163662405Y-101590366D01*
X163607561Y-101617819D01*
X163546268Y-101615630D01*
X163493522Y-101584334D01*
X163371081Y-101461893D01*
X163177576Y-101326399D01*
X162963492Y-101226569D01*
X162750000Y-101169364D01*
X162750000Y-102250000D01*
X162250000Y-102250000D01*
X162250000Y-101169364D01*
X162249999Y-101169364D01*
X162036507Y-101226569D01*
X161822421Y-101326400D01*
X161628921Y-101461890D01*
X161461890Y-101628921D01*
X161326401Y-101822419D01*
X161232705Y-102023349D01*
X161187617Y-102075094D01*
X161121913Y-102094933D01*
X161055722Y-102076786D01*
X161009324Y-102026216D01*
X160942366Y-101891745D01*
X160942365Y-101891744D01*
X160942365Y-101891743D01*
X160813873Y-101721594D01*
X160656301Y-101577947D01*
X160493645Y-101477235D01*
X160475019Y-101465702D01*
X160475017Y-101465701D01*
X160276198Y-101388679D01*
X160066610Y-101349500D01*
X159853390Y-101349500D01*
X159713664Y-101375619D01*
X159643801Y-101388679D01*
X159444982Y-101465701D01*
X159263698Y-101577947D01*
X159106126Y-101721594D01*
X158977631Y-101891747D01*
X158882595Y-102082609D01*
X158824243Y-102287689D01*
X158804571Y-102499999D01*
X148155429Y-102499999D01*
X148135756Y-102287690D01*
X148077405Y-102082611D01*
X148049323Y-102026214D01*
X147982368Y-101891747D01*
X147853873Y-101721594D01*
X147696301Y-101577947D01*
X147533645Y-101477235D01*
X147515019Y-101465702D01*
X147515017Y-101465701D01*
X147316198Y-101388679D01*
X147106610Y-101349500D01*
X146893390Y-101349500D01*
X146753664Y-101375619D01*
X146683801Y-101388679D01*
X146484982Y-101465701D01*
X146303698Y-101577947D01*
X146146126Y-101721594D01*
X146017631Y-101891747D01*
X145922595Y-102082609D01*
X145864243Y-102287689D01*
X145853471Y-102403951D01*
X145833367Y-102461003D01*
X145790589Y-102499999D01*
X145669410Y-102499999D01*
X145626633Y-102461003D01*
X145606529Y-102403951D01*
X145595756Y-102287689D01*
X145537404Y-102082609D01*
X145442368Y-101891747D01*
X145313873Y-101721594D01*
X145156301Y-101577947D01*
X144993645Y-101477235D01*
X144975019Y-101465702D01*
X144975017Y-101465701D01*
X144776198Y-101388679D01*
X144566610Y-101349500D01*
X144353390Y-101349500D01*
X144213664Y-101375619D01*
X144143801Y-101388679D01*
X143944982Y-101465701D01*
X143763698Y-101577947D01*
X143606126Y-101721594D01*
X143477631Y-101891747D01*
X143382595Y-102082609D01*
X143324243Y-102287689D01*
X143317970Y-102355393D01*
X143296799Y-102414029D01*
X143249770Y-102454952D01*
X143188772Y-102467820D01*
X143129221Y-102449379D01*
X143086170Y-102404291D01*
X143070499Y-102343952D01*
X143070499Y-101605133D01*
X143068750Y-101590059D01*
X143067585Y-101580009D01*
X143022206Y-101477235D01*
X143022204Y-101477233D01*
X143022204Y-101477232D01*
X142942767Y-101397795D01*
X142942765Y-101397794D01*
X142839991Y-101352415D01*
X142814865Y-101349500D01*
X142814863Y-101349500D01*
X141025132Y-101349500D01*
X141000011Y-101352414D01*
X140897232Y-101397795D01*
X140817795Y-101477232D01*
X140772415Y-101580009D01*
X140769500Y-101605136D01*
X140769500Y-103394867D01*
X131226122Y-103394867D01*
X131353872Y-103278407D01*
X131482366Y-103108255D01*
X131482366Y-103108253D01*
X131482368Y-103108252D01*
X131549323Y-102973786D01*
X131577405Y-102917389D01*
X131635756Y-102712310D01*
X131655429Y-102500000D01*
X131635756Y-102287690D01*
X131577405Y-102082611D01*
X131549323Y-102026214D01*
X131482368Y-101891747D01*
X131353873Y-101721594D01*
X131196301Y-101577947D01*
X131033645Y-101477235D01*
X131015019Y-101465702D01*
X131015017Y-101465701D01*
X130816198Y-101388679D01*
X130606610Y-101349500D01*
X130393390Y-101349500D01*
X130253664Y-101375619D01*
X130183801Y-101388679D01*
X129984982Y-101465701D01*
X129803698Y-101577947D01*
X129646126Y-101721594D01*
X129517631Y-101891747D01*
X129422595Y-102082609D01*
X129364243Y-102287689D01*
X129353471Y-102403951D01*
X129333367Y-102461003D01*
X129290589Y-102499999D01*
X129169410Y-102499999D01*
X129126633Y-102461003D01*
X129106529Y-102403951D01*
X129095756Y-102287689D01*
X129037404Y-102082609D01*
X128942368Y-101891747D01*
X128813873Y-101721594D01*
X128656301Y-101577947D01*
X128493645Y-101477235D01*
X128475019Y-101465702D01*
X128475017Y-101465701D01*
X128276198Y-101388679D01*
X128066610Y-101349500D01*
X127853390Y-101349500D01*
X127713664Y-101375619D01*
X127643801Y-101388679D01*
X127444982Y-101465701D01*
X127263698Y-101577947D01*
X127106126Y-101721594D01*
X126977631Y-101891747D01*
X126882595Y-102082609D01*
X126824243Y-102287689D01*
X126817970Y-102355393D01*
X126796799Y-102414029D01*
X126749770Y-102454952D01*
X126688772Y-102467820D01*
X126629221Y-102449379D01*
X126586170Y-102404291D01*
X126570499Y-102343952D01*
X126570499Y-101605133D01*
X126568750Y-101590059D01*
X126567585Y-101580009D01*
X126522206Y-101477235D01*
X126522204Y-101477233D01*
X126522204Y-101477232D01*
X126442767Y-101397795D01*
X126442765Y-101397794D01*
X126339991Y-101352415D01*
X126314865Y-101349500D01*
X126314863Y-101349500D01*
X124525132Y-101349500D01*
X124500011Y-101352414D01*
X124397232Y-101397795D01*
X124317795Y-101477232D01*
X124272415Y-101580009D01*
X124269500Y-101605136D01*
X124269500Y-103394867D01*
X117150500Y-103394867D01*
X117150500Y-103394865D01*
X117150499Y-101605136D01*
X117147585Y-101580009D01*
X117102206Y-101477235D01*
X117102204Y-101477233D01*
X117102204Y-101477232D01*
X117022767Y-101397795D01*
X117022765Y-101397794D01*
X116919991Y-101352415D01*
X116894865Y-101349500D01*
X116894863Y-101349500D01*
X115105132Y-101349500D01*
X115080011Y-101352414D01*
X114977232Y-101397795D01*
X114897795Y-101477232D01*
X114852415Y-101580009D01*
X114849500Y-101605136D01*
X114849500Y-102343950D01*
X114833829Y-102404289D01*
X114790777Y-102449377D01*
X114731226Y-102467818D01*
X114670228Y-102454950D01*
X114623200Y-102414026D01*
X114602029Y-102355390D01*
X114595756Y-102287689D01*
X114537404Y-102082609D01*
X114442368Y-101891747D01*
X114313873Y-101721594D01*
X114156301Y-101577947D01*
X113993645Y-101477235D01*
X113975019Y-101465702D01*
X113975017Y-101465701D01*
X113776198Y-101388679D01*
X113566610Y-101349500D01*
X113353390Y-101349500D01*
X113213664Y-101375619D01*
X113143801Y-101388679D01*
X112944982Y-101465701D01*
X112763698Y-101577947D01*
X112606126Y-101721594D01*
X112477631Y-101891747D01*
X112382595Y-102082609D01*
X112324243Y-102287689D01*
X112313471Y-102403951D01*
X112293367Y-102461003D01*
X112250589Y-102499999D01*
X112129410Y-102499999D01*
X112086633Y-102461003D01*
X112066529Y-102403951D01*
X112055756Y-102287689D01*
X111997404Y-102082609D01*
X111902368Y-101891747D01*
X111773873Y-101721594D01*
X111616301Y-101577947D01*
X111453645Y-101477235D01*
X111435019Y-101465702D01*
X111435017Y-101465701D01*
X111236198Y-101388679D01*
X111026610Y-101349500D01*
X110813390Y-101349500D01*
X110673664Y-101375619D01*
X110603801Y-101388679D01*
X110404982Y-101465701D01*
X110223698Y-101577947D01*
X110066126Y-101721594D01*
X109937631Y-101891747D01*
X109842595Y-102082609D01*
X109784243Y-102287689D01*
X109764571Y-102500000D01*
X92390000Y-102500000D01*
X92390000Y-102250000D01*
X91290000Y-102250000D01*
X90790000Y-102250000D01*
X88750000Y-102250000D01*
X88250000Y-102250000D01*
X88250000Y-101750000D01*
X88750000Y-101750000D01*
X90790000Y-101750000D01*
X90790000Y-100650000D01*
X91290000Y-100650000D01*
X91290000Y-101750000D01*
X92390000Y-101750000D01*
X92390000Y-101102176D01*
X92383597Y-101042624D01*
X92333352Y-100907910D01*
X92247188Y-100792811D01*
X92132089Y-100706647D01*
X91997375Y-100656402D01*
X91937824Y-100650000D01*
X91290000Y-100650000D01*
X90790000Y-100650000D01*
X90142176Y-100650000D01*
X90082624Y-100656402D01*
X89947910Y-100706647D01*
X89832811Y-100792811D01*
X89746647Y-100907911D01*
X89697385Y-101039987D01*
X89662405Y-101090366D01*
X89607561Y-101117819D01*
X89546268Y-101115630D01*
X89493522Y-101084334D01*
X89371081Y-100961893D01*
X89177576Y-100826399D01*
X88963492Y-100726569D01*
X88750000Y-100669364D01*
X88750000Y-101750000D01*
X88250000Y-101750000D01*
X88250000Y-100669364D01*
X88249999Y-100669364D01*
X88036507Y-100726569D01*
X87822421Y-100826400D01*
X87628921Y-100961890D01*
X87461890Y-101128921D01*
X87326401Y-101322419D01*
X87232705Y-101523349D01*
X87187617Y-101575094D01*
X87121913Y-101594933D01*
X87055722Y-101576786D01*
X87009324Y-101526216D01*
X86942366Y-101391745D01*
X86942365Y-101391744D01*
X86942365Y-101391743D01*
X86813873Y-101221594D01*
X86656301Y-101077947D01*
X86475017Y-100965701D01*
X86276198Y-100888679D01*
X86066610Y-100849500D01*
X85853390Y-100849500D01*
X85713664Y-100875619D01*
X85643801Y-100888679D01*
X85444982Y-100965701D01*
X85263698Y-101077947D01*
X85106126Y-101221594D01*
X84977631Y-101391747D01*
X84882595Y-101582609D01*
X84824243Y-101787689D01*
X84810850Y-101932235D01*
X84804571Y-102000000D01*
X78851735Y-102000000D01*
X78854212Y-101932235D01*
X78824586Y-101662982D01*
X78756072Y-101400912D01*
X78650130Y-101151610D01*
X78509018Y-100920390D01*
X78509017Y-100920388D01*
X78335746Y-100712181D01*
X78230758Y-100618112D01*
X78134002Y-100531418D01*
X77908090Y-100381956D01*
X77908086Y-100381954D01*
X77662822Y-100266978D01*
X77403437Y-100188941D01*
X77403431Y-100188940D01*
X77135439Y-100149500D01*
X76932369Y-100149500D01*
X76932366Y-100149500D01*
X76729843Y-100164322D01*
X76465449Y-100223219D01*
X76212441Y-100319986D01*
X75976223Y-100452559D01*
X75761825Y-100618109D01*
X75573813Y-100813120D01*
X75416201Y-101033420D01*
X75292342Y-101274329D01*
X75204881Y-101530695D01*
X75155680Y-101797066D01*
X75145787Y-102067764D01*
X72003302Y-102067764D01*
X72000605Y-102002562D01*
X72000500Y-101997439D01*
X72000500Y-97500000D01*
X152314785Y-97500000D01*
X152333602Y-97703083D01*
X152389418Y-97899251D01*
X152480324Y-98081818D01*
X152603236Y-98244580D01*
X152753958Y-98381981D01*
X152927361Y-98489347D01*
X152927363Y-98489348D01*
X153117544Y-98563024D01*
X153318024Y-98600500D01*
X153521974Y-98600500D01*
X153521976Y-98600500D01*
X153722456Y-98563024D01*
X153912637Y-98489348D01*
X154086041Y-98381981D01*
X154236764Y-98244579D01*
X154359673Y-98081821D01*
X154359673Y-98081819D01*
X154359675Y-98081818D01*
X154405313Y-97990161D01*
X154450582Y-97899250D01*
X154506397Y-97703083D01*
X154525215Y-97500000D01*
X162474785Y-97500000D01*
X162493602Y-97703083D01*
X162549418Y-97899251D01*
X162640324Y-98081818D01*
X162763236Y-98244580D01*
X162913958Y-98381981D01*
X163087361Y-98489347D01*
X163087363Y-98489348D01*
X163277544Y-98563024D01*
X163478024Y-98600500D01*
X163681974Y-98600500D01*
X163681976Y-98600500D01*
X163882456Y-98563024D01*
X164072637Y-98489348D01*
X164246041Y-98381981D01*
X164396764Y-98244579D01*
X164519673Y-98081821D01*
X164519673Y-98081819D01*
X164519675Y-98081818D01*
X164565313Y-97990161D01*
X164610582Y-97899250D01*
X164666397Y-97703083D01*
X164685215Y-97500000D01*
X164666397Y-97296917D01*
X164610582Y-97100750D01*
X164523534Y-96925932D01*
X164519675Y-96918181D01*
X164396763Y-96755419D01*
X164390819Y-96750000D01*
X173435000Y-96750000D01*
X173435000Y-96775361D01*
X173449829Y-96925932D01*
X173508442Y-97119151D01*
X173603620Y-97297215D01*
X173731707Y-97453292D01*
X173887784Y-97581379D01*
X174065849Y-97676558D01*
X174210000Y-97720285D01*
X174210000Y-96750000D01*
X173435000Y-96750000D01*
X164390819Y-96750000D01*
X164246041Y-96618018D01*
X164072638Y-96510652D01*
X163882457Y-96436976D01*
X163806433Y-96422765D01*
X163681976Y-96399500D01*
X163478024Y-96399500D01*
X163409625Y-96412286D01*
X163277542Y-96436976D01*
X163087361Y-96510652D01*
X162913958Y-96618018D01*
X162763236Y-96755419D01*
X162640324Y-96918181D01*
X162549418Y-97100748D01*
X162493602Y-97296916D01*
X162474785Y-97500000D01*
X154525215Y-97500000D01*
X154506397Y-97296917D01*
X154450582Y-97100750D01*
X154363534Y-96925932D01*
X154359675Y-96918181D01*
X154236763Y-96755419D01*
X154086041Y-96618018D01*
X153912638Y-96510652D01*
X153722457Y-96436976D01*
X153646433Y-96422765D01*
X153521976Y-96399500D01*
X153318024Y-96399500D01*
X153249625Y-96412286D01*
X153117542Y-96436976D01*
X152927361Y-96510652D01*
X152753958Y-96618018D01*
X152603236Y-96755419D01*
X152480324Y-96918181D01*
X152389418Y-97100748D01*
X152333602Y-97296916D01*
X152314785Y-97500000D01*
X72000500Y-97500000D01*
X72000500Y-96294867D01*
X112134500Y-96294867D01*
X112137414Y-96319988D01*
X112137414Y-96319990D01*
X112137415Y-96319991D01*
X112164786Y-96381981D01*
X112182795Y-96422767D01*
X112262232Y-96502204D01*
X112262233Y-96502204D01*
X112262235Y-96502206D01*
X112365009Y-96547585D01*
X112390135Y-96550500D01*
X113529864Y-96550499D01*
X113529867Y-96550499D01*
X113542427Y-96549041D01*
X113554991Y-96547585D01*
X113657765Y-96502206D01*
X113685328Y-96474642D01*
X113733417Y-96444814D01*
X113789753Y-96439459D01*
X113828295Y-96454215D01*
X113828521Y-96453649D01*
X114007850Y-96525100D01*
X114007853Y-96525101D01*
X114185045Y-96554150D01*
X114364339Y-96544429D01*
X114537351Y-96496393D01*
X114638703Y-96442658D01*
X114684906Y-96428785D01*
X114732911Y-96433595D01*
X114775447Y-96456361D01*
X114927784Y-96581379D01*
X115105849Y-96676558D01*
X115250000Y-96720285D01*
X115250000Y-95750000D01*
X115750000Y-95750000D01*
X115750000Y-96720285D01*
X115894150Y-96676558D01*
X116072215Y-96581379D01*
X116228292Y-96453292D01*
X116356379Y-96297215D01*
X116451557Y-96119151D01*
X116510170Y-95925932D01*
X116525000Y-95775361D01*
X116525000Y-95750000D01*
X115750000Y-95750000D01*
X115250000Y-95750000D01*
X115250000Y-95500000D01*
X119314785Y-95500000D01*
X119333602Y-95703083D01*
X119389418Y-95899251D01*
X119480324Y-96081818D01*
X119603236Y-96244580D01*
X119753958Y-96381981D01*
X119927361Y-96489347D01*
X119927363Y-96489348D01*
X120117544Y-96563024D01*
X120318024Y-96600500D01*
X120521974Y-96600500D01*
X120521976Y-96600500D01*
X120722456Y-96563024D01*
X120912637Y-96489348D01*
X121086041Y-96381981D01*
X121194527Y-96283083D01*
X121236763Y-96244580D01*
X121305846Y-96153099D01*
X121359673Y-96081821D01*
X121359673Y-96081819D01*
X121359675Y-96081818D01*
X121437296Y-95925932D01*
X121450582Y-95899250D01*
X121506397Y-95703083D01*
X121525215Y-95500000D01*
X129474785Y-95500000D01*
X129493602Y-95703083D01*
X129549418Y-95899251D01*
X129640324Y-96081818D01*
X129763236Y-96244580D01*
X129913958Y-96381981D01*
X130087361Y-96489347D01*
X130087363Y-96489348D01*
X130277544Y-96563024D01*
X130478024Y-96600500D01*
X130681974Y-96600500D01*
X130681976Y-96600500D01*
X130882456Y-96563024D01*
X131072637Y-96489348D01*
X131246041Y-96381981D01*
X131354527Y-96283083D01*
X131396763Y-96244580D01*
X131465846Y-96153099D01*
X131519673Y-96081821D01*
X131519673Y-96081819D01*
X131519675Y-96081818D01*
X131597296Y-95925932D01*
X131610582Y-95899250D01*
X131666397Y-95703083D01*
X131677802Y-95580000D01*
X133894785Y-95580000D01*
X133913602Y-95783083D01*
X133969418Y-95979251D01*
X134060324Y-96161818D01*
X134183236Y-96324580D01*
X134333958Y-96461981D01*
X134497149Y-96563024D01*
X134507363Y-96569348D01*
X134697544Y-96643024D01*
X134898024Y-96680500D01*
X135101974Y-96680500D01*
X135101976Y-96680500D01*
X135302456Y-96643024D01*
X135492637Y-96569348D01*
X135666041Y-96461981D01*
X135687235Y-96442660D01*
X135816763Y-96324580D01*
X135816764Y-96324579D01*
X135873083Y-96250000D01*
X173435000Y-96250000D01*
X174210000Y-96250000D01*
X174210000Y-95279715D01*
X174710000Y-95279715D01*
X174710000Y-97720285D01*
X174854150Y-97676558D01*
X175032215Y-97581379D01*
X175182237Y-97458260D01*
X175229079Y-97434266D01*
X175281653Y-97431862D01*
X175330486Y-97451478D01*
X175341049Y-97458640D01*
X175507853Y-97525101D01*
X175685045Y-97554150D01*
X175864339Y-97544429D01*
X176037351Y-97496393D01*
X176125694Y-97449555D01*
X176175946Y-97435359D01*
X176227587Y-97443108D01*
X176271458Y-97471430D01*
X176302232Y-97502204D01*
X176302233Y-97502204D01*
X176302235Y-97502206D01*
X176405009Y-97547585D01*
X176430135Y-97550500D01*
X177569864Y-97550499D01*
X177569867Y-97550499D01*
X177582427Y-97549041D01*
X177594991Y-97547585D01*
X177697765Y-97502206D01*
X177777206Y-97422765D01*
X177822585Y-97319991D01*
X177825500Y-97294865D01*
X177825499Y-96080000D01*
X180394785Y-96080000D01*
X180413602Y-96283083D01*
X180469418Y-96479251D01*
X180560324Y-96661818D01*
X180683236Y-96824580D01*
X180833958Y-96961981D01*
X181007361Y-97069347D01*
X181007363Y-97069348D01*
X181197544Y-97143024D01*
X181398024Y-97180500D01*
X181601974Y-97180500D01*
X181601976Y-97180500D01*
X181802456Y-97143024D01*
X181992637Y-97069348D01*
X182166041Y-96961981D01*
X182316764Y-96824579D01*
X182439673Y-96661821D01*
X182439673Y-96661819D01*
X182439675Y-96661818D01*
X182507751Y-96525101D01*
X182530582Y-96479250D01*
X182586397Y-96283083D01*
X182605215Y-96080000D01*
X182586397Y-95876917D01*
X182530582Y-95680750D01*
X182484256Y-95587714D01*
X182439675Y-95498181D01*
X182316763Y-95335419D01*
X182166041Y-95198018D01*
X181992638Y-95090652D01*
X181802457Y-95016976D01*
X181701900Y-94998179D01*
X181601976Y-94979500D01*
X181398024Y-94979500D01*
X181298100Y-94998179D01*
X181197542Y-95016976D01*
X181007361Y-95090652D01*
X180833958Y-95198018D01*
X180683236Y-95335419D01*
X180560324Y-95498181D01*
X180469418Y-95680748D01*
X180413602Y-95876916D01*
X180394785Y-96080000D01*
X177825499Y-96080000D01*
X177825499Y-95705136D01*
X177825362Y-95703956D01*
X177822671Y-95680750D01*
X177822585Y-95680009D01*
X177777206Y-95577235D01*
X177777204Y-95577233D01*
X177777204Y-95577232D01*
X177697767Y-95497795D01*
X177694592Y-95496393D01*
X177594991Y-95452415D01*
X177569865Y-95449500D01*
X177569863Y-95449500D01*
X176430132Y-95449500D01*
X176405011Y-95452414D01*
X176302232Y-95497795D01*
X176274671Y-95525357D01*
X176226585Y-95555185D01*
X176170253Y-95560541D01*
X176131704Y-95545785D01*
X176131479Y-95546351D01*
X175952149Y-95474899D01*
X175881270Y-95463279D01*
X175774955Y-95445850D01*
X175774952Y-95445850D01*
X175595660Y-95455570D01*
X175422650Y-95503606D01*
X175321298Y-95557340D01*
X175275092Y-95571214D01*
X175227087Y-95566404D01*
X175184552Y-95543638D01*
X175032215Y-95418620D01*
X174854150Y-95323441D01*
X174710000Y-95279715D01*
X174210000Y-95279715D01*
X174065849Y-95323441D01*
X173887784Y-95418620D01*
X173731707Y-95546707D01*
X173603620Y-95702784D01*
X173508442Y-95880848D01*
X173449829Y-96074067D01*
X173435000Y-96224639D01*
X173435000Y-96250000D01*
X135873083Y-96250000D01*
X135939673Y-96161821D01*
X135939673Y-96161819D01*
X135939675Y-96161818D01*
X136025160Y-95990138D01*
X136030582Y-95979250D01*
X136086397Y-95783083D01*
X136105215Y-95580000D01*
X136086397Y-95376917D01*
X136082211Y-95362206D01*
X136063051Y-95294867D01*
X138634500Y-95294867D01*
X138637414Y-95319988D01*
X138637414Y-95319990D01*
X138637415Y-95319991D01*
X138678167Y-95412286D01*
X138682795Y-95422767D01*
X138762232Y-95502204D01*
X138762233Y-95502204D01*
X138762235Y-95502206D01*
X138865009Y-95547585D01*
X138890135Y-95550500D01*
X140029864Y-95550499D01*
X140029867Y-95550499D01*
X140042427Y-95549042D01*
X140054991Y-95547585D01*
X140157765Y-95502206D01*
X140185327Y-95474643D01*
X140233417Y-95444814D01*
X140289753Y-95439459D01*
X140328295Y-95454215D01*
X140328521Y-95453649D01*
X140507850Y-95525100D01*
X140507853Y-95525101D01*
X140685045Y-95554150D01*
X140864339Y-95544429D01*
X141037351Y-95496393D01*
X141138703Y-95442658D01*
X141184906Y-95428785D01*
X141232911Y-95433595D01*
X141275447Y-95456361D01*
X141427784Y-95581379D01*
X141605849Y-95676558D01*
X141750000Y-95720285D01*
X141750000Y-94750000D01*
X142250000Y-94750000D01*
X142250000Y-95720285D01*
X142394150Y-95676558D01*
X142572215Y-95581379D01*
X142728292Y-95453292D01*
X142856379Y-95297215D01*
X142932466Y-95154867D01*
X145404500Y-95154867D01*
X145407414Y-95179988D01*
X145407414Y-95179990D01*
X145407415Y-95179991D01*
X145407750Y-95180750D01*
X145452795Y-95282767D01*
X145532232Y-95362204D01*
X145532233Y-95362204D01*
X145532235Y-95362206D01*
X145635009Y-95407585D01*
X145660135Y-95410500D01*
X146799864Y-95410499D01*
X146799867Y-95410499D01*
X146812427Y-95409042D01*
X146824991Y-95407585D01*
X146927765Y-95362206D01*
X146955327Y-95334643D01*
X147003417Y-95304814D01*
X147059753Y-95299459D01*
X147098295Y-95314215D01*
X147098521Y-95313649D01*
X147277850Y-95385100D01*
X147277853Y-95385101D01*
X147455045Y-95414150D01*
X147634339Y-95404429D01*
X147807351Y-95356393D01*
X147908703Y-95302658D01*
X147954906Y-95288785D01*
X148002911Y-95293595D01*
X148045447Y-95316361D01*
X148197784Y-95441379D01*
X148375849Y-95536558D01*
X148520000Y-95580285D01*
X148520000Y-94610000D01*
X149020000Y-94610000D01*
X149020000Y-95580285D01*
X149164150Y-95536558D01*
X149342215Y-95441379D01*
X149498292Y-95313292D01*
X149626379Y-95157215D01*
X149721557Y-94979151D01*
X149780170Y-94785932D01*
X149795000Y-94635361D01*
X149795000Y-94610000D01*
X149020000Y-94610000D01*
X148520000Y-94610000D01*
X148520000Y-93139715D01*
X149020000Y-93139715D01*
X149020000Y-94110000D01*
X149795000Y-94110000D01*
X149795000Y-94084639D01*
X149780170Y-93934067D01*
X149721557Y-93740848D01*
X149626379Y-93562784D01*
X149498292Y-93406707D01*
X149342215Y-93278620D01*
X149164150Y-93183441D01*
X149020000Y-93139715D01*
X148520000Y-93139715D01*
X148375849Y-93183441D01*
X148197784Y-93278620D01*
X148047761Y-93401740D01*
X148000920Y-93425733D01*
X147948346Y-93428137D01*
X147899513Y-93408521D01*
X147888951Y-93401360D01*
X147722147Y-93334899D01*
X147544955Y-93305850D01*
X147544952Y-93305850D01*
X147365660Y-93315570D01*
X147192650Y-93363606D01*
X147104304Y-93410444D01*
X147054052Y-93424641D01*
X147002412Y-93416891D01*
X146958541Y-93388569D01*
X146927767Y-93357795D01*
X146927765Y-93357794D01*
X146824991Y-93312415D01*
X146799865Y-93309500D01*
X146799863Y-93309500D01*
X145660132Y-93309500D01*
X145635011Y-93312414D01*
X145532232Y-93357795D01*
X145452795Y-93437232D01*
X145436216Y-93474780D01*
X145407415Y-93540009D01*
X145405457Y-93556891D01*
X145404500Y-93565136D01*
X145404500Y-95154867D01*
X142932466Y-95154867D01*
X142951557Y-95119151D01*
X143010170Y-94925932D01*
X143025000Y-94775361D01*
X143025000Y-94750000D01*
X142250000Y-94750000D01*
X141750000Y-94750000D01*
X141750000Y-93279715D01*
X142250000Y-93279715D01*
X142250000Y-94250000D01*
X143025000Y-94250000D01*
X143025000Y-94224639D01*
X143010170Y-94074067D01*
X142951557Y-93880848D01*
X142856379Y-93702784D01*
X142728292Y-93546707D01*
X142572215Y-93418620D01*
X142394150Y-93323441D01*
X142250000Y-93279715D01*
X141750000Y-93279715D01*
X141605849Y-93323441D01*
X141427784Y-93418620D01*
X141277761Y-93541740D01*
X141230920Y-93565733D01*
X141178346Y-93568137D01*
X141129513Y-93548521D01*
X141118951Y-93541360D01*
X140952147Y-93474899D01*
X140774955Y-93445850D01*
X140774952Y-93445850D01*
X140595660Y-93455570D01*
X140422650Y-93503606D01*
X140334304Y-93550444D01*
X140284052Y-93564641D01*
X140232412Y-93556891D01*
X140188541Y-93528569D01*
X140157767Y-93497795D01*
X140148450Y-93493681D01*
X140054991Y-93452415D01*
X140029865Y-93449500D01*
X140029863Y-93449500D01*
X138890132Y-93449500D01*
X138865011Y-93452414D01*
X138762232Y-93497795D01*
X138682795Y-93577232D01*
X138637415Y-93680009D01*
X138634500Y-93705136D01*
X138634500Y-95294867D01*
X136063051Y-95294867D01*
X136058740Y-95279715D01*
X136030582Y-95180750D01*
X136017694Y-95154867D01*
X135939675Y-94998181D01*
X135816763Y-94835419D01*
X135666041Y-94698018D01*
X135492638Y-94590652D01*
X135302457Y-94516976D01*
X135199846Y-94497795D01*
X135101976Y-94479500D01*
X134898024Y-94479500D01*
X134800159Y-94497794D01*
X134697542Y-94516976D01*
X134507361Y-94590652D01*
X134333958Y-94698018D01*
X134183236Y-94835419D01*
X134060324Y-94998181D01*
X133969418Y-95180748D01*
X133913602Y-95376916D01*
X133894785Y-95580000D01*
X131677802Y-95580000D01*
X131685215Y-95500000D01*
X131666397Y-95296917D01*
X131662370Y-95282765D01*
X131626648Y-95157215D01*
X131610582Y-95100750D01*
X131568868Y-95016976D01*
X131519675Y-94918181D01*
X131396763Y-94755419D01*
X131246041Y-94618018D01*
X131072638Y-94510652D01*
X130882457Y-94436976D01*
X130815629Y-94424483D01*
X130681976Y-94399500D01*
X130478024Y-94399500D01*
X130377784Y-94418237D01*
X130277542Y-94436976D01*
X130087361Y-94510652D01*
X129913958Y-94618018D01*
X129763236Y-94755419D01*
X129640324Y-94918181D01*
X129549418Y-95100748D01*
X129493602Y-95296916D01*
X129474785Y-95500000D01*
X121525215Y-95500000D01*
X121506397Y-95296917D01*
X121502370Y-95282765D01*
X121466648Y-95157215D01*
X121450582Y-95100750D01*
X121408868Y-95016976D01*
X121359675Y-94918181D01*
X121236763Y-94755419D01*
X121086041Y-94618018D01*
X120912638Y-94510652D01*
X120722457Y-94436976D01*
X120655629Y-94424483D01*
X120521976Y-94399500D01*
X120318024Y-94399500D01*
X120217784Y-94418237D01*
X120117542Y-94436976D01*
X119927361Y-94510652D01*
X119753958Y-94618018D01*
X119603236Y-94755419D01*
X119480324Y-94918181D01*
X119389418Y-95100748D01*
X119333602Y-95296916D01*
X119314785Y-95500000D01*
X115250000Y-95500000D01*
X115250000Y-94279715D01*
X115750000Y-94279715D01*
X115750000Y-95250000D01*
X116525000Y-95250000D01*
X116525000Y-95224639D01*
X116510170Y-95074067D01*
X116451557Y-94880848D01*
X116356379Y-94702784D01*
X116228292Y-94546707D01*
X116072215Y-94418620D01*
X115894150Y-94323441D01*
X115750000Y-94279715D01*
X115250000Y-94279715D01*
X115105849Y-94323441D01*
X114927784Y-94418620D01*
X114777761Y-94541740D01*
X114730920Y-94565733D01*
X114678346Y-94568137D01*
X114629513Y-94548521D01*
X114618951Y-94541360D01*
X114452147Y-94474899D01*
X114274955Y-94445850D01*
X114274952Y-94445850D01*
X114095660Y-94455570D01*
X113922650Y-94503606D01*
X113834304Y-94550444D01*
X113784052Y-94564641D01*
X113732412Y-94556891D01*
X113688541Y-94528569D01*
X113657767Y-94497795D01*
X113657765Y-94497794D01*
X113554991Y-94452415D01*
X113529865Y-94449500D01*
X113529863Y-94449500D01*
X112390132Y-94449500D01*
X112365011Y-94452414D01*
X112262232Y-94497795D01*
X112182795Y-94577232D01*
X112137415Y-94680009D01*
X112134500Y-94705136D01*
X112134500Y-96294867D01*
X72000500Y-96294867D01*
X72000500Y-92999999D01*
X152314785Y-92999999D01*
X152333602Y-93203083D01*
X152389418Y-93399251D01*
X152480324Y-93581818D01*
X152603236Y-93744580D01*
X152753958Y-93881981D01*
X152874303Y-93956495D01*
X152927363Y-93989348D01*
X153117544Y-94063024D01*
X153318024Y-94100500D01*
X153521974Y-94100500D01*
X153521976Y-94100500D01*
X153722456Y-94063024D01*
X153912637Y-93989348D01*
X154086041Y-93881981D01*
X154236764Y-93744579D01*
X154359673Y-93581821D01*
X154359673Y-93581819D01*
X154359675Y-93581818D01*
X154405313Y-93490161D01*
X154450582Y-93399250D01*
X154506397Y-93203083D01*
X154525215Y-93000000D01*
X154506397Y-92796917D01*
X154450582Y-92600750D01*
X154450209Y-92600001D01*
X154359675Y-92418181D01*
X154236763Y-92255419D01*
X154086041Y-92118018D01*
X153912638Y-92010652D01*
X153722457Y-91936976D01*
X153642619Y-91922052D01*
X153521976Y-91899500D01*
X153318024Y-91899500D01*
X153217784Y-91918237D01*
X153117542Y-91936976D01*
X152927361Y-92010652D01*
X152753958Y-92118018D01*
X152603236Y-92255419D01*
X152480324Y-92418181D01*
X152389418Y-92600748D01*
X152333602Y-92796916D01*
X152314785Y-92999999D01*
X72000500Y-92999999D01*
X72000500Y-81090000D01*
X74669364Y-81090000D01*
X74726569Y-81303492D01*
X74826399Y-81517576D01*
X74961893Y-81711081D01*
X75128918Y-81878106D01*
X75322423Y-82013600D01*
X75521572Y-82106466D01*
X75566566Y-82142105D01*
X75590690Y-82194188D01*
X75588776Y-82251555D01*
X75561232Y-82301914D01*
X75513962Y-82334474D01*
X75484984Y-82345700D01*
X75303698Y-82457947D01*
X75146126Y-82601594D01*
X75017631Y-82771747D01*
X74922595Y-82962609D01*
X74864243Y-83167689D01*
X74844571Y-83379999D01*
X74864243Y-83592310D01*
X74922595Y-83797390D01*
X75017631Y-83988252D01*
X75146126Y-84158405D01*
X75146128Y-84158407D01*
X75303698Y-84302052D01*
X75484981Y-84414298D01*
X75683802Y-84491321D01*
X75880613Y-84528111D01*
X75941365Y-84558363D01*
X75977093Y-84616066D01*
X75977093Y-84683934D01*
X75941365Y-84741637D01*
X75880613Y-84771888D01*
X75750475Y-84796215D01*
X75683801Y-84808679D01*
X75484982Y-84885701D01*
X75303698Y-84997947D01*
X75146126Y-85141594D01*
X75017631Y-85311747D01*
X74922595Y-85502609D01*
X74864243Y-85707689D01*
X74844571Y-85920000D01*
X74864243Y-86132310D01*
X74922595Y-86337390D01*
X75017631Y-86528252D01*
X75146126Y-86698405D01*
X75146128Y-86698407D01*
X75303698Y-86842052D01*
X75484981Y-86954298D01*
X75683802Y-87031321D01*
X75880613Y-87068111D01*
X75941365Y-87098363D01*
X75977093Y-87156066D01*
X75977093Y-87223934D01*
X75941365Y-87281637D01*
X75880613Y-87311888D01*
X75750475Y-87336215D01*
X75683801Y-87348679D01*
X75484982Y-87425701D01*
X75303698Y-87537947D01*
X75146126Y-87681594D01*
X75017631Y-87851747D01*
X74922595Y-88042609D01*
X74864243Y-88247689D01*
X74844571Y-88460000D01*
X74864243Y-88672310D01*
X74922595Y-88877390D01*
X75017631Y-89068252D01*
X75146126Y-89238405D01*
X75146128Y-89238407D01*
X75303698Y-89382052D01*
X75484981Y-89494298D01*
X75683802Y-89571321D01*
X75880613Y-89608111D01*
X75941365Y-89638363D01*
X75977093Y-89696066D01*
X75977093Y-89763934D01*
X75941365Y-89821637D01*
X75880613Y-89851888D01*
X75750475Y-89876215D01*
X75683801Y-89888679D01*
X75484982Y-89965701D01*
X75303698Y-90077947D01*
X75146126Y-90221594D01*
X75017631Y-90391747D01*
X74922595Y-90582609D01*
X74864243Y-90787689D01*
X74844571Y-91000000D01*
X74864243Y-91212310D01*
X74922595Y-91417390D01*
X75017631Y-91608252D01*
X75146126Y-91778405D01*
X75146128Y-91778407D01*
X75303698Y-91922052D01*
X75484981Y-92034298D01*
X75683802Y-92111321D01*
X75893390Y-92150500D01*
X76106608Y-92150500D01*
X76106610Y-92150500D01*
X76316198Y-92111321D01*
X76515019Y-92034298D01*
X76696302Y-91922052D01*
X76853872Y-91778407D01*
X76982366Y-91608255D01*
X76982366Y-91608253D01*
X76982368Y-91608252D01*
X77041574Y-91489348D01*
X77077405Y-91417389D01*
X77135756Y-91212310D01*
X77146529Y-91096047D01*
X77166633Y-91038996D01*
X77209410Y-90999999D01*
X77166633Y-90961003D01*
X77146529Y-90903951D01*
X77135756Y-90787689D01*
X77077404Y-90582609D01*
X76982368Y-90391747D01*
X76853873Y-90221594D01*
X76696301Y-90077947D01*
X76515017Y-89965701D01*
X76316198Y-89888679D01*
X76316197Y-89888678D01*
X76119385Y-89851888D01*
X76058634Y-89821637D01*
X76022906Y-89763934D01*
X76022906Y-89696066D01*
X76058634Y-89638363D01*
X76119385Y-89608111D01*
X76316198Y-89571321D01*
X76515019Y-89494298D01*
X76696302Y-89382052D01*
X76853872Y-89238407D01*
X76982366Y-89068255D01*
X76982366Y-89068253D01*
X76982368Y-89068252D01*
X77043079Y-88946326D01*
X77077405Y-88877389D01*
X77135756Y-88672310D01*
X77146529Y-88556047D01*
X77166633Y-88498996D01*
X77209410Y-88459999D01*
X77166633Y-88421003D01*
X77146529Y-88363951D01*
X77135756Y-88247689D01*
X77093947Y-88100750D01*
X77077405Y-88042611D01*
X77077014Y-88041827D01*
X76982368Y-87851747D01*
X76853873Y-87681594D01*
X76850483Y-87678504D01*
X76696302Y-87537948D01*
X76696301Y-87537947D01*
X76560673Y-87453970D01*
X76515019Y-87425702D01*
X76515017Y-87425701D01*
X76316198Y-87348679D01*
X76258102Y-87337819D01*
X76119385Y-87311888D01*
X76058634Y-87281637D01*
X76022906Y-87223934D01*
X76022906Y-87156066D01*
X76058634Y-87098363D01*
X76119385Y-87068111D01*
X76316198Y-87031321D01*
X76515019Y-86954298D01*
X76696302Y-86842052D01*
X76853872Y-86698407D01*
X76982366Y-86528255D01*
X76982366Y-86528253D01*
X76982368Y-86528252D01*
X77036870Y-86418795D01*
X77077405Y-86337389D01*
X77135756Y-86132310D01*
X77146529Y-86016047D01*
X77166633Y-85958996D01*
X77209410Y-85919999D01*
X77166633Y-85881003D01*
X77146529Y-85823951D01*
X77135756Y-85707689D01*
X77082566Y-85520750D01*
X77077405Y-85502611D01*
X77036270Y-85420000D01*
X76982368Y-85311747D01*
X76853873Y-85141594D01*
X76836248Y-85125527D01*
X76771298Y-85066316D01*
X76696301Y-84997947D01*
X76515017Y-84885701D01*
X76316198Y-84808679D01*
X76316197Y-84808678D01*
X76119385Y-84771888D01*
X76058634Y-84741637D01*
X76022906Y-84683934D01*
X76022906Y-84616066D01*
X76058634Y-84558363D01*
X76119385Y-84528111D01*
X76316198Y-84491321D01*
X76515019Y-84414298D01*
X76696302Y-84302052D01*
X76853872Y-84158407D01*
X76982366Y-83988255D01*
X76982366Y-83988253D01*
X76982368Y-83988252D01*
X77031404Y-83889773D01*
X77077405Y-83797389D01*
X77135756Y-83592310D01*
X77146529Y-83476047D01*
X77166633Y-83418996D01*
X77209410Y-83379999D01*
X77166633Y-83341003D01*
X77146529Y-83283951D01*
X77135756Y-83167689D01*
X77111385Y-83082035D01*
X77077405Y-82962611D01*
X77065897Y-82939500D01*
X76982368Y-82771747D01*
X76853873Y-82601594D01*
X76836248Y-82585527D01*
X76696302Y-82457948D01*
X76696301Y-82457947D01*
X76515014Y-82345699D01*
X76486038Y-82334474D01*
X76438767Y-82301915D01*
X76411223Y-82251556D01*
X76409309Y-82194189D01*
X76433433Y-82142105D01*
X76478427Y-82106466D01*
X76677576Y-82013600D01*
X76871081Y-81878106D01*
X77038106Y-81711081D01*
X77168425Y-81524968D01*
X77212743Y-81486103D01*
X77270000Y-81472092D01*
X77327257Y-81486103D01*
X77371575Y-81524968D01*
X77501893Y-81711081D01*
X77668918Y-81878106D01*
X77862423Y-82013600D01*
X78061572Y-82106466D01*
X78106566Y-82142105D01*
X78130690Y-82194188D01*
X78128776Y-82251555D01*
X78101232Y-82301914D01*
X78053962Y-82334474D01*
X78024984Y-82345700D01*
X77843698Y-82457947D01*
X77686126Y-82601594D01*
X77557631Y-82771747D01*
X77462595Y-82962609D01*
X77404243Y-83167689D01*
X77393471Y-83283951D01*
X77373367Y-83341003D01*
X77330589Y-83379999D01*
X77373367Y-83418996D01*
X77393471Y-83476048D01*
X77404243Y-83592310D01*
X77462595Y-83797390D01*
X77557631Y-83988252D01*
X77686126Y-84158405D01*
X77686128Y-84158407D01*
X77843698Y-84302052D01*
X78024981Y-84414298D01*
X78223802Y-84491321D01*
X78420613Y-84528111D01*
X78481365Y-84558363D01*
X78517093Y-84616066D01*
X78517093Y-84683934D01*
X78481365Y-84741637D01*
X78420613Y-84771888D01*
X78290475Y-84796215D01*
X78223801Y-84808679D01*
X78024982Y-84885701D01*
X77843698Y-84997947D01*
X77686126Y-85141594D01*
X77557631Y-85311747D01*
X77462595Y-85502609D01*
X77404243Y-85707689D01*
X77393471Y-85823951D01*
X77373367Y-85881003D01*
X77330589Y-85919999D01*
X77373367Y-85958996D01*
X77393471Y-86016048D01*
X77404243Y-86132310D01*
X77462595Y-86337390D01*
X77557631Y-86528252D01*
X77686126Y-86698405D01*
X77686128Y-86698407D01*
X77843698Y-86842052D01*
X78024981Y-86954298D01*
X78223802Y-87031321D01*
X78420613Y-87068111D01*
X78481365Y-87098363D01*
X78517093Y-87156066D01*
X78517093Y-87223934D01*
X78481365Y-87281637D01*
X78420613Y-87311888D01*
X78290475Y-87336215D01*
X78223801Y-87348679D01*
X78024982Y-87425701D01*
X77843698Y-87537947D01*
X77686126Y-87681594D01*
X77557631Y-87851747D01*
X77462595Y-88042609D01*
X77404243Y-88247689D01*
X77393471Y-88363951D01*
X77373367Y-88421003D01*
X77330589Y-88459999D01*
X77373367Y-88498996D01*
X77393471Y-88556048D01*
X77404243Y-88672310D01*
X77462595Y-88877390D01*
X77557631Y-89068252D01*
X77686126Y-89238405D01*
X77686128Y-89238407D01*
X77843698Y-89382052D01*
X78024981Y-89494298D01*
X78223802Y-89571321D01*
X78420613Y-89608111D01*
X78481365Y-89638363D01*
X78517093Y-89696066D01*
X78517093Y-89763934D01*
X78481365Y-89821637D01*
X78420613Y-89851888D01*
X78290475Y-89876215D01*
X78223801Y-89888679D01*
X78024982Y-89965701D01*
X77843698Y-90077947D01*
X77686126Y-90221594D01*
X77557631Y-90391747D01*
X77462595Y-90582609D01*
X77404243Y-90787689D01*
X77393471Y-90903951D01*
X77373367Y-90961003D01*
X77330589Y-90999999D01*
X77373367Y-91038996D01*
X77393471Y-91096048D01*
X77404243Y-91212310D01*
X77462595Y-91417390D01*
X77557631Y-91608252D01*
X77686126Y-91778405D01*
X77686128Y-91778407D01*
X77843698Y-91922052D01*
X78024981Y-92034298D01*
X78223802Y-92111321D01*
X78433390Y-92150500D01*
X78646608Y-92150500D01*
X78646610Y-92150500D01*
X78856198Y-92111321D01*
X79055019Y-92034298D01*
X79236302Y-91922052D01*
X79393872Y-91778407D01*
X79522366Y-91608255D01*
X79522366Y-91608253D01*
X79522368Y-91608252D01*
X79581574Y-91489348D01*
X79617405Y-91417389D01*
X79675756Y-91212310D01*
X79695429Y-91000000D01*
X79675756Y-90787690D01*
X79617405Y-90582611D01*
X79588769Y-90525101D01*
X79522368Y-90391747D01*
X79449207Y-90294867D01*
X112134500Y-90294867D01*
X112137414Y-90319988D01*
X112137414Y-90319990D01*
X112137415Y-90319991D01*
X112169098Y-90391747D01*
X112182795Y-90422767D01*
X112262232Y-90502204D01*
X112262233Y-90502204D01*
X112262235Y-90502206D01*
X112365009Y-90547585D01*
X112390135Y-90550500D01*
X113529864Y-90550499D01*
X113529867Y-90550499D01*
X113542427Y-90549041D01*
X113554991Y-90547585D01*
X113657765Y-90502206D01*
X113685327Y-90474643D01*
X113733417Y-90444814D01*
X113789753Y-90439459D01*
X113828295Y-90454215D01*
X113828521Y-90453649D01*
X114007850Y-90525100D01*
X114007853Y-90525101D01*
X114185045Y-90554150D01*
X114364339Y-90544429D01*
X114537351Y-90496393D01*
X114638703Y-90442658D01*
X114684906Y-90428785D01*
X114732911Y-90433595D01*
X114775447Y-90456361D01*
X114927784Y-90581379D01*
X115105849Y-90676558D01*
X115250000Y-90720285D01*
X115250000Y-89750000D01*
X115750000Y-89750000D01*
X115750000Y-90720285D01*
X115894150Y-90676558D01*
X116072215Y-90581379D01*
X116171377Y-90500000D01*
X119234785Y-90500000D01*
X119253602Y-90703083D01*
X119309418Y-90899251D01*
X119400324Y-91081818D01*
X119523236Y-91244580D01*
X119673958Y-91381981D01*
X119847361Y-91489347D01*
X119847363Y-91489348D01*
X120037544Y-91563024D01*
X120238024Y-91600500D01*
X120441974Y-91600500D01*
X120441976Y-91600500D01*
X120642456Y-91563024D01*
X120832637Y-91489348D01*
X121006041Y-91381981D01*
X121156764Y-91244579D01*
X121279673Y-91081821D01*
X121279673Y-91081819D01*
X121279675Y-91081818D01*
X121368241Y-90903951D01*
X121370582Y-90899250D01*
X121426397Y-90703083D01*
X121445215Y-90500000D01*
X129394785Y-90500000D01*
X129413602Y-90703083D01*
X129469418Y-90899251D01*
X129560324Y-91081818D01*
X129683236Y-91244580D01*
X129833958Y-91381981D01*
X130007361Y-91489347D01*
X130007363Y-91489348D01*
X130197544Y-91563024D01*
X130398024Y-91600500D01*
X130601974Y-91600500D01*
X130601976Y-91600500D01*
X130802456Y-91563024D01*
X130992637Y-91489348D01*
X131166041Y-91381981D01*
X131316764Y-91244579D01*
X131439673Y-91081821D01*
X131439673Y-91081819D01*
X131439675Y-91081818D01*
X131528241Y-90903951D01*
X131530582Y-90899250D01*
X131586397Y-90703083D01*
X131605215Y-90500000D01*
X131586397Y-90296917D01*
X131564965Y-90221594D01*
X131545477Y-90153099D01*
X131530582Y-90100750D01*
X131519228Y-90077947D01*
X131439675Y-89918181D01*
X131316763Y-89755419D01*
X131166041Y-89618018D01*
X130992638Y-89510652D01*
X130802457Y-89436976D01*
X130735629Y-89424484D01*
X130601976Y-89399500D01*
X130398024Y-89399500D01*
X130314758Y-89415065D01*
X130197542Y-89436976D01*
X130007361Y-89510652D01*
X129833958Y-89618018D01*
X129683236Y-89755419D01*
X129560324Y-89918181D01*
X129469418Y-90100748D01*
X129413602Y-90296916D01*
X129394785Y-90500000D01*
X121445215Y-90500000D01*
X121426397Y-90296917D01*
X121404965Y-90221594D01*
X121385477Y-90153099D01*
X121370582Y-90100750D01*
X121359228Y-90077947D01*
X121279675Y-89918181D01*
X121156763Y-89755419D01*
X121006041Y-89618018D01*
X120832638Y-89510652D01*
X120642457Y-89436976D01*
X120575629Y-89424484D01*
X120441976Y-89399500D01*
X120238024Y-89399500D01*
X120154758Y-89415065D01*
X120037542Y-89436976D01*
X119847361Y-89510652D01*
X119673958Y-89618018D01*
X119523236Y-89755419D01*
X119400324Y-89918181D01*
X119309418Y-90100748D01*
X119253602Y-90296916D01*
X119234785Y-90500000D01*
X116171377Y-90500000D01*
X116228292Y-90453292D01*
X116356379Y-90297215D01*
X116451557Y-90119151D01*
X116510170Y-89925932D01*
X116525000Y-89775361D01*
X116525000Y-89750000D01*
X115750000Y-89750000D01*
X115250000Y-89750000D01*
X115250000Y-88279715D01*
X115750000Y-88279715D01*
X115750000Y-89250000D01*
X116525000Y-89250000D01*
X116525000Y-89224639D01*
X116510170Y-89074067D01*
X116451557Y-88880848D01*
X116356379Y-88702784D01*
X116228292Y-88546707D01*
X116072215Y-88418620D01*
X115894150Y-88323441D01*
X115750000Y-88279715D01*
X115250000Y-88279715D01*
X115105849Y-88323441D01*
X114927784Y-88418620D01*
X114777761Y-88541740D01*
X114730920Y-88565733D01*
X114678346Y-88568137D01*
X114629513Y-88548521D01*
X114618951Y-88541360D01*
X114452147Y-88474899D01*
X114274955Y-88445850D01*
X114274952Y-88445850D01*
X114095660Y-88455570D01*
X113922650Y-88503606D01*
X113834304Y-88550444D01*
X113784052Y-88564641D01*
X113732412Y-88556891D01*
X113688541Y-88528569D01*
X113657767Y-88497795D01*
X113657765Y-88497794D01*
X113554991Y-88452415D01*
X113529865Y-88449500D01*
X113529863Y-88449500D01*
X112390132Y-88449500D01*
X112365011Y-88452414D01*
X112262232Y-88497795D01*
X112182795Y-88577232D01*
X112137415Y-88680009D01*
X112134500Y-88705136D01*
X112134500Y-90294867D01*
X79449207Y-90294867D01*
X79393873Y-90221594D01*
X79236301Y-90077947D01*
X79055017Y-89965701D01*
X78856198Y-89888679D01*
X78856197Y-89888678D01*
X78659385Y-89851888D01*
X78598634Y-89821637D01*
X78562906Y-89763934D01*
X78562906Y-89696066D01*
X78598634Y-89638363D01*
X78659385Y-89608111D01*
X78856198Y-89571321D01*
X79055019Y-89494298D01*
X79236302Y-89382052D01*
X79393872Y-89238407D01*
X79522366Y-89068255D01*
X79522366Y-89068253D01*
X79522368Y-89068252D01*
X79583079Y-88946326D01*
X79617405Y-88877389D01*
X79675756Y-88672310D01*
X79691723Y-88499999D01*
X82814785Y-88499999D01*
X82833602Y-88703083D01*
X82889418Y-88899251D01*
X82980324Y-89081818D01*
X83103236Y-89244580D01*
X83253958Y-89381981D01*
X83418677Y-89483970D01*
X83427363Y-89489348D01*
X83617544Y-89563024D01*
X83818024Y-89600500D01*
X84021974Y-89600500D01*
X84021976Y-89600500D01*
X84222456Y-89563024D01*
X84412637Y-89489348D01*
X84586041Y-89381981D01*
X84649008Y-89324579D01*
X84736763Y-89244580D01*
X84845567Y-89100500D01*
X84859673Y-89081821D01*
X84859673Y-89081819D01*
X84859675Y-89081818D01*
X84937094Y-88926338D01*
X84950582Y-88899250D01*
X85006397Y-88703083D01*
X85025215Y-88500000D01*
X85025215Y-88499999D01*
X92974785Y-88499999D01*
X92993602Y-88703083D01*
X93049418Y-88899251D01*
X93140324Y-89081818D01*
X93263236Y-89244580D01*
X93413958Y-89381981D01*
X93578677Y-89483970D01*
X93587363Y-89489348D01*
X93777544Y-89563024D01*
X93978024Y-89600500D01*
X94181974Y-89600500D01*
X94181976Y-89600500D01*
X94382456Y-89563024D01*
X94572637Y-89489348D01*
X94746041Y-89381981D01*
X94809008Y-89324579D01*
X94896763Y-89244580D01*
X95005567Y-89100500D01*
X95019673Y-89081821D01*
X95019673Y-89081819D01*
X95019675Y-89081818D01*
X95097094Y-88926338D01*
X95110582Y-88899250D01*
X95166397Y-88703083D01*
X95185215Y-88500000D01*
X95185215Y-88499999D01*
X97314785Y-88499999D01*
X97333602Y-88703083D01*
X97389418Y-88899251D01*
X97480324Y-89081818D01*
X97603236Y-89244580D01*
X97753958Y-89381981D01*
X97918677Y-89483970D01*
X97927363Y-89489348D01*
X98117544Y-89563024D01*
X98318024Y-89600500D01*
X98521974Y-89600500D01*
X98521976Y-89600500D01*
X98722456Y-89563024D01*
X98912637Y-89489348D01*
X99086041Y-89381981D01*
X99149008Y-89324579D01*
X99236763Y-89244580D01*
X99345567Y-89100500D01*
X99359673Y-89081821D01*
X99359673Y-89081819D01*
X99359675Y-89081818D01*
X99437094Y-88926338D01*
X99450582Y-88899250D01*
X99493048Y-88750000D01*
X107301128Y-88750000D01*
X107353733Y-88946326D01*
X107449865Y-89152480D01*
X107580341Y-89338819D01*
X107741180Y-89499658D01*
X107927519Y-89630134D01*
X108133673Y-89726266D01*
X108329999Y-89778871D01*
X108330000Y-89778872D01*
X108330000Y-88750000D01*
X108830000Y-88750000D01*
X108830000Y-89778871D01*
X109026326Y-89726266D01*
X109232480Y-89630134D01*
X109418819Y-89499658D01*
X109579658Y-89338819D01*
X109710134Y-89152480D01*
X109806266Y-88946326D01*
X109858872Y-88750000D01*
X108830000Y-88750000D01*
X108330000Y-88750000D01*
X107301128Y-88750000D01*
X99493048Y-88750000D01*
X99506397Y-88703083D01*
X99525215Y-88500000D01*
X99506397Y-88296917D01*
X99493048Y-88250000D01*
X107301128Y-88250000D01*
X108330000Y-88250000D01*
X108330000Y-87221128D01*
X108830000Y-87221128D01*
X108830000Y-88250000D01*
X109858872Y-88250000D01*
X109858871Y-88249999D01*
X109806266Y-88053673D01*
X109781237Y-87999999D01*
X137814785Y-87999999D01*
X137833602Y-88203083D01*
X137889418Y-88399251D01*
X137980324Y-88581818D01*
X138103236Y-88744580D01*
X138253958Y-88881981D01*
X138427361Y-88989347D01*
X138427363Y-88989348D01*
X138617544Y-89063024D01*
X138818024Y-89100500D01*
X139021974Y-89100500D01*
X139021976Y-89100500D01*
X139222456Y-89063024D01*
X139412637Y-88989348D01*
X139586041Y-88881981D01*
X139706155Y-88772483D01*
X139736763Y-88744580D01*
X139766550Y-88705136D01*
X139859673Y-88581821D01*
X139859673Y-88581819D01*
X139859675Y-88581818D01*
X139905313Y-88490161D01*
X139950582Y-88399250D01*
X140006397Y-88203083D01*
X140025215Y-88000000D01*
X140006397Y-87796917D01*
X139950582Y-87600750D01*
X139945554Y-87590652D01*
X139859675Y-87418181D01*
X139736763Y-87255419D01*
X139586041Y-87118018D01*
X139412638Y-87010652D01*
X139222457Y-86936976D01*
X139155629Y-86924484D01*
X139021976Y-86899500D01*
X138818024Y-86899500D01*
X138759329Y-86910472D01*
X138617542Y-86936976D01*
X138427361Y-87010652D01*
X138253958Y-87118018D01*
X138103236Y-87255419D01*
X137980324Y-87418181D01*
X137889418Y-87600748D01*
X137833602Y-87796916D01*
X137814785Y-87999999D01*
X109781237Y-87999999D01*
X109710134Y-87847519D01*
X109579658Y-87661180D01*
X109418819Y-87500341D01*
X109232480Y-87369865D01*
X109026326Y-87273733D01*
X108830000Y-87221128D01*
X108330000Y-87221128D01*
X108329999Y-87221128D01*
X108133673Y-87273733D01*
X107927519Y-87369865D01*
X107741180Y-87500341D01*
X107580341Y-87661180D01*
X107449865Y-87847519D01*
X107353733Y-88053673D01*
X107301128Y-88249999D01*
X107301128Y-88250000D01*
X99493048Y-88250000D01*
X99450582Y-88100750D01*
X99427141Y-88053673D01*
X99359675Y-87918181D01*
X99236763Y-87755419D01*
X99086041Y-87618018D01*
X98912638Y-87510652D01*
X98722457Y-87436976D01*
X98600063Y-87414097D01*
X98521976Y-87399500D01*
X98318024Y-87399500D01*
X98239937Y-87414097D01*
X98117542Y-87436976D01*
X97927361Y-87510652D01*
X97753958Y-87618018D01*
X97603236Y-87755419D01*
X97480324Y-87918181D01*
X97389418Y-88100748D01*
X97333602Y-88296916D01*
X97314785Y-88499999D01*
X95185215Y-88499999D01*
X95166397Y-88296917D01*
X95110582Y-88100750D01*
X95087141Y-88053673D01*
X95019675Y-87918181D01*
X94896763Y-87755419D01*
X94746041Y-87618018D01*
X94572638Y-87510652D01*
X94382457Y-87436976D01*
X94260063Y-87414097D01*
X94181976Y-87399500D01*
X93978024Y-87399500D01*
X93899937Y-87414097D01*
X93777542Y-87436976D01*
X93587361Y-87510652D01*
X93413958Y-87618018D01*
X93263236Y-87755419D01*
X93140324Y-87918181D01*
X93049418Y-88100748D01*
X92993602Y-88296916D01*
X92974785Y-88499999D01*
X85025215Y-88499999D01*
X85006397Y-88296917D01*
X84950582Y-88100750D01*
X84927141Y-88053673D01*
X84859675Y-87918181D01*
X84736763Y-87755419D01*
X84586041Y-87618018D01*
X84412638Y-87510652D01*
X84222457Y-87436976D01*
X84100063Y-87414097D01*
X84021976Y-87399500D01*
X83818024Y-87399500D01*
X83739937Y-87414097D01*
X83617542Y-87436976D01*
X83427361Y-87510652D01*
X83253958Y-87618018D01*
X83103236Y-87755419D01*
X82980324Y-87918181D01*
X82889418Y-88100748D01*
X82833602Y-88296916D01*
X82814785Y-88499999D01*
X79691723Y-88499999D01*
X79695429Y-88460000D01*
X79675756Y-88247690D01*
X79617405Y-88042611D01*
X79617014Y-88041827D01*
X79522368Y-87851747D01*
X79393873Y-87681594D01*
X79390483Y-87678504D01*
X79236302Y-87537948D01*
X79236301Y-87537947D01*
X79100673Y-87453970D01*
X79055019Y-87425702D01*
X79055017Y-87425701D01*
X78856198Y-87348679D01*
X78798102Y-87337819D01*
X78659385Y-87311888D01*
X78598634Y-87281637D01*
X78562906Y-87223934D01*
X78562906Y-87156066D01*
X78598634Y-87098363D01*
X78659385Y-87068111D01*
X78856198Y-87031321D01*
X79055019Y-86954298D01*
X79236302Y-86842052D01*
X79393872Y-86698407D01*
X79522366Y-86528255D01*
X79522366Y-86528253D01*
X79522368Y-86528252D01*
X79576870Y-86418795D01*
X79617405Y-86337389D01*
X79675756Y-86132310D01*
X79695429Y-85920000D01*
X79675756Y-85707690D01*
X79617405Y-85502611D01*
X79616105Y-85500000D01*
X119314785Y-85500000D01*
X119333602Y-85703083D01*
X119389418Y-85899251D01*
X119480324Y-86081818D01*
X119603236Y-86244580D01*
X119753958Y-86381981D01*
X119917149Y-86483024D01*
X119927363Y-86489348D01*
X120117544Y-86563024D01*
X120318024Y-86600500D01*
X120521974Y-86600500D01*
X120521976Y-86600500D01*
X120722456Y-86563024D01*
X120912637Y-86489348D01*
X121086041Y-86381981D01*
X121236764Y-86244579D01*
X121359673Y-86081821D01*
X121359673Y-86081819D01*
X121359675Y-86081818D01*
X121420832Y-85958996D01*
X121450582Y-85899250D01*
X121506397Y-85703083D01*
X121525215Y-85500000D01*
X121506397Y-85296917D01*
X121506396Y-85296915D01*
X121470324Y-85170134D01*
X121450582Y-85100750D01*
X121431797Y-85063024D01*
X121359675Y-84918181D01*
X121236763Y-84755419D01*
X121086041Y-84618018D01*
X120912638Y-84510652D01*
X120722457Y-84436976D01*
X120601240Y-84414317D01*
X120521976Y-84399500D01*
X120318024Y-84399500D01*
X120238760Y-84414317D01*
X120117542Y-84436976D01*
X119927361Y-84510652D01*
X119753958Y-84618018D01*
X119603236Y-84755419D01*
X119480324Y-84918181D01*
X119389418Y-85100748D01*
X119333602Y-85296916D01*
X119314785Y-85500000D01*
X79616105Y-85500000D01*
X79576270Y-85420000D01*
X79522368Y-85311747D01*
X79393873Y-85141594D01*
X79376248Y-85125527D01*
X79311298Y-85066316D01*
X79236301Y-84997947D01*
X79055017Y-84885701D01*
X78856198Y-84808679D01*
X78856197Y-84808678D01*
X78659385Y-84771888D01*
X78598634Y-84741637D01*
X78562906Y-84683934D01*
X78562906Y-84616066D01*
X78598634Y-84558363D01*
X78659385Y-84528111D01*
X78856198Y-84491321D01*
X79055019Y-84414298D01*
X79236302Y-84302052D01*
X79393872Y-84158407D01*
X79513497Y-84000000D01*
X97394785Y-84000000D01*
X97413602Y-84203083D01*
X97469418Y-84399251D01*
X97560324Y-84581818D01*
X97683236Y-84744580D01*
X97833958Y-84881981D01*
X98007361Y-84989347D01*
X98007363Y-84989348D01*
X98197544Y-85063024D01*
X98398024Y-85100500D01*
X98601974Y-85100500D01*
X98601976Y-85100500D01*
X98716852Y-85079026D01*
X102774526Y-85079026D01*
X102847515Y-85130133D01*
X103053673Y-85226266D01*
X103273397Y-85285141D01*
X103499999Y-85304966D01*
X103726602Y-85285141D01*
X103946326Y-85226266D01*
X104152480Y-85130134D01*
X104225472Y-85079025D01*
X103500001Y-84353553D01*
X103500000Y-84353553D01*
X102774526Y-85079025D01*
X102774526Y-85079026D01*
X98716852Y-85079026D01*
X98802456Y-85063024D01*
X98992637Y-84989348D01*
X99166041Y-84881981D01*
X99316764Y-84744579D01*
X99439673Y-84581821D01*
X99439673Y-84581819D01*
X99439675Y-84581818D01*
X99511797Y-84436976D01*
X99530582Y-84399250D01*
X99586397Y-84203083D01*
X99605215Y-84000000D01*
X99605215Y-83999999D01*
X102195033Y-83999999D01*
X102214858Y-84226602D01*
X102273733Y-84446326D01*
X102369866Y-84652484D01*
X102420972Y-84725471D01*
X102420974Y-84725472D01*
X103146446Y-84000001D01*
X103853553Y-84000001D01*
X104579025Y-84725472D01*
X104630134Y-84652480D01*
X104726266Y-84446326D01*
X104768154Y-84290000D01*
X106996128Y-84290000D01*
X107048733Y-84486326D01*
X107144865Y-84692480D01*
X107275341Y-84878819D01*
X107436180Y-85039658D01*
X107622519Y-85170134D01*
X107828673Y-85266266D01*
X108048397Y-85325141D01*
X108218235Y-85340000D01*
X108425000Y-85340000D01*
X108425000Y-84290000D01*
X108925000Y-84290000D01*
X108925000Y-85340000D01*
X109131765Y-85340000D01*
X109301602Y-85325141D01*
X109521326Y-85266266D01*
X109727480Y-85170134D01*
X109913819Y-85039658D01*
X110074658Y-84878819D01*
X110205134Y-84692480D01*
X110301266Y-84486326D01*
X110353872Y-84290000D01*
X108925000Y-84290000D01*
X108425000Y-84290000D01*
X106996128Y-84290000D01*
X104768154Y-84290000D01*
X104785141Y-84226602D01*
X104804966Y-83999999D01*
X104803864Y-83987398D01*
X114790746Y-83987398D01*
X114796953Y-84117697D01*
X114800746Y-84197330D01*
X114850297Y-84401580D01*
X114937602Y-84592752D01*
X115043624Y-84741637D01*
X115059514Y-84763952D01*
X115211622Y-84908986D01*
X115225927Y-84918179D01*
X115388425Y-85022612D01*
X115401869Y-85027994D01*
X115583543Y-85100725D01*
X115712228Y-85125527D01*
X115789914Y-85140500D01*
X115789915Y-85140500D01*
X116747420Y-85140500D01*
X116747425Y-85140500D01*
X116904218Y-85125528D01*
X117105875Y-85066316D01*
X117292682Y-84970011D01*
X117457886Y-84840092D01*
X117595519Y-84681256D01*
X117700604Y-84499244D01*
X117769344Y-84300633D01*
X117799254Y-84092602D01*
X117789254Y-83882670D01*
X117739704Y-83678424D01*
X117738686Y-83676194D01*
X117652397Y-83487247D01*
X117556234Y-83352206D01*
X117530486Y-83316048D01*
X117378378Y-83171014D01*
X117337688Y-83144864D01*
X117201574Y-83057387D01*
X117045609Y-82994949D01*
X117006457Y-82979275D01*
X117006456Y-82979274D01*
X117006454Y-82979274D01*
X116800086Y-82939500D01*
X116800085Y-82939500D01*
X115842575Y-82939500D01*
X115744579Y-82948857D01*
X115685779Y-82954472D01*
X115484126Y-83013683D01*
X115297315Y-83109990D01*
X115132115Y-83239906D01*
X114994479Y-83398745D01*
X114889396Y-83580754D01*
X114820655Y-83779366D01*
X114803419Y-83899251D01*
X114790746Y-83987398D01*
X104803864Y-83987398D01*
X104786594Y-83790000D01*
X106996128Y-83790000D01*
X110353872Y-83790000D01*
X110353871Y-83789999D01*
X110301266Y-83593673D01*
X110205134Y-83387519D01*
X110074658Y-83201180D01*
X109913819Y-83040341D01*
X109727480Y-82909865D01*
X109521326Y-82813733D01*
X109417617Y-82785944D01*
X109362448Y-82754266D01*
X109330247Y-82699401D01*
X109329490Y-82635788D01*
X109360377Y-82580173D01*
X109414775Y-82547192D01*
X109485875Y-82526316D01*
X109672682Y-82430011D01*
X109837886Y-82300092D01*
X109975519Y-82141256D01*
X110080604Y-81959244D01*
X110149344Y-81760633D01*
X110179254Y-81552602D01*
X110174243Y-81447396D01*
X114790746Y-81447396D01*
X114800746Y-81657330D01*
X114850297Y-81861580D01*
X114937602Y-82052752D01*
X115028750Y-82180750D01*
X115059514Y-82223952D01*
X115211622Y-82368986D01*
X115283964Y-82415478D01*
X115388425Y-82482612D01*
X115427580Y-82498287D01*
X115583543Y-82560725D01*
X115684449Y-82580173D01*
X115789914Y-82600500D01*
X115789915Y-82600500D01*
X116747420Y-82600500D01*
X116747425Y-82600500D01*
X116904218Y-82585528D01*
X117105875Y-82526316D01*
X117292682Y-82430011D01*
X117457886Y-82300092D01*
X117595519Y-82141256D01*
X117700604Y-81959244D01*
X117769344Y-81760633D01*
X117799254Y-81552602D01*
X117789254Y-81342670D01*
X117739704Y-81138424D01*
X117739702Y-81138419D01*
X117652397Y-80947247D01*
X117564298Y-80823530D01*
X117530486Y-80776048D01*
X117378378Y-80631014D01*
X117346257Y-80610371D01*
X117201574Y-80517387D01*
X117031998Y-80449500D01*
X117006457Y-80439275D01*
X117006456Y-80439274D01*
X117006454Y-80439274D01*
X116800086Y-80399500D01*
X116800085Y-80399500D01*
X115842575Y-80399500D01*
X115744579Y-80408857D01*
X115685779Y-80414472D01*
X115484126Y-80473683D01*
X115297315Y-80569990D01*
X115132115Y-80699906D01*
X114994479Y-80858745D01*
X114889396Y-81040754D01*
X114820655Y-81239366D01*
X114790746Y-81447396D01*
X110174243Y-81447396D01*
X110169254Y-81342670D01*
X110119704Y-81138424D01*
X110119702Y-81138419D01*
X110032397Y-80947247D01*
X109944298Y-80823530D01*
X109910486Y-80776048D01*
X109758378Y-80631014D01*
X109726257Y-80610371D01*
X109581574Y-80517387D01*
X109411998Y-80449500D01*
X109386457Y-80439275D01*
X109386456Y-80439274D01*
X109386454Y-80439274D01*
X109180086Y-80399500D01*
X109180085Y-80399500D01*
X108222575Y-80399500D01*
X108124579Y-80408857D01*
X108065779Y-80414472D01*
X107864126Y-80473683D01*
X107677315Y-80569990D01*
X107512115Y-80699906D01*
X107374479Y-80858745D01*
X107269396Y-81040754D01*
X107200655Y-81239366D01*
X107170746Y-81447396D01*
X107180746Y-81657330D01*
X107230297Y-81861580D01*
X107317602Y-82052752D01*
X107408750Y-82180750D01*
X107439514Y-82223952D01*
X107591622Y-82368986D01*
X107663964Y-82415478D01*
X107768425Y-82482612D01*
X107813411Y-82500621D01*
X107942186Y-82552175D01*
X107991718Y-82588342D01*
X108017858Y-82643824D01*
X108014211Y-82705048D01*
X107981669Y-82757035D01*
X107928193Y-82787067D01*
X107828673Y-82813733D01*
X107622519Y-82909865D01*
X107436180Y-83040341D01*
X107275341Y-83201180D01*
X107144865Y-83387519D01*
X107048733Y-83593673D01*
X106996128Y-83789999D01*
X106996128Y-83790000D01*
X104786594Y-83790000D01*
X104785141Y-83773397D01*
X104726266Y-83553673D01*
X104630133Y-83347515D01*
X104579025Y-83274526D01*
X103853553Y-84000000D01*
X103853553Y-84000001D01*
X103146446Y-84000001D01*
X103146446Y-84000000D01*
X102420973Y-83274526D01*
X102420973Y-83274527D01*
X102369865Y-83347516D01*
X102273733Y-83553672D01*
X102214858Y-83773397D01*
X102195033Y-83999999D01*
X99605215Y-83999999D01*
X99586397Y-83796917D01*
X99576040Y-83760518D01*
X99552048Y-83676194D01*
X99530582Y-83600750D01*
X99492938Y-83525150D01*
X99439675Y-83418181D01*
X99316763Y-83255419D01*
X99166041Y-83118018D01*
X98992638Y-83010652D01*
X98802457Y-82936976D01*
X98716847Y-82920973D01*
X102774526Y-82920973D01*
X103500000Y-83646446D01*
X103500001Y-83646446D01*
X104225472Y-82920974D01*
X104225471Y-82920972D01*
X104152484Y-82869866D01*
X103946326Y-82773733D01*
X103726602Y-82714858D01*
X103500000Y-82695033D01*
X103273397Y-82714858D01*
X103053672Y-82773733D01*
X102847516Y-82869865D01*
X102774527Y-82920973D01*
X102774526Y-82920973D01*
X98716847Y-82920973D01*
X98601976Y-82899500D01*
X98398024Y-82899500D01*
X98298100Y-82918179D01*
X98197542Y-82936976D01*
X98007361Y-83010652D01*
X97833958Y-83118018D01*
X97683236Y-83255419D01*
X97560324Y-83418181D01*
X97469418Y-83600748D01*
X97413602Y-83796916D01*
X97394785Y-84000000D01*
X79513497Y-84000000D01*
X79522366Y-83988255D01*
X79522366Y-83988253D01*
X79522368Y-83988252D01*
X79571404Y-83889773D01*
X79617405Y-83797389D01*
X79675756Y-83592310D01*
X79695429Y-83380000D01*
X79675756Y-83167690D01*
X79674085Y-83161818D01*
X79651385Y-83082035D01*
X79617405Y-82962611D01*
X79605897Y-82939500D01*
X79522368Y-82771747D01*
X79393873Y-82601594D01*
X79376248Y-82585527D01*
X79236302Y-82457948D01*
X79236301Y-82457947D01*
X79055014Y-82345699D01*
X79026038Y-82334474D01*
X78978767Y-82301915D01*
X78951223Y-82251556D01*
X78949309Y-82194189D01*
X78973433Y-82142105D01*
X79018427Y-82106466D01*
X79217576Y-82013600D01*
X79237000Y-81999999D01*
X83014699Y-81999999D01*
X83033865Y-82231299D01*
X83033865Y-82231301D01*
X83033866Y-82231305D01*
X83090843Y-82456300D01*
X83090844Y-82456303D01*
X83167094Y-82630134D01*
X83184076Y-82668849D01*
X83311021Y-82863153D01*
X83468216Y-83033913D01*
X83651374Y-83176470D01*
X83855497Y-83286936D01*
X83940303Y-83316050D01*
X84075015Y-83362297D01*
X84075017Y-83362297D01*
X84075019Y-83362298D01*
X84303951Y-83400500D01*
X84536048Y-83400500D01*
X84536049Y-83400500D01*
X84764981Y-83362298D01*
X84984503Y-83286936D01*
X85188626Y-83176470D01*
X85229230Y-83144867D01*
X93179500Y-83144867D01*
X93182414Y-83169988D01*
X93182414Y-83169990D01*
X93182415Y-83169991D01*
X93213286Y-83239908D01*
X93227795Y-83272767D01*
X93307232Y-83352204D01*
X93307233Y-83352204D01*
X93307235Y-83352206D01*
X93410009Y-83397585D01*
X93435135Y-83400500D01*
X95724864Y-83400499D01*
X95724867Y-83400499D01*
X95739988Y-83398745D01*
X95749991Y-83397585D01*
X95852765Y-83352206D01*
X95932206Y-83272765D01*
X95977585Y-83169991D01*
X95980500Y-83144865D01*
X95980499Y-80855136D01*
X95979615Y-80847516D01*
X95977585Y-80830011D01*
X95977585Y-80830009D01*
X95932206Y-80727235D01*
X95932204Y-80727233D01*
X95932204Y-80727232D01*
X95852767Y-80647795D01*
X95852765Y-80647794D01*
X95749991Y-80602415D01*
X95724865Y-80599500D01*
X95724863Y-80599500D01*
X93435132Y-80599500D01*
X93410011Y-80602414D01*
X93307232Y-80647795D01*
X93227795Y-80727232D01*
X93182415Y-80830009D01*
X93179500Y-80855136D01*
X93179500Y-83144867D01*
X85229230Y-83144867D01*
X85371784Y-83033913D01*
X85528979Y-82863153D01*
X85655924Y-82668849D01*
X85749157Y-82456300D01*
X85806134Y-82231305D01*
X85825300Y-82000000D01*
X85806134Y-81768695D01*
X85749157Y-81543700D01*
X85655924Y-81331151D01*
X85528979Y-81136847D01*
X85371784Y-80966087D01*
X85188626Y-80823530D01*
X84984503Y-80713064D01*
X84984499Y-80713062D01*
X84984498Y-80713062D01*
X84764984Y-80637702D01*
X84593282Y-80609050D01*
X84536049Y-80599500D01*
X84303951Y-80599500D01*
X84258164Y-80607140D01*
X84075015Y-80637702D01*
X83855501Y-80713062D01*
X83855497Y-80713063D01*
X83855497Y-80713064D01*
X83739113Y-80776048D01*
X83651372Y-80823531D01*
X83468215Y-80966087D01*
X83311020Y-81136848D01*
X83184076Y-81331150D01*
X83090844Y-81543696D01*
X83090842Y-81543700D01*
X83090843Y-81543700D01*
X83044526Y-81726602D01*
X83033865Y-81768700D01*
X83014699Y-81999999D01*
X79237000Y-81999999D01*
X79411081Y-81878106D01*
X79578106Y-81711081D01*
X79713600Y-81517576D01*
X79813430Y-81303492D01*
X79870636Y-81090000D01*
X74669364Y-81090000D01*
X72000500Y-81090000D01*
X72000500Y-78550000D01*
X74669364Y-78550000D01*
X74726569Y-78763492D01*
X74826399Y-78977576D01*
X74961893Y-79171081D01*
X75128918Y-79338106D01*
X75315031Y-79468425D01*
X75353896Y-79512743D01*
X75367907Y-79570000D01*
X75353896Y-79627257D01*
X75315031Y-79671575D01*
X75128918Y-79801893D01*
X74961890Y-79968921D01*
X74826400Y-80162421D01*
X74726569Y-80376507D01*
X74669364Y-80589999D01*
X74669364Y-80590000D01*
X75750000Y-80590000D01*
X75750000Y-78550000D01*
X76250000Y-78550000D01*
X76250000Y-80590000D01*
X78290000Y-80590000D01*
X78290000Y-78550000D01*
X78790000Y-78550000D01*
X78790000Y-80590000D01*
X79870636Y-80590000D01*
X79870635Y-80589999D01*
X79813430Y-80376507D01*
X79713599Y-80162421D01*
X79578109Y-79968921D01*
X79411081Y-79801893D01*
X79224968Y-79671575D01*
X79186103Y-79627257D01*
X79172092Y-79570000D01*
X79186103Y-79512743D01*
X79224968Y-79468425D01*
X79411081Y-79338106D01*
X79578106Y-79171081D01*
X79713600Y-78977576D01*
X79813430Y-78763492D01*
X79862597Y-78580000D01*
X97894785Y-78580000D01*
X97913602Y-78783083D01*
X97969418Y-78979251D01*
X98060324Y-79161818D01*
X98183236Y-79324580D01*
X98333958Y-79461981D01*
X98505449Y-79568163D01*
X98507363Y-79569348D01*
X98697544Y-79643024D01*
X98898024Y-79680500D01*
X99101974Y-79680500D01*
X99101976Y-79680500D01*
X99302456Y-79643024D01*
X99492637Y-79569348D01*
X99666041Y-79461981D01*
X99723778Y-79409347D01*
X99816763Y-79324580D01*
X99816764Y-79324579D01*
X99939673Y-79161821D01*
X99939673Y-79161819D01*
X99939675Y-79161818D01*
X99988906Y-79062947D01*
X100030582Y-78979250D01*
X100086397Y-78783083D01*
X100105215Y-78580000D01*
X100086397Y-78376917D01*
X100069845Y-78318745D01*
X100042719Y-78223407D01*
X100030582Y-78180750D01*
X100020203Y-78159906D01*
X99940581Y-78000000D01*
X103069785Y-78000000D01*
X103088602Y-78203083D01*
X103144418Y-78399251D01*
X103235324Y-78581818D01*
X103358236Y-78744580D01*
X103508958Y-78881981D01*
X103666298Y-78979401D01*
X103682363Y-78989348D01*
X103872544Y-79063024D01*
X104073024Y-79100500D01*
X104276974Y-79100500D01*
X104276976Y-79100500D01*
X104477456Y-79063024D01*
X104667637Y-78989348D01*
X104799991Y-78907398D01*
X107170746Y-78907398D01*
X107180746Y-79117330D01*
X107191539Y-79161821D01*
X107230297Y-79321580D01*
X107317602Y-79512752D01*
X107410369Y-79643024D01*
X107439514Y-79683952D01*
X107591622Y-79828986D01*
X107641054Y-79860754D01*
X107768425Y-79942612D01*
X107807580Y-79958287D01*
X107963543Y-80020725D01*
X108092228Y-80045527D01*
X108169914Y-80060500D01*
X108169915Y-80060500D01*
X109127420Y-80060500D01*
X109127425Y-80060500D01*
X109284218Y-80045528D01*
X109485875Y-79986316D01*
X109672682Y-79890011D01*
X109837886Y-79760092D01*
X109975519Y-79601256D01*
X110080604Y-79419244D01*
X110149344Y-79220633D01*
X110179254Y-79012602D01*
X110174243Y-78907398D01*
X114790746Y-78907398D01*
X114800746Y-79117330D01*
X114811539Y-79161821D01*
X114850297Y-79321580D01*
X114937602Y-79512752D01*
X115030369Y-79643024D01*
X115059514Y-79683952D01*
X115211622Y-79828986D01*
X115261054Y-79860754D01*
X115388425Y-79942612D01*
X115427580Y-79958287D01*
X115583543Y-80020725D01*
X115712228Y-80045527D01*
X115789914Y-80060500D01*
X115789915Y-80060500D01*
X116747420Y-80060500D01*
X116747425Y-80060500D01*
X116904218Y-80045528D01*
X117105875Y-79986316D01*
X117292682Y-79890011D01*
X117457886Y-79760092D01*
X117595519Y-79601256D01*
X117700604Y-79419244D01*
X117769344Y-79220633D01*
X117799254Y-79012602D01*
X117789254Y-78802670D01*
X117739704Y-78598424D01*
X117732122Y-78581821D01*
X117652397Y-78407247D01*
X117553705Y-78268655D01*
X117530486Y-78236048D01*
X117476997Y-78185047D01*
X121445850Y-78185047D01*
X121455570Y-78364339D01*
X121503606Y-78537349D01*
X121550444Y-78625695D01*
X121564640Y-78675946D01*
X121556891Y-78727586D01*
X121528570Y-78771457D01*
X121497795Y-78802232D01*
X121468605Y-78868342D01*
X121452415Y-78905009D01*
X121451165Y-78915788D01*
X121449500Y-78930136D01*
X121449500Y-80069867D01*
X121452414Y-80094988D01*
X121497795Y-80197767D01*
X121577232Y-80277204D01*
X121577233Y-80277204D01*
X121577235Y-80277206D01*
X121680009Y-80322585D01*
X121705135Y-80325500D01*
X123294864Y-80325499D01*
X123294867Y-80325499D01*
X123307427Y-80324042D01*
X123319991Y-80322585D01*
X123422765Y-80277206D01*
X123502206Y-80197765D01*
X123547585Y-80094991D01*
X123550500Y-80069865D01*
X123550499Y-78930136D01*
X123547585Y-78905009D01*
X123502206Y-78802235D01*
X123502204Y-78802233D01*
X123502204Y-78802232D01*
X123474642Y-78774670D01*
X123444814Y-78726582D01*
X123439458Y-78670248D01*
X123454214Y-78631703D01*
X123453648Y-78631478D01*
X123458638Y-78618953D01*
X123458640Y-78618951D01*
X123525101Y-78452147D01*
X123554150Y-78274955D01*
X123544429Y-78095661D01*
X123535367Y-78063024D01*
X123496393Y-77922649D01*
X123412286Y-77764008D01*
X123338657Y-77677325D01*
X123311602Y-77621512D01*
X123314962Y-77559580D01*
X123347892Y-77507024D01*
X123357875Y-77497569D01*
X123363450Y-77489347D01*
X123458640Y-77348952D01*
X123525100Y-77182149D01*
X123525099Y-77182149D01*
X123525101Y-77182147D01*
X123554150Y-77004955D01*
X123544429Y-76825661D01*
X123537304Y-76800000D01*
X123496393Y-76652649D01*
X123412286Y-76494008D01*
X123364352Y-76437576D01*
X123296044Y-76357157D01*
X123283767Y-76347824D01*
X123153098Y-76248491D01*
X122990140Y-76173099D01*
X122814779Y-76134500D01*
X122230240Y-76134500D01*
X122096495Y-76149045D01*
X121926338Y-76206377D01*
X121772482Y-76298949D01*
X121642124Y-76422432D01*
X121541359Y-76571047D01*
X121474899Y-76737850D01*
X121463896Y-76804966D01*
X121448399Y-76899500D01*
X121445850Y-76915047D01*
X121455570Y-77094339D01*
X121503606Y-77267350D01*
X121587713Y-77425991D01*
X121661342Y-77512674D01*
X121688396Y-77568484D01*
X121685039Y-77630413D01*
X121652111Y-77682971D01*
X121642125Y-77692430D01*
X121541359Y-77841047D01*
X121474899Y-78007850D01*
X121460504Y-78095660D01*
X121446265Y-78182517D01*
X121445850Y-78185047D01*
X117476997Y-78185047D01*
X117378378Y-78091014D01*
X117334825Y-78063024D01*
X117201574Y-77977387D01*
X117045609Y-77914949D01*
X117006457Y-77899275D01*
X117006456Y-77899274D01*
X117006454Y-77899274D01*
X116800086Y-77859500D01*
X116800085Y-77859500D01*
X115842575Y-77859500D01*
X115744579Y-77868857D01*
X115685779Y-77874472D01*
X115484126Y-77933683D01*
X115297315Y-78029990D01*
X115132115Y-78159906D01*
X114994479Y-78318745D01*
X114889396Y-78500754D01*
X114820655Y-78699366D01*
X114796361Y-78868342D01*
X114790746Y-78907398D01*
X110174243Y-78907398D01*
X110169254Y-78802670D01*
X110119704Y-78598424D01*
X110112122Y-78581821D01*
X110032397Y-78407247D01*
X109933705Y-78268655D01*
X109910486Y-78236048D01*
X109758378Y-78091014D01*
X109714825Y-78063024D01*
X109581574Y-77977387D01*
X109425609Y-77914949D01*
X109386457Y-77899275D01*
X109386456Y-77899274D01*
X109386454Y-77899274D01*
X109180086Y-77859500D01*
X109180085Y-77859500D01*
X108222575Y-77859500D01*
X108124579Y-77868857D01*
X108065779Y-77874472D01*
X107864126Y-77933683D01*
X107677315Y-78029990D01*
X107512115Y-78159906D01*
X107374479Y-78318745D01*
X107269396Y-78500754D01*
X107200655Y-78699366D01*
X107176361Y-78868342D01*
X107170746Y-78907398D01*
X104799991Y-78907398D01*
X104841041Y-78881981D01*
X104991764Y-78744579D01*
X105114673Y-78581821D01*
X105114673Y-78581819D01*
X105114675Y-78581818D01*
X105165723Y-78479298D01*
X105205582Y-78399250D01*
X105261397Y-78203083D01*
X105280215Y-78000000D01*
X105261397Y-77796917D01*
X105257253Y-77782354D01*
X105231668Y-77692431D01*
X105205582Y-77600750D01*
X105174346Y-77538019D01*
X105114675Y-77418181D01*
X104991763Y-77255419D01*
X104841041Y-77118018D01*
X104667638Y-77010652D01*
X104477457Y-76936976D01*
X104410629Y-76924483D01*
X104276976Y-76899500D01*
X104073024Y-76899500D01*
X103972784Y-76918237D01*
X103872542Y-76936976D01*
X103682361Y-77010652D01*
X103508958Y-77118018D01*
X103358236Y-77255419D01*
X103235324Y-77418181D01*
X103144418Y-77600748D01*
X103088602Y-77796916D01*
X103069785Y-78000000D01*
X99940581Y-78000000D01*
X99939675Y-77998181D01*
X99816763Y-77835419D01*
X99666041Y-77698018D01*
X99492638Y-77590652D01*
X99302457Y-77516976D01*
X99198637Y-77497569D01*
X99101976Y-77479500D01*
X98898024Y-77479500D01*
X98801384Y-77497565D01*
X98697542Y-77516976D01*
X98507361Y-77590652D01*
X98333958Y-77698018D01*
X98183236Y-77835419D01*
X98060324Y-77998181D01*
X97969418Y-78180748D01*
X97913602Y-78376916D01*
X97894785Y-78580000D01*
X79862597Y-78580000D01*
X79870636Y-78550000D01*
X78790000Y-78550000D01*
X78290000Y-78550000D01*
X76250000Y-78550000D01*
X75750000Y-78550000D01*
X74669364Y-78550000D01*
X72000500Y-78550000D01*
X72000500Y-76010000D01*
X74669364Y-76010000D01*
X74726569Y-76223492D01*
X74826399Y-76437576D01*
X74961893Y-76631081D01*
X75128918Y-76798106D01*
X75315031Y-76928425D01*
X75353896Y-76972743D01*
X75367907Y-77030000D01*
X75353896Y-77087257D01*
X75315031Y-77131575D01*
X75128918Y-77261893D01*
X74961890Y-77428921D01*
X74826400Y-77622421D01*
X74726569Y-77836507D01*
X74669364Y-78049999D01*
X74669364Y-78050000D01*
X75750000Y-78050000D01*
X75750000Y-76010000D01*
X76250000Y-76010000D01*
X76250000Y-78050000D01*
X78290000Y-78050000D01*
X78290000Y-76010000D01*
X78790000Y-76010000D01*
X78790000Y-78050000D01*
X79870636Y-78050000D01*
X79870635Y-78049999D01*
X79813430Y-77836507D01*
X79713599Y-77622421D01*
X79578109Y-77428921D01*
X79411081Y-77261893D01*
X79224968Y-77131575D01*
X79186103Y-77087257D01*
X79172092Y-77030000D01*
X79186103Y-76972743D01*
X79224968Y-76928425D01*
X79411081Y-76798106D01*
X79578106Y-76631081D01*
X79713600Y-76437576D01*
X79813430Y-76223492D01*
X79870636Y-76010000D01*
X78790000Y-76010000D01*
X78290000Y-76010000D01*
X76250000Y-76010000D01*
X75750000Y-76010000D01*
X74669364Y-76010000D01*
X72000500Y-76010000D01*
X72000500Y-75510000D01*
X74669364Y-75510000D01*
X79870636Y-75510000D01*
X79870635Y-75509999D01*
X79867956Y-75500000D01*
X83394785Y-75500000D01*
X83413602Y-75703083D01*
X83469418Y-75899251D01*
X83560324Y-76081818D01*
X83683236Y-76244580D01*
X83833958Y-76381981D01*
X84007361Y-76489347D01*
X84007363Y-76489348D01*
X84197544Y-76563024D01*
X84398024Y-76600500D01*
X84601974Y-76600500D01*
X84601976Y-76600500D01*
X84802456Y-76563024D01*
X84992637Y-76489348D01*
X85062536Y-76446068D01*
X85113910Y-76428278D01*
X85167958Y-76434175D01*
X85214289Y-76462626D01*
X85243994Y-76508163D01*
X85256647Y-76542088D01*
X85342811Y-76657188D01*
X85457910Y-76743352D01*
X85592624Y-76793597D01*
X85652176Y-76800000D01*
X86250000Y-76800000D01*
X86250000Y-75750000D01*
X86750000Y-75750000D01*
X86750000Y-76800000D01*
X87347824Y-76800000D01*
X87407375Y-76793597D01*
X87542089Y-76743352D01*
X87657188Y-76657188D01*
X87715701Y-76579026D01*
X91774526Y-76579026D01*
X91847515Y-76630133D01*
X92053673Y-76726266D01*
X92273397Y-76785141D01*
X92500000Y-76804966D01*
X92726602Y-76785141D01*
X92946326Y-76726266D01*
X93152480Y-76630134D01*
X93333500Y-76503383D01*
X93386652Y-76482267D01*
X93443627Y-76487252D01*
X93492305Y-76517277D01*
X93527232Y-76552204D01*
X93527233Y-76552204D01*
X93527235Y-76552206D01*
X93630009Y-76597585D01*
X93655135Y-76600500D01*
X95344864Y-76600499D01*
X95344867Y-76600499D01*
X95357427Y-76599042D01*
X95369991Y-76597585D01*
X95472765Y-76552206D01*
X95552206Y-76472765D01*
X95597585Y-76369991D01*
X95600500Y-76344865D01*
X95600499Y-75500000D01*
X103069785Y-75500000D01*
X103088602Y-75703083D01*
X103144418Y-75899251D01*
X103235324Y-76081818D01*
X103358236Y-76244580D01*
X103508958Y-76381981D01*
X103682361Y-76489347D01*
X103682363Y-76489348D01*
X103872544Y-76563024D01*
X104073024Y-76600500D01*
X104276974Y-76600500D01*
X104276976Y-76600500D01*
X104477456Y-76563024D01*
X104667637Y-76489348D01*
X104841041Y-76381981D01*
X104857038Y-76367398D01*
X107170746Y-76367398D01*
X107180065Y-76563024D01*
X107180746Y-76577330D01*
X107230297Y-76781580D01*
X107317602Y-76972752D01*
X107421047Y-77118019D01*
X107439514Y-77143952D01*
X107591622Y-77288986D01*
X107641054Y-77320754D01*
X107768425Y-77402612D01*
X107806556Y-77417877D01*
X107963543Y-77480725D01*
X108082147Y-77503584D01*
X108169914Y-77520500D01*
X108169915Y-77520500D01*
X109127420Y-77520500D01*
X109127425Y-77520500D01*
X109284218Y-77505528D01*
X109485875Y-77446316D01*
X109672682Y-77350011D01*
X109837886Y-77220092D01*
X109975519Y-77061256D01*
X110080604Y-76879244D01*
X110149344Y-76680633D01*
X110179254Y-76472602D01*
X110174243Y-76367398D01*
X114790746Y-76367398D01*
X114800065Y-76563024D01*
X114800746Y-76577330D01*
X114850297Y-76781580D01*
X114937602Y-76972752D01*
X115041047Y-77118019D01*
X115059514Y-77143952D01*
X115211622Y-77288986D01*
X115261054Y-77320754D01*
X115388425Y-77402612D01*
X115426556Y-77417877D01*
X115583543Y-77480725D01*
X115702147Y-77503584D01*
X115789914Y-77520500D01*
X115789915Y-77520500D01*
X116747420Y-77520500D01*
X116747425Y-77520500D01*
X116904218Y-77505528D01*
X117105875Y-77446316D01*
X117292682Y-77350011D01*
X117457886Y-77220092D01*
X117595519Y-77061256D01*
X117700604Y-76879244D01*
X117769344Y-76680633D01*
X117799254Y-76472602D01*
X117789254Y-76262670D01*
X117739704Y-76058424D01*
X117739702Y-76058419D01*
X117652397Y-75867247D01*
X117552243Y-75726602D01*
X117530486Y-75696048D01*
X117378378Y-75551014D01*
X117315574Y-75510652D01*
X117201574Y-75437387D01*
X117033549Y-75370121D01*
X117006457Y-75359275D01*
X117006456Y-75359274D01*
X117006454Y-75359274D01*
X116800086Y-75319500D01*
X116800085Y-75319500D01*
X115842575Y-75319500D01*
X115744579Y-75328857D01*
X115685779Y-75334472D01*
X115484126Y-75393683D01*
X115297315Y-75489990D01*
X115132115Y-75619906D01*
X114994479Y-75778745D01*
X114889396Y-75960754D01*
X114820655Y-76159366D01*
X114792218Y-76357157D01*
X114790746Y-76367398D01*
X110174243Y-76367398D01*
X110169254Y-76262670D01*
X110119704Y-76058424D01*
X110119702Y-76058419D01*
X110032397Y-75867247D01*
X109932243Y-75726602D01*
X109910486Y-75696048D01*
X109758378Y-75551014D01*
X109695574Y-75510652D01*
X109581574Y-75437387D01*
X109413549Y-75370121D01*
X109386457Y-75359275D01*
X109386456Y-75359274D01*
X109386454Y-75359274D01*
X109180086Y-75319500D01*
X109180085Y-75319500D01*
X108222575Y-75319500D01*
X108124579Y-75328857D01*
X108065779Y-75334472D01*
X107864126Y-75393683D01*
X107677315Y-75489990D01*
X107512115Y-75619906D01*
X107374479Y-75778745D01*
X107269396Y-75960754D01*
X107200655Y-76159366D01*
X107172218Y-76357157D01*
X107170746Y-76367398D01*
X104857038Y-76367398D01*
X104868273Y-76357156D01*
X104991763Y-76244580D01*
X105006193Y-76225472D01*
X105114673Y-76081821D01*
X105114673Y-76081819D01*
X105114675Y-76081818D01*
X105186797Y-75936976D01*
X105205582Y-75899250D01*
X105261397Y-75703083D01*
X105280215Y-75500000D01*
X105261397Y-75296917D01*
X105261280Y-75296507D01*
X105213309Y-75127908D01*
X105205582Y-75100750D01*
X105182140Y-75053672D01*
X105114675Y-74918181D01*
X104991763Y-74755419D01*
X104841041Y-74618018D01*
X104667638Y-74510652D01*
X104477457Y-74436976D01*
X104391847Y-74420973D01*
X104276976Y-74399500D01*
X104073024Y-74399500D01*
X103989758Y-74415065D01*
X103872542Y-74436976D01*
X103682361Y-74510652D01*
X103508958Y-74618018D01*
X103358236Y-74755419D01*
X103235324Y-74918181D01*
X103144418Y-75100748D01*
X103088602Y-75296916D01*
X103069785Y-75500000D01*
X95600499Y-75500000D01*
X95600499Y-74655136D01*
X95597585Y-74630009D01*
X95552206Y-74527235D01*
X95552204Y-74527233D01*
X95552204Y-74527232D01*
X95472767Y-74447795D01*
X95438700Y-74432753D01*
X95369991Y-74402415D01*
X95344865Y-74399500D01*
X95344863Y-74399500D01*
X93655132Y-74399500D01*
X93630011Y-74402414D01*
X93527232Y-74447795D01*
X93492304Y-74482723D01*
X93443627Y-74512747D01*
X93386652Y-74517732D01*
X93333501Y-74496616D01*
X93152483Y-74369866D01*
X92946326Y-74273733D01*
X92726602Y-74214858D01*
X92500000Y-74195033D01*
X92273397Y-74214858D01*
X92053672Y-74273733D01*
X91847516Y-74369865D01*
X91774526Y-74420973D01*
X92765871Y-75412318D01*
X92797965Y-75467905D01*
X92797965Y-75532093D01*
X92765871Y-75587680D01*
X91774526Y-76579025D01*
X91774526Y-76579026D01*
X87715701Y-76579026D01*
X87743352Y-76542089D01*
X87793597Y-76407375D01*
X87800000Y-76347824D01*
X87800000Y-75750000D01*
X86750000Y-75750000D01*
X86250000Y-75750000D01*
X86250000Y-75500000D01*
X91195033Y-75500000D01*
X91214858Y-75726602D01*
X91273733Y-75946326D01*
X91369866Y-76152484D01*
X91420972Y-76225471D01*
X91420974Y-76225472D01*
X92146446Y-75500001D01*
X92146446Y-75500000D01*
X91420973Y-74774526D01*
X91420973Y-74774527D01*
X91369865Y-74847516D01*
X91273733Y-75053672D01*
X91214858Y-75273397D01*
X91195033Y-75500000D01*
X86250000Y-75500000D01*
X86250000Y-74200000D01*
X86750000Y-74200000D01*
X86750000Y-75250000D01*
X87800000Y-75250000D01*
X87800000Y-74652176D01*
X87793597Y-74592624D01*
X87743352Y-74457910D01*
X87657188Y-74342811D01*
X87542089Y-74256647D01*
X87407375Y-74206402D01*
X87347824Y-74200000D01*
X86750000Y-74200000D01*
X86250000Y-74200000D01*
X85652176Y-74200000D01*
X85592624Y-74206402D01*
X85457910Y-74256647D01*
X85342811Y-74342811D01*
X85256646Y-74457912D01*
X85243992Y-74491839D01*
X85214286Y-74537374D01*
X85167956Y-74565825D01*
X85113908Y-74571721D01*
X85062534Y-74553930D01*
X84992638Y-74510652D01*
X84802457Y-74436976D01*
X84716847Y-74420973D01*
X84601976Y-74399500D01*
X84398024Y-74399500D01*
X84314758Y-74415065D01*
X84197542Y-74436976D01*
X84007361Y-74510652D01*
X83833958Y-74618018D01*
X83683236Y-74755419D01*
X83560324Y-74918181D01*
X83469418Y-75100748D01*
X83413602Y-75296916D01*
X83394785Y-75500000D01*
X79867956Y-75500000D01*
X79813430Y-75296507D01*
X79713599Y-75082421D01*
X79578109Y-74888921D01*
X79411081Y-74721893D01*
X79217576Y-74586399D01*
X79018427Y-74493533D01*
X78973432Y-74457893D01*
X78949308Y-74405809D01*
X78951224Y-74348441D01*
X78978769Y-74298083D01*
X79026038Y-74265524D01*
X79055019Y-74254298D01*
X79236302Y-74142052D01*
X79393872Y-73998407D01*
X79522366Y-73828255D01*
X79522366Y-73828253D01*
X79522368Y-73828252D01*
X79522794Y-73827396D01*
X107170746Y-73827396D01*
X107180746Y-74037330D01*
X107230297Y-74241580D01*
X107317602Y-74432752D01*
X107409996Y-74562500D01*
X107439514Y-74603952D01*
X107591622Y-74748986D01*
X107656471Y-74790662D01*
X107768425Y-74862612D01*
X107807580Y-74878287D01*
X107963543Y-74940725D01*
X108092228Y-74965527D01*
X108169914Y-74980500D01*
X108169915Y-74980500D01*
X109127420Y-74980500D01*
X109127425Y-74980500D01*
X109284218Y-74965528D01*
X109485875Y-74906316D01*
X109672682Y-74810011D01*
X109837886Y-74680092D01*
X109975519Y-74521256D01*
X110080604Y-74339244D01*
X110149344Y-74140633D01*
X110179254Y-73932602D01*
X110174243Y-73827396D01*
X114790746Y-73827396D01*
X114800746Y-74037330D01*
X114850297Y-74241580D01*
X114937602Y-74432752D01*
X115029996Y-74562500D01*
X115059514Y-74603952D01*
X115211622Y-74748986D01*
X115276471Y-74790662D01*
X115388425Y-74862612D01*
X115427580Y-74878287D01*
X115583543Y-74940725D01*
X115712228Y-74965527D01*
X115789914Y-74980500D01*
X115789915Y-74980500D01*
X116747420Y-74980500D01*
X116747425Y-74980500D01*
X116904218Y-74965528D01*
X117105875Y-74906316D01*
X117292682Y-74810011D01*
X117457886Y-74680092D01*
X117462475Y-74674796D01*
X117489770Y-74643297D01*
X117531971Y-74611705D01*
X117583482Y-74600500D01*
X128543035Y-74600500D01*
X128599330Y-74614015D01*
X128643353Y-74651615D01*
X128665508Y-74705102D01*
X128660966Y-74762818D01*
X128630716Y-74812181D01*
X128104264Y-75338631D01*
X128093898Y-75347895D01*
X128066031Y-75370118D01*
X128033824Y-75417356D01*
X128031144Y-75421132D01*
X127993633Y-75471959D01*
X127991301Y-75476578D01*
X127972674Y-75536966D01*
X127971225Y-75541369D01*
X127950369Y-75600973D01*
X127949500Y-75606090D01*
X127949500Y-75669262D01*
X127949413Y-75673899D01*
X127947050Y-75737029D01*
X127949500Y-75755635D01*
X127949500Y-83287738D01*
X127948720Y-83301622D01*
X127944729Y-83337034D01*
X127955356Y-83393194D01*
X127956130Y-83397751D01*
X127956545Y-83400499D01*
X127965550Y-83460248D01*
X127967163Y-83465148D01*
X127996687Y-83521010D01*
X127998777Y-83525150D01*
X128026184Y-83582060D01*
X128029183Y-83586287D01*
X128073846Y-83630950D01*
X128077063Y-83634289D01*
X128120043Y-83680611D01*
X128134930Y-83692034D01*
X128824877Y-84381981D01*
X129496612Y-85053715D01*
X129528949Y-85110226D01*
X129528197Y-85175330D01*
X129493603Y-85296915D01*
X129474785Y-85500000D01*
X129493602Y-85703083D01*
X129549418Y-85899251D01*
X129640324Y-86081818D01*
X129763236Y-86244580D01*
X129913958Y-86381981D01*
X130077149Y-86483024D01*
X130087363Y-86489348D01*
X130277544Y-86563024D01*
X130478024Y-86600500D01*
X130681974Y-86600500D01*
X130681976Y-86600500D01*
X130882456Y-86563024D01*
X131072637Y-86489348D01*
X131246041Y-86381981D01*
X131396764Y-86244579D01*
X131519673Y-86081821D01*
X131519673Y-86081819D01*
X131519675Y-86081818D01*
X131580832Y-85958996D01*
X131610582Y-85899250D01*
X131666397Y-85703083D01*
X131685215Y-85500000D01*
X131677802Y-85420000D01*
X133894785Y-85420000D01*
X133913602Y-85623083D01*
X133969418Y-85819251D01*
X134060324Y-86001818D01*
X134183236Y-86164580D01*
X134333958Y-86301981D01*
X134507361Y-86409347D01*
X134507363Y-86409348D01*
X134697544Y-86483024D01*
X134898024Y-86520500D01*
X135101974Y-86520500D01*
X135101976Y-86520500D01*
X135302456Y-86483024D01*
X135492637Y-86409348D01*
X135666041Y-86301981D01*
X135729008Y-86244579D01*
X135816763Y-86164580D01*
X135839983Y-86133832D01*
X135939673Y-86001821D01*
X135939673Y-86001819D01*
X135939675Y-86001818D01*
X136028241Y-85823951D01*
X136030582Y-85819250D01*
X136086397Y-85623083D01*
X136105215Y-85420000D01*
X136086397Y-85216917D01*
X136064965Y-85141594D01*
X136061705Y-85130134D01*
X136030582Y-85020750D01*
X136005316Y-84970009D01*
X135939675Y-84838181D01*
X135816763Y-84675419D01*
X135666041Y-84538018D01*
X135492638Y-84430652D01*
X135302457Y-84356976D01*
X135235629Y-84344483D01*
X135101976Y-84319500D01*
X134898024Y-84319500D01*
X134797783Y-84338238D01*
X134697542Y-84356976D01*
X134507361Y-84430652D01*
X134333958Y-84538018D01*
X134183236Y-84675419D01*
X134060324Y-84838181D01*
X133969418Y-85020748D01*
X133913602Y-85216916D01*
X133894785Y-85420000D01*
X131677802Y-85420000D01*
X131666397Y-85296917D01*
X131666396Y-85296915D01*
X131630324Y-85170134D01*
X131610582Y-85100750D01*
X131591797Y-85063024D01*
X131519675Y-84918181D01*
X131396763Y-84755419D01*
X131246041Y-84618018D01*
X131072638Y-84510652D01*
X130882457Y-84436976D01*
X130761240Y-84414317D01*
X130681976Y-84399500D01*
X130478024Y-84399500D01*
X130398760Y-84414317D01*
X130277537Y-84436977D01*
X130263888Y-84442265D01*
X130217187Y-84450621D01*
X130170765Y-84440827D01*
X130131420Y-84414317D01*
X128886819Y-83169716D01*
X128859939Y-83129488D01*
X128850500Y-83082035D01*
X128850500Y-82579026D01*
X134274526Y-82579026D01*
X134347515Y-82630133D01*
X134553673Y-82726266D01*
X134773397Y-82785141D01*
X135000000Y-82804966D01*
X135226602Y-82785141D01*
X135446326Y-82726266D01*
X135652480Y-82630134D01*
X135725472Y-82579025D01*
X135000001Y-81853553D01*
X135000000Y-81853553D01*
X134274526Y-82579025D01*
X134274526Y-82579026D01*
X128850500Y-82579026D01*
X128850500Y-81499999D01*
X133695033Y-81499999D01*
X133714858Y-81726602D01*
X133773733Y-81946326D01*
X133869866Y-82152484D01*
X133920972Y-82225471D01*
X133920974Y-82225472D01*
X134646446Y-81500001D01*
X135353553Y-81500001D01*
X136079025Y-82225472D01*
X136130134Y-82152480D01*
X136226266Y-81946326D01*
X136285141Y-81726602D01*
X136304966Y-81499999D01*
X136285141Y-81273397D01*
X136226266Y-81053673D01*
X136201238Y-81000000D01*
X138695033Y-81000000D01*
X138714858Y-81226602D01*
X138773733Y-81446326D01*
X138869866Y-81652484D01*
X138920972Y-81725471D01*
X138920973Y-81725472D01*
X139646446Y-80999999D01*
X139646446Y-80999998D01*
X138920973Y-80274527D01*
X138869865Y-80347516D01*
X138773733Y-80553672D01*
X138714858Y-80773397D01*
X138695033Y-81000000D01*
X136201238Y-81000000D01*
X136130133Y-80847515D01*
X136079025Y-80774526D01*
X135353553Y-81500000D01*
X135353553Y-81500001D01*
X134646446Y-81500001D01*
X134646446Y-81500000D01*
X133920973Y-80774526D01*
X133920973Y-80774527D01*
X133869865Y-80847516D01*
X133773733Y-81053672D01*
X133714858Y-81273397D01*
X133695033Y-81499999D01*
X128850500Y-81499999D01*
X128850500Y-80449500D01*
X128858144Y-80420973D01*
X134274526Y-80420973D01*
X135000000Y-81146446D01*
X135000001Y-81146446D01*
X135725472Y-80420974D01*
X135725471Y-80420972D01*
X135652484Y-80369866D01*
X135446326Y-80273733D01*
X135226602Y-80214858D01*
X135000000Y-80195033D01*
X134773397Y-80214858D01*
X134553672Y-80273733D01*
X134347516Y-80369865D01*
X134274527Y-80420973D01*
X134274526Y-80420973D01*
X128858144Y-80420973D01*
X128867113Y-80387500D01*
X128912500Y-80342113D01*
X128974500Y-80325500D01*
X130294867Y-80325499D01*
X130307427Y-80324042D01*
X130319991Y-80322585D01*
X130422765Y-80277206D01*
X130502206Y-80197765D01*
X130547585Y-80094991D01*
X130550500Y-80069865D01*
X130550499Y-78930136D01*
X130547585Y-78905009D01*
X130531395Y-78868342D01*
X130525321Y-78854585D01*
X130515161Y-78794485D01*
X130534865Y-78736804D01*
X130579672Y-78695481D01*
X130638756Y-78680500D01*
X138992034Y-78680500D01*
X139039487Y-78689939D01*
X139079715Y-78716819D01*
X139865236Y-79502340D01*
X139898616Y-79563183D01*
X139894077Y-79632432D01*
X139853041Y-79688397D01*
X139788362Y-79713549D01*
X139773397Y-79714858D01*
X139553672Y-79773733D01*
X139347516Y-79869865D01*
X139274526Y-79920973D01*
X141079025Y-81725472D01*
X141130134Y-81652480D01*
X141226266Y-81446326D01*
X141285140Y-81226608D01*
X141286449Y-81211642D01*
X141311600Y-81146961D01*
X141367565Y-81105923D01*
X141436815Y-81101383D01*
X141497659Y-81134763D01*
X147158630Y-86795733D01*
X147167896Y-86806101D01*
X147190120Y-86833969D01*
X147237364Y-86866180D01*
X147241145Y-86868863D01*
X147291973Y-86906376D01*
X147296568Y-86908695D01*
X147302325Y-86910470D01*
X147302327Y-86910472D01*
X147327351Y-86918190D01*
X147356980Y-86927330D01*
X147361371Y-86928774D01*
X147415301Y-86947646D01*
X147415302Y-86947646D01*
X147420989Y-86949636D01*
X147426073Y-86950500D01*
X147432098Y-86950500D01*
X147489262Y-86950500D01*
X147493899Y-86950587D01*
X147551010Y-86952724D01*
X147551010Y-86952723D01*
X147557029Y-86952949D01*
X147575635Y-86950500D01*
X148277638Y-86950500D01*
X148334951Y-86964540D01*
X148379286Y-87003481D01*
X148400602Y-87058504D01*
X148394072Y-87117150D01*
X148361176Y-87166137D01*
X148263236Y-87255419D01*
X148140324Y-87418181D01*
X148049418Y-87600748D01*
X147993602Y-87796916D01*
X147974785Y-87999999D01*
X147993602Y-88203083D01*
X148049418Y-88399251D01*
X148109657Y-88520229D01*
X148122525Y-88581227D01*
X148104084Y-88640778D01*
X148058996Y-88683829D01*
X147998657Y-88699500D01*
X145887965Y-88699500D01*
X145840512Y-88690061D01*
X145800284Y-88663181D01*
X141083387Y-83946284D01*
X141051049Y-83889773D01*
X141051802Y-83824668D01*
X141053600Y-83818352D01*
X141086397Y-83703083D01*
X141105215Y-83500000D01*
X141086397Y-83296917D01*
X141083785Y-83287738D01*
X141047958Y-83161821D01*
X141030582Y-83100750D01*
X141000502Y-83040341D01*
X140939675Y-82918181D01*
X140816763Y-82755419D01*
X140666041Y-82618018D01*
X140492640Y-82510653D01*
X140420259Y-82482613D01*
X140393762Y-82472348D01*
X140343650Y-82436525D01*
X140316959Y-82381006D01*
X140320278Y-82319495D01*
X140352788Y-82267170D01*
X140406466Y-82236947D01*
X140446324Y-82226267D01*
X140652480Y-82130134D01*
X140725472Y-82079025D01*
X140000001Y-81353553D01*
X140000000Y-81353553D01*
X139274526Y-82079025D01*
X139274526Y-82079026D01*
X139347515Y-82130133D01*
X139553674Y-82226266D01*
X139593534Y-82236947D01*
X139647211Y-82267170D01*
X139679721Y-82319495D01*
X139683040Y-82381006D01*
X139656349Y-82436525D01*
X139606235Y-82472349D01*
X139507360Y-82510653D01*
X139333958Y-82618018D01*
X139183236Y-82755419D01*
X139060324Y-82918181D01*
X138969418Y-83100748D01*
X138913602Y-83296916D01*
X138894785Y-83500000D01*
X138913602Y-83703083D01*
X138969418Y-83899251D01*
X139060324Y-84081818D01*
X139183236Y-84244580D01*
X139333958Y-84381981D01*
X139502482Y-84486326D01*
X139507363Y-84489348D01*
X139697544Y-84563024D01*
X139898024Y-84600500D01*
X140101974Y-84600500D01*
X140101976Y-84600500D01*
X140302456Y-84563024D01*
X140316104Y-84557736D01*
X140362805Y-84549378D01*
X140409230Y-84559170D01*
X140448578Y-84585682D01*
X145308630Y-89445733D01*
X145317896Y-89456101D01*
X145340121Y-89483970D01*
X145363131Y-89499658D01*
X145387364Y-89516180D01*
X145391141Y-89518860D01*
X145436344Y-89552222D01*
X145441973Y-89556376D01*
X145446568Y-89558695D01*
X145452325Y-89560470D01*
X145452327Y-89560472D01*
X145477351Y-89568190D01*
X145506980Y-89577330D01*
X145511371Y-89578774D01*
X145565301Y-89597646D01*
X145565303Y-89597646D01*
X145570990Y-89599636D01*
X145576071Y-89600500D01*
X145582098Y-89600500D01*
X145639246Y-89600500D01*
X145643883Y-89600586D01*
X145701010Y-89602725D01*
X145701010Y-89602724D01*
X145707026Y-89602950D01*
X145725638Y-89600500D01*
X162397738Y-89600500D01*
X162411622Y-89601280D01*
X162447033Y-89605270D01*
X162447033Y-89605269D01*
X162447035Y-89605270D01*
X162503228Y-89594636D01*
X162507726Y-89593872D01*
X162564287Y-89585348D01*
X162564288Y-89585347D01*
X162570268Y-89584446D01*
X162575128Y-89582846D01*
X162580467Y-89580023D01*
X162580472Y-89580023D01*
X162631045Y-89553292D01*
X162635136Y-89551227D01*
X162686642Y-89526425D01*
X162686644Y-89526422D01*
X162692078Y-89523806D01*
X162696271Y-89520831D01*
X162700533Y-89516568D01*
X162700538Y-89516566D01*
X162741001Y-89476101D01*
X162744259Y-89472962D01*
X162786194Y-89434055D01*
X162786195Y-89434053D01*
X162790613Y-89429954D01*
X162802033Y-89415069D01*
X163131423Y-89085679D01*
X163170767Y-89059171D01*
X163217191Y-89049378D01*
X163263894Y-89057736D01*
X163277544Y-89063024D01*
X163478024Y-89100500D01*
X163681974Y-89100500D01*
X163681976Y-89100500D01*
X163882456Y-89063024D01*
X164072637Y-88989348D01*
X164246041Y-88881981D01*
X164366155Y-88772483D01*
X164396763Y-88744580D01*
X164426550Y-88705136D01*
X164519673Y-88581821D01*
X164550840Y-88519228D01*
X164596562Y-88469073D01*
X164661840Y-88450500D01*
X175270764Y-88450500D01*
X175336044Y-88469074D01*
X175381767Y-88519233D01*
X175391031Y-88568808D01*
X175393725Y-88568559D01*
X175394785Y-88579999D01*
X175394785Y-88580000D01*
X175394954Y-88581820D01*
X175413602Y-88783083D01*
X175469418Y-88979251D01*
X175560324Y-89161818D01*
X175683236Y-89324580D01*
X175833958Y-89461981D01*
X175997149Y-89563024D01*
X176007363Y-89569348D01*
X176197544Y-89643024D01*
X176398024Y-89680500D01*
X176601974Y-89680500D01*
X176601976Y-89680500D01*
X176802456Y-89643024D01*
X176992637Y-89569348D01*
X177166041Y-89461981D01*
X177217505Y-89415065D01*
X177316763Y-89324580D01*
X177381838Y-89238407D01*
X177439673Y-89161821D01*
X177439673Y-89161819D01*
X177439675Y-89161818D01*
X177506034Y-89028549D01*
X177530582Y-88979250D01*
X177586397Y-88783083D01*
X177605215Y-88580000D01*
X177586397Y-88376917D01*
X177530582Y-88180750D01*
X177467306Y-88053673D01*
X177439675Y-87998181D01*
X177316763Y-87835419D01*
X177262702Y-87786137D01*
X177229806Y-87737150D01*
X177223276Y-87678504D01*
X177244592Y-87623481D01*
X177288927Y-87584540D01*
X177346240Y-87570500D01*
X180267738Y-87570500D01*
X180281622Y-87571280D01*
X180317033Y-87575270D01*
X180317033Y-87575269D01*
X180317035Y-87575270D01*
X180373228Y-87564636D01*
X180377726Y-87563872D01*
X180434287Y-87555348D01*
X180434288Y-87555347D01*
X180440268Y-87554446D01*
X180445128Y-87552846D01*
X180450467Y-87550023D01*
X180450472Y-87550023D01*
X180501045Y-87523292D01*
X180505136Y-87521227D01*
X180556642Y-87496425D01*
X180556644Y-87496422D01*
X180562078Y-87493806D01*
X180566271Y-87490831D01*
X180570533Y-87486568D01*
X180570538Y-87486566D01*
X180611001Y-87446101D01*
X180614260Y-87442962D01*
X180633887Y-87424751D01*
X180649754Y-87416302D01*
X180650397Y-87414097D01*
X180652328Y-87410752D01*
X180672033Y-87385069D01*
X181051423Y-87005679D01*
X181090763Y-86979173D01*
X181137181Y-86969378D01*
X181183880Y-86977731D01*
X181184900Y-86978126D01*
X181234589Y-87013435D01*
X181261449Y-87068156D01*
X181258989Y-87129064D01*
X181227802Y-87181439D01*
X180845468Y-87563772D01*
X180819883Y-87579297D01*
X180805906Y-87603334D01*
X175996061Y-92413181D01*
X175955833Y-92440061D01*
X175908380Y-92449500D01*
X164605070Y-92449500D01*
X164549798Y-92436500D01*
X164506116Y-92400226D01*
X164396765Y-92255421D01*
X164246041Y-92118018D01*
X164072638Y-92010652D01*
X163882457Y-91936976D01*
X163802619Y-91922052D01*
X163681976Y-91899500D01*
X163478024Y-91899500D01*
X163377784Y-91918237D01*
X163277542Y-91936976D01*
X163087361Y-92010652D01*
X162913958Y-92118018D01*
X162763236Y-92255419D01*
X162640324Y-92418181D01*
X162549418Y-92600748D01*
X162493602Y-92796916D01*
X162474785Y-92999999D01*
X162493602Y-93203083D01*
X162549418Y-93399251D01*
X162640324Y-93581818D01*
X162763236Y-93744580D01*
X162913958Y-93881981D01*
X163034303Y-93956495D01*
X163087363Y-93989348D01*
X163277544Y-94063024D01*
X163478024Y-94100500D01*
X163681974Y-94100500D01*
X163681976Y-94100500D01*
X163882456Y-94063024D01*
X164072637Y-93989348D01*
X164246041Y-93881981D01*
X164396764Y-93744579D01*
X164506116Y-93599774D01*
X164549798Y-93563500D01*
X164605070Y-93550500D01*
X176176245Y-93550500D01*
X176180478Y-93550572D01*
X176244591Y-93552762D01*
X176244591Y-93552761D01*
X176244593Y-93552762D01*
X176284518Y-93543031D01*
X176296963Y-93540666D01*
X176337687Y-93535070D01*
X176354150Y-93527918D01*
X176374186Y-93521180D01*
X176391619Y-93516933D01*
X176427462Y-93496778D01*
X176438782Y-93491157D01*
X176476487Y-93474780D01*
X176490402Y-93463458D01*
X176507878Y-93451563D01*
X176523526Y-93442766D01*
X176552580Y-93413710D01*
X176561997Y-93405211D01*
X176593875Y-93379278D01*
X176604228Y-93364610D01*
X176617840Y-93348450D01*
X183131145Y-86835145D01*
X183134129Y-86832261D01*
X183181044Y-86788447D01*
X183202398Y-86753329D01*
X183209532Y-86742849D01*
X183234361Y-86710109D01*
X183240945Y-86693410D01*
X183250344Y-86674486D01*
X183259672Y-86659149D01*
X183270760Y-86619572D01*
X183274800Y-86607559D01*
X183289876Y-86569331D01*
X183291711Y-86551478D01*
X183295658Y-86530711D01*
X183300500Y-86513432D01*
X183300500Y-86472349D01*
X183301150Y-86459668D01*
X183305352Y-86418794D01*
X183302303Y-86401111D01*
X183300500Y-86380042D01*
X183300500Y-85413755D01*
X183300572Y-85409522D01*
X183302762Y-85345407D01*
X183293035Y-85305495D01*
X183290665Y-85293027D01*
X183285070Y-85252313D01*
X183277920Y-85235853D01*
X183271180Y-85215811D01*
X183266933Y-85198381D01*
X183246792Y-85162560D01*
X183241149Y-85151197D01*
X183224780Y-85113513D01*
X183213456Y-85099593D01*
X183201559Y-85082113D01*
X183192765Y-85066473D01*
X183163713Y-85037421D01*
X183155205Y-85027994D01*
X183150827Y-85022613D01*
X183129278Y-84996125D01*
X183129277Y-84996124D01*
X183114615Y-84985774D01*
X183098444Y-84972152D01*
X182415173Y-84288881D01*
X182412259Y-84285867D01*
X182368447Y-84238956D01*
X182368446Y-84238955D01*
X182368445Y-84238954D01*
X182333341Y-84217607D01*
X182322846Y-84210464D01*
X182290109Y-84185639D01*
X182290107Y-84185638D01*
X182273411Y-84179053D01*
X182254481Y-84169650D01*
X182239151Y-84160328D01*
X182208691Y-84151793D01*
X182199581Y-84149240D01*
X182187562Y-84145199D01*
X182149331Y-84130124D01*
X182149330Y-84130123D01*
X182149328Y-84130123D01*
X182131482Y-84128288D01*
X182110719Y-84124342D01*
X182093435Y-84119500D01*
X182093432Y-84119500D01*
X182052349Y-84119500D01*
X182039668Y-84118850D01*
X181998794Y-84114647D01*
X181981111Y-84117697D01*
X181960042Y-84119500D01*
X181261619Y-84119500D01*
X181214166Y-84110061D01*
X181173938Y-84083181D01*
X180851275Y-83760518D01*
X180820505Y-83709517D01*
X180817067Y-83650051D01*
X180841755Y-83595844D01*
X180888871Y-83559402D01*
X180947544Y-83549135D01*
X181004234Y-83567410D01*
X181007363Y-83569348D01*
X181197544Y-83643024D01*
X181398024Y-83680500D01*
X181601974Y-83680500D01*
X181601976Y-83680500D01*
X181802456Y-83643024D01*
X181992637Y-83569348D01*
X182166041Y-83461981D01*
X182303100Y-83337035D01*
X182316763Y-83324580D01*
X182345190Y-83286937D01*
X182439673Y-83161821D01*
X182439673Y-83161819D01*
X182439675Y-83161818D01*
X182513436Y-83013684D01*
X182530582Y-82979250D01*
X182586397Y-82783083D01*
X182605215Y-82580000D01*
X182586397Y-82376917D01*
X182584140Y-82368986D01*
X182550728Y-82251555D01*
X182530582Y-82180750D01*
X182511339Y-82142105D01*
X182439675Y-81998181D01*
X182316763Y-81835419D01*
X182166041Y-81698018D01*
X181992638Y-81590652D01*
X181802457Y-81516976D01*
X181711642Y-81500000D01*
X181601976Y-81479500D01*
X181398024Y-81479500D01*
X181297783Y-81498238D01*
X181197542Y-81516976D01*
X181007361Y-81590652D01*
X180833958Y-81698018D01*
X180683236Y-81835419D01*
X180560324Y-81998181D01*
X180469418Y-82180748D01*
X180413602Y-82376916D01*
X180394785Y-82580000D01*
X180413602Y-82783083D01*
X180469416Y-82979247D01*
X180526720Y-83094329D01*
X180539079Y-83162182D01*
X180513275Y-83226143D01*
X180457291Y-83266424D01*
X180388446Y-83270563D01*
X180328038Y-83237281D01*
X176772196Y-79681439D01*
X176741010Y-79629067D01*
X176738547Y-79568163D01*
X176765401Y-79513444D01*
X176815081Y-79478133D01*
X176992637Y-79409348D01*
X177166041Y-79301981D01*
X177255276Y-79220633D01*
X177316763Y-79164580D01*
X177316764Y-79164579D01*
X177439673Y-79001821D01*
X177439673Y-79001819D01*
X177439675Y-79001818D01*
X177512987Y-78854585D01*
X177530582Y-78819250D01*
X177586397Y-78623083D01*
X177605215Y-78420000D01*
X177586397Y-78216917D01*
X177585766Y-78214701D01*
X177542610Y-78063023D01*
X177530582Y-78020750D01*
X177487229Y-77933684D01*
X177439675Y-77838181D01*
X177316763Y-77675419D01*
X177166041Y-77538018D01*
X176992638Y-77430652D01*
X176802457Y-77356976D01*
X176735629Y-77344483D01*
X176601976Y-77319500D01*
X176398024Y-77319500D01*
X176297784Y-77338237D01*
X176197542Y-77356976D01*
X176007361Y-77430652D01*
X175833958Y-77538018D01*
X175683236Y-77675419D01*
X175560324Y-77838181D01*
X175469418Y-78020747D01*
X175447883Y-78096434D01*
X175415279Y-78151187D01*
X175359787Y-78182517D01*
X175296062Y-78182148D01*
X175240936Y-78150179D01*
X174318004Y-77227247D01*
X173239639Y-76148881D01*
X173236725Y-76145867D01*
X173192913Y-76098956D01*
X173192912Y-76098955D01*
X173192911Y-76098954D01*
X173157807Y-76077607D01*
X173147312Y-76070464D01*
X173132591Y-76059301D01*
X173114575Y-76045639D01*
X173114573Y-76045638D01*
X173097877Y-76039053D01*
X173078947Y-76029650D01*
X173063617Y-76020328D01*
X173033157Y-76011793D01*
X173024047Y-76009240D01*
X173012028Y-76005199D01*
X172973797Y-75990124D01*
X172973796Y-75990123D01*
X172973794Y-75990123D01*
X172955948Y-75988288D01*
X172935185Y-75984342D01*
X172917901Y-75979500D01*
X172917898Y-75979500D01*
X172876815Y-75979500D01*
X172864134Y-75978850D01*
X172823260Y-75974647D01*
X172805577Y-75977697D01*
X172784508Y-75979500D01*
X172753572Y-75979500D01*
X172691572Y-75962887D01*
X172646185Y-75917500D01*
X172629572Y-75855500D01*
X172646185Y-75793500D01*
X172654704Y-75778745D01*
X172700604Y-75699244D01*
X172769344Y-75500633D01*
X172799254Y-75292602D01*
X172789254Y-75082670D01*
X172739704Y-74878424D01*
X172739702Y-74878419D01*
X172652397Y-74687247D01*
X172563564Y-74562500D01*
X172530486Y-74516048D01*
X172378378Y-74371014D01*
X172346257Y-74350371D01*
X172201574Y-74257387D01*
X172013788Y-74182210D01*
X172006457Y-74179275D01*
X172006456Y-74179274D01*
X172006454Y-74179274D01*
X171800086Y-74139500D01*
X171800085Y-74139500D01*
X170933387Y-74139500D01*
X170877092Y-74125985D01*
X170833069Y-74088385D01*
X170810914Y-74034898D01*
X170815456Y-73977182D01*
X170845706Y-73927819D01*
X170936706Y-73836819D01*
X170976934Y-73809939D01*
X171024387Y-73800500D01*
X171747420Y-73800500D01*
X171747425Y-73800500D01*
X171904218Y-73785528D01*
X172105875Y-73726316D01*
X172292682Y-73630011D01*
X172457886Y-73500092D01*
X172595519Y-73341256D01*
X172700604Y-73159244D01*
X172769344Y-72960633D01*
X172799254Y-72752602D01*
X172789254Y-72542670D01*
X172759494Y-72419999D01*
X180394785Y-72419999D01*
X180413602Y-72623083D01*
X180469418Y-72819251D01*
X180560324Y-73001818D01*
X180683236Y-73164580D01*
X180833958Y-73301981D01*
X181007361Y-73409347D01*
X181007363Y-73409348D01*
X181197544Y-73483024D01*
X181398024Y-73520500D01*
X181601974Y-73520500D01*
X181601976Y-73520500D01*
X181802456Y-73483024D01*
X181992637Y-73409348D01*
X182166041Y-73301981D01*
X182274528Y-73203082D01*
X182316763Y-73164580D01*
X182347188Y-73124291D01*
X182439673Y-73001821D01*
X182439673Y-73001819D01*
X182439675Y-73001818D01*
X182491675Y-72897387D01*
X182530582Y-72819250D01*
X182586397Y-72623083D01*
X182605215Y-72420000D01*
X182586397Y-72216917D01*
X182584140Y-72208986D01*
X182544453Y-72069501D01*
X182530582Y-72020750D01*
X182525554Y-72010652D01*
X182439675Y-71838181D01*
X182316763Y-71675419D01*
X182166041Y-71538018D01*
X181992638Y-71430652D01*
X181802457Y-71356976D01*
X181735629Y-71344484D01*
X181601976Y-71319500D01*
X181398024Y-71319500D01*
X181297783Y-71338238D01*
X181197542Y-71356976D01*
X181007361Y-71430652D01*
X180833958Y-71538018D01*
X180683236Y-71675419D01*
X180560324Y-71838181D01*
X180469418Y-72020748D01*
X180413602Y-72216916D01*
X180394785Y-72419999D01*
X172759494Y-72419999D01*
X172739704Y-72338424D01*
X172733635Y-72325135D01*
X172652397Y-72147247D01*
X172555127Y-72010652D01*
X172530486Y-71976048D01*
X172378378Y-71831014D01*
X172328943Y-71799244D01*
X172201574Y-71717387D01*
X172027739Y-71647795D01*
X172006457Y-71639275D01*
X172006456Y-71639274D01*
X172006454Y-71639274D01*
X171800086Y-71599500D01*
X171800085Y-71599500D01*
X170842575Y-71599500D01*
X170744579Y-71608857D01*
X170685779Y-71614472D01*
X170484126Y-71673683D01*
X170297315Y-71769990D01*
X170132115Y-71899906D01*
X169994479Y-72058745D01*
X169889396Y-72240754D01*
X169820655Y-72439366D01*
X169794242Y-72623083D01*
X169790746Y-72647398D01*
X169798932Y-72819250D01*
X169800746Y-72857330D01*
X169850297Y-73061580D01*
X169910026Y-73192368D01*
X169921197Y-73240928D01*
X169912350Y-73289964D01*
X169884915Y-73331559D01*
X169853295Y-73363180D01*
X169813066Y-73390061D01*
X169765612Y-73399500D01*
X165299500Y-73399500D01*
X165237500Y-73382887D01*
X165192113Y-73337500D01*
X165175500Y-73275500D01*
X165175499Y-71855132D01*
X165173532Y-71838179D01*
X165172585Y-71830009D01*
X165127206Y-71727235D01*
X165127204Y-71727233D01*
X165127204Y-71727232D01*
X165047767Y-71647795D01*
X165028469Y-71639274D01*
X164944991Y-71602415D01*
X164919865Y-71599500D01*
X164919864Y-71599500D01*
X163262965Y-71599500D01*
X163215512Y-71590061D01*
X163175284Y-71563181D01*
X162656368Y-71044265D01*
X162647102Y-71033897D01*
X162624879Y-71006030D01*
X162577608Y-70973800D01*
X162573870Y-70971148D01*
X162523035Y-70933629D01*
X162518424Y-70931302D01*
X162458049Y-70912679D01*
X162453644Y-70911230D01*
X162394023Y-70890368D01*
X162388914Y-70889500D01*
X162382902Y-70889500D01*
X162325738Y-70889500D01*
X162321101Y-70889413D01*
X162257970Y-70887050D01*
X162239365Y-70889500D01*
X117778783Y-70889500D01*
X117711744Y-70869816D01*
X117665989Y-70817012D01*
X117652396Y-70787247D01*
X117530486Y-70616048D01*
X117378378Y-70471014D01*
X117346257Y-70450371D01*
X117201574Y-70357387D01*
X117025593Y-70286936D01*
X117006457Y-70279275D01*
X117006456Y-70279274D01*
X117006454Y-70279274D01*
X116800086Y-70239500D01*
X116800085Y-70239500D01*
X115842575Y-70239500D01*
X115744579Y-70248857D01*
X115685779Y-70254472D01*
X115484126Y-70313683D01*
X115297315Y-70409990D01*
X115132115Y-70539906D01*
X114994479Y-70698745D01*
X114889396Y-70880754D01*
X114820655Y-71079366D01*
X114790746Y-71287396D01*
X114800746Y-71497330D01*
X114850297Y-71701580D01*
X114937602Y-71892752D01*
X115028750Y-72020750D01*
X115059514Y-72063952D01*
X115211622Y-72208986D01*
X115261054Y-72240754D01*
X115388425Y-72322612D01*
X115394730Y-72325136D01*
X115583543Y-72400725D01*
X115712228Y-72425527D01*
X115789914Y-72440500D01*
X115789915Y-72440500D01*
X116747420Y-72440500D01*
X116747425Y-72440500D01*
X116904218Y-72425528D01*
X117105875Y-72366316D01*
X117292682Y-72270011D01*
X117457886Y-72140092D01*
X117595519Y-71981256D01*
X117669857Y-71852498D01*
X117715243Y-71807113D01*
X117777243Y-71790500D01*
X120347106Y-71790500D01*
X120408443Y-71806733D01*
X120453721Y-71851182D01*
X120471085Y-71912209D01*
X120455988Y-71973836D01*
X120412383Y-72019927D01*
X120253958Y-72118018D01*
X120103236Y-72255419D01*
X119980324Y-72418181D01*
X119889418Y-72600748D01*
X119833602Y-72796916D01*
X119824293Y-72897387D01*
X119814785Y-73000000D01*
X119815806Y-73011014D01*
X119833602Y-73203083D01*
X119889418Y-73399251D01*
X119949657Y-73520229D01*
X119962525Y-73581227D01*
X119944084Y-73640778D01*
X119898996Y-73683829D01*
X119838657Y-73699500D01*
X117881148Y-73699500D01*
X117827854Y-73687463D01*
X117784906Y-73653689D01*
X117760644Y-73604735D01*
X117739704Y-73518423D01*
X117652397Y-73327247D01*
X117539979Y-73169379D01*
X117530486Y-73156048D01*
X117378378Y-73011014D01*
X117346257Y-72990371D01*
X117201574Y-72897387D01*
X117045609Y-72834949D01*
X117006457Y-72819275D01*
X117006456Y-72819274D01*
X117006454Y-72819274D01*
X116800086Y-72779500D01*
X116800085Y-72779500D01*
X115842575Y-72779500D01*
X115744579Y-72788857D01*
X115685779Y-72794472D01*
X115484126Y-72853683D01*
X115297315Y-72949990D01*
X115132115Y-73079906D01*
X114994479Y-73238745D01*
X114889396Y-73420754D01*
X114820655Y-73619366D01*
X114790746Y-73827396D01*
X110174243Y-73827396D01*
X110169254Y-73722670D01*
X110119704Y-73518424D01*
X110119702Y-73518419D01*
X110032397Y-73327247D01*
X109919979Y-73169379D01*
X109910486Y-73156048D01*
X109758378Y-73011014D01*
X109726257Y-72990371D01*
X109581574Y-72897387D01*
X109425609Y-72834949D01*
X109386457Y-72819275D01*
X109386456Y-72819274D01*
X109386454Y-72819274D01*
X109180086Y-72779500D01*
X109180085Y-72779500D01*
X108222575Y-72779500D01*
X108124579Y-72788857D01*
X108065779Y-72794472D01*
X107864126Y-72853683D01*
X107677315Y-72949990D01*
X107512115Y-73079906D01*
X107374479Y-73238745D01*
X107269396Y-73420754D01*
X107200655Y-73619366D01*
X107170746Y-73827396D01*
X79522794Y-73827396D01*
X79573131Y-73726305D01*
X79617405Y-73637389D01*
X79675756Y-73432310D01*
X79695429Y-73220000D01*
X79675756Y-73007690D01*
X79674085Y-73001818D01*
X79652550Y-72926132D01*
X79617405Y-72802611D01*
X79592504Y-72752602D01*
X79522368Y-72611747D01*
X79393873Y-72441594D01*
X79376248Y-72425527D01*
X79236302Y-72297948D01*
X79236301Y-72297947D01*
X79073645Y-72197235D01*
X79055019Y-72185702D01*
X79055017Y-72185701D01*
X78856198Y-72108679D01*
X78856197Y-72108678D01*
X78646610Y-72069500D01*
X78433390Y-72069500D01*
X78293664Y-72095619D01*
X78223801Y-72108679D01*
X78024982Y-72185701D01*
X77843698Y-72297947D01*
X77686126Y-72441594D01*
X77557631Y-72611747D01*
X77462595Y-72802609D01*
X77404243Y-73007689D01*
X77397970Y-73075393D01*
X77376799Y-73134029D01*
X77329770Y-73174952D01*
X77268772Y-73187820D01*
X77209221Y-73169379D01*
X77166170Y-73124291D01*
X77150499Y-73063952D01*
X77150499Y-72325133D01*
X77147585Y-72300011D01*
X77147585Y-72300009D01*
X77102206Y-72197235D01*
X77102204Y-72197233D01*
X77102204Y-72197232D01*
X77022767Y-72117795D01*
X77002121Y-72108679D01*
X76919991Y-72072415D01*
X76894865Y-72069500D01*
X76894863Y-72069500D01*
X75105132Y-72069500D01*
X75080011Y-72072414D01*
X74977232Y-72117795D01*
X74897795Y-72197232D01*
X74852415Y-72300009D01*
X74849500Y-72325136D01*
X74849500Y-74114867D01*
X74852414Y-74139988D01*
X74852414Y-74139990D01*
X74852415Y-74139991D01*
X74881738Y-74206402D01*
X74897795Y-74242767D01*
X74977232Y-74322204D01*
X74977233Y-74322204D01*
X74977235Y-74322206D01*
X75080009Y-74367585D01*
X75105135Y-74370500D01*
X75237483Y-74370499D01*
X75297597Y-74386046D01*
X75342639Y-74428788D01*
X75361311Y-74488009D01*
X75348932Y-74548856D01*
X75308605Y-74596073D01*
X75128922Y-74721889D01*
X74961890Y-74888921D01*
X74826400Y-75082421D01*
X74726569Y-75296507D01*
X74669364Y-75509999D01*
X74669364Y-75510000D01*
X72000500Y-75510000D01*
X72000500Y-71287396D01*
X107170746Y-71287396D01*
X107180746Y-71497330D01*
X107230297Y-71701580D01*
X107317602Y-71892752D01*
X107408750Y-72020750D01*
X107439514Y-72063952D01*
X107591622Y-72208986D01*
X107641054Y-72240754D01*
X107768425Y-72322612D01*
X107774730Y-72325136D01*
X107963543Y-72400725D01*
X108092228Y-72425527D01*
X108169914Y-72440500D01*
X108169915Y-72440500D01*
X109127420Y-72440500D01*
X109127425Y-72440500D01*
X109284218Y-72425528D01*
X109485875Y-72366316D01*
X109672682Y-72270011D01*
X109837886Y-72140092D01*
X109975519Y-71981256D01*
X110080604Y-71799244D01*
X110149344Y-71600633D01*
X110179254Y-71392602D01*
X110169254Y-71182670D01*
X110119704Y-70978424D01*
X110117607Y-70973832D01*
X110032397Y-70787247D01*
X109910487Y-70616050D01*
X109910486Y-70616048D01*
X109758378Y-70471014D01*
X109726257Y-70450371D01*
X109581574Y-70357387D01*
X109405593Y-70286936D01*
X109386457Y-70279275D01*
X109386456Y-70279274D01*
X109386454Y-70279274D01*
X109180086Y-70239500D01*
X109180085Y-70239500D01*
X108222575Y-70239500D01*
X108124579Y-70248857D01*
X108065779Y-70254472D01*
X107864126Y-70313683D01*
X107677315Y-70409990D01*
X107512115Y-70539906D01*
X107374479Y-70698745D01*
X107269396Y-70880754D01*
X107200655Y-71079366D01*
X107170746Y-71287396D01*
X72000500Y-71287396D01*
X72000500Y-70144867D01*
X83019500Y-70144867D01*
X83022414Y-70169988D01*
X83067795Y-70272767D01*
X83147232Y-70352204D01*
X83147233Y-70352204D01*
X83147235Y-70352206D01*
X83250009Y-70397585D01*
X83275135Y-70400500D01*
X85564864Y-70400499D01*
X85564867Y-70400499D01*
X85577427Y-70399042D01*
X85589991Y-70397585D01*
X85692765Y-70352206D01*
X85772206Y-70272765D01*
X85817585Y-70169991D01*
X85820500Y-70144865D01*
X85820499Y-68999999D01*
X93174699Y-68999999D01*
X93193865Y-69231299D01*
X93193865Y-69231301D01*
X93193866Y-69231305D01*
X93250843Y-69456300D01*
X93250844Y-69456303D01*
X93305902Y-69581821D01*
X93344076Y-69668849D01*
X93471021Y-69863153D01*
X93628216Y-70033913D01*
X93811374Y-70176470D01*
X94015497Y-70286936D01*
X94125258Y-70324617D01*
X94235015Y-70362297D01*
X94235017Y-70362297D01*
X94235019Y-70362298D01*
X94463951Y-70400500D01*
X94696048Y-70400500D01*
X94696049Y-70400500D01*
X94924981Y-70362298D01*
X95144503Y-70286936D01*
X95348626Y-70176470D01*
X95531784Y-70033913D01*
X95688979Y-69863153D01*
X95815924Y-69668849D01*
X95826444Y-69644867D01*
X107174500Y-69644867D01*
X107177414Y-69669988D01*
X107177414Y-69669990D01*
X107177415Y-69669991D01*
X107210349Y-69744579D01*
X107222795Y-69772767D01*
X107302232Y-69852204D01*
X107302233Y-69852204D01*
X107302235Y-69852206D01*
X107405009Y-69897585D01*
X107430135Y-69900500D01*
X109919864Y-69900499D01*
X109919867Y-69900499D01*
X109932427Y-69899041D01*
X109944991Y-69897585D01*
X110047765Y-69852206D01*
X110127206Y-69772765D01*
X110172585Y-69669991D01*
X110175500Y-69644865D01*
X110175499Y-68747398D01*
X114790746Y-68747398D01*
X114800746Y-68957330D01*
X114811539Y-69001821D01*
X114850297Y-69161580D01*
X114937602Y-69352752D01*
X115030369Y-69483024D01*
X115059514Y-69523952D01*
X115211622Y-69668986D01*
X115283964Y-69715478D01*
X115388425Y-69782612D01*
X115427580Y-69798287D01*
X115583543Y-69860725D01*
X115712228Y-69885527D01*
X115789914Y-69900500D01*
X115789915Y-69900500D01*
X116747420Y-69900500D01*
X116747425Y-69900500D01*
X116904218Y-69885528D01*
X117105875Y-69826316D01*
X117292682Y-69730011D01*
X117457886Y-69600092D01*
X117595519Y-69441256D01*
X117700604Y-69259244D01*
X117769344Y-69060633D01*
X117778062Y-69000000D01*
X119814785Y-69000000D01*
X119833602Y-69203083D01*
X119889418Y-69399251D01*
X119980324Y-69581818D01*
X120103236Y-69744580D01*
X120253958Y-69881981D01*
X120427361Y-69989347D01*
X120427363Y-69989348D01*
X120617544Y-70063024D01*
X120818024Y-70100500D01*
X121021974Y-70100500D01*
X121021976Y-70100500D01*
X121222456Y-70063024D01*
X121412637Y-69989348D01*
X121586041Y-69881981D01*
X121736764Y-69744579D01*
X121859673Y-69581821D01*
X121859673Y-69581819D01*
X121859675Y-69581818D01*
X121922173Y-69456303D01*
X121950582Y-69399250D01*
X122006397Y-69203083D01*
X122025215Y-69000000D01*
X129974785Y-69000000D01*
X129993602Y-69203083D01*
X130049418Y-69399251D01*
X130140324Y-69581818D01*
X130263236Y-69744580D01*
X130413958Y-69881981D01*
X130587361Y-69989347D01*
X130587363Y-69989348D01*
X130777544Y-70063024D01*
X130978024Y-70100500D01*
X131181974Y-70100500D01*
X131181976Y-70100500D01*
X131382456Y-70063024D01*
X131572637Y-69989348D01*
X131746041Y-69881981D01*
X131896764Y-69744579D01*
X132019673Y-69581821D01*
X132019673Y-69581819D01*
X132019675Y-69581818D01*
X132082173Y-69456303D01*
X132110582Y-69399250D01*
X132166397Y-69203083D01*
X132185215Y-69000000D01*
X132166397Y-68796917D01*
X132158368Y-68768700D01*
X132110581Y-68600748D01*
X132019675Y-68418181D01*
X131896763Y-68255419D01*
X131746041Y-68118018D01*
X131572638Y-68010652D01*
X131382457Y-67936976D01*
X131315629Y-67924483D01*
X131181976Y-67899500D01*
X130978024Y-67899500D01*
X130877784Y-67918237D01*
X130777542Y-67936976D01*
X130587361Y-68010652D01*
X130413958Y-68118018D01*
X130263236Y-68255419D01*
X130140324Y-68418181D01*
X130049418Y-68600748D01*
X129993602Y-68796916D01*
X129974785Y-69000000D01*
X122025215Y-69000000D01*
X122006397Y-68796917D01*
X121998368Y-68768700D01*
X121950581Y-68600748D01*
X121859675Y-68418181D01*
X121736763Y-68255419D01*
X121586041Y-68118018D01*
X121412638Y-68010652D01*
X121222457Y-67936976D01*
X121155629Y-67924483D01*
X121021976Y-67899500D01*
X120818024Y-67899500D01*
X120717784Y-67918237D01*
X120617542Y-67936976D01*
X120427361Y-68010652D01*
X120253958Y-68118018D01*
X120103236Y-68255419D01*
X119980324Y-68418181D01*
X119889418Y-68600748D01*
X119833602Y-68796916D01*
X119814785Y-69000000D01*
X117778062Y-69000000D01*
X117799254Y-68852602D01*
X117789254Y-68642670D01*
X117739704Y-68438424D01*
X117731290Y-68420000D01*
X117652397Y-68247247D01*
X117530487Y-68076050D01*
X117530486Y-68076048D01*
X117378378Y-67931014D01*
X117329342Y-67899500D01*
X117201574Y-67817387D01*
X117027739Y-67747795D01*
X117006457Y-67739275D01*
X117006456Y-67739274D01*
X117006454Y-67739274D01*
X116800086Y-67699500D01*
X116800085Y-67699500D01*
X115842575Y-67699500D01*
X115744579Y-67708857D01*
X115685779Y-67714472D01*
X115484126Y-67773683D01*
X115297315Y-67869990D01*
X115132115Y-67999906D01*
X114994479Y-68158745D01*
X114889396Y-68340754D01*
X114820655Y-68539366D01*
X114805803Y-68642670D01*
X114790746Y-68747398D01*
X110175499Y-68747398D01*
X110175499Y-67955136D01*
X110172585Y-67930009D01*
X110127206Y-67827235D01*
X110127204Y-67827233D01*
X110127204Y-67827232D01*
X110047767Y-67747795D01*
X110001196Y-67727232D01*
X109944991Y-67702415D01*
X109919865Y-67699500D01*
X109919863Y-67699500D01*
X107430132Y-67699500D01*
X107405011Y-67702414D01*
X107302232Y-67747795D01*
X107222795Y-67827232D01*
X107177415Y-67930009D01*
X107174500Y-67955136D01*
X107174500Y-69644867D01*
X95826444Y-69644867D01*
X95909157Y-69456300D01*
X95966134Y-69231305D01*
X95985300Y-69000000D01*
X95966134Y-68768695D01*
X95909157Y-68543700D01*
X95854897Y-68420000D01*
X97894785Y-68420000D01*
X97913602Y-68623083D01*
X97969418Y-68819251D01*
X98060324Y-69001818D01*
X98183236Y-69164580D01*
X98333958Y-69301981D01*
X98507361Y-69409347D01*
X98507363Y-69409348D01*
X98697544Y-69483024D01*
X98898024Y-69520500D01*
X99101974Y-69520500D01*
X99101976Y-69520500D01*
X99302456Y-69483024D01*
X99492637Y-69409348D01*
X99666041Y-69301981D01*
X99816764Y-69164579D01*
X99939673Y-69001821D01*
X99939673Y-69001819D01*
X99939675Y-69001818D01*
X100013974Y-68852603D01*
X100030582Y-68819250D01*
X100086397Y-68623083D01*
X100105215Y-68420000D01*
X100086397Y-68216917D01*
X100069845Y-68158745D01*
X100030581Y-68020748D01*
X99939675Y-67838181D01*
X99816763Y-67675419D01*
X99666041Y-67538018D01*
X99492638Y-67430652D01*
X99302457Y-67356976D01*
X99235629Y-67344484D01*
X99101976Y-67319500D01*
X98898024Y-67319500D01*
X98797783Y-67338238D01*
X98697542Y-67356976D01*
X98507361Y-67430652D01*
X98333958Y-67538018D01*
X98183236Y-67675419D01*
X98060324Y-67838181D01*
X97969418Y-68020748D01*
X97913602Y-68216916D01*
X97894785Y-68420000D01*
X95854897Y-68420000D01*
X95815924Y-68331151D01*
X95688979Y-68136847D01*
X95531784Y-67966087D01*
X95348626Y-67823530D01*
X95144503Y-67713064D01*
X95144499Y-67713062D01*
X95144498Y-67713062D01*
X94924984Y-67637702D01*
X94753281Y-67609050D01*
X94696049Y-67599500D01*
X94463951Y-67599500D01*
X94418164Y-67607140D01*
X94235015Y-67637702D01*
X94015501Y-67713062D01*
X94015497Y-67713063D01*
X94015497Y-67713064D01*
X93951322Y-67747794D01*
X93811372Y-67823531D01*
X93628215Y-67966087D01*
X93471020Y-68136848D01*
X93344076Y-68331150D01*
X93250844Y-68543696D01*
X93250842Y-68543700D01*
X93250843Y-68543700D01*
X93225781Y-68642669D01*
X93193865Y-68768700D01*
X93174699Y-68999999D01*
X85820499Y-68999999D01*
X85820499Y-67855136D01*
X85817585Y-67830009D01*
X85772206Y-67727235D01*
X85772204Y-67727233D01*
X85772204Y-67727232D01*
X85692767Y-67647795D01*
X85692765Y-67647794D01*
X85589991Y-67602415D01*
X85564865Y-67599500D01*
X85564863Y-67599500D01*
X83275132Y-67599500D01*
X83250011Y-67602414D01*
X83147232Y-67647795D01*
X83067795Y-67727232D01*
X83022415Y-67830009D01*
X83019500Y-67855136D01*
X83019500Y-70144867D01*
X72000500Y-70144867D01*
X72000500Y-65067764D01*
X75145787Y-65067764D01*
X75175413Y-65337016D01*
X75243928Y-65599087D01*
X75349871Y-65848392D01*
X75490982Y-66079611D01*
X75580253Y-66186881D01*
X75664255Y-66287820D01*
X75865998Y-66468582D01*
X76091910Y-66618044D01*
X76198211Y-66667876D01*
X76337177Y-66733021D01*
X76596562Y-66811058D01*
X76596569Y-66811060D01*
X76864561Y-66850500D01*
X77067631Y-66850500D01*
X77067634Y-66850500D01*
X77270156Y-66835677D01*
X77270155Y-66835677D01*
X77534553Y-66776780D01*
X77787558Y-66680014D01*
X78023777Y-66547441D01*
X78238177Y-66381888D01*
X78426186Y-66186881D01*
X78583799Y-65966579D01*
X78707656Y-65725675D01*
X78795118Y-65469305D01*
X78844319Y-65202933D01*
X78849259Y-65067764D01*
X180145787Y-65067764D01*
X180175413Y-65337016D01*
X180243928Y-65599087D01*
X180349871Y-65848392D01*
X180490982Y-66079611D01*
X180580253Y-66186881D01*
X180664255Y-66287820D01*
X180865998Y-66468582D01*
X181091910Y-66618044D01*
X181198211Y-66667876D01*
X181337177Y-66733021D01*
X181596562Y-66811058D01*
X181596569Y-66811060D01*
X181864561Y-66850500D01*
X182067631Y-66850500D01*
X182067634Y-66850500D01*
X182270156Y-66835677D01*
X182270155Y-66835677D01*
X182534553Y-66776780D01*
X182787558Y-66680014D01*
X183023777Y-66547441D01*
X183238177Y-66381888D01*
X183426186Y-66186881D01*
X183583799Y-65966579D01*
X183707656Y-65725675D01*
X183795118Y-65469305D01*
X183844319Y-65202933D01*
X183854212Y-64932235D01*
X183824586Y-64662982D01*
X183756072Y-64400912D01*
X183650130Y-64151610D01*
X183509018Y-63920390D01*
X183509017Y-63920388D01*
X183335746Y-63712181D01*
X183230758Y-63618112D01*
X183134002Y-63531418D01*
X182908090Y-63381956D01*
X182908086Y-63381954D01*
X182662822Y-63266978D01*
X182403437Y-63188941D01*
X182403431Y-63188940D01*
X182135439Y-63149500D01*
X181932369Y-63149500D01*
X181932366Y-63149500D01*
X181729843Y-63164322D01*
X181465449Y-63223219D01*
X181212441Y-63319986D01*
X180976223Y-63452559D01*
X180761825Y-63618109D01*
X180573813Y-63813120D01*
X180416201Y-64033420D01*
X180292342Y-64274329D01*
X180204881Y-64530695D01*
X180155680Y-64797066D01*
X180145787Y-65067764D01*
X78849259Y-65067764D01*
X78854212Y-64932235D01*
X78824586Y-64662982D01*
X78756072Y-64400912D01*
X78650130Y-64151610D01*
X78509018Y-63920390D01*
X78509017Y-63920388D01*
X78335746Y-63712181D01*
X78230758Y-63618112D01*
X78134002Y-63531418D01*
X77908090Y-63381956D01*
X77908086Y-63381954D01*
X77662822Y-63266978D01*
X77403437Y-63188941D01*
X77403431Y-63188940D01*
X77135439Y-63149500D01*
X76932369Y-63149500D01*
X76932366Y-63149500D01*
X76729843Y-63164322D01*
X76465449Y-63223219D01*
X76212441Y-63319986D01*
X75976223Y-63452559D01*
X75761825Y-63618109D01*
X75573813Y-63813120D01*
X75416201Y-64033420D01*
X75292342Y-64274329D01*
X75204881Y-64530695D01*
X75155680Y-64797066D01*
X75145787Y-65067764D01*
X72000500Y-65067764D01*
X72000500Y-65002561D01*
X72000606Y-64997437D01*
X72008893Y-64797067D01*
X72009488Y-64782687D01*
X72018052Y-64586540D01*
X72018881Y-64576673D01*
X72045491Y-64363195D01*
X72071578Y-64165045D01*
X72073151Y-64155816D01*
X72117062Y-63946392D01*
X72117297Y-63945302D01*
X72160684Y-63749599D01*
X72162885Y-63741111D01*
X72223875Y-63536253D01*
X72224337Y-63534743D01*
X72284704Y-63343284D01*
X72287423Y-63335565D01*
X72365074Y-63136564D01*
X72365883Y-63134553D01*
X72442762Y-62948951D01*
X72445874Y-62942051D01*
X72539587Y-62750357D01*
X72540945Y-62747667D01*
X72633667Y-62569551D01*
X72637118Y-62563362D01*
X72746295Y-62380139D01*
X72748150Y-62377129D01*
X72856090Y-62207697D01*
X72859721Y-62202316D01*
X72983635Y-62028764D01*
X72986102Y-62025433D01*
X73108401Y-61866048D01*
X73112114Y-61861445D01*
X73249903Y-61698758D01*
X73253027Y-61695211D01*
X73388811Y-61547028D01*
X73392440Y-61543238D01*
X73543238Y-61392440D01*
X73547028Y-61388811D01*
X73695211Y-61253027D01*
X73698758Y-61249903D01*
X73861445Y-61112114D01*
X73866048Y-61108401D01*
X74025433Y-60986102D01*
X74028764Y-60983635D01*
X74202316Y-60859721D01*
X74207697Y-60856090D01*
X74377129Y-60748150D01*
X74380139Y-60746295D01*
X74563373Y-60637111D01*
X74569551Y-60633667D01*
X74747667Y-60540945D01*
X74750357Y-60539587D01*
X74942051Y-60445874D01*
X74948951Y-60442762D01*
X75134553Y-60365883D01*
X75136564Y-60365074D01*
X75335565Y-60287423D01*
X75343284Y-60284704D01*
X75534743Y-60224337D01*
X75536253Y-60223875D01*
X75741111Y-60162885D01*
X75749599Y-60160684D01*
X75945302Y-60117297D01*
X75946392Y-60117062D01*
X76155816Y-60073151D01*
X76165045Y-60071578D01*
X76363195Y-60045491D01*
X76576673Y-60018881D01*
X76586540Y-60018052D01*
X76782628Y-60009490D01*
X76997437Y-60000605D01*
X77002561Y-60000500D01*
X181997439Y-60000500D01*
X182002562Y-60000605D01*
G37*
%TD.AperFunction*%
%TD*%
M02*
