%TF.GenerationSoftware,KiCad,Pcbnew,7.0.1-0*%
%TF.CreationDate,2023-07-04T20:45:15+01:00*%
%TF.ProjectId,Penfold_ADSR,50656e66-6f6c-4645-9f41-4453522e6b69,rev?*%
%TF.SameCoordinates,Original*%
%TF.FileFunction,Legend,Top*%
%TF.FilePolarity,Positive*%
%FSLAX46Y46*%
G04 Gerber Fmt 4.6, Leading zero omitted, Abs format (unit mm)*
G04 Created by KiCad (PCBNEW 7.0.1-0) date 2023-07-04 20:45:15*
%MOMM*%
%LPD*%
G01*
G04 APERTURE LIST*
%ADD10C,0.187500*%
%ADD11C,0.150000*%
%ADD12C,0.120000*%
G04 APERTURE END LIST*
D10*
X142404761Y-105877619D02*
X142071428Y-105401428D01*
X141833333Y-105877619D02*
X141833333Y-104877619D01*
X141833333Y-104877619D02*
X142214285Y-104877619D01*
X142214285Y-104877619D02*
X142309523Y-104925238D01*
X142309523Y-104925238D02*
X142357142Y-104972857D01*
X142357142Y-104972857D02*
X142404761Y-105068095D01*
X142404761Y-105068095D02*
X142404761Y-105210952D01*
X142404761Y-105210952D02*
X142357142Y-105306190D01*
X142357142Y-105306190D02*
X142309523Y-105353809D01*
X142309523Y-105353809D02*
X142214285Y-105401428D01*
X142214285Y-105401428D02*
X141833333Y-105401428D01*
X143214285Y-105830000D02*
X143119047Y-105877619D01*
X143119047Y-105877619D02*
X142928571Y-105877619D01*
X142928571Y-105877619D02*
X142833333Y-105830000D01*
X142833333Y-105830000D02*
X142785714Y-105734761D01*
X142785714Y-105734761D02*
X142785714Y-105353809D01*
X142785714Y-105353809D02*
X142833333Y-105258571D01*
X142833333Y-105258571D02*
X142928571Y-105210952D01*
X142928571Y-105210952D02*
X143119047Y-105210952D01*
X143119047Y-105210952D02*
X143214285Y-105258571D01*
X143214285Y-105258571D02*
X143261904Y-105353809D01*
X143261904Y-105353809D02*
X143261904Y-105449047D01*
X143261904Y-105449047D02*
X142785714Y-105544285D01*
X143833333Y-105877619D02*
X143738095Y-105830000D01*
X143738095Y-105830000D02*
X143690476Y-105734761D01*
X143690476Y-105734761D02*
X143690476Y-104877619D01*
X144595238Y-105830000D02*
X144500000Y-105877619D01*
X144500000Y-105877619D02*
X144309524Y-105877619D01*
X144309524Y-105877619D02*
X144214286Y-105830000D01*
X144214286Y-105830000D02*
X144166667Y-105734761D01*
X144166667Y-105734761D02*
X144166667Y-105353809D01*
X144166667Y-105353809D02*
X144214286Y-105258571D01*
X144214286Y-105258571D02*
X144309524Y-105210952D01*
X144309524Y-105210952D02*
X144500000Y-105210952D01*
X144500000Y-105210952D02*
X144595238Y-105258571D01*
X144595238Y-105258571D02*
X144642857Y-105353809D01*
X144642857Y-105353809D02*
X144642857Y-105449047D01*
X144642857Y-105449047D02*
X144166667Y-105544285D01*
X145500000Y-105877619D02*
X145500000Y-105353809D01*
X145500000Y-105353809D02*
X145452381Y-105258571D01*
X145452381Y-105258571D02*
X145357143Y-105210952D01*
X145357143Y-105210952D02*
X145166667Y-105210952D01*
X145166667Y-105210952D02*
X145071429Y-105258571D01*
X145500000Y-105830000D02*
X145404762Y-105877619D01*
X145404762Y-105877619D02*
X145166667Y-105877619D01*
X145166667Y-105877619D02*
X145071429Y-105830000D01*
X145071429Y-105830000D02*
X145023810Y-105734761D01*
X145023810Y-105734761D02*
X145023810Y-105639523D01*
X145023810Y-105639523D02*
X145071429Y-105544285D01*
X145071429Y-105544285D02*
X145166667Y-105496666D01*
X145166667Y-105496666D02*
X145404762Y-105496666D01*
X145404762Y-105496666D02*
X145500000Y-105449047D01*
X145928572Y-105830000D02*
X146023810Y-105877619D01*
X146023810Y-105877619D02*
X146214286Y-105877619D01*
X146214286Y-105877619D02*
X146309524Y-105830000D01*
X146309524Y-105830000D02*
X146357143Y-105734761D01*
X146357143Y-105734761D02*
X146357143Y-105687142D01*
X146357143Y-105687142D02*
X146309524Y-105591904D01*
X146309524Y-105591904D02*
X146214286Y-105544285D01*
X146214286Y-105544285D02*
X146071429Y-105544285D01*
X146071429Y-105544285D02*
X145976191Y-105496666D01*
X145976191Y-105496666D02*
X145928572Y-105401428D01*
X145928572Y-105401428D02*
X145928572Y-105353809D01*
X145928572Y-105353809D02*
X145976191Y-105258571D01*
X145976191Y-105258571D02*
X146071429Y-105210952D01*
X146071429Y-105210952D02*
X146214286Y-105210952D01*
X146214286Y-105210952D02*
X146309524Y-105258571D01*
X147166667Y-105830000D02*
X147071429Y-105877619D01*
X147071429Y-105877619D02*
X146880953Y-105877619D01*
X146880953Y-105877619D02*
X146785715Y-105830000D01*
X146785715Y-105830000D02*
X146738096Y-105734761D01*
X146738096Y-105734761D02*
X146738096Y-105353809D01*
X146738096Y-105353809D02*
X146785715Y-105258571D01*
X146785715Y-105258571D02*
X146880953Y-105210952D01*
X146880953Y-105210952D02*
X147071429Y-105210952D01*
X147071429Y-105210952D02*
X147166667Y-105258571D01*
X147166667Y-105258571D02*
X147214286Y-105353809D01*
X147214286Y-105353809D02*
X147214286Y-105449047D01*
X147214286Y-105449047D02*
X146738096Y-105544285D01*
X83357142Y-63816428D02*
X83357142Y-62316428D01*
X83357142Y-62316428D02*
X83928571Y-62316428D01*
X83928571Y-62316428D02*
X84071428Y-62387857D01*
X84071428Y-62387857D02*
X84142857Y-62459285D01*
X84142857Y-62459285D02*
X84214285Y-62602142D01*
X84214285Y-62602142D02*
X84214285Y-62816428D01*
X84214285Y-62816428D02*
X84142857Y-62959285D01*
X84142857Y-62959285D02*
X84071428Y-63030714D01*
X84071428Y-63030714D02*
X83928571Y-63102142D01*
X83928571Y-63102142D02*
X83357142Y-63102142D01*
X85714285Y-63673571D02*
X85642857Y-63745000D01*
X85642857Y-63745000D02*
X85428571Y-63816428D01*
X85428571Y-63816428D02*
X85285714Y-63816428D01*
X85285714Y-63816428D02*
X85071428Y-63745000D01*
X85071428Y-63745000D02*
X84928571Y-63602142D01*
X84928571Y-63602142D02*
X84857142Y-63459285D01*
X84857142Y-63459285D02*
X84785714Y-63173571D01*
X84785714Y-63173571D02*
X84785714Y-62959285D01*
X84785714Y-62959285D02*
X84857142Y-62673571D01*
X84857142Y-62673571D02*
X84928571Y-62530714D01*
X84928571Y-62530714D02*
X85071428Y-62387857D01*
X85071428Y-62387857D02*
X85285714Y-62316428D01*
X85285714Y-62316428D02*
X85428571Y-62316428D01*
X85428571Y-62316428D02*
X85642857Y-62387857D01*
X85642857Y-62387857D02*
X85714285Y-62459285D01*
X86857142Y-63030714D02*
X87071428Y-63102142D01*
X87071428Y-63102142D02*
X87142857Y-63173571D01*
X87142857Y-63173571D02*
X87214285Y-63316428D01*
X87214285Y-63316428D02*
X87214285Y-63530714D01*
X87214285Y-63530714D02*
X87142857Y-63673571D01*
X87142857Y-63673571D02*
X87071428Y-63745000D01*
X87071428Y-63745000D02*
X86928571Y-63816428D01*
X86928571Y-63816428D02*
X86357142Y-63816428D01*
X86357142Y-63816428D02*
X86357142Y-62316428D01*
X86357142Y-62316428D02*
X86857142Y-62316428D01*
X86857142Y-62316428D02*
X87000000Y-62387857D01*
X87000000Y-62387857D02*
X87071428Y-62459285D01*
X87071428Y-62459285D02*
X87142857Y-62602142D01*
X87142857Y-62602142D02*
X87142857Y-62745000D01*
X87142857Y-62745000D02*
X87071428Y-62887857D01*
X87071428Y-62887857D02*
X87000000Y-62959285D01*
X87000000Y-62959285D02*
X86857142Y-63030714D01*
X86857142Y-63030714D02*
X86357142Y-63030714D01*
X89642857Y-63816428D02*
X89642857Y-62316428D01*
X89642857Y-63745000D02*
X89499999Y-63816428D01*
X89499999Y-63816428D02*
X89214285Y-63816428D01*
X89214285Y-63816428D02*
X89071428Y-63745000D01*
X89071428Y-63745000D02*
X88999999Y-63673571D01*
X88999999Y-63673571D02*
X88928571Y-63530714D01*
X88928571Y-63530714D02*
X88928571Y-63102142D01*
X88928571Y-63102142D02*
X88999999Y-62959285D01*
X88999999Y-62959285D02*
X89071428Y-62887857D01*
X89071428Y-62887857D02*
X89214285Y-62816428D01*
X89214285Y-62816428D02*
X89499999Y-62816428D01*
X89499999Y-62816428D02*
X89642857Y-62887857D01*
X90928571Y-63745000D02*
X90785714Y-63816428D01*
X90785714Y-63816428D02*
X90500000Y-63816428D01*
X90500000Y-63816428D02*
X90357142Y-63745000D01*
X90357142Y-63745000D02*
X90285714Y-63602142D01*
X90285714Y-63602142D02*
X90285714Y-63030714D01*
X90285714Y-63030714D02*
X90357142Y-62887857D01*
X90357142Y-62887857D02*
X90500000Y-62816428D01*
X90500000Y-62816428D02*
X90785714Y-62816428D01*
X90785714Y-62816428D02*
X90928571Y-62887857D01*
X90928571Y-62887857D02*
X91000000Y-63030714D01*
X91000000Y-63030714D02*
X91000000Y-63173571D01*
X91000000Y-63173571D02*
X90285714Y-63316428D01*
X91571428Y-63745000D02*
X91714285Y-63816428D01*
X91714285Y-63816428D02*
X91999999Y-63816428D01*
X91999999Y-63816428D02*
X92142856Y-63745000D01*
X92142856Y-63745000D02*
X92214285Y-63602142D01*
X92214285Y-63602142D02*
X92214285Y-63530714D01*
X92214285Y-63530714D02*
X92142856Y-63387857D01*
X92142856Y-63387857D02*
X91999999Y-63316428D01*
X91999999Y-63316428D02*
X91785714Y-63316428D01*
X91785714Y-63316428D02*
X91642856Y-63245000D01*
X91642856Y-63245000D02*
X91571428Y-63102142D01*
X91571428Y-63102142D02*
X91571428Y-63030714D01*
X91571428Y-63030714D02*
X91642856Y-62887857D01*
X91642856Y-62887857D02*
X91785714Y-62816428D01*
X91785714Y-62816428D02*
X91999999Y-62816428D01*
X91999999Y-62816428D02*
X92142856Y-62887857D01*
X92857142Y-63816428D02*
X92857142Y-62816428D01*
X92857142Y-62316428D02*
X92785714Y-62387857D01*
X92785714Y-62387857D02*
X92857142Y-62459285D01*
X92857142Y-62459285D02*
X92928571Y-62387857D01*
X92928571Y-62387857D02*
X92857142Y-62316428D01*
X92857142Y-62316428D02*
X92857142Y-62459285D01*
X94214286Y-62816428D02*
X94214286Y-64030714D01*
X94214286Y-64030714D02*
X94142857Y-64173571D01*
X94142857Y-64173571D02*
X94071428Y-64245000D01*
X94071428Y-64245000D02*
X93928571Y-64316428D01*
X93928571Y-64316428D02*
X93714286Y-64316428D01*
X93714286Y-64316428D02*
X93571428Y-64245000D01*
X94214286Y-63745000D02*
X94071428Y-63816428D01*
X94071428Y-63816428D02*
X93785714Y-63816428D01*
X93785714Y-63816428D02*
X93642857Y-63745000D01*
X93642857Y-63745000D02*
X93571428Y-63673571D01*
X93571428Y-63673571D02*
X93500000Y-63530714D01*
X93500000Y-63530714D02*
X93500000Y-63102142D01*
X93500000Y-63102142D02*
X93571428Y-62959285D01*
X93571428Y-62959285D02*
X93642857Y-62887857D01*
X93642857Y-62887857D02*
X93785714Y-62816428D01*
X93785714Y-62816428D02*
X94071428Y-62816428D01*
X94071428Y-62816428D02*
X94214286Y-62887857D01*
X94928571Y-62816428D02*
X94928571Y-63816428D01*
X94928571Y-62959285D02*
X95000000Y-62887857D01*
X95000000Y-62887857D02*
X95142857Y-62816428D01*
X95142857Y-62816428D02*
X95357143Y-62816428D01*
X95357143Y-62816428D02*
X95500000Y-62887857D01*
X95500000Y-62887857D02*
X95571429Y-63030714D01*
X95571429Y-63030714D02*
X95571429Y-63816428D01*
X97285714Y-62816428D02*
X97642857Y-63816428D01*
X97642857Y-63816428D02*
X98000000Y-62816428D01*
X99357143Y-63816428D02*
X98500000Y-63816428D01*
X98928571Y-63816428D02*
X98928571Y-62316428D01*
X98928571Y-62316428D02*
X98785714Y-62530714D01*
X98785714Y-62530714D02*
X98642857Y-62673571D01*
X98642857Y-62673571D02*
X98500000Y-62745000D01*
X99999999Y-63673571D02*
X100071428Y-63745000D01*
X100071428Y-63745000D02*
X99999999Y-63816428D01*
X99999999Y-63816428D02*
X99928571Y-63745000D01*
X99928571Y-63745000D02*
X99999999Y-63673571D01*
X99999999Y-63673571D02*
X99999999Y-63816428D01*
X101000000Y-62316428D02*
X101142857Y-62316428D01*
X101142857Y-62316428D02*
X101285714Y-62387857D01*
X101285714Y-62387857D02*
X101357143Y-62459285D01*
X101357143Y-62459285D02*
X101428571Y-62602142D01*
X101428571Y-62602142D02*
X101500000Y-62887857D01*
X101500000Y-62887857D02*
X101500000Y-63245000D01*
X101500000Y-63245000D02*
X101428571Y-63530714D01*
X101428571Y-63530714D02*
X101357143Y-63673571D01*
X101357143Y-63673571D02*
X101285714Y-63745000D01*
X101285714Y-63745000D02*
X101142857Y-63816428D01*
X101142857Y-63816428D02*
X101000000Y-63816428D01*
X101000000Y-63816428D02*
X100857143Y-63745000D01*
X100857143Y-63745000D02*
X100785714Y-63673571D01*
X100785714Y-63673571D02*
X100714285Y-63530714D01*
X100714285Y-63530714D02*
X100642857Y-63245000D01*
X100642857Y-63245000D02*
X100642857Y-62887857D01*
X100642857Y-62887857D02*
X100714285Y-62602142D01*
X100714285Y-62602142D02*
X100785714Y-62459285D01*
X100785714Y-62459285D02*
X100857143Y-62387857D01*
X100857143Y-62387857D02*
X101000000Y-62316428D01*
X103214285Y-63387857D02*
X103928571Y-63387857D01*
X103071428Y-63816428D02*
X103571428Y-62316428D01*
X103571428Y-62316428D02*
X104071428Y-63816428D01*
X104785713Y-63816428D02*
X104642856Y-63745000D01*
X104642856Y-63745000D02*
X104571427Y-63602142D01*
X104571427Y-63602142D02*
X104571427Y-62316428D01*
X105357141Y-63816428D02*
X105357141Y-62816428D01*
X105357141Y-62316428D02*
X105285713Y-62387857D01*
X105285713Y-62387857D02*
X105357141Y-62459285D01*
X105357141Y-62459285D02*
X105428570Y-62387857D01*
X105428570Y-62387857D02*
X105357141Y-62316428D01*
X105357141Y-62316428D02*
X105357141Y-62459285D01*
X105999999Y-63745000D02*
X106142856Y-63816428D01*
X106142856Y-63816428D02*
X106428570Y-63816428D01*
X106428570Y-63816428D02*
X106571427Y-63745000D01*
X106571427Y-63745000D02*
X106642856Y-63602142D01*
X106642856Y-63602142D02*
X106642856Y-63530714D01*
X106642856Y-63530714D02*
X106571427Y-63387857D01*
X106571427Y-63387857D02*
X106428570Y-63316428D01*
X106428570Y-63316428D02*
X106214285Y-63316428D01*
X106214285Y-63316428D02*
X106071427Y-63245000D01*
X106071427Y-63245000D02*
X105999999Y-63102142D01*
X105999999Y-63102142D02*
X105999999Y-63030714D01*
X105999999Y-63030714D02*
X106071427Y-62887857D01*
X106071427Y-62887857D02*
X106214285Y-62816428D01*
X106214285Y-62816428D02*
X106428570Y-62816428D01*
X106428570Y-62816428D02*
X106571427Y-62887857D01*
X107071428Y-62816428D02*
X107642856Y-62816428D01*
X107285713Y-62316428D02*
X107285713Y-63602142D01*
X107285713Y-63602142D02*
X107357142Y-63745000D01*
X107357142Y-63745000D02*
X107499999Y-63816428D01*
X107499999Y-63816428D02*
X107642856Y-63816428D01*
X108714285Y-63745000D02*
X108571428Y-63816428D01*
X108571428Y-63816428D02*
X108285714Y-63816428D01*
X108285714Y-63816428D02*
X108142856Y-63745000D01*
X108142856Y-63745000D02*
X108071428Y-63602142D01*
X108071428Y-63602142D02*
X108071428Y-63030714D01*
X108071428Y-63030714D02*
X108142856Y-62887857D01*
X108142856Y-62887857D02*
X108285714Y-62816428D01*
X108285714Y-62816428D02*
X108571428Y-62816428D01*
X108571428Y-62816428D02*
X108714285Y-62887857D01*
X108714285Y-62887857D02*
X108785714Y-63030714D01*
X108785714Y-63030714D02*
X108785714Y-63173571D01*
X108785714Y-63173571D02*
X108071428Y-63316428D01*
X109428570Y-63816428D02*
X109428570Y-62816428D01*
X109428570Y-63102142D02*
X109499999Y-62959285D01*
X109499999Y-62959285D02*
X109571428Y-62887857D01*
X109571428Y-62887857D02*
X109714285Y-62816428D01*
X109714285Y-62816428D02*
X109857142Y-62816428D01*
X112214284Y-63816428D02*
X111499998Y-63816428D01*
X111499998Y-63816428D02*
X111499998Y-62316428D01*
X113285713Y-63745000D02*
X113142856Y-63816428D01*
X113142856Y-63816428D02*
X112857142Y-63816428D01*
X112857142Y-63816428D02*
X112714284Y-63745000D01*
X112714284Y-63745000D02*
X112642856Y-63602142D01*
X112642856Y-63602142D02*
X112642856Y-63030714D01*
X112642856Y-63030714D02*
X112714284Y-62887857D01*
X112714284Y-62887857D02*
X112857142Y-62816428D01*
X112857142Y-62816428D02*
X113142856Y-62816428D01*
X113142856Y-62816428D02*
X113285713Y-62887857D01*
X113285713Y-62887857D02*
X113357142Y-63030714D01*
X113357142Y-63030714D02*
X113357142Y-63173571D01*
X113357142Y-63173571D02*
X112642856Y-63316428D01*
X113857141Y-62816428D02*
X114142856Y-63816428D01*
X114142856Y-63816428D02*
X114428570Y-63102142D01*
X114428570Y-63102142D02*
X114714284Y-63816428D01*
X114714284Y-63816428D02*
X114999998Y-62816428D01*
X115571427Y-63816428D02*
X115571427Y-62816428D01*
X115571427Y-62316428D02*
X115499999Y-62387857D01*
X115499999Y-62387857D02*
X115571427Y-62459285D01*
X115571427Y-62459285D02*
X115642856Y-62387857D01*
X115642856Y-62387857D02*
X115571427Y-62316428D01*
X115571427Y-62316428D02*
X115571427Y-62459285D01*
X116214285Y-63745000D02*
X116357142Y-63816428D01*
X116357142Y-63816428D02*
X116642856Y-63816428D01*
X116642856Y-63816428D02*
X116785713Y-63745000D01*
X116785713Y-63745000D02*
X116857142Y-63602142D01*
X116857142Y-63602142D02*
X116857142Y-63530714D01*
X116857142Y-63530714D02*
X116785713Y-63387857D01*
X116785713Y-63387857D02*
X116642856Y-63316428D01*
X116642856Y-63316428D02*
X116428571Y-63316428D01*
X116428571Y-63316428D02*
X116285713Y-63245000D01*
X116285713Y-63245000D02*
X116214285Y-63102142D01*
X116214285Y-63102142D02*
X116214285Y-63030714D01*
X116214285Y-63030714D02*
X116285713Y-62887857D01*
X116285713Y-62887857D02*
X116428571Y-62816428D01*
X116428571Y-62816428D02*
X116642856Y-62816428D01*
X116642856Y-62816428D02*
X116785713Y-62887857D01*
X117499999Y-63245000D02*
X118642857Y-63245000D01*
X119857142Y-63030714D02*
X120071428Y-63102142D01*
X120071428Y-63102142D02*
X120142857Y-63173571D01*
X120142857Y-63173571D02*
X120214285Y-63316428D01*
X120214285Y-63316428D02*
X120214285Y-63530714D01*
X120214285Y-63530714D02*
X120142857Y-63673571D01*
X120142857Y-63673571D02*
X120071428Y-63745000D01*
X120071428Y-63745000D02*
X119928571Y-63816428D01*
X119928571Y-63816428D02*
X119357142Y-63816428D01*
X119357142Y-63816428D02*
X119357142Y-62316428D01*
X119357142Y-62316428D02*
X119857142Y-62316428D01*
X119857142Y-62316428D02*
X120000000Y-62387857D01*
X120000000Y-62387857D02*
X120071428Y-62459285D01*
X120071428Y-62459285D02*
X120142857Y-62602142D01*
X120142857Y-62602142D02*
X120142857Y-62745000D01*
X120142857Y-62745000D02*
X120071428Y-62887857D01*
X120071428Y-62887857D02*
X120000000Y-62959285D01*
X120000000Y-62959285D02*
X119857142Y-63030714D01*
X119857142Y-63030714D02*
X119357142Y-63030714D01*
X121071428Y-63816428D02*
X120928571Y-63745000D01*
X120928571Y-63745000D02*
X120857142Y-63673571D01*
X120857142Y-63673571D02*
X120785714Y-63530714D01*
X120785714Y-63530714D02*
X120785714Y-63102142D01*
X120785714Y-63102142D02*
X120857142Y-62959285D01*
X120857142Y-62959285D02*
X120928571Y-62887857D01*
X120928571Y-62887857D02*
X121071428Y-62816428D01*
X121071428Y-62816428D02*
X121285714Y-62816428D01*
X121285714Y-62816428D02*
X121428571Y-62887857D01*
X121428571Y-62887857D02*
X121500000Y-62959285D01*
X121500000Y-62959285D02*
X121571428Y-63102142D01*
X121571428Y-63102142D02*
X121571428Y-63530714D01*
X121571428Y-63530714D02*
X121500000Y-63673571D01*
X121500000Y-63673571D02*
X121428571Y-63745000D01*
X121428571Y-63745000D02*
X121285714Y-63816428D01*
X121285714Y-63816428D02*
X121071428Y-63816428D01*
X122071428Y-62816428D02*
X122357143Y-63816428D01*
X122357143Y-63816428D02*
X122642857Y-63102142D01*
X122642857Y-63102142D02*
X122928571Y-63816428D01*
X122928571Y-63816428D02*
X123214285Y-62816428D01*
X124357143Y-63745000D02*
X124214286Y-63816428D01*
X124214286Y-63816428D02*
X123928572Y-63816428D01*
X123928572Y-63816428D02*
X123785714Y-63745000D01*
X123785714Y-63745000D02*
X123714286Y-63602142D01*
X123714286Y-63602142D02*
X123714286Y-63030714D01*
X123714286Y-63030714D02*
X123785714Y-62887857D01*
X123785714Y-62887857D02*
X123928572Y-62816428D01*
X123928572Y-62816428D02*
X124214286Y-62816428D01*
X124214286Y-62816428D02*
X124357143Y-62887857D01*
X124357143Y-62887857D02*
X124428572Y-63030714D01*
X124428572Y-63030714D02*
X124428572Y-63173571D01*
X124428572Y-63173571D02*
X123714286Y-63316428D01*
X125071428Y-62816428D02*
X125071428Y-63816428D01*
X125071428Y-62959285D02*
X125142857Y-62887857D01*
X125142857Y-62887857D02*
X125285714Y-62816428D01*
X125285714Y-62816428D02*
X125500000Y-62816428D01*
X125500000Y-62816428D02*
X125642857Y-62887857D01*
X125642857Y-62887857D02*
X125714286Y-63030714D01*
X125714286Y-63030714D02*
X125714286Y-63816428D01*
X111047619Y-105877619D02*
X111047619Y-104877619D01*
X111047619Y-104877619D02*
X111285714Y-104877619D01*
X111285714Y-104877619D02*
X111428571Y-104925238D01*
X111428571Y-104925238D02*
X111523809Y-105020476D01*
X111523809Y-105020476D02*
X111571428Y-105115714D01*
X111571428Y-105115714D02*
X111619047Y-105306190D01*
X111619047Y-105306190D02*
X111619047Y-105449047D01*
X111619047Y-105449047D02*
X111571428Y-105639523D01*
X111571428Y-105639523D02*
X111523809Y-105734761D01*
X111523809Y-105734761D02*
X111428571Y-105830000D01*
X111428571Y-105830000D02*
X111285714Y-105877619D01*
X111285714Y-105877619D02*
X111047619Y-105877619D01*
X112428571Y-105830000D02*
X112333333Y-105877619D01*
X112333333Y-105877619D02*
X112142857Y-105877619D01*
X112142857Y-105877619D02*
X112047619Y-105830000D01*
X112047619Y-105830000D02*
X112000000Y-105734761D01*
X112000000Y-105734761D02*
X112000000Y-105353809D01*
X112000000Y-105353809D02*
X112047619Y-105258571D01*
X112047619Y-105258571D02*
X112142857Y-105210952D01*
X112142857Y-105210952D02*
X112333333Y-105210952D01*
X112333333Y-105210952D02*
X112428571Y-105258571D01*
X112428571Y-105258571D02*
X112476190Y-105353809D01*
X112476190Y-105353809D02*
X112476190Y-105449047D01*
X112476190Y-105449047D02*
X112000000Y-105544285D01*
X113333333Y-105830000D02*
X113238095Y-105877619D01*
X113238095Y-105877619D02*
X113047619Y-105877619D01*
X113047619Y-105877619D02*
X112952381Y-105830000D01*
X112952381Y-105830000D02*
X112904762Y-105782380D01*
X112904762Y-105782380D02*
X112857143Y-105687142D01*
X112857143Y-105687142D02*
X112857143Y-105401428D01*
X112857143Y-105401428D02*
X112904762Y-105306190D01*
X112904762Y-105306190D02*
X112952381Y-105258571D01*
X112952381Y-105258571D02*
X113047619Y-105210952D01*
X113047619Y-105210952D02*
X113238095Y-105210952D01*
X113238095Y-105210952D02*
X113333333Y-105258571D01*
X114190476Y-105877619D02*
X114190476Y-105353809D01*
X114190476Y-105353809D02*
X114142857Y-105258571D01*
X114142857Y-105258571D02*
X114047619Y-105210952D01*
X114047619Y-105210952D02*
X113857143Y-105210952D01*
X113857143Y-105210952D02*
X113761905Y-105258571D01*
X114190476Y-105830000D02*
X114095238Y-105877619D01*
X114095238Y-105877619D02*
X113857143Y-105877619D01*
X113857143Y-105877619D02*
X113761905Y-105830000D01*
X113761905Y-105830000D02*
X113714286Y-105734761D01*
X113714286Y-105734761D02*
X113714286Y-105639523D01*
X113714286Y-105639523D02*
X113761905Y-105544285D01*
X113761905Y-105544285D02*
X113857143Y-105496666D01*
X113857143Y-105496666D02*
X114095238Y-105496666D01*
X114095238Y-105496666D02*
X114190476Y-105449047D01*
X114571429Y-105210952D02*
X114809524Y-105877619D01*
X115047619Y-105210952D02*
X114809524Y-105877619D01*
X114809524Y-105877619D02*
X114714286Y-106115714D01*
X114714286Y-106115714D02*
X114666667Y-106163333D01*
X114666667Y-106163333D02*
X114571429Y-106210952D01*
X87738095Y-104425238D02*
X87642857Y-104377619D01*
X87642857Y-104377619D02*
X87500000Y-104377619D01*
X87500000Y-104377619D02*
X87357143Y-104425238D01*
X87357143Y-104425238D02*
X87261905Y-104520476D01*
X87261905Y-104520476D02*
X87214286Y-104615714D01*
X87214286Y-104615714D02*
X87166667Y-104806190D01*
X87166667Y-104806190D02*
X87166667Y-104949047D01*
X87166667Y-104949047D02*
X87214286Y-105139523D01*
X87214286Y-105139523D02*
X87261905Y-105234761D01*
X87261905Y-105234761D02*
X87357143Y-105330000D01*
X87357143Y-105330000D02*
X87500000Y-105377619D01*
X87500000Y-105377619D02*
X87595238Y-105377619D01*
X87595238Y-105377619D02*
X87738095Y-105330000D01*
X87738095Y-105330000D02*
X87785714Y-105282380D01*
X87785714Y-105282380D02*
X87785714Y-104949047D01*
X87785714Y-104949047D02*
X87595238Y-104949047D01*
X88214286Y-105377619D02*
X88214286Y-104377619D01*
X88214286Y-104377619D02*
X88785714Y-105377619D01*
X88785714Y-105377619D02*
X88785714Y-104377619D01*
X89261905Y-105377619D02*
X89261905Y-104377619D01*
X89261905Y-104377619D02*
X89500000Y-104377619D01*
X89500000Y-104377619D02*
X89642857Y-104425238D01*
X89642857Y-104425238D02*
X89738095Y-104520476D01*
X89738095Y-104520476D02*
X89785714Y-104615714D01*
X89785714Y-104615714D02*
X89833333Y-104806190D01*
X89833333Y-104806190D02*
X89833333Y-104949047D01*
X89833333Y-104949047D02*
X89785714Y-105139523D01*
X89785714Y-105139523D02*
X89738095Y-105234761D01*
X89738095Y-105234761D02*
X89642857Y-105330000D01*
X89642857Y-105330000D02*
X89500000Y-105377619D01*
X89500000Y-105377619D02*
X89261905Y-105377619D01*
X90238095Y-98425238D02*
X90142857Y-98377619D01*
X90142857Y-98377619D02*
X90000000Y-98377619D01*
X90000000Y-98377619D02*
X89857143Y-98425238D01*
X89857143Y-98425238D02*
X89761905Y-98520476D01*
X89761905Y-98520476D02*
X89714286Y-98615714D01*
X89714286Y-98615714D02*
X89666667Y-98806190D01*
X89666667Y-98806190D02*
X89666667Y-98949047D01*
X89666667Y-98949047D02*
X89714286Y-99139523D01*
X89714286Y-99139523D02*
X89761905Y-99234761D01*
X89761905Y-99234761D02*
X89857143Y-99330000D01*
X89857143Y-99330000D02*
X90000000Y-99377619D01*
X90000000Y-99377619D02*
X90095238Y-99377619D01*
X90095238Y-99377619D02*
X90238095Y-99330000D01*
X90238095Y-99330000D02*
X90285714Y-99282380D01*
X90285714Y-99282380D02*
X90285714Y-98949047D01*
X90285714Y-98949047D02*
X90095238Y-98949047D01*
X90714286Y-99377619D02*
X90714286Y-98377619D01*
X90714286Y-98377619D02*
X91285714Y-99377619D01*
X91285714Y-99377619D02*
X91285714Y-98377619D01*
X91761905Y-99377619D02*
X91761905Y-98377619D01*
X91761905Y-98377619D02*
X92000000Y-98377619D01*
X92000000Y-98377619D02*
X92142857Y-98425238D01*
X92142857Y-98425238D02*
X92238095Y-98520476D01*
X92238095Y-98520476D02*
X92285714Y-98615714D01*
X92285714Y-98615714D02*
X92333333Y-98806190D01*
X92333333Y-98806190D02*
X92333333Y-98949047D01*
X92333333Y-98949047D02*
X92285714Y-99139523D01*
X92285714Y-99139523D02*
X92238095Y-99234761D01*
X92238095Y-99234761D02*
X92142857Y-99330000D01*
X92142857Y-99330000D02*
X92000000Y-99377619D01*
X92000000Y-99377619D02*
X91761905Y-99377619D01*
X159166666Y-104877619D02*
X159357142Y-104877619D01*
X159357142Y-104877619D02*
X159452380Y-104925238D01*
X159452380Y-104925238D02*
X159547618Y-105020476D01*
X159547618Y-105020476D02*
X159595237Y-105210952D01*
X159595237Y-105210952D02*
X159595237Y-105544285D01*
X159595237Y-105544285D02*
X159547618Y-105734761D01*
X159547618Y-105734761D02*
X159452380Y-105830000D01*
X159452380Y-105830000D02*
X159357142Y-105877619D01*
X159357142Y-105877619D02*
X159166666Y-105877619D01*
X159166666Y-105877619D02*
X159071428Y-105830000D01*
X159071428Y-105830000D02*
X158976190Y-105734761D01*
X158976190Y-105734761D02*
X158928571Y-105544285D01*
X158928571Y-105544285D02*
X158928571Y-105210952D01*
X158928571Y-105210952D02*
X158976190Y-105020476D01*
X158976190Y-105020476D02*
X159071428Y-104925238D01*
X159071428Y-104925238D02*
X159166666Y-104877619D01*
X160452380Y-105210952D02*
X160452380Y-105877619D01*
X160023809Y-105210952D02*
X160023809Y-105734761D01*
X160023809Y-105734761D02*
X160071428Y-105830000D01*
X160071428Y-105830000D02*
X160166666Y-105877619D01*
X160166666Y-105877619D02*
X160309523Y-105877619D01*
X160309523Y-105877619D02*
X160404761Y-105830000D01*
X160404761Y-105830000D02*
X160452380Y-105782380D01*
X160785714Y-105210952D02*
X161166666Y-105210952D01*
X160928571Y-104877619D02*
X160928571Y-105734761D01*
X160928571Y-105734761D02*
X160976190Y-105830000D01*
X160976190Y-105830000D02*
X161071428Y-105877619D01*
X161071428Y-105877619D02*
X161166666Y-105877619D01*
X161738095Y-99425238D02*
X161642857Y-99377619D01*
X161642857Y-99377619D02*
X161500000Y-99377619D01*
X161500000Y-99377619D02*
X161357143Y-99425238D01*
X161357143Y-99425238D02*
X161261905Y-99520476D01*
X161261905Y-99520476D02*
X161214286Y-99615714D01*
X161214286Y-99615714D02*
X161166667Y-99806190D01*
X161166667Y-99806190D02*
X161166667Y-99949047D01*
X161166667Y-99949047D02*
X161214286Y-100139523D01*
X161214286Y-100139523D02*
X161261905Y-100234761D01*
X161261905Y-100234761D02*
X161357143Y-100330000D01*
X161357143Y-100330000D02*
X161500000Y-100377619D01*
X161500000Y-100377619D02*
X161595238Y-100377619D01*
X161595238Y-100377619D02*
X161738095Y-100330000D01*
X161738095Y-100330000D02*
X161785714Y-100282380D01*
X161785714Y-100282380D02*
X161785714Y-99949047D01*
X161785714Y-99949047D02*
X161595238Y-99949047D01*
X162214286Y-100377619D02*
X162214286Y-99377619D01*
X162214286Y-99377619D02*
X162785714Y-100377619D01*
X162785714Y-100377619D02*
X162785714Y-99377619D01*
X163261905Y-100377619D02*
X163261905Y-99377619D01*
X163261905Y-99377619D02*
X163500000Y-99377619D01*
X163500000Y-99377619D02*
X163642857Y-99425238D01*
X163642857Y-99425238D02*
X163738095Y-99520476D01*
X163738095Y-99520476D02*
X163785714Y-99615714D01*
X163785714Y-99615714D02*
X163833333Y-99806190D01*
X163833333Y-99806190D02*
X163833333Y-99949047D01*
X163833333Y-99949047D02*
X163785714Y-100139523D01*
X163785714Y-100139523D02*
X163738095Y-100234761D01*
X163738095Y-100234761D02*
X163642857Y-100330000D01*
X163642857Y-100330000D02*
X163500000Y-100377619D01*
X163500000Y-100377619D02*
X163261905Y-100377619D01*
X85095237Y-96805238D02*
X84999999Y-96757619D01*
X84999999Y-96757619D02*
X84857142Y-96757619D01*
X84857142Y-96757619D02*
X84714285Y-96805238D01*
X84714285Y-96805238D02*
X84619047Y-96900476D01*
X84619047Y-96900476D02*
X84571428Y-96995714D01*
X84571428Y-96995714D02*
X84523809Y-97186190D01*
X84523809Y-97186190D02*
X84523809Y-97329047D01*
X84523809Y-97329047D02*
X84571428Y-97519523D01*
X84571428Y-97519523D02*
X84619047Y-97614761D01*
X84619047Y-97614761D02*
X84714285Y-97710000D01*
X84714285Y-97710000D02*
X84857142Y-97757619D01*
X84857142Y-97757619D02*
X84952380Y-97757619D01*
X84952380Y-97757619D02*
X85095237Y-97710000D01*
X85095237Y-97710000D02*
X85142856Y-97662380D01*
X85142856Y-97662380D02*
X85142856Y-97329047D01*
X85142856Y-97329047D02*
X84952380Y-97329047D01*
X85999999Y-97757619D02*
X85999999Y-97233809D01*
X85999999Y-97233809D02*
X85952380Y-97138571D01*
X85952380Y-97138571D02*
X85857142Y-97090952D01*
X85857142Y-97090952D02*
X85666666Y-97090952D01*
X85666666Y-97090952D02*
X85571428Y-97138571D01*
X85999999Y-97710000D02*
X85904761Y-97757619D01*
X85904761Y-97757619D02*
X85666666Y-97757619D01*
X85666666Y-97757619D02*
X85571428Y-97710000D01*
X85571428Y-97710000D02*
X85523809Y-97614761D01*
X85523809Y-97614761D02*
X85523809Y-97519523D01*
X85523809Y-97519523D02*
X85571428Y-97424285D01*
X85571428Y-97424285D02*
X85666666Y-97376666D01*
X85666666Y-97376666D02*
X85904761Y-97376666D01*
X85904761Y-97376666D02*
X85999999Y-97329047D01*
X86333333Y-97090952D02*
X86714285Y-97090952D01*
X86476190Y-96757619D02*
X86476190Y-97614761D01*
X86476190Y-97614761D02*
X86523809Y-97710000D01*
X86523809Y-97710000D02*
X86619047Y-97757619D01*
X86619047Y-97757619D02*
X86714285Y-97757619D01*
X87428571Y-97710000D02*
X87333333Y-97757619D01*
X87333333Y-97757619D02*
X87142857Y-97757619D01*
X87142857Y-97757619D02*
X87047619Y-97710000D01*
X87047619Y-97710000D02*
X87000000Y-97614761D01*
X87000000Y-97614761D02*
X87000000Y-97233809D01*
X87000000Y-97233809D02*
X87047619Y-97138571D01*
X87047619Y-97138571D02*
X87142857Y-97090952D01*
X87142857Y-97090952D02*
X87333333Y-97090952D01*
X87333333Y-97090952D02*
X87428571Y-97138571D01*
X87428571Y-97138571D02*
X87476190Y-97233809D01*
X87476190Y-97233809D02*
X87476190Y-97329047D01*
X87476190Y-97329047D02*
X87000000Y-97424285D01*
X85547619Y-99377619D02*
X85547619Y-98377619D01*
X86023809Y-98710952D02*
X86023809Y-99377619D01*
X86023809Y-98806190D02*
X86071428Y-98758571D01*
X86071428Y-98758571D02*
X86166666Y-98710952D01*
X86166666Y-98710952D02*
X86309523Y-98710952D01*
X86309523Y-98710952D02*
X86404761Y-98758571D01*
X86404761Y-98758571D02*
X86452380Y-98853809D01*
X86452380Y-98853809D02*
X86452380Y-99377619D01*
X74238095Y-70496666D02*
X75000000Y-70496666D01*
X75999999Y-70877619D02*
X75428571Y-70877619D01*
X75714285Y-70877619D02*
X75714285Y-69877619D01*
X75714285Y-69877619D02*
X75619047Y-70020476D01*
X75619047Y-70020476D02*
X75523809Y-70115714D01*
X75523809Y-70115714D02*
X75428571Y-70163333D01*
X76380952Y-69972857D02*
X76428571Y-69925238D01*
X76428571Y-69925238D02*
X76523809Y-69877619D01*
X76523809Y-69877619D02*
X76761904Y-69877619D01*
X76761904Y-69877619D02*
X76857142Y-69925238D01*
X76857142Y-69925238D02*
X76904761Y-69972857D01*
X76904761Y-69972857D02*
X76952380Y-70068095D01*
X76952380Y-70068095D02*
X76952380Y-70163333D01*
X76952380Y-70163333D02*
X76904761Y-70306190D01*
X76904761Y-70306190D02*
X76333333Y-70877619D01*
X76333333Y-70877619D02*
X76952380Y-70877619D01*
X77285714Y-70210952D02*
X77523809Y-70877619D01*
X77523809Y-70877619D02*
X77761904Y-70210952D01*
X125404761Y-105591904D02*
X125880951Y-105591904D01*
X125309523Y-105877619D02*
X125642856Y-104877619D01*
X125642856Y-104877619D02*
X125976189Y-105877619D01*
X126166666Y-105210952D02*
X126547618Y-105210952D01*
X126309523Y-104877619D02*
X126309523Y-105734761D01*
X126309523Y-105734761D02*
X126357142Y-105830000D01*
X126357142Y-105830000D02*
X126452380Y-105877619D01*
X126452380Y-105877619D02*
X126547618Y-105877619D01*
X126738095Y-105210952D02*
X127119047Y-105210952D01*
X126880952Y-104877619D02*
X126880952Y-105734761D01*
X126880952Y-105734761D02*
X126928571Y-105830000D01*
X126928571Y-105830000D02*
X127023809Y-105877619D01*
X127023809Y-105877619D02*
X127119047Y-105877619D01*
X127880952Y-105877619D02*
X127880952Y-105353809D01*
X127880952Y-105353809D02*
X127833333Y-105258571D01*
X127833333Y-105258571D02*
X127738095Y-105210952D01*
X127738095Y-105210952D02*
X127547619Y-105210952D01*
X127547619Y-105210952D02*
X127452381Y-105258571D01*
X127880952Y-105830000D02*
X127785714Y-105877619D01*
X127785714Y-105877619D02*
X127547619Y-105877619D01*
X127547619Y-105877619D02*
X127452381Y-105830000D01*
X127452381Y-105830000D02*
X127404762Y-105734761D01*
X127404762Y-105734761D02*
X127404762Y-105639523D01*
X127404762Y-105639523D02*
X127452381Y-105544285D01*
X127452381Y-105544285D02*
X127547619Y-105496666D01*
X127547619Y-105496666D02*
X127785714Y-105496666D01*
X127785714Y-105496666D02*
X127880952Y-105449047D01*
X128785714Y-105830000D02*
X128690476Y-105877619D01*
X128690476Y-105877619D02*
X128500000Y-105877619D01*
X128500000Y-105877619D02*
X128404762Y-105830000D01*
X128404762Y-105830000D02*
X128357143Y-105782380D01*
X128357143Y-105782380D02*
X128309524Y-105687142D01*
X128309524Y-105687142D02*
X128309524Y-105401428D01*
X128309524Y-105401428D02*
X128357143Y-105306190D01*
X128357143Y-105306190D02*
X128404762Y-105258571D01*
X128404762Y-105258571D02*
X128500000Y-105210952D01*
X128500000Y-105210952D02*
X128690476Y-105210952D01*
X128690476Y-105210952D02*
X128785714Y-105258571D01*
X129214286Y-105877619D02*
X129214286Y-104877619D01*
X129309524Y-105496666D02*
X129595238Y-105877619D01*
X129595238Y-105210952D02*
X129214286Y-105591904D01*
X152830000Y-83571428D02*
X152877619Y-83428571D01*
X152877619Y-83428571D02*
X152877619Y-83190476D01*
X152877619Y-83190476D02*
X152830000Y-83095238D01*
X152830000Y-83095238D02*
X152782380Y-83047619D01*
X152782380Y-83047619D02*
X152687142Y-83000000D01*
X152687142Y-83000000D02*
X152591904Y-83000000D01*
X152591904Y-83000000D02*
X152496666Y-83047619D01*
X152496666Y-83047619D02*
X152449047Y-83095238D01*
X152449047Y-83095238D02*
X152401428Y-83190476D01*
X152401428Y-83190476D02*
X152353809Y-83380952D01*
X152353809Y-83380952D02*
X152306190Y-83476190D01*
X152306190Y-83476190D02*
X152258571Y-83523809D01*
X152258571Y-83523809D02*
X152163333Y-83571428D01*
X152163333Y-83571428D02*
X152068095Y-83571428D01*
X152068095Y-83571428D02*
X151972857Y-83523809D01*
X151972857Y-83523809D02*
X151925238Y-83476190D01*
X151925238Y-83476190D02*
X151877619Y-83380952D01*
X151877619Y-83380952D02*
X151877619Y-83142857D01*
X151877619Y-83142857D02*
X151925238Y-83000000D01*
X152210952Y-82142857D02*
X152877619Y-82142857D01*
X152210952Y-82571428D02*
X152734761Y-82571428D01*
X152734761Y-82571428D02*
X152830000Y-82523809D01*
X152830000Y-82523809D02*
X152877619Y-82428571D01*
X152877619Y-82428571D02*
X152877619Y-82285714D01*
X152877619Y-82285714D02*
X152830000Y-82190476D01*
X152830000Y-82190476D02*
X152782380Y-82142857D01*
X152830000Y-81714285D02*
X152877619Y-81619047D01*
X152877619Y-81619047D02*
X152877619Y-81428571D01*
X152877619Y-81428571D02*
X152830000Y-81333333D01*
X152830000Y-81333333D02*
X152734761Y-81285714D01*
X152734761Y-81285714D02*
X152687142Y-81285714D01*
X152687142Y-81285714D02*
X152591904Y-81333333D01*
X152591904Y-81333333D02*
X152544285Y-81428571D01*
X152544285Y-81428571D02*
X152544285Y-81571428D01*
X152544285Y-81571428D02*
X152496666Y-81666666D01*
X152496666Y-81666666D02*
X152401428Y-81714285D01*
X152401428Y-81714285D02*
X152353809Y-81714285D01*
X152353809Y-81714285D02*
X152258571Y-81666666D01*
X152258571Y-81666666D02*
X152210952Y-81571428D01*
X152210952Y-81571428D02*
X152210952Y-81428571D01*
X152210952Y-81428571D02*
X152258571Y-81333333D01*
X152210952Y-80999999D02*
X152210952Y-80619047D01*
X151877619Y-80857142D02*
X152734761Y-80857142D01*
X152734761Y-80857142D02*
X152830000Y-80809523D01*
X152830000Y-80809523D02*
X152877619Y-80714285D01*
X152877619Y-80714285D02*
X152877619Y-80619047D01*
X152877619Y-79857142D02*
X152353809Y-79857142D01*
X152353809Y-79857142D02*
X152258571Y-79904761D01*
X152258571Y-79904761D02*
X152210952Y-79999999D01*
X152210952Y-79999999D02*
X152210952Y-80190475D01*
X152210952Y-80190475D02*
X152258571Y-80285713D01*
X152830000Y-79857142D02*
X152877619Y-79952380D01*
X152877619Y-79952380D02*
X152877619Y-80190475D01*
X152877619Y-80190475D02*
X152830000Y-80285713D01*
X152830000Y-80285713D02*
X152734761Y-80333332D01*
X152734761Y-80333332D02*
X152639523Y-80333332D01*
X152639523Y-80333332D02*
X152544285Y-80285713D01*
X152544285Y-80285713D02*
X152496666Y-80190475D01*
X152496666Y-80190475D02*
X152496666Y-79952380D01*
X152496666Y-79952380D02*
X152449047Y-79857142D01*
X152877619Y-79380951D02*
X152210952Y-79380951D01*
X151877619Y-79380951D02*
X151925238Y-79428570D01*
X151925238Y-79428570D02*
X151972857Y-79380951D01*
X151972857Y-79380951D02*
X151925238Y-79333332D01*
X151925238Y-79333332D02*
X151877619Y-79380951D01*
X151877619Y-79380951D02*
X151972857Y-79380951D01*
X152210952Y-78904761D02*
X152877619Y-78904761D01*
X152306190Y-78904761D02*
X152258571Y-78857142D01*
X152258571Y-78857142D02*
X152210952Y-78761904D01*
X152210952Y-78761904D02*
X152210952Y-78619047D01*
X152210952Y-78619047D02*
X152258571Y-78523809D01*
X152258571Y-78523809D02*
X152353809Y-78476190D01*
X152353809Y-78476190D02*
X152877619Y-78476190D01*
X135023809Y-65694047D02*
X134190476Y-64503571D01*
X133595238Y-65694047D02*
X133595238Y-63194047D01*
X133595238Y-63194047D02*
X134547619Y-63194047D01*
X134547619Y-63194047D02*
X134785714Y-63313095D01*
X134785714Y-63313095D02*
X134904761Y-63432142D01*
X134904761Y-63432142D02*
X135023809Y-63670238D01*
X135023809Y-63670238D02*
X135023809Y-64027380D01*
X135023809Y-64027380D02*
X134904761Y-64265476D01*
X134904761Y-64265476D02*
X134785714Y-64384523D01*
X134785714Y-64384523D02*
X134547619Y-64503571D01*
X134547619Y-64503571D02*
X133595238Y-64503571D01*
X136095238Y-65455952D02*
X136214285Y-65575000D01*
X136214285Y-65575000D02*
X136095238Y-65694047D01*
X136095238Y-65694047D02*
X135976190Y-65575000D01*
X135976190Y-65575000D02*
X136095238Y-65455952D01*
X136095238Y-65455952D02*
X136095238Y-65694047D01*
X137166666Y-64979761D02*
X138357142Y-64979761D01*
X136928571Y-65694047D02*
X137761904Y-63194047D01*
X137761904Y-63194047D02*
X138595237Y-65694047D01*
X139428571Y-65455952D02*
X139547618Y-65575000D01*
X139547618Y-65575000D02*
X139428571Y-65694047D01*
X139428571Y-65694047D02*
X139309523Y-65575000D01*
X139309523Y-65575000D02*
X139428571Y-65455952D01*
X139428571Y-65455952D02*
X139428571Y-65694047D01*
X140619047Y-65694047D02*
X140619047Y-63194047D01*
X140619047Y-63194047D02*
X141571428Y-63194047D01*
X141571428Y-63194047D02*
X141809523Y-63313095D01*
X141809523Y-63313095D02*
X141928570Y-63432142D01*
X141928570Y-63432142D02*
X142047618Y-63670238D01*
X142047618Y-63670238D02*
X142047618Y-64027380D01*
X142047618Y-64027380D02*
X141928570Y-64265476D01*
X141928570Y-64265476D02*
X141809523Y-64384523D01*
X141809523Y-64384523D02*
X141571428Y-64503571D01*
X141571428Y-64503571D02*
X140619047Y-64503571D01*
X144071428Y-65575000D02*
X143833332Y-65694047D01*
X143833332Y-65694047D02*
X143357142Y-65694047D01*
X143357142Y-65694047D02*
X143119047Y-65575000D01*
X143119047Y-65575000D02*
X142999999Y-65336904D01*
X142999999Y-65336904D02*
X142999999Y-64384523D01*
X142999999Y-64384523D02*
X143119047Y-64146428D01*
X143119047Y-64146428D02*
X143357142Y-64027380D01*
X143357142Y-64027380D02*
X143833332Y-64027380D01*
X143833332Y-64027380D02*
X144071428Y-64146428D01*
X144071428Y-64146428D02*
X144190475Y-64384523D01*
X144190475Y-64384523D02*
X144190475Y-64622619D01*
X144190475Y-64622619D02*
X142999999Y-64860714D01*
X145261904Y-64027380D02*
X145261904Y-65694047D01*
X145261904Y-64265476D02*
X145380951Y-64146428D01*
X145380951Y-64146428D02*
X145619046Y-64027380D01*
X145619046Y-64027380D02*
X145976189Y-64027380D01*
X145976189Y-64027380D02*
X146214285Y-64146428D01*
X146214285Y-64146428D02*
X146333332Y-64384523D01*
X146333332Y-64384523D02*
X146333332Y-65694047D01*
X147166666Y-64027380D02*
X148119047Y-64027380D01*
X147523809Y-65694047D02*
X147523809Y-63551190D01*
X147523809Y-63551190D02*
X147642856Y-63313095D01*
X147642856Y-63313095D02*
X147880951Y-63194047D01*
X147880951Y-63194047D02*
X148119047Y-63194047D01*
X149309522Y-65694047D02*
X149071427Y-65575000D01*
X149071427Y-65575000D02*
X148952380Y-65455952D01*
X148952380Y-65455952D02*
X148833332Y-65217857D01*
X148833332Y-65217857D02*
X148833332Y-64503571D01*
X148833332Y-64503571D02*
X148952380Y-64265476D01*
X148952380Y-64265476D02*
X149071427Y-64146428D01*
X149071427Y-64146428D02*
X149309522Y-64027380D01*
X149309522Y-64027380D02*
X149666665Y-64027380D01*
X149666665Y-64027380D02*
X149904761Y-64146428D01*
X149904761Y-64146428D02*
X150023808Y-64265476D01*
X150023808Y-64265476D02*
X150142856Y-64503571D01*
X150142856Y-64503571D02*
X150142856Y-65217857D01*
X150142856Y-65217857D02*
X150023808Y-65455952D01*
X150023808Y-65455952D02*
X149904761Y-65575000D01*
X149904761Y-65575000D02*
X149666665Y-65694047D01*
X149666665Y-65694047D02*
X149309522Y-65694047D01*
X151571427Y-65694047D02*
X151333332Y-65575000D01*
X151333332Y-65575000D02*
X151214285Y-65336904D01*
X151214285Y-65336904D02*
X151214285Y-63194047D01*
X153595237Y-65694047D02*
X153595237Y-63194047D01*
X153595237Y-65575000D02*
X153357142Y-65694047D01*
X153357142Y-65694047D02*
X152880951Y-65694047D01*
X152880951Y-65694047D02*
X152642856Y-65575000D01*
X152642856Y-65575000D02*
X152523809Y-65455952D01*
X152523809Y-65455952D02*
X152404761Y-65217857D01*
X152404761Y-65217857D02*
X152404761Y-64503571D01*
X152404761Y-64503571D02*
X152523809Y-64265476D01*
X152523809Y-64265476D02*
X152642856Y-64146428D01*
X152642856Y-64146428D02*
X152880951Y-64027380D01*
X152880951Y-64027380D02*
X153357142Y-64027380D01*
X153357142Y-64027380D02*
X153595237Y-64146428D01*
X156571428Y-64979761D02*
X157761904Y-64979761D01*
X156333333Y-65694047D02*
X157166666Y-63194047D01*
X157166666Y-63194047D02*
X157999999Y-65694047D01*
X158833333Y-65694047D02*
X158833333Y-63194047D01*
X158833333Y-63194047D02*
X159428571Y-63194047D01*
X159428571Y-63194047D02*
X159785714Y-63313095D01*
X159785714Y-63313095D02*
X160023809Y-63551190D01*
X160023809Y-63551190D02*
X160142856Y-63789285D01*
X160142856Y-63789285D02*
X160261904Y-64265476D01*
X160261904Y-64265476D02*
X160261904Y-64622619D01*
X160261904Y-64622619D02*
X160142856Y-65098809D01*
X160142856Y-65098809D02*
X160023809Y-65336904D01*
X160023809Y-65336904D02*
X159785714Y-65575000D01*
X159785714Y-65575000D02*
X159428571Y-65694047D01*
X159428571Y-65694047D02*
X158833333Y-65694047D01*
X161214285Y-65575000D02*
X161571428Y-65694047D01*
X161571428Y-65694047D02*
X162166666Y-65694047D01*
X162166666Y-65694047D02*
X162404761Y-65575000D01*
X162404761Y-65575000D02*
X162523809Y-65455952D01*
X162523809Y-65455952D02*
X162642856Y-65217857D01*
X162642856Y-65217857D02*
X162642856Y-64979761D01*
X162642856Y-64979761D02*
X162523809Y-64741666D01*
X162523809Y-64741666D02*
X162404761Y-64622619D01*
X162404761Y-64622619D02*
X162166666Y-64503571D01*
X162166666Y-64503571D02*
X161690475Y-64384523D01*
X161690475Y-64384523D02*
X161452380Y-64265476D01*
X161452380Y-64265476D02*
X161333333Y-64146428D01*
X161333333Y-64146428D02*
X161214285Y-63908333D01*
X161214285Y-63908333D02*
X161214285Y-63670238D01*
X161214285Y-63670238D02*
X161333333Y-63432142D01*
X161333333Y-63432142D02*
X161452380Y-63313095D01*
X161452380Y-63313095D02*
X161690475Y-63194047D01*
X161690475Y-63194047D02*
X162285714Y-63194047D01*
X162285714Y-63194047D02*
X162642856Y-63313095D01*
X165142856Y-65694047D02*
X164309523Y-64503571D01*
X163714285Y-65694047D02*
X163714285Y-63194047D01*
X163714285Y-63194047D02*
X164666666Y-63194047D01*
X164666666Y-63194047D02*
X164904761Y-63313095D01*
X164904761Y-63313095D02*
X165023808Y-63432142D01*
X165023808Y-63432142D02*
X165142856Y-63670238D01*
X165142856Y-63670238D02*
X165142856Y-64027380D01*
X165142856Y-64027380D02*
X165023808Y-64265476D01*
X165023808Y-64265476D02*
X164904761Y-64384523D01*
X164904761Y-64384523D02*
X164666666Y-64503571D01*
X164666666Y-64503571D02*
X163714285Y-64503571D01*
X169428570Y-65694047D02*
X167999999Y-65694047D01*
X168714285Y-65694047D02*
X168714285Y-63194047D01*
X168714285Y-63194047D02*
X168476189Y-63551190D01*
X168476189Y-63551190D02*
X168238094Y-63789285D01*
X168238094Y-63789285D02*
X167999999Y-63908333D01*
X170619046Y-65694047D02*
X171095237Y-65694047D01*
X171095237Y-65694047D02*
X171333332Y-65575000D01*
X171333332Y-65575000D02*
X171452380Y-65455952D01*
X171452380Y-65455952D02*
X171690475Y-65098809D01*
X171690475Y-65098809D02*
X171809522Y-64622619D01*
X171809522Y-64622619D02*
X171809522Y-63670238D01*
X171809522Y-63670238D02*
X171690475Y-63432142D01*
X171690475Y-63432142D02*
X171571427Y-63313095D01*
X171571427Y-63313095D02*
X171333332Y-63194047D01*
X171333332Y-63194047D02*
X170857141Y-63194047D01*
X170857141Y-63194047D02*
X170619046Y-63313095D01*
X170619046Y-63313095D02*
X170499999Y-63432142D01*
X170499999Y-63432142D02*
X170380951Y-63670238D01*
X170380951Y-63670238D02*
X170380951Y-64265476D01*
X170380951Y-64265476D02*
X170499999Y-64503571D01*
X170499999Y-64503571D02*
X170619046Y-64622619D01*
X170619046Y-64622619D02*
X170857141Y-64741666D01*
X170857141Y-64741666D02*
X171333332Y-64741666D01*
X171333332Y-64741666D02*
X171571427Y-64622619D01*
X171571427Y-64622619D02*
X171690475Y-64503571D01*
X171690475Y-64503571D02*
X171809522Y-64265476D01*
X173238093Y-64265476D02*
X172999998Y-64146428D01*
X172999998Y-64146428D02*
X172880951Y-64027380D01*
X172880951Y-64027380D02*
X172761903Y-63789285D01*
X172761903Y-63789285D02*
X172761903Y-63670238D01*
X172761903Y-63670238D02*
X172880951Y-63432142D01*
X172880951Y-63432142D02*
X172999998Y-63313095D01*
X172999998Y-63313095D02*
X173238093Y-63194047D01*
X173238093Y-63194047D02*
X173714284Y-63194047D01*
X173714284Y-63194047D02*
X173952379Y-63313095D01*
X173952379Y-63313095D02*
X174071427Y-63432142D01*
X174071427Y-63432142D02*
X174190474Y-63670238D01*
X174190474Y-63670238D02*
X174190474Y-63789285D01*
X174190474Y-63789285D02*
X174071427Y-64027380D01*
X174071427Y-64027380D02*
X173952379Y-64146428D01*
X173952379Y-64146428D02*
X173714284Y-64265476D01*
X173714284Y-64265476D02*
X173238093Y-64265476D01*
X173238093Y-64265476D02*
X172999998Y-64384523D01*
X172999998Y-64384523D02*
X172880951Y-64503571D01*
X172880951Y-64503571D02*
X172761903Y-64741666D01*
X172761903Y-64741666D02*
X172761903Y-65217857D01*
X172761903Y-65217857D02*
X172880951Y-65455952D01*
X172880951Y-65455952D02*
X172999998Y-65575000D01*
X172999998Y-65575000D02*
X173238093Y-65694047D01*
X173238093Y-65694047D02*
X173714284Y-65694047D01*
X173714284Y-65694047D02*
X173952379Y-65575000D01*
X173952379Y-65575000D02*
X174071427Y-65455952D01*
X174071427Y-65455952D02*
X174190474Y-65217857D01*
X174190474Y-65217857D02*
X174190474Y-64741666D01*
X174190474Y-64741666D02*
X174071427Y-64503571D01*
X174071427Y-64503571D02*
X173952379Y-64384523D01*
X173952379Y-64384523D02*
X173714284Y-64265476D01*
X176333331Y-63194047D02*
X175857141Y-63194047D01*
X175857141Y-63194047D02*
X175619045Y-63313095D01*
X175619045Y-63313095D02*
X175499998Y-63432142D01*
X175499998Y-63432142D02*
X175261903Y-63789285D01*
X175261903Y-63789285D02*
X175142855Y-64265476D01*
X175142855Y-64265476D02*
X175142855Y-65217857D01*
X175142855Y-65217857D02*
X175261903Y-65455952D01*
X175261903Y-65455952D02*
X175380950Y-65575000D01*
X175380950Y-65575000D02*
X175619045Y-65694047D01*
X175619045Y-65694047D02*
X176095236Y-65694047D01*
X176095236Y-65694047D02*
X176333331Y-65575000D01*
X176333331Y-65575000D02*
X176452379Y-65455952D01*
X176452379Y-65455952D02*
X176571426Y-65217857D01*
X176571426Y-65217857D02*
X176571426Y-64622619D01*
X176571426Y-64622619D02*
X176452379Y-64384523D01*
X176452379Y-64384523D02*
X176333331Y-64265476D01*
X176333331Y-64265476D02*
X176095236Y-64146428D01*
X176095236Y-64146428D02*
X175619045Y-64146428D01*
X175619045Y-64146428D02*
X175380950Y-64265476D01*
X175380950Y-64265476D02*
X175261903Y-64384523D01*
X175261903Y-64384523D02*
X175142855Y-64622619D01*
X164238095Y-104925238D02*
X164142857Y-104877619D01*
X164142857Y-104877619D02*
X164000000Y-104877619D01*
X164000000Y-104877619D02*
X163857143Y-104925238D01*
X163857143Y-104925238D02*
X163761905Y-105020476D01*
X163761905Y-105020476D02*
X163714286Y-105115714D01*
X163714286Y-105115714D02*
X163666667Y-105306190D01*
X163666667Y-105306190D02*
X163666667Y-105449047D01*
X163666667Y-105449047D02*
X163714286Y-105639523D01*
X163714286Y-105639523D02*
X163761905Y-105734761D01*
X163761905Y-105734761D02*
X163857143Y-105830000D01*
X163857143Y-105830000D02*
X164000000Y-105877619D01*
X164000000Y-105877619D02*
X164095238Y-105877619D01*
X164095238Y-105877619D02*
X164238095Y-105830000D01*
X164238095Y-105830000D02*
X164285714Y-105782380D01*
X164285714Y-105782380D02*
X164285714Y-105449047D01*
X164285714Y-105449047D02*
X164095238Y-105449047D01*
X164714286Y-105877619D02*
X164714286Y-104877619D01*
X164714286Y-104877619D02*
X165285714Y-105877619D01*
X165285714Y-105877619D02*
X165285714Y-104877619D01*
X165761905Y-105877619D02*
X165761905Y-104877619D01*
X165761905Y-104877619D02*
X166000000Y-104877619D01*
X166000000Y-104877619D02*
X166142857Y-104925238D01*
X166142857Y-104925238D02*
X166238095Y-105020476D01*
X166238095Y-105020476D02*
X166285714Y-105115714D01*
X166285714Y-105115714D02*
X166333333Y-105306190D01*
X166333333Y-105306190D02*
X166333333Y-105449047D01*
X166333333Y-105449047D02*
X166285714Y-105639523D01*
X166285714Y-105639523D02*
X166238095Y-105734761D01*
X166238095Y-105734761D02*
X166142857Y-105830000D01*
X166142857Y-105830000D02*
X166000000Y-105877619D01*
X166000000Y-105877619D02*
X165761905Y-105877619D01*
D11*
%TO.C,Q6*%
X144904761Y-92057857D02*
X144809523Y-92010238D01*
X144809523Y-92010238D02*
X144714285Y-91915000D01*
X144714285Y-91915000D02*
X144571428Y-91772142D01*
X144571428Y-91772142D02*
X144476190Y-91724523D01*
X144476190Y-91724523D02*
X144380952Y-91724523D01*
X144428571Y-91962619D02*
X144333333Y-91915000D01*
X144333333Y-91915000D02*
X144238095Y-91819761D01*
X144238095Y-91819761D02*
X144190476Y-91629285D01*
X144190476Y-91629285D02*
X144190476Y-91295952D01*
X144190476Y-91295952D02*
X144238095Y-91105476D01*
X144238095Y-91105476D02*
X144333333Y-91010238D01*
X144333333Y-91010238D02*
X144428571Y-90962619D01*
X144428571Y-90962619D02*
X144619047Y-90962619D01*
X144619047Y-90962619D02*
X144714285Y-91010238D01*
X144714285Y-91010238D02*
X144809523Y-91105476D01*
X144809523Y-91105476D02*
X144857142Y-91295952D01*
X144857142Y-91295952D02*
X144857142Y-91629285D01*
X144857142Y-91629285D02*
X144809523Y-91819761D01*
X144809523Y-91819761D02*
X144714285Y-91915000D01*
X144714285Y-91915000D02*
X144619047Y-91962619D01*
X144619047Y-91962619D02*
X144428571Y-91962619D01*
X145714285Y-90962619D02*
X145523809Y-90962619D01*
X145523809Y-90962619D02*
X145428571Y-91010238D01*
X145428571Y-91010238D02*
X145380952Y-91057857D01*
X145380952Y-91057857D02*
X145285714Y-91200714D01*
X145285714Y-91200714D02*
X145238095Y-91391190D01*
X145238095Y-91391190D02*
X145238095Y-91772142D01*
X145238095Y-91772142D02*
X145285714Y-91867380D01*
X145285714Y-91867380D02*
X145333333Y-91915000D01*
X145333333Y-91915000D02*
X145428571Y-91962619D01*
X145428571Y-91962619D02*
X145619047Y-91962619D01*
X145619047Y-91962619D02*
X145714285Y-91915000D01*
X145714285Y-91915000D02*
X145761904Y-91867380D01*
X145761904Y-91867380D02*
X145809523Y-91772142D01*
X145809523Y-91772142D02*
X145809523Y-91534047D01*
X145809523Y-91534047D02*
X145761904Y-91438809D01*
X145761904Y-91438809D02*
X145714285Y-91391190D01*
X145714285Y-91391190D02*
X145619047Y-91343571D01*
X145619047Y-91343571D02*
X145428571Y-91343571D01*
X145428571Y-91343571D02*
X145333333Y-91391190D01*
X145333333Y-91391190D02*
X145285714Y-91438809D01*
X145285714Y-91438809D02*
X145238095Y-91534047D01*
%TO.C,R3*%
X101832619Y-71666666D02*
X101356428Y-71999999D01*
X101832619Y-72238094D02*
X100832619Y-72238094D01*
X100832619Y-72238094D02*
X100832619Y-71857142D01*
X100832619Y-71857142D02*
X100880238Y-71761904D01*
X100880238Y-71761904D02*
X100927857Y-71714285D01*
X100927857Y-71714285D02*
X101023095Y-71666666D01*
X101023095Y-71666666D02*
X101165952Y-71666666D01*
X101165952Y-71666666D02*
X101261190Y-71714285D01*
X101261190Y-71714285D02*
X101308809Y-71761904D01*
X101308809Y-71761904D02*
X101356428Y-71857142D01*
X101356428Y-71857142D02*
X101356428Y-72238094D01*
X100832619Y-71333332D02*
X100832619Y-70714285D01*
X100832619Y-70714285D02*
X101213571Y-71047618D01*
X101213571Y-71047618D02*
X101213571Y-70904761D01*
X101213571Y-70904761D02*
X101261190Y-70809523D01*
X101261190Y-70809523D02*
X101308809Y-70761904D01*
X101308809Y-70761904D02*
X101404047Y-70714285D01*
X101404047Y-70714285D02*
X101642142Y-70714285D01*
X101642142Y-70714285D02*
X101737380Y-70761904D01*
X101737380Y-70761904D02*
X101785000Y-70809523D01*
X101785000Y-70809523D02*
X101832619Y-70904761D01*
X101832619Y-70904761D02*
X101832619Y-71190475D01*
X101832619Y-71190475D02*
X101785000Y-71285713D01*
X101785000Y-71285713D02*
X101737380Y-71333332D01*
%TO.C,D1*%
X88761905Y-66992619D02*
X88761905Y-65992619D01*
X88761905Y-65992619D02*
X89000000Y-65992619D01*
X89000000Y-65992619D02*
X89142857Y-66040238D01*
X89142857Y-66040238D02*
X89238095Y-66135476D01*
X89238095Y-66135476D02*
X89285714Y-66230714D01*
X89285714Y-66230714D02*
X89333333Y-66421190D01*
X89333333Y-66421190D02*
X89333333Y-66564047D01*
X89333333Y-66564047D02*
X89285714Y-66754523D01*
X89285714Y-66754523D02*
X89238095Y-66849761D01*
X89238095Y-66849761D02*
X89142857Y-66945000D01*
X89142857Y-66945000D02*
X89000000Y-66992619D01*
X89000000Y-66992619D02*
X88761905Y-66992619D01*
X90285714Y-66992619D02*
X89714286Y-66992619D01*
X90000000Y-66992619D02*
X90000000Y-65992619D01*
X90000000Y-65992619D02*
X89904762Y-66135476D01*
X89904762Y-66135476D02*
X89809524Y-66230714D01*
X89809524Y-66230714D02*
X89714286Y-66278333D01*
X84158095Y-67362619D02*
X84158095Y-66362619D01*
X84729523Y-67362619D02*
X84300952Y-66791190D01*
X84729523Y-66362619D02*
X84158095Y-66934047D01*
%TO.C,Q3*%
X110904761Y-93557857D02*
X110809523Y-93510238D01*
X110809523Y-93510238D02*
X110714285Y-93415000D01*
X110714285Y-93415000D02*
X110571428Y-93272142D01*
X110571428Y-93272142D02*
X110476190Y-93224523D01*
X110476190Y-93224523D02*
X110380952Y-93224523D01*
X110428571Y-93462619D02*
X110333333Y-93415000D01*
X110333333Y-93415000D02*
X110238095Y-93319761D01*
X110238095Y-93319761D02*
X110190476Y-93129285D01*
X110190476Y-93129285D02*
X110190476Y-92795952D01*
X110190476Y-92795952D02*
X110238095Y-92605476D01*
X110238095Y-92605476D02*
X110333333Y-92510238D01*
X110333333Y-92510238D02*
X110428571Y-92462619D01*
X110428571Y-92462619D02*
X110619047Y-92462619D01*
X110619047Y-92462619D02*
X110714285Y-92510238D01*
X110714285Y-92510238D02*
X110809523Y-92605476D01*
X110809523Y-92605476D02*
X110857142Y-92795952D01*
X110857142Y-92795952D02*
X110857142Y-93129285D01*
X110857142Y-93129285D02*
X110809523Y-93319761D01*
X110809523Y-93319761D02*
X110714285Y-93415000D01*
X110714285Y-93415000D02*
X110619047Y-93462619D01*
X110619047Y-93462619D02*
X110428571Y-93462619D01*
X111190476Y-92462619D02*
X111809523Y-92462619D01*
X111809523Y-92462619D02*
X111476190Y-92843571D01*
X111476190Y-92843571D02*
X111619047Y-92843571D01*
X111619047Y-92843571D02*
X111714285Y-92891190D01*
X111714285Y-92891190D02*
X111761904Y-92938809D01*
X111761904Y-92938809D02*
X111809523Y-93034047D01*
X111809523Y-93034047D02*
X111809523Y-93272142D01*
X111809523Y-93272142D02*
X111761904Y-93367380D01*
X111761904Y-93367380D02*
X111714285Y-93415000D01*
X111714285Y-93415000D02*
X111619047Y-93462619D01*
X111619047Y-93462619D02*
X111333333Y-93462619D01*
X111333333Y-93462619D02*
X111238095Y-93415000D01*
X111238095Y-93415000D02*
X111190476Y-93367380D01*
%TO.C,C6*%
X132867380Y-79166666D02*
X132915000Y-79214285D01*
X132915000Y-79214285D02*
X132962619Y-79357142D01*
X132962619Y-79357142D02*
X132962619Y-79452380D01*
X132962619Y-79452380D02*
X132915000Y-79595237D01*
X132915000Y-79595237D02*
X132819761Y-79690475D01*
X132819761Y-79690475D02*
X132724523Y-79738094D01*
X132724523Y-79738094D02*
X132534047Y-79785713D01*
X132534047Y-79785713D02*
X132391190Y-79785713D01*
X132391190Y-79785713D02*
X132200714Y-79738094D01*
X132200714Y-79738094D02*
X132105476Y-79690475D01*
X132105476Y-79690475D02*
X132010238Y-79595237D01*
X132010238Y-79595237D02*
X131962619Y-79452380D01*
X131962619Y-79452380D02*
X131962619Y-79357142D01*
X131962619Y-79357142D02*
X132010238Y-79214285D01*
X132010238Y-79214285D02*
X132057857Y-79166666D01*
X131962619Y-78309523D02*
X131962619Y-78499999D01*
X131962619Y-78499999D02*
X132010238Y-78595237D01*
X132010238Y-78595237D02*
X132057857Y-78642856D01*
X132057857Y-78642856D02*
X132200714Y-78738094D01*
X132200714Y-78738094D02*
X132391190Y-78785713D01*
X132391190Y-78785713D02*
X132772142Y-78785713D01*
X132772142Y-78785713D02*
X132867380Y-78738094D01*
X132867380Y-78738094D02*
X132915000Y-78690475D01*
X132915000Y-78690475D02*
X132962619Y-78595237D01*
X132962619Y-78595237D02*
X132962619Y-78404761D01*
X132962619Y-78404761D02*
X132915000Y-78309523D01*
X132915000Y-78309523D02*
X132867380Y-78261904D01*
X132867380Y-78261904D02*
X132772142Y-78214285D01*
X132772142Y-78214285D02*
X132534047Y-78214285D01*
X132534047Y-78214285D02*
X132438809Y-78261904D01*
X132438809Y-78261904D02*
X132391190Y-78309523D01*
X132391190Y-78309523D02*
X132343571Y-78404761D01*
X132343571Y-78404761D02*
X132343571Y-78595237D01*
X132343571Y-78595237D02*
X132391190Y-78690475D01*
X132391190Y-78690475D02*
X132438809Y-78738094D01*
X132438809Y-78738094D02*
X132534047Y-78785713D01*
%TO.C,R13*%
X143357142Y-86092619D02*
X143023809Y-85616428D01*
X142785714Y-86092619D02*
X142785714Y-85092619D01*
X142785714Y-85092619D02*
X143166666Y-85092619D01*
X143166666Y-85092619D02*
X143261904Y-85140238D01*
X143261904Y-85140238D02*
X143309523Y-85187857D01*
X143309523Y-85187857D02*
X143357142Y-85283095D01*
X143357142Y-85283095D02*
X143357142Y-85425952D01*
X143357142Y-85425952D02*
X143309523Y-85521190D01*
X143309523Y-85521190D02*
X143261904Y-85568809D01*
X143261904Y-85568809D02*
X143166666Y-85616428D01*
X143166666Y-85616428D02*
X142785714Y-85616428D01*
X144309523Y-86092619D02*
X143738095Y-86092619D01*
X144023809Y-86092619D02*
X144023809Y-85092619D01*
X144023809Y-85092619D02*
X143928571Y-85235476D01*
X143928571Y-85235476D02*
X143833333Y-85330714D01*
X143833333Y-85330714D02*
X143738095Y-85378333D01*
X144642857Y-85092619D02*
X145261904Y-85092619D01*
X145261904Y-85092619D02*
X144928571Y-85473571D01*
X144928571Y-85473571D02*
X145071428Y-85473571D01*
X145071428Y-85473571D02*
X145166666Y-85521190D01*
X145166666Y-85521190D02*
X145214285Y-85568809D01*
X145214285Y-85568809D02*
X145261904Y-85664047D01*
X145261904Y-85664047D02*
X145261904Y-85902142D01*
X145261904Y-85902142D02*
X145214285Y-85997380D01*
X145214285Y-85997380D02*
X145166666Y-86045000D01*
X145166666Y-86045000D02*
X145071428Y-86092619D01*
X145071428Y-86092619D02*
X144785714Y-86092619D01*
X144785714Y-86092619D02*
X144690476Y-86045000D01*
X144690476Y-86045000D02*
X144642857Y-85997380D01*
%TO.C,J1*%
X76666666Y-93462619D02*
X76666666Y-94176904D01*
X76666666Y-94176904D02*
X76619047Y-94319761D01*
X76619047Y-94319761D02*
X76523809Y-94415000D01*
X76523809Y-94415000D02*
X76380952Y-94462619D01*
X76380952Y-94462619D02*
X76285714Y-94462619D01*
X77666666Y-94462619D02*
X77095238Y-94462619D01*
X77380952Y-94462619D02*
X77380952Y-93462619D01*
X77380952Y-93462619D02*
X77285714Y-93605476D01*
X77285714Y-93605476D02*
X77190476Y-93700714D01*
X77190476Y-93700714D02*
X77095238Y-93748333D01*
%TO.C,C5*%
X142867380Y-82416666D02*
X142915000Y-82464285D01*
X142915000Y-82464285D02*
X142962619Y-82607142D01*
X142962619Y-82607142D02*
X142962619Y-82702380D01*
X142962619Y-82702380D02*
X142915000Y-82845237D01*
X142915000Y-82845237D02*
X142819761Y-82940475D01*
X142819761Y-82940475D02*
X142724523Y-82988094D01*
X142724523Y-82988094D02*
X142534047Y-83035713D01*
X142534047Y-83035713D02*
X142391190Y-83035713D01*
X142391190Y-83035713D02*
X142200714Y-82988094D01*
X142200714Y-82988094D02*
X142105476Y-82940475D01*
X142105476Y-82940475D02*
X142010238Y-82845237D01*
X142010238Y-82845237D02*
X141962619Y-82702380D01*
X141962619Y-82702380D02*
X141962619Y-82607142D01*
X141962619Y-82607142D02*
X142010238Y-82464285D01*
X142010238Y-82464285D02*
X142057857Y-82416666D01*
X141962619Y-81511904D02*
X141962619Y-81988094D01*
X141962619Y-81988094D02*
X142438809Y-82035713D01*
X142438809Y-82035713D02*
X142391190Y-81988094D01*
X142391190Y-81988094D02*
X142343571Y-81892856D01*
X142343571Y-81892856D02*
X142343571Y-81654761D01*
X142343571Y-81654761D02*
X142391190Y-81559523D01*
X142391190Y-81559523D02*
X142438809Y-81511904D01*
X142438809Y-81511904D02*
X142534047Y-81464285D01*
X142534047Y-81464285D02*
X142772142Y-81464285D01*
X142772142Y-81464285D02*
X142867380Y-81511904D01*
X142867380Y-81511904D02*
X142915000Y-81559523D01*
X142915000Y-81559523D02*
X142962619Y-81654761D01*
X142962619Y-81654761D02*
X142962619Y-81892856D01*
X142962619Y-81892856D02*
X142915000Y-81988094D01*
X142915000Y-81988094D02*
X142867380Y-82035713D01*
%TO.C,RV1*%
X106404761Y-102962619D02*
X106071428Y-102486428D01*
X105833333Y-102962619D02*
X105833333Y-101962619D01*
X105833333Y-101962619D02*
X106214285Y-101962619D01*
X106214285Y-101962619D02*
X106309523Y-102010238D01*
X106309523Y-102010238D02*
X106357142Y-102057857D01*
X106357142Y-102057857D02*
X106404761Y-102153095D01*
X106404761Y-102153095D02*
X106404761Y-102295952D01*
X106404761Y-102295952D02*
X106357142Y-102391190D01*
X106357142Y-102391190D02*
X106309523Y-102438809D01*
X106309523Y-102438809D02*
X106214285Y-102486428D01*
X106214285Y-102486428D02*
X105833333Y-102486428D01*
X106690476Y-101962619D02*
X107023809Y-102962619D01*
X107023809Y-102962619D02*
X107357142Y-101962619D01*
X108214285Y-102962619D02*
X107642857Y-102962619D01*
X107928571Y-102962619D02*
X107928571Y-101962619D01*
X107928571Y-101962619D02*
X107833333Y-102105476D01*
X107833333Y-102105476D02*
X107738095Y-102200714D01*
X107738095Y-102200714D02*
X107642857Y-102248333D01*
%TO.C,R12*%
X143937142Y-79962619D02*
X143603809Y-79486428D01*
X143365714Y-79962619D02*
X143365714Y-78962619D01*
X143365714Y-78962619D02*
X143746666Y-78962619D01*
X143746666Y-78962619D02*
X143841904Y-79010238D01*
X143841904Y-79010238D02*
X143889523Y-79057857D01*
X143889523Y-79057857D02*
X143937142Y-79153095D01*
X143937142Y-79153095D02*
X143937142Y-79295952D01*
X143937142Y-79295952D02*
X143889523Y-79391190D01*
X143889523Y-79391190D02*
X143841904Y-79438809D01*
X143841904Y-79438809D02*
X143746666Y-79486428D01*
X143746666Y-79486428D02*
X143365714Y-79486428D01*
X144889523Y-79962619D02*
X144318095Y-79962619D01*
X144603809Y-79962619D02*
X144603809Y-78962619D01*
X144603809Y-78962619D02*
X144508571Y-79105476D01*
X144508571Y-79105476D02*
X144413333Y-79200714D01*
X144413333Y-79200714D02*
X144318095Y-79248333D01*
X145270476Y-79057857D02*
X145318095Y-79010238D01*
X145318095Y-79010238D02*
X145413333Y-78962619D01*
X145413333Y-78962619D02*
X145651428Y-78962619D01*
X145651428Y-78962619D02*
X145746666Y-79010238D01*
X145746666Y-79010238D02*
X145794285Y-79057857D01*
X145794285Y-79057857D02*
X145841904Y-79153095D01*
X145841904Y-79153095D02*
X145841904Y-79248333D01*
X145841904Y-79248333D02*
X145794285Y-79391190D01*
X145794285Y-79391190D02*
X145222857Y-79962619D01*
X145222857Y-79962619D02*
X145841904Y-79962619D01*
%TO.C,C1*%
X89833333Y-73367380D02*
X89785714Y-73415000D01*
X89785714Y-73415000D02*
X89642857Y-73462619D01*
X89642857Y-73462619D02*
X89547619Y-73462619D01*
X89547619Y-73462619D02*
X89404762Y-73415000D01*
X89404762Y-73415000D02*
X89309524Y-73319761D01*
X89309524Y-73319761D02*
X89261905Y-73224523D01*
X89261905Y-73224523D02*
X89214286Y-73034047D01*
X89214286Y-73034047D02*
X89214286Y-72891190D01*
X89214286Y-72891190D02*
X89261905Y-72700714D01*
X89261905Y-72700714D02*
X89309524Y-72605476D01*
X89309524Y-72605476D02*
X89404762Y-72510238D01*
X89404762Y-72510238D02*
X89547619Y-72462619D01*
X89547619Y-72462619D02*
X89642857Y-72462619D01*
X89642857Y-72462619D02*
X89785714Y-72510238D01*
X89785714Y-72510238D02*
X89833333Y-72557857D01*
X90785714Y-73462619D02*
X90214286Y-73462619D01*
X90500000Y-73462619D02*
X90500000Y-72462619D01*
X90500000Y-72462619D02*
X90404762Y-72605476D01*
X90404762Y-72605476D02*
X90309524Y-72700714D01*
X90309524Y-72700714D02*
X90214286Y-72748333D01*
%TO.C,J4*%
X156666666Y-101962619D02*
X156666666Y-102676904D01*
X156666666Y-102676904D02*
X156619047Y-102819761D01*
X156619047Y-102819761D02*
X156523809Y-102915000D01*
X156523809Y-102915000D02*
X156380952Y-102962619D01*
X156380952Y-102962619D02*
X156285714Y-102962619D01*
X157571428Y-102295952D02*
X157571428Y-102962619D01*
X157333333Y-101915000D02*
X157095238Y-102629285D01*
X157095238Y-102629285D02*
X157714285Y-102629285D01*
%TO.C,C3*%
X100833333Y-81867380D02*
X100785714Y-81915000D01*
X100785714Y-81915000D02*
X100642857Y-81962619D01*
X100642857Y-81962619D02*
X100547619Y-81962619D01*
X100547619Y-81962619D02*
X100404762Y-81915000D01*
X100404762Y-81915000D02*
X100309524Y-81819761D01*
X100309524Y-81819761D02*
X100261905Y-81724523D01*
X100261905Y-81724523D02*
X100214286Y-81534047D01*
X100214286Y-81534047D02*
X100214286Y-81391190D01*
X100214286Y-81391190D02*
X100261905Y-81200714D01*
X100261905Y-81200714D02*
X100309524Y-81105476D01*
X100309524Y-81105476D02*
X100404762Y-81010238D01*
X100404762Y-81010238D02*
X100547619Y-80962619D01*
X100547619Y-80962619D02*
X100642857Y-80962619D01*
X100642857Y-80962619D02*
X100785714Y-81010238D01*
X100785714Y-81010238D02*
X100833333Y-81057857D01*
X101166667Y-80962619D02*
X101785714Y-80962619D01*
X101785714Y-80962619D02*
X101452381Y-81343571D01*
X101452381Y-81343571D02*
X101595238Y-81343571D01*
X101595238Y-81343571D02*
X101690476Y-81391190D01*
X101690476Y-81391190D02*
X101738095Y-81438809D01*
X101738095Y-81438809D02*
X101785714Y-81534047D01*
X101785714Y-81534047D02*
X101785714Y-81772142D01*
X101785714Y-81772142D02*
X101738095Y-81867380D01*
X101738095Y-81867380D02*
X101690476Y-81915000D01*
X101690476Y-81915000D02*
X101595238Y-81962619D01*
X101595238Y-81962619D02*
X101309524Y-81962619D01*
X101309524Y-81962619D02*
X101214286Y-81915000D01*
X101214286Y-81915000D02*
X101166667Y-81867380D01*
%TO.C,Q2*%
X137904761Y-92057857D02*
X137809523Y-92010238D01*
X137809523Y-92010238D02*
X137714285Y-91915000D01*
X137714285Y-91915000D02*
X137571428Y-91772142D01*
X137571428Y-91772142D02*
X137476190Y-91724523D01*
X137476190Y-91724523D02*
X137380952Y-91724523D01*
X137428571Y-91962619D02*
X137333333Y-91915000D01*
X137333333Y-91915000D02*
X137238095Y-91819761D01*
X137238095Y-91819761D02*
X137190476Y-91629285D01*
X137190476Y-91629285D02*
X137190476Y-91295952D01*
X137190476Y-91295952D02*
X137238095Y-91105476D01*
X137238095Y-91105476D02*
X137333333Y-91010238D01*
X137333333Y-91010238D02*
X137428571Y-90962619D01*
X137428571Y-90962619D02*
X137619047Y-90962619D01*
X137619047Y-90962619D02*
X137714285Y-91010238D01*
X137714285Y-91010238D02*
X137809523Y-91105476D01*
X137809523Y-91105476D02*
X137857142Y-91295952D01*
X137857142Y-91295952D02*
X137857142Y-91629285D01*
X137857142Y-91629285D02*
X137809523Y-91819761D01*
X137809523Y-91819761D02*
X137714285Y-91915000D01*
X137714285Y-91915000D02*
X137619047Y-91962619D01*
X137619047Y-91962619D02*
X137428571Y-91962619D01*
X138238095Y-91057857D02*
X138285714Y-91010238D01*
X138285714Y-91010238D02*
X138380952Y-90962619D01*
X138380952Y-90962619D02*
X138619047Y-90962619D01*
X138619047Y-90962619D02*
X138714285Y-91010238D01*
X138714285Y-91010238D02*
X138761904Y-91057857D01*
X138761904Y-91057857D02*
X138809523Y-91153095D01*
X138809523Y-91153095D02*
X138809523Y-91248333D01*
X138809523Y-91248333D02*
X138761904Y-91391190D01*
X138761904Y-91391190D02*
X138190476Y-91962619D01*
X138190476Y-91962619D02*
X138809523Y-91962619D01*
%TO.C,R8*%
X125253333Y-93332619D02*
X124920000Y-92856428D01*
X124681905Y-93332619D02*
X124681905Y-92332619D01*
X124681905Y-92332619D02*
X125062857Y-92332619D01*
X125062857Y-92332619D02*
X125158095Y-92380238D01*
X125158095Y-92380238D02*
X125205714Y-92427857D01*
X125205714Y-92427857D02*
X125253333Y-92523095D01*
X125253333Y-92523095D02*
X125253333Y-92665952D01*
X125253333Y-92665952D02*
X125205714Y-92761190D01*
X125205714Y-92761190D02*
X125158095Y-92808809D01*
X125158095Y-92808809D02*
X125062857Y-92856428D01*
X125062857Y-92856428D02*
X124681905Y-92856428D01*
X125824762Y-92761190D02*
X125729524Y-92713571D01*
X125729524Y-92713571D02*
X125681905Y-92665952D01*
X125681905Y-92665952D02*
X125634286Y-92570714D01*
X125634286Y-92570714D02*
X125634286Y-92523095D01*
X125634286Y-92523095D02*
X125681905Y-92427857D01*
X125681905Y-92427857D02*
X125729524Y-92380238D01*
X125729524Y-92380238D02*
X125824762Y-92332619D01*
X125824762Y-92332619D02*
X126015238Y-92332619D01*
X126015238Y-92332619D02*
X126110476Y-92380238D01*
X126110476Y-92380238D02*
X126158095Y-92427857D01*
X126158095Y-92427857D02*
X126205714Y-92523095D01*
X126205714Y-92523095D02*
X126205714Y-92570714D01*
X126205714Y-92570714D02*
X126158095Y-92665952D01*
X126158095Y-92665952D02*
X126110476Y-92713571D01*
X126110476Y-92713571D02*
X126015238Y-92761190D01*
X126015238Y-92761190D02*
X125824762Y-92761190D01*
X125824762Y-92761190D02*
X125729524Y-92808809D01*
X125729524Y-92808809D02*
X125681905Y-92856428D01*
X125681905Y-92856428D02*
X125634286Y-92951666D01*
X125634286Y-92951666D02*
X125634286Y-93142142D01*
X125634286Y-93142142D02*
X125681905Y-93237380D01*
X125681905Y-93237380D02*
X125729524Y-93285000D01*
X125729524Y-93285000D02*
X125824762Y-93332619D01*
X125824762Y-93332619D02*
X126015238Y-93332619D01*
X126015238Y-93332619D02*
X126110476Y-93285000D01*
X126110476Y-93285000D02*
X126158095Y-93237380D01*
X126158095Y-93237380D02*
X126205714Y-93142142D01*
X126205714Y-93142142D02*
X126205714Y-92951666D01*
X126205714Y-92951666D02*
X126158095Y-92856428D01*
X126158095Y-92856428D02*
X126110476Y-92808809D01*
X126110476Y-92808809D02*
X126015238Y-92761190D01*
%TO.C,R7*%
X133092619Y-90666666D02*
X132616428Y-90999999D01*
X133092619Y-91238094D02*
X132092619Y-91238094D01*
X132092619Y-91238094D02*
X132092619Y-90857142D01*
X132092619Y-90857142D02*
X132140238Y-90761904D01*
X132140238Y-90761904D02*
X132187857Y-90714285D01*
X132187857Y-90714285D02*
X132283095Y-90666666D01*
X132283095Y-90666666D02*
X132425952Y-90666666D01*
X132425952Y-90666666D02*
X132521190Y-90714285D01*
X132521190Y-90714285D02*
X132568809Y-90761904D01*
X132568809Y-90761904D02*
X132616428Y-90857142D01*
X132616428Y-90857142D02*
X132616428Y-91238094D01*
X132092619Y-90333332D02*
X132092619Y-89666666D01*
X132092619Y-89666666D02*
X133092619Y-90095237D01*
%TO.C,Q1*%
X126404761Y-81557857D02*
X126309523Y-81510238D01*
X126309523Y-81510238D02*
X126214285Y-81415000D01*
X126214285Y-81415000D02*
X126071428Y-81272142D01*
X126071428Y-81272142D02*
X125976190Y-81224523D01*
X125976190Y-81224523D02*
X125880952Y-81224523D01*
X125928571Y-81462619D02*
X125833333Y-81415000D01*
X125833333Y-81415000D02*
X125738095Y-81319761D01*
X125738095Y-81319761D02*
X125690476Y-81129285D01*
X125690476Y-81129285D02*
X125690476Y-80795952D01*
X125690476Y-80795952D02*
X125738095Y-80605476D01*
X125738095Y-80605476D02*
X125833333Y-80510238D01*
X125833333Y-80510238D02*
X125928571Y-80462619D01*
X125928571Y-80462619D02*
X126119047Y-80462619D01*
X126119047Y-80462619D02*
X126214285Y-80510238D01*
X126214285Y-80510238D02*
X126309523Y-80605476D01*
X126309523Y-80605476D02*
X126357142Y-80795952D01*
X126357142Y-80795952D02*
X126357142Y-81129285D01*
X126357142Y-81129285D02*
X126309523Y-81319761D01*
X126309523Y-81319761D02*
X126214285Y-81415000D01*
X126214285Y-81415000D02*
X126119047Y-81462619D01*
X126119047Y-81462619D02*
X125928571Y-81462619D01*
X127309523Y-81462619D02*
X126738095Y-81462619D01*
X127023809Y-81462619D02*
X127023809Y-80462619D01*
X127023809Y-80462619D02*
X126928571Y-80605476D01*
X126928571Y-80605476D02*
X126833333Y-80700714D01*
X126833333Y-80700714D02*
X126738095Y-80748333D01*
%TO.C,R17*%
X179592619Y-91642857D02*
X179116428Y-91976190D01*
X179592619Y-92214285D02*
X178592619Y-92214285D01*
X178592619Y-92214285D02*
X178592619Y-91833333D01*
X178592619Y-91833333D02*
X178640238Y-91738095D01*
X178640238Y-91738095D02*
X178687857Y-91690476D01*
X178687857Y-91690476D02*
X178783095Y-91642857D01*
X178783095Y-91642857D02*
X178925952Y-91642857D01*
X178925952Y-91642857D02*
X179021190Y-91690476D01*
X179021190Y-91690476D02*
X179068809Y-91738095D01*
X179068809Y-91738095D02*
X179116428Y-91833333D01*
X179116428Y-91833333D02*
X179116428Y-92214285D01*
X179592619Y-90690476D02*
X179592619Y-91261904D01*
X179592619Y-90976190D02*
X178592619Y-90976190D01*
X178592619Y-90976190D02*
X178735476Y-91071428D01*
X178735476Y-91071428D02*
X178830714Y-91166666D01*
X178830714Y-91166666D02*
X178878333Y-91261904D01*
X178592619Y-90357142D02*
X178592619Y-89690476D01*
X178592619Y-89690476D02*
X179592619Y-90119047D01*
%TO.C,J2*%
X93666666Y-101462619D02*
X93666666Y-102176904D01*
X93666666Y-102176904D02*
X93619047Y-102319761D01*
X93619047Y-102319761D02*
X93523809Y-102415000D01*
X93523809Y-102415000D02*
X93380952Y-102462619D01*
X93380952Y-102462619D02*
X93285714Y-102462619D01*
X94095238Y-101557857D02*
X94142857Y-101510238D01*
X94142857Y-101510238D02*
X94238095Y-101462619D01*
X94238095Y-101462619D02*
X94476190Y-101462619D01*
X94476190Y-101462619D02*
X94571428Y-101510238D01*
X94571428Y-101510238D02*
X94619047Y-101557857D01*
X94619047Y-101557857D02*
X94666666Y-101653095D01*
X94666666Y-101653095D02*
X94666666Y-101748333D01*
X94666666Y-101748333D02*
X94619047Y-101891190D01*
X94619047Y-101891190D02*
X94047619Y-102462619D01*
X94047619Y-102462619D02*
X94666666Y-102462619D01*
%TO.C,Q5*%
X119404761Y-81557857D02*
X119309523Y-81510238D01*
X119309523Y-81510238D02*
X119214285Y-81415000D01*
X119214285Y-81415000D02*
X119071428Y-81272142D01*
X119071428Y-81272142D02*
X118976190Y-81224523D01*
X118976190Y-81224523D02*
X118880952Y-81224523D01*
X118928571Y-81462619D02*
X118833333Y-81415000D01*
X118833333Y-81415000D02*
X118738095Y-81319761D01*
X118738095Y-81319761D02*
X118690476Y-81129285D01*
X118690476Y-81129285D02*
X118690476Y-80795952D01*
X118690476Y-80795952D02*
X118738095Y-80605476D01*
X118738095Y-80605476D02*
X118833333Y-80510238D01*
X118833333Y-80510238D02*
X118928571Y-80462619D01*
X118928571Y-80462619D02*
X119119047Y-80462619D01*
X119119047Y-80462619D02*
X119214285Y-80510238D01*
X119214285Y-80510238D02*
X119309523Y-80605476D01*
X119309523Y-80605476D02*
X119357142Y-80795952D01*
X119357142Y-80795952D02*
X119357142Y-81129285D01*
X119357142Y-81129285D02*
X119309523Y-81319761D01*
X119309523Y-81319761D02*
X119214285Y-81415000D01*
X119214285Y-81415000D02*
X119119047Y-81462619D01*
X119119047Y-81462619D02*
X118928571Y-81462619D01*
X120261904Y-80462619D02*
X119785714Y-80462619D01*
X119785714Y-80462619D02*
X119738095Y-80938809D01*
X119738095Y-80938809D02*
X119785714Y-80891190D01*
X119785714Y-80891190D02*
X119880952Y-80843571D01*
X119880952Y-80843571D02*
X120119047Y-80843571D01*
X120119047Y-80843571D02*
X120214285Y-80891190D01*
X120214285Y-80891190D02*
X120261904Y-80938809D01*
X120261904Y-80938809D02*
X120309523Y-81034047D01*
X120309523Y-81034047D02*
X120309523Y-81272142D01*
X120309523Y-81272142D02*
X120261904Y-81367380D01*
X120261904Y-81367380D02*
X120214285Y-81415000D01*
X120214285Y-81415000D02*
X120119047Y-81462619D01*
X120119047Y-81462619D02*
X119880952Y-81462619D01*
X119880952Y-81462619D02*
X119785714Y-81415000D01*
X119785714Y-81415000D02*
X119738095Y-81367380D01*
%TO.C,RV4*%
X137904761Y-102962619D02*
X137571428Y-102486428D01*
X137333333Y-102962619D02*
X137333333Y-101962619D01*
X137333333Y-101962619D02*
X137714285Y-101962619D01*
X137714285Y-101962619D02*
X137809523Y-102010238D01*
X137809523Y-102010238D02*
X137857142Y-102057857D01*
X137857142Y-102057857D02*
X137904761Y-102153095D01*
X137904761Y-102153095D02*
X137904761Y-102295952D01*
X137904761Y-102295952D02*
X137857142Y-102391190D01*
X137857142Y-102391190D02*
X137809523Y-102438809D01*
X137809523Y-102438809D02*
X137714285Y-102486428D01*
X137714285Y-102486428D02*
X137333333Y-102486428D01*
X138190476Y-101962619D02*
X138523809Y-102962619D01*
X138523809Y-102962619D02*
X138857142Y-101962619D01*
X139619047Y-102295952D02*
X139619047Y-102962619D01*
X139380952Y-101915000D02*
X139142857Y-102629285D01*
X139142857Y-102629285D02*
X139761904Y-102629285D01*
%TO.C,RV2*%
X120904761Y-102962619D02*
X120571428Y-102486428D01*
X120333333Y-102962619D02*
X120333333Y-101962619D01*
X120333333Y-101962619D02*
X120714285Y-101962619D01*
X120714285Y-101962619D02*
X120809523Y-102010238D01*
X120809523Y-102010238D02*
X120857142Y-102057857D01*
X120857142Y-102057857D02*
X120904761Y-102153095D01*
X120904761Y-102153095D02*
X120904761Y-102295952D01*
X120904761Y-102295952D02*
X120857142Y-102391190D01*
X120857142Y-102391190D02*
X120809523Y-102438809D01*
X120809523Y-102438809D02*
X120714285Y-102486428D01*
X120714285Y-102486428D02*
X120333333Y-102486428D01*
X121190476Y-101962619D02*
X121523809Y-102962619D01*
X121523809Y-102962619D02*
X121857142Y-101962619D01*
X122142857Y-102057857D02*
X122190476Y-102010238D01*
X122190476Y-102010238D02*
X122285714Y-101962619D01*
X122285714Y-101962619D02*
X122523809Y-101962619D01*
X122523809Y-101962619D02*
X122619047Y-102010238D01*
X122619047Y-102010238D02*
X122666666Y-102057857D01*
X122666666Y-102057857D02*
X122714285Y-102153095D01*
X122714285Y-102153095D02*
X122714285Y-102248333D01*
X122714285Y-102248333D02*
X122666666Y-102391190D01*
X122666666Y-102391190D02*
X122095238Y-102962619D01*
X122095238Y-102962619D02*
X122714285Y-102962619D01*
%TO.C,U1*%
X111723095Y-65932619D02*
X111723095Y-66742142D01*
X111723095Y-66742142D02*
X111770714Y-66837380D01*
X111770714Y-66837380D02*
X111818333Y-66885000D01*
X111818333Y-66885000D02*
X111913571Y-66932619D01*
X111913571Y-66932619D02*
X112104047Y-66932619D01*
X112104047Y-66932619D02*
X112199285Y-66885000D01*
X112199285Y-66885000D02*
X112246904Y-66837380D01*
X112246904Y-66837380D02*
X112294523Y-66742142D01*
X112294523Y-66742142D02*
X112294523Y-65932619D01*
X113294523Y-66932619D02*
X112723095Y-66932619D01*
X113008809Y-66932619D02*
X113008809Y-65932619D01*
X113008809Y-65932619D02*
X112913571Y-66075476D01*
X112913571Y-66075476D02*
X112818333Y-66170714D01*
X112818333Y-66170714D02*
X112723095Y-66218333D01*
%TO.C,R2*%
X103333333Y-91462619D02*
X103000000Y-90986428D01*
X102761905Y-91462619D02*
X102761905Y-90462619D01*
X102761905Y-90462619D02*
X103142857Y-90462619D01*
X103142857Y-90462619D02*
X103238095Y-90510238D01*
X103238095Y-90510238D02*
X103285714Y-90557857D01*
X103285714Y-90557857D02*
X103333333Y-90653095D01*
X103333333Y-90653095D02*
X103333333Y-90795952D01*
X103333333Y-90795952D02*
X103285714Y-90891190D01*
X103285714Y-90891190D02*
X103238095Y-90938809D01*
X103238095Y-90938809D02*
X103142857Y-90986428D01*
X103142857Y-90986428D02*
X102761905Y-90986428D01*
X103714286Y-90557857D02*
X103761905Y-90510238D01*
X103761905Y-90510238D02*
X103857143Y-90462619D01*
X103857143Y-90462619D02*
X104095238Y-90462619D01*
X104095238Y-90462619D02*
X104190476Y-90510238D01*
X104190476Y-90510238D02*
X104238095Y-90557857D01*
X104238095Y-90557857D02*
X104285714Y-90653095D01*
X104285714Y-90653095D02*
X104285714Y-90748333D01*
X104285714Y-90748333D02*
X104238095Y-90891190D01*
X104238095Y-90891190D02*
X103666667Y-91462619D01*
X103666667Y-91462619D02*
X104285714Y-91462619D01*
%TO.C,R11*%
X152857142Y-71092619D02*
X152523809Y-70616428D01*
X152285714Y-71092619D02*
X152285714Y-70092619D01*
X152285714Y-70092619D02*
X152666666Y-70092619D01*
X152666666Y-70092619D02*
X152761904Y-70140238D01*
X152761904Y-70140238D02*
X152809523Y-70187857D01*
X152809523Y-70187857D02*
X152857142Y-70283095D01*
X152857142Y-70283095D02*
X152857142Y-70425952D01*
X152857142Y-70425952D02*
X152809523Y-70521190D01*
X152809523Y-70521190D02*
X152761904Y-70568809D01*
X152761904Y-70568809D02*
X152666666Y-70616428D01*
X152666666Y-70616428D02*
X152285714Y-70616428D01*
X153809523Y-71092619D02*
X153238095Y-71092619D01*
X153523809Y-71092619D02*
X153523809Y-70092619D01*
X153523809Y-70092619D02*
X153428571Y-70235476D01*
X153428571Y-70235476D02*
X153333333Y-70330714D01*
X153333333Y-70330714D02*
X153238095Y-70378333D01*
X154761904Y-71092619D02*
X154190476Y-71092619D01*
X154476190Y-71092619D02*
X154476190Y-70092619D01*
X154476190Y-70092619D02*
X154380952Y-70235476D01*
X154380952Y-70235476D02*
X154285714Y-70330714D01*
X154285714Y-70330714D02*
X154190476Y-70378333D01*
%TO.C,R4*%
X125333333Y-98332619D02*
X125000000Y-97856428D01*
X124761905Y-98332619D02*
X124761905Y-97332619D01*
X124761905Y-97332619D02*
X125142857Y-97332619D01*
X125142857Y-97332619D02*
X125238095Y-97380238D01*
X125238095Y-97380238D02*
X125285714Y-97427857D01*
X125285714Y-97427857D02*
X125333333Y-97523095D01*
X125333333Y-97523095D02*
X125333333Y-97665952D01*
X125333333Y-97665952D02*
X125285714Y-97761190D01*
X125285714Y-97761190D02*
X125238095Y-97808809D01*
X125238095Y-97808809D02*
X125142857Y-97856428D01*
X125142857Y-97856428D02*
X124761905Y-97856428D01*
X126190476Y-97665952D02*
X126190476Y-98332619D01*
X125952381Y-97285000D02*
X125714286Y-97999285D01*
X125714286Y-97999285D02*
X126333333Y-97999285D01*
%TO.C,R10*%
X138857142Y-71092619D02*
X138523809Y-70616428D01*
X138285714Y-71092619D02*
X138285714Y-70092619D01*
X138285714Y-70092619D02*
X138666666Y-70092619D01*
X138666666Y-70092619D02*
X138761904Y-70140238D01*
X138761904Y-70140238D02*
X138809523Y-70187857D01*
X138809523Y-70187857D02*
X138857142Y-70283095D01*
X138857142Y-70283095D02*
X138857142Y-70425952D01*
X138857142Y-70425952D02*
X138809523Y-70521190D01*
X138809523Y-70521190D02*
X138761904Y-70568809D01*
X138761904Y-70568809D02*
X138666666Y-70616428D01*
X138666666Y-70616428D02*
X138285714Y-70616428D01*
X139809523Y-71092619D02*
X139238095Y-71092619D01*
X139523809Y-71092619D02*
X139523809Y-70092619D01*
X139523809Y-70092619D02*
X139428571Y-70235476D01*
X139428571Y-70235476D02*
X139333333Y-70330714D01*
X139333333Y-70330714D02*
X139238095Y-70378333D01*
X140428571Y-70092619D02*
X140523809Y-70092619D01*
X140523809Y-70092619D02*
X140619047Y-70140238D01*
X140619047Y-70140238D02*
X140666666Y-70187857D01*
X140666666Y-70187857D02*
X140714285Y-70283095D01*
X140714285Y-70283095D02*
X140761904Y-70473571D01*
X140761904Y-70473571D02*
X140761904Y-70711666D01*
X140761904Y-70711666D02*
X140714285Y-70902142D01*
X140714285Y-70902142D02*
X140666666Y-70997380D01*
X140666666Y-70997380D02*
X140619047Y-71045000D01*
X140619047Y-71045000D02*
X140523809Y-71092619D01*
X140523809Y-71092619D02*
X140428571Y-71092619D01*
X140428571Y-71092619D02*
X140333333Y-71045000D01*
X140333333Y-71045000D02*
X140285714Y-70997380D01*
X140285714Y-70997380D02*
X140238095Y-70902142D01*
X140238095Y-70902142D02*
X140190476Y-70711666D01*
X140190476Y-70711666D02*
X140190476Y-70473571D01*
X140190476Y-70473571D02*
X140238095Y-70283095D01*
X140238095Y-70283095D02*
X140285714Y-70187857D01*
X140285714Y-70187857D02*
X140333333Y-70140238D01*
X140333333Y-70140238D02*
X140428571Y-70092619D01*
%TO.C,RV3*%
X158404761Y-77962619D02*
X158071428Y-77486428D01*
X157833333Y-77962619D02*
X157833333Y-76962619D01*
X157833333Y-76962619D02*
X158214285Y-76962619D01*
X158214285Y-76962619D02*
X158309523Y-77010238D01*
X158309523Y-77010238D02*
X158357142Y-77057857D01*
X158357142Y-77057857D02*
X158404761Y-77153095D01*
X158404761Y-77153095D02*
X158404761Y-77295952D01*
X158404761Y-77295952D02*
X158357142Y-77391190D01*
X158357142Y-77391190D02*
X158309523Y-77438809D01*
X158309523Y-77438809D02*
X158214285Y-77486428D01*
X158214285Y-77486428D02*
X157833333Y-77486428D01*
X158690476Y-76962619D02*
X159023809Y-77962619D01*
X159023809Y-77962619D02*
X159357142Y-76962619D01*
X159595238Y-76962619D02*
X160214285Y-76962619D01*
X160214285Y-76962619D02*
X159880952Y-77343571D01*
X159880952Y-77343571D02*
X160023809Y-77343571D01*
X160023809Y-77343571D02*
X160119047Y-77391190D01*
X160119047Y-77391190D02*
X160166666Y-77438809D01*
X160166666Y-77438809D02*
X160214285Y-77534047D01*
X160214285Y-77534047D02*
X160214285Y-77772142D01*
X160214285Y-77772142D02*
X160166666Y-77867380D01*
X160166666Y-77867380D02*
X160119047Y-77915000D01*
X160119047Y-77915000D02*
X160023809Y-77962619D01*
X160023809Y-77962619D02*
X159738095Y-77962619D01*
X159738095Y-77962619D02*
X159642857Y-77915000D01*
X159642857Y-77915000D02*
X159595238Y-77867380D01*
%TO.C,D2*%
X88761905Y-79962619D02*
X88761905Y-78962619D01*
X88761905Y-78962619D02*
X89000000Y-78962619D01*
X89000000Y-78962619D02*
X89142857Y-79010238D01*
X89142857Y-79010238D02*
X89238095Y-79105476D01*
X89238095Y-79105476D02*
X89285714Y-79200714D01*
X89285714Y-79200714D02*
X89333333Y-79391190D01*
X89333333Y-79391190D02*
X89333333Y-79534047D01*
X89333333Y-79534047D02*
X89285714Y-79724523D01*
X89285714Y-79724523D02*
X89238095Y-79819761D01*
X89238095Y-79819761D02*
X89142857Y-79915000D01*
X89142857Y-79915000D02*
X89000000Y-79962619D01*
X89000000Y-79962619D02*
X88761905Y-79962619D01*
X89714286Y-79057857D02*
X89761905Y-79010238D01*
X89761905Y-79010238D02*
X89857143Y-78962619D01*
X89857143Y-78962619D02*
X90095238Y-78962619D01*
X90095238Y-78962619D02*
X90190476Y-79010238D01*
X90190476Y-79010238D02*
X90238095Y-79057857D01*
X90238095Y-79057857D02*
X90285714Y-79153095D01*
X90285714Y-79153095D02*
X90285714Y-79248333D01*
X90285714Y-79248333D02*
X90238095Y-79391190D01*
X90238095Y-79391190D02*
X89666667Y-79962619D01*
X89666667Y-79962619D02*
X90285714Y-79962619D01*
X94318095Y-84562619D02*
X94318095Y-83562619D01*
X94889523Y-84562619D02*
X94460952Y-83991190D01*
X94889523Y-83562619D02*
X94318095Y-84134047D01*
%TO.C,C2*%
X81833333Y-73367380D02*
X81785714Y-73415000D01*
X81785714Y-73415000D02*
X81642857Y-73462619D01*
X81642857Y-73462619D02*
X81547619Y-73462619D01*
X81547619Y-73462619D02*
X81404762Y-73415000D01*
X81404762Y-73415000D02*
X81309524Y-73319761D01*
X81309524Y-73319761D02*
X81261905Y-73224523D01*
X81261905Y-73224523D02*
X81214286Y-73034047D01*
X81214286Y-73034047D02*
X81214286Y-72891190D01*
X81214286Y-72891190D02*
X81261905Y-72700714D01*
X81261905Y-72700714D02*
X81309524Y-72605476D01*
X81309524Y-72605476D02*
X81404762Y-72510238D01*
X81404762Y-72510238D02*
X81547619Y-72462619D01*
X81547619Y-72462619D02*
X81642857Y-72462619D01*
X81642857Y-72462619D02*
X81785714Y-72510238D01*
X81785714Y-72510238D02*
X81833333Y-72557857D01*
X82214286Y-72557857D02*
X82261905Y-72510238D01*
X82261905Y-72510238D02*
X82357143Y-72462619D01*
X82357143Y-72462619D02*
X82595238Y-72462619D01*
X82595238Y-72462619D02*
X82690476Y-72510238D01*
X82690476Y-72510238D02*
X82738095Y-72557857D01*
X82738095Y-72557857D02*
X82785714Y-72653095D01*
X82785714Y-72653095D02*
X82785714Y-72748333D01*
X82785714Y-72748333D02*
X82738095Y-72891190D01*
X82738095Y-72891190D02*
X82166667Y-73462619D01*
X82166667Y-73462619D02*
X82785714Y-73462619D01*
%TO.C,Q4*%
X110904761Y-87557857D02*
X110809523Y-87510238D01*
X110809523Y-87510238D02*
X110714285Y-87415000D01*
X110714285Y-87415000D02*
X110571428Y-87272142D01*
X110571428Y-87272142D02*
X110476190Y-87224523D01*
X110476190Y-87224523D02*
X110380952Y-87224523D01*
X110428571Y-87462619D02*
X110333333Y-87415000D01*
X110333333Y-87415000D02*
X110238095Y-87319761D01*
X110238095Y-87319761D02*
X110190476Y-87129285D01*
X110190476Y-87129285D02*
X110190476Y-86795952D01*
X110190476Y-86795952D02*
X110238095Y-86605476D01*
X110238095Y-86605476D02*
X110333333Y-86510238D01*
X110333333Y-86510238D02*
X110428571Y-86462619D01*
X110428571Y-86462619D02*
X110619047Y-86462619D01*
X110619047Y-86462619D02*
X110714285Y-86510238D01*
X110714285Y-86510238D02*
X110809523Y-86605476D01*
X110809523Y-86605476D02*
X110857142Y-86795952D01*
X110857142Y-86795952D02*
X110857142Y-87129285D01*
X110857142Y-87129285D02*
X110809523Y-87319761D01*
X110809523Y-87319761D02*
X110714285Y-87415000D01*
X110714285Y-87415000D02*
X110619047Y-87462619D01*
X110619047Y-87462619D02*
X110428571Y-87462619D01*
X111714285Y-86795952D02*
X111714285Y-87462619D01*
X111476190Y-86415000D02*
X111238095Y-87129285D01*
X111238095Y-87129285D02*
X111857142Y-87129285D01*
%TO.C,R6*%
X125333333Y-75962619D02*
X125000000Y-75486428D01*
X124761905Y-75962619D02*
X124761905Y-74962619D01*
X124761905Y-74962619D02*
X125142857Y-74962619D01*
X125142857Y-74962619D02*
X125238095Y-75010238D01*
X125238095Y-75010238D02*
X125285714Y-75057857D01*
X125285714Y-75057857D02*
X125333333Y-75153095D01*
X125333333Y-75153095D02*
X125333333Y-75295952D01*
X125333333Y-75295952D02*
X125285714Y-75391190D01*
X125285714Y-75391190D02*
X125238095Y-75438809D01*
X125238095Y-75438809D02*
X125142857Y-75486428D01*
X125142857Y-75486428D02*
X124761905Y-75486428D01*
X126190476Y-74962619D02*
X126000000Y-74962619D01*
X126000000Y-74962619D02*
X125904762Y-75010238D01*
X125904762Y-75010238D02*
X125857143Y-75057857D01*
X125857143Y-75057857D02*
X125761905Y-75200714D01*
X125761905Y-75200714D02*
X125714286Y-75391190D01*
X125714286Y-75391190D02*
X125714286Y-75772142D01*
X125714286Y-75772142D02*
X125761905Y-75867380D01*
X125761905Y-75867380D02*
X125809524Y-75915000D01*
X125809524Y-75915000D02*
X125904762Y-75962619D01*
X125904762Y-75962619D02*
X126095238Y-75962619D01*
X126095238Y-75962619D02*
X126190476Y-75915000D01*
X126190476Y-75915000D02*
X126238095Y-75867380D01*
X126238095Y-75867380D02*
X126285714Y-75772142D01*
X126285714Y-75772142D02*
X126285714Y-75534047D01*
X126285714Y-75534047D02*
X126238095Y-75438809D01*
X126238095Y-75438809D02*
X126190476Y-75391190D01*
X126190476Y-75391190D02*
X126095238Y-75343571D01*
X126095238Y-75343571D02*
X125904762Y-75343571D01*
X125904762Y-75343571D02*
X125809524Y-75391190D01*
X125809524Y-75391190D02*
X125761905Y-75438809D01*
X125761905Y-75438809D02*
X125714286Y-75534047D01*
%TO.C,R15*%
X125357142Y-66962619D02*
X125023809Y-66486428D01*
X124785714Y-66962619D02*
X124785714Y-65962619D01*
X124785714Y-65962619D02*
X125166666Y-65962619D01*
X125166666Y-65962619D02*
X125261904Y-66010238D01*
X125261904Y-66010238D02*
X125309523Y-66057857D01*
X125309523Y-66057857D02*
X125357142Y-66153095D01*
X125357142Y-66153095D02*
X125357142Y-66295952D01*
X125357142Y-66295952D02*
X125309523Y-66391190D01*
X125309523Y-66391190D02*
X125261904Y-66438809D01*
X125261904Y-66438809D02*
X125166666Y-66486428D01*
X125166666Y-66486428D02*
X124785714Y-66486428D01*
X126309523Y-66962619D02*
X125738095Y-66962619D01*
X126023809Y-66962619D02*
X126023809Y-65962619D01*
X126023809Y-65962619D02*
X125928571Y-66105476D01*
X125928571Y-66105476D02*
X125833333Y-66200714D01*
X125833333Y-66200714D02*
X125738095Y-66248333D01*
X127214285Y-65962619D02*
X126738095Y-65962619D01*
X126738095Y-65962619D02*
X126690476Y-66438809D01*
X126690476Y-66438809D02*
X126738095Y-66391190D01*
X126738095Y-66391190D02*
X126833333Y-66343571D01*
X126833333Y-66343571D02*
X127071428Y-66343571D01*
X127071428Y-66343571D02*
X127166666Y-66391190D01*
X127166666Y-66391190D02*
X127214285Y-66438809D01*
X127214285Y-66438809D02*
X127261904Y-66534047D01*
X127261904Y-66534047D02*
X127261904Y-66772142D01*
X127261904Y-66772142D02*
X127214285Y-66867380D01*
X127214285Y-66867380D02*
X127166666Y-66915000D01*
X127166666Y-66915000D02*
X127071428Y-66962619D01*
X127071428Y-66962619D02*
X126833333Y-66962619D01*
X126833333Y-66962619D02*
X126738095Y-66915000D01*
X126738095Y-66915000D02*
X126690476Y-66867380D01*
%TO.C,R1*%
X88833333Y-86592619D02*
X88500000Y-86116428D01*
X88261905Y-86592619D02*
X88261905Y-85592619D01*
X88261905Y-85592619D02*
X88642857Y-85592619D01*
X88642857Y-85592619D02*
X88738095Y-85640238D01*
X88738095Y-85640238D02*
X88785714Y-85687857D01*
X88785714Y-85687857D02*
X88833333Y-85783095D01*
X88833333Y-85783095D02*
X88833333Y-85925952D01*
X88833333Y-85925952D02*
X88785714Y-86021190D01*
X88785714Y-86021190D02*
X88738095Y-86068809D01*
X88738095Y-86068809D02*
X88642857Y-86116428D01*
X88642857Y-86116428D02*
X88261905Y-86116428D01*
X89785714Y-86592619D02*
X89214286Y-86592619D01*
X89500000Y-86592619D02*
X89500000Y-85592619D01*
X89500000Y-85592619D02*
X89404762Y-85735476D01*
X89404762Y-85735476D02*
X89309524Y-85830714D01*
X89309524Y-85830714D02*
X89214286Y-85878333D01*
%TO.C,R16*%
X157857142Y-95592619D02*
X157523809Y-95116428D01*
X157285714Y-95592619D02*
X157285714Y-94592619D01*
X157285714Y-94592619D02*
X157666666Y-94592619D01*
X157666666Y-94592619D02*
X157761904Y-94640238D01*
X157761904Y-94640238D02*
X157809523Y-94687857D01*
X157809523Y-94687857D02*
X157857142Y-94783095D01*
X157857142Y-94783095D02*
X157857142Y-94925952D01*
X157857142Y-94925952D02*
X157809523Y-95021190D01*
X157809523Y-95021190D02*
X157761904Y-95068809D01*
X157761904Y-95068809D02*
X157666666Y-95116428D01*
X157666666Y-95116428D02*
X157285714Y-95116428D01*
X158809523Y-95592619D02*
X158238095Y-95592619D01*
X158523809Y-95592619D02*
X158523809Y-94592619D01*
X158523809Y-94592619D02*
X158428571Y-94735476D01*
X158428571Y-94735476D02*
X158333333Y-94830714D01*
X158333333Y-94830714D02*
X158238095Y-94878333D01*
X159666666Y-94592619D02*
X159476190Y-94592619D01*
X159476190Y-94592619D02*
X159380952Y-94640238D01*
X159380952Y-94640238D02*
X159333333Y-94687857D01*
X159333333Y-94687857D02*
X159238095Y-94830714D01*
X159238095Y-94830714D02*
X159190476Y-95021190D01*
X159190476Y-95021190D02*
X159190476Y-95402142D01*
X159190476Y-95402142D02*
X159238095Y-95497380D01*
X159238095Y-95497380D02*
X159285714Y-95545000D01*
X159285714Y-95545000D02*
X159380952Y-95592619D01*
X159380952Y-95592619D02*
X159571428Y-95592619D01*
X159571428Y-95592619D02*
X159666666Y-95545000D01*
X159666666Y-95545000D02*
X159714285Y-95497380D01*
X159714285Y-95497380D02*
X159761904Y-95402142D01*
X159761904Y-95402142D02*
X159761904Y-95164047D01*
X159761904Y-95164047D02*
X159714285Y-95068809D01*
X159714285Y-95068809D02*
X159666666Y-95021190D01*
X159666666Y-95021190D02*
X159571428Y-94973571D01*
X159571428Y-94973571D02*
X159380952Y-94973571D01*
X159380952Y-94973571D02*
X159285714Y-95021190D01*
X159285714Y-95021190D02*
X159238095Y-95068809D01*
X159238095Y-95068809D02*
X159190476Y-95164047D01*
%TO.C,U2*%
X166723095Y-69832619D02*
X166723095Y-70642142D01*
X166723095Y-70642142D02*
X166770714Y-70737380D01*
X166770714Y-70737380D02*
X166818333Y-70785000D01*
X166818333Y-70785000D02*
X166913571Y-70832619D01*
X166913571Y-70832619D02*
X167104047Y-70832619D01*
X167104047Y-70832619D02*
X167199285Y-70785000D01*
X167199285Y-70785000D02*
X167246904Y-70737380D01*
X167246904Y-70737380D02*
X167294523Y-70642142D01*
X167294523Y-70642142D02*
X167294523Y-69832619D01*
X167723095Y-69927857D02*
X167770714Y-69880238D01*
X167770714Y-69880238D02*
X167865952Y-69832619D01*
X167865952Y-69832619D02*
X168104047Y-69832619D01*
X168104047Y-69832619D02*
X168199285Y-69880238D01*
X168199285Y-69880238D02*
X168246904Y-69927857D01*
X168246904Y-69927857D02*
X168294523Y-70023095D01*
X168294523Y-70023095D02*
X168294523Y-70118333D01*
X168294523Y-70118333D02*
X168246904Y-70261190D01*
X168246904Y-70261190D02*
X167675476Y-70832619D01*
X167675476Y-70832619D02*
X168294523Y-70832619D01*
%TO.C,C4*%
X103833333Y-73367380D02*
X103785714Y-73415000D01*
X103785714Y-73415000D02*
X103642857Y-73462619D01*
X103642857Y-73462619D02*
X103547619Y-73462619D01*
X103547619Y-73462619D02*
X103404762Y-73415000D01*
X103404762Y-73415000D02*
X103309524Y-73319761D01*
X103309524Y-73319761D02*
X103261905Y-73224523D01*
X103261905Y-73224523D02*
X103214286Y-73034047D01*
X103214286Y-73034047D02*
X103214286Y-72891190D01*
X103214286Y-72891190D02*
X103261905Y-72700714D01*
X103261905Y-72700714D02*
X103309524Y-72605476D01*
X103309524Y-72605476D02*
X103404762Y-72510238D01*
X103404762Y-72510238D02*
X103547619Y-72462619D01*
X103547619Y-72462619D02*
X103642857Y-72462619D01*
X103642857Y-72462619D02*
X103785714Y-72510238D01*
X103785714Y-72510238D02*
X103833333Y-72557857D01*
X104690476Y-72795952D02*
X104690476Y-73462619D01*
X104452381Y-72415000D02*
X104214286Y-73129285D01*
X104214286Y-73129285D02*
X104833333Y-73129285D01*
%TO.C,R5*%
X125333333Y-88462619D02*
X125000000Y-87986428D01*
X124761905Y-88462619D02*
X124761905Y-87462619D01*
X124761905Y-87462619D02*
X125142857Y-87462619D01*
X125142857Y-87462619D02*
X125238095Y-87510238D01*
X125238095Y-87510238D02*
X125285714Y-87557857D01*
X125285714Y-87557857D02*
X125333333Y-87653095D01*
X125333333Y-87653095D02*
X125333333Y-87795952D01*
X125333333Y-87795952D02*
X125285714Y-87891190D01*
X125285714Y-87891190D02*
X125238095Y-87938809D01*
X125238095Y-87938809D02*
X125142857Y-87986428D01*
X125142857Y-87986428D02*
X124761905Y-87986428D01*
X126238095Y-87462619D02*
X125761905Y-87462619D01*
X125761905Y-87462619D02*
X125714286Y-87938809D01*
X125714286Y-87938809D02*
X125761905Y-87891190D01*
X125761905Y-87891190D02*
X125857143Y-87843571D01*
X125857143Y-87843571D02*
X126095238Y-87843571D01*
X126095238Y-87843571D02*
X126190476Y-87891190D01*
X126190476Y-87891190D02*
X126238095Y-87938809D01*
X126238095Y-87938809D02*
X126285714Y-88034047D01*
X126285714Y-88034047D02*
X126285714Y-88272142D01*
X126285714Y-88272142D02*
X126238095Y-88367380D01*
X126238095Y-88367380D02*
X126190476Y-88415000D01*
X126190476Y-88415000D02*
X126095238Y-88462619D01*
X126095238Y-88462619D02*
X125857143Y-88462619D01*
X125857143Y-88462619D02*
X125761905Y-88415000D01*
X125761905Y-88415000D02*
X125714286Y-88367380D01*
%TO.C,R18*%
X179592619Y-78142857D02*
X179116428Y-78476190D01*
X179592619Y-78714285D02*
X178592619Y-78714285D01*
X178592619Y-78714285D02*
X178592619Y-78333333D01*
X178592619Y-78333333D02*
X178640238Y-78238095D01*
X178640238Y-78238095D02*
X178687857Y-78190476D01*
X178687857Y-78190476D02*
X178783095Y-78142857D01*
X178783095Y-78142857D02*
X178925952Y-78142857D01*
X178925952Y-78142857D02*
X179021190Y-78190476D01*
X179021190Y-78190476D02*
X179068809Y-78238095D01*
X179068809Y-78238095D02*
X179116428Y-78333333D01*
X179116428Y-78333333D02*
X179116428Y-78714285D01*
X179592619Y-77190476D02*
X179592619Y-77761904D01*
X179592619Y-77476190D02*
X178592619Y-77476190D01*
X178592619Y-77476190D02*
X178735476Y-77571428D01*
X178735476Y-77571428D02*
X178830714Y-77666666D01*
X178830714Y-77666666D02*
X178878333Y-77761904D01*
X179021190Y-76619047D02*
X178973571Y-76714285D01*
X178973571Y-76714285D02*
X178925952Y-76761904D01*
X178925952Y-76761904D02*
X178830714Y-76809523D01*
X178830714Y-76809523D02*
X178783095Y-76809523D01*
X178783095Y-76809523D02*
X178687857Y-76761904D01*
X178687857Y-76761904D02*
X178640238Y-76714285D01*
X178640238Y-76714285D02*
X178592619Y-76619047D01*
X178592619Y-76619047D02*
X178592619Y-76428571D01*
X178592619Y-76428571D02*
X178640238Y-76333333D01*
X178640238Y-76333333D02*
X178687857Y-76285714D01*
X178687857Y-76285714D02*
X178783095Y-76238095D01*
X178783095Y-76238095D02*
X178830714Y-76238095D01*
X178830714Y-76238095D02*
X178925952Y-76285714D01*
X178925952Y-76285714D02*
X178973571Y-76333333D01*
X178973571Y-76333333D02*
X179021190Y-76428571D01*
X179021190Y-76428571D02*
X179021190Y-76619047D01*
X179021190Y-76619047D02*
X179068809Y-76714285D01*
X179068809Y-76714285D02*
X179116428Y-76761904D01*
X179116428Y-76761904D02*
X179211666Y-76809523D01*
X179211666Y-76809523D02*
X179402142Y-76809523D01*
X179402142Y-76809523D02*
X179497380Y-76761904D01*
X179497380Y-76761904D02*
X179545000Y-76714285D01*
X179545000Y-76714285D02*
X179592619Y-76619047D01*
X179592619Y-76619047D02*
X179592619Y-76428571D01*
X179592619Y-76428571D02*
X179545000Y-76333333D01*
X179545000Y-76333333D02*
X179497380Y-76285714D01*
X179497380Y-76285714D02*
X179402142Y-76238095D01*
X179402142Y-76238095D02*
X179211666Y-76238095D01*
X179211666Y-76238095D02*
X179116428Y-76285714D01*
X179116428Y-76285714D02*
X179068809Y-76333333D01*
X179068809Y-76333333D02*
X179021190Y-76428571D01*
%TO.C,R14*%
X157857142Y-91092619D02*
X157523809Y-90616428D01*
X157285714Y-91092619D02*
X157285714Y-90092619D01*
X157285714Y-90092619D02*
X157666666Y-90092619D01*
X157666666Y-90092619D02*
X157761904Y-90140238D01*
X157761904Y-90140238D02*
X157809523Y-90187857D01*
X157809523Y-90187857D02*
X157857142Y-90283095D01*
X157857142Y-90283095D02*
X157857142Y-90425952D01*
X157857142Y-90425952D02*
X157809523Y-90521190D01*
X157809523Y-90521190D02*
X157761904Y-90568809D01*
X157761904Y-90568809D02*
X157666666Y-90616428D01*
X157666666Y-90616428D02*
X157285714Y-90616428D01*
X158809523Y-91092619D02*
X158238095Y-91092619D01*
X158523809Y-91092619D02*
X158523809Y-90092619D01*
X158523809Y-90092619D02*
X158428571Y-90235476D01*
X158428571Y-90235476D02*
X158333333Y-90330714D01*
X158333333Y-90330714D02*
X158238095Y-90378333D01*
X159666666Y-90425952D02*
X159666666Y-91092619D01*
X159428571Y-90045000D02*
X159190476Y-90759285D01*
X159190476Y-90759285D02*
X159809523Y-90759285D01*
%TO.C,R9*%
X174592619Y-83666666D02*
X174116428Y-83999999D01*
X174592619Y-84238094D02*
X173592619Y-84238094D01*
X173592619Y-84238094D02*
X173592619Y-83857142D01*
X173592619Y-83857142D02*
X173640238Y-83761904D01*
X173640238Y-83761904D02*
X173687857Y-83714285D01*
X173687857Y-83714285D02*
X173783095Y-83666666D01*
X173783095Y-83666666D02*
X173925952Y-83666666D01*
X173925952Y-83666666D02*
X174021190Y-83714285D01*
X174021190Y-83714285D02*
X174068809Y-83761904D01*
X174068809Y-83761904D02*
X174116428Y-83857142D01*
X174116428Y-83857142D02*
X174116428Y-84238094D01*
X174592619Y-83190475D02*
X174592619Y-82999999D01*
X174592619Y-82999999D02*
X174545000Y-82904761D01*
X174545000Y-82904761D02*
X174497380Y-82857142D01*
X174497380Y-82857142D02*
X174354523Y-82761904D01*
X174354523Y-82761904D02*
X174164047Y-82714285D01*
X174164047Y-82714285D02*
X173783095Y-82714285D01*
X173783095Y-82714285D02*
X173687857Y-82761904D01*
X173687857Y-82761904D02*
X173640238Y-82809523D01*
X173640238Y-82809523D02*
X173592619Y-82904761D01*
X173592619Y-82904761D02*
X173592619Y-83095237D01*
X173592619Y-83095237D02*
X173640238Y-83190475D01*
X173640238Y-83190475D02*
X173687857Y-83238094D01*
X173687857Y-83238094D02*
X173783095Y-83285713D01*
X173783095Y-83285713D02*
X174021190Y-83285713D01*
X174021190Y-83285713D02*
X174116428Y-83238094D01*
X174116428Y-83238094D02*
X174164047Y-83190475D01*
X174164047Y-83190475D02*
X174211666Y-83095237D01*
X174211666Y-83095237D02*
X174211666Y-82904761D01*
X174211666Y-82904761D02*
X174164047Y-82809523D01*
X174164047Y-82809523D02*
X174116428Y-82761904D01*
X174116428Y-82761904D02*
X174021190Y-82714285D01*
%TO.C,R19*%
X157857142Y-86092619D02*
X157523809Y-85616428D01*
X157285714Y-86092619D02*
X157285714Y-85092619D01*
X157285714Y-85092619D02*
X157666666Y-85092619D01*
X157666666Y-85092619D02*
X157761904Y-85140238D01*
X157761904Y-85140238D02*
X157809523Y-85187857D01*
X157809523Y-85187857D02*
X157857142Y-85283095D01*
X157857142Y-85283095D02*
X157857142Y-85425952D01*
X157857142Y-85425952D02*
X157809523Y-85521190D01*
X157809523Y-85521190D02*
X157761904Y-85568809D01*
X157761904Y-85568809D02*
X157666666Y-85616428D01*
X157666666Y-85616428D02*
X157285714Y-85616428D01*
X158809523Y-86092619D02*
X158238095Y-86092619D01*
X158523809Y-86092619D02*
X158523809Y-85092619D01*
X158523809Y-85092619D02*
X158428571Y-85235476D01*
X158428571Y-85235476D02*
X158333333Y-85330714D01*
X158333333Y-85330714D02*
X158238095Y-85378333D01*
X159285714Y-86092619D02*
X159476190Y-86092619D01*
X159476190Y-86092619D02*
X159571428Y-86045000D01*
X159571428Y-86045000D02*
X159619047Y-85997380D01*
X159619047Y-85997380D02*
X159714285Y-85854523D01*
X159714285Y-85854523D02*
X159761904Y-85664047D01*
X159761904Y-85664047D02*
X159761904Y-85283095D01*
X159761904Y-85283095D02*
X159714285Y-85187857D01*
X159714285Y-85187857D02*
X159666666Y-85140238D01*
X159666666Y-85140238D02*
X159571428Y-85092619D01*
X159571428Y-85092619D02*
X159380952Y-85092619D01*
X159380952Y-85092619D02*
X159285714Y-85140238D01*
X159285714Y-85140238D02*
X159238095Y-85187857D01*
X159238095Y-85187857D02*
X159190476Y-85283095D01*
X159190476Y-85283095D02*
X159190476Y-85521190D01*
X159190476Y-85521190D02*
X159238095Y-85616428D01*
X159238095Y-85616428D02*
X159285714Y-85664047D01*
X159285714Y-85664047D02*
X159380952Y-85711666D01*
X159380952Y-85711666D02*
X159571428Y-85711666D01*
X159571428Y-85711666D02*
X159666666Y-85664047D01*
X159666666Y-85664047D02*
X159714285Y-85616428D01*
X159714285Y-85616428D02*
X159761904Y-85521190D01*
%TO.C,Q7*%
X175634761Y-100617857D02*
X175539523Y-100570238D01*
X175539523Y-100570238D02*
X175444285Y-100475000D01*
X175444285Y-100475000D02*
X175301428Y-100332142D01*
X175301428Y-100332142D02*
X175206190Y-100284523D01*
X175206190Y-100284523D02*
X175110952Y-100284523D01*
X175158571Y-100522619D02*
X175063333Y-100475000D01*
X175063333Y-100475000D02*
X174968095Y-100379761D01*
X174968095Y-100379761D02*
X174920476Y-100189285D01*
X174920476Y-100189285D02*
X174920476Y-99855952D01*
X174920476Y-99855952D02*
X174968095Y-99665476D01*
X174968095Y-99665476D02*
X175063333Y-99570238D01*
X175063333Y-99570238D02*
X175158571Y-99522619D01*
X175158571Y-99522619D02*
X175349047Y-99522619D01*
X175349047Y-99522619D02*
X175444285Y-99570238D01*
X175444285Y-99570238D02*
X175539523Y-99665476D01*
X175539523Y-99665476D02*
X175587142Y-99855952D01*
X175587142Y-99855952D02*
X175587142Y-100189285D01*
X175587142Y-100189285D02*
X175539523Y-100379761D01*
X175539523Y-100379761D02*
X175444285Y-100475000D01*
X175444285Y-100475000D02*
X175349047Y-100522619D01*
X175349047Y-100522619D02*
X175158571Y-100522619D01*
X175920476Y-99522619D02*
X176587142Y-99522619D01*
X176587142Y-99522619D02*
X176158571Y-100522619D01*
D12*
%TO.C,Q6*%
X145700000Y-96210000D02*
X149300000Y-96210000D01*
X147500000Y-91760000D02*
G75*
G03*
X145661522Y-96198478I0J-2600000D01*
G01*
X149338478Y-96198478D02*
G75*
G03*
X147500000Y-91760000I-1838478J1838478D01*
G01*
%TO.C,R3*%
X99000000Y-69460000D02*
X99000000Y-70230000D01*
X100370000Y-70230000D02*
X97630000Y-70230000D01*
X97630000Y-70230000D02*
X97630000Y-76770000D01*
X100370000Y-76770000D02*
X100370000Y-70230000D01*
X97630000Y-76770000D02*
X100370000Y-76770000D01*
X99000000Y-77540000D02*
X99000000Y-76770000D01*
%TO.C,D1*%
X85760000Y-69000000D02*
X86780000Y-69000000D01*
X86780000Y-67530000D02*
X86780000Y-70470000D01*
X86780000Y-70470000D02*
X92220000Y-70470000D01*
X87560000Y-67530000D02*
X87560000Y-70470000D01*
X87680000Y-67530000D02*
X87680000Y-70470000D01*
X87800000Y-67530000D02*
X87800000Y-70470000D01*
X92220000Y-67530000D02*
X86780000Y-67530000D01*
X92220000Y-70470000D02*
X92220000Y-67530000D01*
X93240000Y-69000000D02*
X92220000Y-69000000D01*
%TO.C,Q3*%
X112430000Y-97350000D02*
X116030000Y-97350000D01*
X114230000Y-92900000D02*
G75*
G03*
X112391522Y-97338478I0J-2600000D01*
G01*
X116068478Y-97338478D02*
G75*
G03*
X114230000Y-92900000I-1838478J1838478D01*
G01*
%TO.C,C6*%
X133630000Y-81620000D02*
X133945000Y-81620000D01*
X133630000Y-81620000D02*
X133630000Y-76380000D01*
X136055000Y-81620000D02*
X136370000Y-81620000D01*
X136370000Y-81620000D02*
X136370000Y-76380000D01*
X133630000Y-76380000D02*
X133945000Y-76380000D01*
X136055000Y-76380000D02*
X136370000Y-76380000D01*
%TO.C,R13*%
X139960000Y-88000000D02*
X140730000Y-88000000D01*
X140730000Y-86630000D02*
X140730000Y-89370000D01*
X140730000Y-89370000D02*
X147270000Y-89370000D01*
X147270000Y-86630000D02*
X140730000Y-86630000D01*
X147270000Y-89370000D02*
X147270000Y-86630000D01*
X148040000Y-88000000D02*
X147270000Y-88000000D01*
%TO.C,J1*%
X74670000Y-71890000D02*
X76000000Y-71890000D01*
X74670000Y-73220000D02*
X74670000Y-71890000D01*
X74670000Y-74490000D02*
X74670000Y-92330000D01*
X74670000Y-74490000D02*
X77270000Y-74490000D01*
X74670000Y-92330000D02*
X79870000Y-92330000D01*
X77270000Y-71890000D02*
X79870000Y-71890000D01*
X77270000Y-74490000D02*
X77270000Y-71890000D01*
X79870000Y-71890000D02*
X79870000Y-92330000D01*
%TO.C,C5*%
X141370000Y-79630000D02*
X138630000Y-79630000D01*
X141370000Y-79630000D02*
X141370000Y-84870000D01*
X138630000Y-79630000D02*
X138630000Y-84870000D01*
X141370000Y-84870000D02*
X138630000Y-84870000D01*
%TO.C,RV1*%
X117330000Y-101170000D02*
X117330000Y-102500000D01*
X116000000Y-101170000D02*
X117330000Y-101170000D01*
X114730000Y-101170000D02*
X109590000Y-101170000D01*
X114730000Y-101170000D02*
X114730000Y-103830000D01*
X109590000Y-101170000D02*
X109590000Y-103830000D01*
X114730000Y-103830000D02*
X109590000Y-103830000D01*
%TO.C,R12*%
X140540000Y-77000000D02*
X141310000Y-77000000D01*
X141310000Y-75630000D02*
X141310000Y-78370000D01*
X141310000Y-78370000D02*
X147850000Y-78370000D01*
X147850000Y-75630000D02*
X141310000Y-75630000D01*
X147850000Y-78370000D02*
X147850000Y-75630000D01*
X148620000Y-77000000D02*
X147850000Y-77000000D01*
%TO.C,C1*%
X96304775Y-76975000D02*
X95804775Y-76975000D01*
X96054775Y-77225000D02*
X96054775Y-76725000D01*
X93500000Y-78080000D02*
X93500000Y-76540000D01*
X93500000Y-74460000D02*
X93500000Y-72920000D01*
X93460000Y-78080000D02*
X93460000Y-76540000D01*
X93460000Y-74460000D02*
X93460000Y-72920000D01*
X93420000Y-78079000D02*
X93420000Y-76540000D01*
X93420000Y-74460000D02*
X93420000Y-72921000D01*
X93380000Y-78078000D02*
X93380000Y-76540000D01*
X93380000Y-74460000D02*
X93380000Y-72922000D01*
X93340000Y-78076000D02*
X93340000Y-76540000D01*
X93340000Y-74460000D02*
X93340000Y-72924000D01*
X93300000Y-78073000D02*
X93300000Y-76540000D01*
X93300000Y-74460000D02*
X93300000Y-72927000D01*
X93260000Y-78069000D02*
X93260000Y-76540000D01*
X93260000Y-74460000D02*
X93260000Y-72931000D01*
X93220000Y-78065000D02*
X93220000Y-76540000D01*
X93220000Y-74460000D02*
X93220000Y-72935000D01*
X93180000Y-78061000D02*
X93180000Y-76540000D01*
X93180000Y-74460000D02*
X93180000Y-72939000D01*
X93140000Y-78056000D02*
X93140000Y-76540000D01*
X93140000Y-74460000D02*
X93140000Y-72944000D01*
X93100000Y-78050000D02*
X93100000Y-76540000D01*
X93100000Y-74460000D02*
X93100000Y-72950000D01*
X93060000Y-78043000D02*
X93060000Y-76540000D01*
X93060000Y-74460000D02*
X93060000Y-72957000D01*
X93020000Y-78036000D02*
X93020000Y-76540000D01*
X93020000Y-74460000D02*
X93020000Y-72964000D01*
X92980000Y-78028000D02*
X92980000Y-76540000D01*
X92980000Y-74460000D02*
X92980000Y-72972000D01*
X92940000Y-78020000D02*
X92940000Y-76540000D01*
X92940000Y-74460000D02*
X92940000Y-72980000D01*
X92900000Y-78011000D02*
X92900000Y-76540000D01*
X92900000Y-74460000D02*
X92900000Y-72989000D01*
X92860000Y-78001000D02*
X92860000Y-76540000D01*
X92860000Y-74460000D02*
X92860000Y-72999000D01*
X92820000Y-77991000D02*
X92820000Y-76540000D01*
X92820000Y-74460000D02*
X92820000Y-73009000D01*
X92779000Y-77980000D02*
X92779000Y-76540000D01*
X92779000Y-74460000D02*
X92779000Y-73020000D01*
X92739000Y-77968000D02*
X92739000Y-76540000D01*
X92739000Y-74460000D02*
X92739000Y-73032000D01*
X92699000Y-77955000D02*
X92699000Y-76540000D01*
X92699000Y-74460000D02*
X92699000Y-73045000D01*
X92659000Y-77942000D02*
X92659000Y-76540000D01*
X92659000Y-74460000D02*
X92659000Y-73058000D01*
X92619000Y-77928000D02*
X92619000Y-76540000D01*
X92619000Y-74460000D02*
X92619000Y-73072000D01*
X92579000Y-77914000D02*
X92579000Y-76540000D01*
X92579000Y-74460000D02*
X92579000Y-73086000D01*
X92539000Y-77898000D02*
X92539000Y-76540000D01*
X92539000Y-74460000D02*
X92539000Y-73102000D01*
X92499000Y-77882000D02*
X92499000Y-76540000D01*
X92499000Y-74460000D02*
X92499000Y-73118000D01*
X92459000Y-77865000D02*
X92459000Y-76540000D01*
X92459000Y-74460000D02*
X92459000Y-73135000D01*
X92419000Y-77848000D02*
X92419000Y-76540000D01*
X92419000Y-74460000D02*
X92419000Y-73152000D01*
X92379000Y-77829000D02*
X92379000Y-76540000D01*
X92379000Y-74460000D02*
X92379000Y-73171000D01*
X92339000Y-77810000D02*
X92339000Y-76540000D01*
X92339000Y-74460000D02*
X92339000Y-73190000D01*
X92299000Y-77790000D02*
X92299000Y-76540000D01*
X92299000Y-74460000D02*
X92299000Y-73210000D01*
X92259000Y-77768000D02*
X92259000Y-76540000D01*
X92259000Y-74460000D02*
X92259000Y-73232000D01*
X92219000Y-77747000D02*
X92219000Y-76540000D01*
X92219000Y-74460000D02*
X92219000Y-73253000D01*
X92179000Y-77724000D02*
X92179000Y-76540000D01*
X92179000Y-74460000D02*
X92179000Y-73276000D01*
X92139000Y-77700000D02*
X92139000Y-76540000D01*
X92139000Y-74460000D02*
X92139000Y-73300000D01*
X92099000Y-77675000D02*
X92099000Y-76540000D01*
X92099000Y-74460000D02*
X92099000Y-73325000D01*
X92059000Y-77649000D02*
X92059000Y-76540000D01*
X92059000Y-74460000D02*
X92059000Y-73351000D01*
X92019000Y-77622000D02*
X92019000Y-76540000D01*
X92019000Y-74460000D02*
X92019000Y-73378000D01*
X91979000Y-77595000D02*
X91979000Y-76540000D01*
X91979000Y-74460000D02*
X91979000Y-73405000D01*
X91939000Y-77565000D02*
X91939000Y-76540000D01*
X91939000Y-74460000D02*
X91939000Y-73435000D01*
X91899000Y-77535000D02*
X91899000Y-76540000D01*
X91899000Y-74460000D02*
X91899000Y-73465000D01*
X91859000Y-77504000D02*
X91859000Y-76540000D01*
X91859000Y-74460000D02*
X91859000Y-73496000D01*
X91819000Y-77471000D02*
X91819000Y-76540000D01*
X91819000Y-74460000D02*
X91819000Y-73529000D01*
X91779000Y-77437000D02*
X91779000Y-76540000D01*
X91779000Y-74460000D02*
X91779000Y-73563000D01*
X91739000Y-77401000D02*
X91739000Y-76540000D01*
X91739000Y-74460000D02*
X91739000Y-73599000D01*
X91699000Y-77364000D02*
X91699000Y-76540000D01*
X91699000Y-74460000D02*
X91699000Y-73636000D01*
X91659000Y-77326000D02*
X91659000Y-76540000D01*
X91659000Y-74460000D02*
X91659000Y-73674000D01*
X91619000Y-77285000D02*
X91619000Y-76540000D01*
X91619000Y-74460000D02*
X91619000Y-73715000D01*
X91579000Y-77243000D02*
X91579000Y-76540000D01*
X91579000Y-74460000D02*
X91579000Y-73757000D01*
X91539000Y-77199000D02*
X91539000Y-76540000D01*
X91539000Y-74460000D02*
X91539000Y-73801000D01*
X91499000Y-77153000D02*
X91499000Y-76540000D01*
X91499000Y-74460000D02*
X91499000Y-73847000D01*
X91459000Y-77105000D02*
X91459000Y-73895000D01*
X91419000Y-77054000D02*
X91419000Y-73946000D01*
X91379000Y-77000000D02*
X91379000Y-74000000D01*
X91339000Y-76943000D02*
X91339000Y-74057000D01*
X91299000Y-76883000D02*
X91299000Y-74117000D01*
X91259000Y-76819000D02*
X91259000Y-74181000D01*
X91219000Y-76751000D02*
X91219000Y-74249000D01*
X91179000Y-76678000D02*
X91179000Y-74322000D01*
X91139000Y-76598000D02*
X91139000Y-74402000D01*
X91099000Y-76511000D02*
X91099000Y-74489000D01*
X91059000Y-76415000D02*
X91059000Y-74585000D01*
X91019000Y-76305000D02*
X91019000Y-74695000D01*
X90979000Y-76177000D02*
X90979000Y-74823000D01*
X90939000Y-76018000D02*
X90939000Y-74982000D01*
X90899000Y-75784000D02*
X90899000Y-75216000D01*
X96120000Y-75500000D02*
G75*
G03*
X96120000Y-75500000I-2620000J0D01*
G01*
%TO.C,J4*%
X166370000Y-101170000D02*
X166370000Y-102500000D01*
X165040000Y-101170000D02*
X166370000Y-101170000D01*
X163770000Y-101170000D02*
X158630000Y-101170000D01*
X163770000Y-101170000D02*
X163770000Y-103830000D01*
X158630000Y-101170000D02*
X158630000Y-103830000D01*
X163770000Y-103830000D02*
X158630000Y-103830000D01*
%TO.C,C3*%
X98380000Y-82630000D02*
X98380000Y-82945000D01*
X98380000Y-82630000D02*
X103620000Y-82630000D01*
X98380000Y-85055000D02*
X98380000Y-85370000D01*
X98380000Y-85370000D02*
X103620000Y-85370000D01*
X103620000Y-82630000D02*
X103620000Y-82945000D01*
X103620000Y-85055000D02*
X103620000Y-85370000D01*
%TO.C,Q2*%
X138930000Y-96350000D02*
X142530000Y-96350000D01*
X140730000Y-91900000D02*
G75*
G03*
X138891522Y-96338478I0J-2600000D01*
G01*
X142568478Y-96338478D02*
G75*
G03*
X140730000Y-91900000I-1838478J1838478D01*
G01*
%TO.C,R8*%
X129460000Y-90500000D02*
X128690000Y-90500000D01*
X128690000Y-91870000D02*
X128690000Y-89130000D01*
X128690000Y-89130000D02*
X122150000Y-89130000D01*
X122150000Y-91870000D02*
X128690000Y-91870000D01*
X122150000Y-89130000D02*
X122150000Y-91870000D01*
X121380000Y-90500000D02*
X122150000Y-90500000D01*
%TO.C,R7*%
X135000000Y-94540000D02*
X135000000Y-93770000D01*
X133630000Y-93770000D02*
X136370000Y-93770000D01*
X136370000Y-93770000D02*
X136370000Y-87230000D01*
X133630000Y-87230000D02*
X133630000Y-93770000D01*
X136370000Y-87230000D02*
X133630000Y-87230000D01*
X135000000Y-86460000D02*
X135000000Y-87230000D01*
%TO.C,Q1*%
X131350000Y-80030000D02*
X131350000Y-76430000D01*
X126900000Y-78230000D02*
G75*
G03*
X131338478Y-80068478I2600000J0D01*
G01*
X131338478Y-76391522D02*
G75*
G03*
X126900000Y-78230000I-1838478J-1838478D01*
G01*
%TO.C,R17*%
X181500000Y-95040000D02*
X181500000Y-94270000D01*
X180130000Y-94270000D02*
X182870000Y-94270000D01*
X182870000Y-94270000D02*
X182870000Y-87730000D01*
X180130000Y-87730000D02*
X180130000Y-94270000D01*
X182870000Y-87730000D02*
X180130000Y-87730000D01*
X181500000Y-86960000D02*
X181500000Y-87730000D01*
%TO.C,J2*%
X92370000Y-100670000D02*
X92370000Y-102000000D01*
X91040000Y-100670000D02*
X92370000Y-100670000D01*
X89770000Y-100670000D02*
X84630000Y-100670000D01*
X89770000Y-100670000D02*
X89770000Y-103330000D01*
X84630000Y-100670000D02*
X84630000Y-103330000D01*
X89770000Y-103330000D02*
X84630000Y-103330000D01*
%TO.C,Q5*%
X124350000Y-80030000D02*
X124350000Y-76430000D01*
X119900000Y-78230000D02*
G75*
G03*
X124338478Y-80068478I2600000J0D01*
G01*
X124338478Y-76391522D02*
G75*
G03*
X119900000Y-78230000I-1838478J-1838478D01*
G01*
%TO.C,RV4*%
X140590000Y-103830000D02*
X140590000Y-102500000D01*
X141920000Y-103830000D02*
X140590000Y-103830000D01*
X143190000Y-103830000D02*
X148330000Y-103830000D01*
X143190000Y-103830000D02*
X143190000Y-101170000D01*
X148330000Y-103830000D02*
X148330000Y-101170000D01*
X143190000Y-101170000D02*
X148330000Y-101170000D01*
%TO.C,RV2*%
X124090000Y-103830000D02*
X124090000Y-102500000D01*
X125420000Y-103830000D02*
X124090000Y-103830000D01*
X126690000Y-103830000D02*
X131830000Y-103830000D01*
X126690000Y-103830000D02*
X126690000Y-101170000D01*
X131830000Y-103830000D02*
X131830000Y-101170000D01*
X126690000Y-101170000D02*
X131830000Y-101170000D01*
%TO.C,U1*%
X110235000Y-67470000D02*
X110235000Y-85370000D01*
X110235000Y-85370000D02*
X114735000Y-85370000D01*
X111485000Y-67470000D02*
X110235000Y-67470000D01*
X114735000Y-67470000D02*
X113485000Y-67470000D01*
X114735000Y-85370000D02*
X114735000Y-67470000D01*
X111485000Y-67470000D02*
G75*
G03*
X113485000Y-67470000I1000000J0D01*
G01*
%TO.C,R2*%
X99460000Y-88500000D02*
X100230000Y-88500000D01*
X100230000Y-87130000D02*
X100230000Y-89870000D01*
X100230000Y-89870000D02*
X106770000Y-89870000D01*
X106770000Y-87130000D02*
X100230000Y-87130000D01*
X106770000Y-89870000D02*
X106770000Y-87130000D01*
X107540000Y-88500000D02*
X106770000Y-88500000D01*
%TO.C,R11*%
X149460000Y-73000000D02*
X150230000Y-73000000D01*
X150230000Y-71630000D02*
X150230000Y-74370000D01*
X150230000Y-74370000D02*
X156770000Y-74370000D01*
X156770000Y-71630000D02*
X150230000Y-71630000D01*
X156770000Y-74370000D02*
X156770000Y-71630000D01*
X157540000Y-73000000D02*
X156770000Y-73000000D01*
%TO.C,R4*%
X129540000Y-95500000D02*
X128770000Y-95500000D01*
X128770000Y-96870000D02*
X128770000Y-94130000D01*
X128770000Y-94130000D02*
X122230000Y-94130000D01*
X122230000Y-96870000D02*
X128770000Y-96870000D01*
X122230000Y-94130000D02*
X122230000Y-96870000D01*
X121460000Y-95500000D02*
X122230000Y-95500000D01*
%TO.C,R10*%
X135460000Y-73000000D02*
X136230000Y-73000000D01*
X136230000Y-71630000D02*
X136230000Y-74370000D01*
X136230000Y-74370000D02*
X142770000Y-74370000D01*
X142770000Y-71630000D02*
X136230000Y-71630000D01*
X142770000Y-74370000D02*
X142770000Y-71630000D01*
X143540000Y-73000000D02*
X142770000Y-73000000D01*
%TO.C,RV3*%
X156830000Y-83855000D02*
X155500000Y-83855000D01*
X156830000Y-82525000D02*
X156830000Y-83855000D01*
X156830000Y-81255000D02*
X156830000Y-76115000D01*
X156830000Y-81255000D02*
X154170000Y-81255000D01*
X156830000Y-76115000D02*
X154170000Y-76115000D01*
X154170000Y-81255000D02*
X154170000Y-76115000D01*
%TO.C,D2*%
X93240000Y-82000000D02*
X92220000Y-82000000D01*
X92220000Y-83470000D02*
X92220000Y-80530000D01*
X92220000Y-80530000D02*
X86780000Y-80530000D01*
X91440000Y-83470000D02*
X91440000Y-80530000D01*
X91320000Y-83470000D02*
X91320000Y-80530000D01*
X91200000Y-83470000D02*
X91200000Y-80530000D01*
X86780000Y-83470000D02*
X92220000Y-83470000D01*
X86780000Y-80530000D02*
X86780000Y-83470000D01*
X85760000Y-82000000D02*
X86780000Y-82000000D01*
%TO.C,C2*%
X88304775Y-76975000D02*
X87804775Y-76975000D01*
X88054775Y-77225000D02*
X88054775Y-76725000D01*
X85500000Y-78080000D02*
X85500000Y-76540000D01*
X85500000Y-74460000D02*
X85500000Y-72920000D01*
X85460000Y-78080000D02*
X85460000Y-76540000D01*
X85460000Y-74460000D02*
X85460000Y-72920000D01*
X85420000Y-78079000D02*
X85420000Y-76540000D01*
X85420000Y-74460000D02*
X85420000Y-72921000D01*
X85380000Y-78078000D02*
X85380000Y-76540000D01*
X85380000Y-74460000D02*
X85380000Y-72922000D01*
X85340000Y-78076000D02*
X85340000Y-76540000D01*
X85340000Y-74460000D02*
X85340000Y-72924000D01*
X85300000Y-78073000D02*
X85300000Y-76540000D01*
X85300000Y-74460000D02*
X85300000Y-72927000D01*
X85260000Y-78069000D02*
X85260000Y-76540000D01*
X85260000Y-74460000D02*
X85260000Y-72931000D01*
X85220000Y-78065000D02*
X85220000Y-76540000D01*
X85220000Y-74460000D02*
X85220000Y-72935000D01*
X85180000Y-78061000D02*
X85180000Y-76540000D01*
X85180000Y-74460000D02*
X85180000Y-72939000D01*
X85140000Y-78056000D02*
X85140000Y-76540000D01*
X85140000Y-74460000D02*
X85140000Y-72944000D01*
X85100000Y-78050000D02*
X85100000Y-76540000D01*
X85100000Y-74460000D02*
X85100000Y-72950000D01*
X85060000Y-78043000D02*
X85060000Y-76540000D01*
X85060000Y-74460000D02*
X85060000Y-72957000D01*
X85020000Y-78036000D02*
X85020000Y-76540000D01*
X85020000Y-74460000D02*
X85020000Y-72964000D01*
X84980000Y-78028000D02*
X84980000Y-76540000D01*
X84980000Y-74460000D02*
X84980000Y-72972000D01*
X84940000Y-78020000D02*
X84940000Y-76540000D01*
X84940000Y-74460000D02*
X84940000Y-72980000D01*
X84900000Y-78011000D02*
X84900000Y-76540000D01*
X84900000Y-74460000D02*
X84900000Y-72989000D01*
X84860000Y-78001000D02*
X84860000Y-76540000D01*
X84860000Y-74460000D02*
X84860000Y-72999000D01*
X84820000Y-77991000D02*
X84820000Y-76540000D01*
X84820000Y-74460000D02*
X84820000Y-73009000D01*
X84779000Y-77980000D02*
X84779000Y-76540000D01*
X84779000Y-74460000D02*
X84779000Y-73020000D01*
X84739000Y-77968000D02*
X84739000Y-76540000D01*
X84739000Y-74460000D02*
X84739000Y-73032000D01*
X84699000Y-77955000D02*
X84699000Y-76540000D01*
X84699000Y-74460000D02*
X84699000Y-73045000D01*
X84659000Y-77942000D02*
X84659000Y-76540000D01*
X84659000Y-74460000D02*
X84659000Y-73058000D01*
X84619000Y-77928000D02*
X84619000Y-76540000D01*
X84619000Y-74460000D02*
X84619000Y-73072000D01*
X84579000Y-77914000D02*
X84579000Y-76540000D01*
X84579000Y-74460000D02*
X84579000Y-73086000D01*
X84539000Y-77898000D02*
X84539000Y-76540000D01*
X84539000Y-74460000D02*
X84539000Y-73102000D01*
X84499000Y-77882000D02*
X84499000Y-76540000D01*
X84499000Y-74460000D02*
X84499000Y-73118000D01*
X84459000Y-77865000D02*
X84459000Y-76540000D01*
X84459000Y-74460000D02*
X84459000Y-73135000D01*
X84419000Y-77848000D02*
X84419000Y-76540000D01*
X84419000Y-74460000D02*
X84419000Y-73152000D01*
X84379000Y-77829000D02*
X84379000Y-76540000D01*
X84379000Y-74460000D02*
X84379000Y-73171000D01*
X84339000Y-77810000D02*
X84339000Y-76540000D01*
X84339000Y-74460000D02*
X84339000Y-73190000D01*
X84299000Y-77790000D02*
X84299000Y-76540000D01*
X84299000Y-74460000D02*
X84299000Y-73210000D01*
X84259000Y-77768000D02*
X84259000Y-76540000D01*
X84259000Y-74460000D02*
X84259000Y-73232000D01*
X84219000Y-77747000D02*
X84219000Y-76540000D01*
X84219000Y-74460000D02*
X84219000Y-73253000D01*
X84179000Y-77724000D02*
X84179000Y-76540000D01*
X84179000Y-74460000D02*
X84179000Y-73276000D01*
X84139000Y-77700000D02*
X84139000Y-76540000D01*
X84139000Y-74460000D02*
X84139000Y-73300000D01*
X84099000Y-77675000D02*
X84099000Y-76540000D01*
X84099000Y-74460000D02*
X84099000Y-73325000D01*
X84059000Y-77649000D02*
X84059000Y-76540000D01*
X84059000Y-74460000D02*
X84059000Y-73351000D01*
X84019000Y-77622000D02*
X84019000Y-76540000D01*
X84019000Y-74460000D02*
X84019000Y-73378000D01*
X83979000Y-77595000D02*
X83979000Y-76540000D01*
X83979000Y-74460000D02*
X83979000Y-73405000D01*
X83939000Y-77565000D02*
X83939000Y-76540000D01*
X83939000Y-74460000D02*
X83939000Y-73435000D01*
X83899000Y-77535000D02*
X83899000Y-76540000D01*
X83899000Y-74460000D02*
X83899000Y-73465000D01*
X83859000Y-77504000D02*
X83859000Y-76540000D01*
X83859000Y-74460000D02*
X83859000Y-73496000D01*
X83819000Y-77471000D02*
X83819000Y-76540000D01*
X83819000Y-74460000D02*
X83819000Y-73529000D01*
X83779000Y-77437000D02*
X83779000Y-76540000D01*
X83779000Y-74460000D02*
X83779000Y-73563000D01*
X83739000Y-77401000D02*
X83739000Y-76540000D01*
X83739000Y-74460000D02*
X83739000Y-73599000D01*
X83699000Y-77364000D02*
X83699000Y-76540000D01*
X83699000Y-74460000D02*
X83699000Y-73636000D01*
X83659000Y-77326000D02*
X83659000Y-76540000D01*
X83659000Y-74460000D02*
X83659000Y-73674000D01*
X83619000Y-77285000D02*
X83619000Y-76540000D01*
X83619000Y-74460000D02*
X83619000Y-73715000D01*
X83579000Y-77243000D02*
X83579000Y-76540000D01*
X83579000Y-74460000D02*
X83579000Y-73757000D01*
X83539000Y-77199000D02*
X83539000Y-76540000D01*
X83539000Y-74460000D02*
X83539000Y-73801000D01*
X83499000Y-77153000D02*
X83499000Y-76540000D01*
X83499000Y-74460000D02*
X83499000Y-73847000D01*
X83459000Y-77105000D02*
X83459000Y-73895000D01*
X83419000Y-77054000D02*
X83419000Y-73946000D01*
X83379000Y-77000000D02*
X83379000Y-74000000D01*
X83339000Y-76943000D02*
X83339000Y-74057000D01*
X83299000Y-76883000D02*
X83299000Y-74117000D01*
X83259000Y-76819000D02*
X83259000Y-74181000D01*
X83219000Y-76751000D02*
X83219000Y-74249000D01*
X83179000Y-76678000D02*
X83179000Y-74322000D01*
X83139000Y-76598000D02*
X83139000Y-74402000D01*
X83099000Y-76511000D02*
X83099000Y-74489000D01*
X83059000Y-76415000D02*
X83059000Y-74585000D01*
X83019000Y-76305000D02*
X83019000Y-74695000D01*
X82979000Y-76177000D02*
X82979000Y-74823000D01*
X82939000Y-76018000D02*
X82939000Y-74982000D01*
X82899000Y-75784000D02*
X82899000Y-75216000D01*
X88120000Y-75500000D02*
G75*
G03*
X88120000Y-75500000I-2620000J0D01*
G01*
%TO.C,Q4*%
X112430000Y-91350000D02*
X116030000Y-91350000D01*
X114230000Y-86900000D02*
G75*
G03*
X112391522Y-91338478I0J-2600000D01*
G01*
X116068478Y-91338478D02*
G75*
G03*
X114230000Y-86900000I-1838478J1838478D01*
G01*
%TO.C,R6*%
X121960000Y-73000000D02*
X122730000Y-73000000D01*
X122730000Y-71630000D02*
X122730000Y-74370000D01*
X122730000Y-74370000D02*
X129270000Y-74370000D01*
X129270000Y-71630000D02*
X122730000Y-71630000D01*
X129270000Y-74370000D02*
X129270000Y-71630000D01*
X130040000Y-73000000D02*
X129270000Y-73000000D01*
%TO.C,R15*%
X130040000Y-69000000D02*
X129270000Y-69000000D01*
X129270000Y-70370000D02*
X129270000Y-67630000D01*
X129270000Y-67630000D02*
X122730000Y-67630000D01*
X122730000Y-70370000D02*
X129270000Y-70370000D01*
X122730000Y-67630000D02*
X122730000Y-70370000D01*
X121960000Y-69000000D02*
X122730000Y-69000000D01*
%TO.C,R1*%
X84960000Y-88500000D02*
X85730000Y-88500000D01*
X85730000Y-87130000D02*
X85730000Y-89870000D01*
X85730000Y-89870000D02*
X92270000Y-89870000D01*
X92270000Y-87130000D02*
X85730000Y-87130000D01*
X92270000Y-89870000D02*
X92270000Y-87130000D01*
X93040000Y-88500000D02*
X92270000Y-88500000D01*
%TO.C,R16*%
X154460000Y-97500000D02*
X155230000Y-97500000D01*
X155230000Y-96130000D02*
X155230000Y-98870000D01*
X155230000Y-98870000D02*
X161770000Y-98870000D01*
X161770000Y-96130000D02*
X155230000Y-96130000D01*
X161770000Y-98870000D02*
X161770000Y-96130000D01*
X162540000Y-97500000D02*
X161770000Y-97500000D01*
%TO.C,U2*%
X165235000Y-71370000D02*
X165235000Y-81650000D01*
X165235000Y-81650000D02*
X169735000Y-81650000D01*
X166485000Y-71370000D02*
X165235000Y-71370000D01*
X169735000Y-71370000D02*
X168485000Y-71370000D01*
X169735000Y-81650000D02*
X169735000Y-71370000D01*
X166485000Y-71370000D02*
G75*
G03*
X168485000Y-71370000I1000000J0D01*
G01*
%TO.C,C4*%
X105545000Y-74130000D02*
X102805000Y-74130000D01*
X105545000Y-74130000D02*
X105545000Y-79370000D01*
X102805000Y-74130000D02*
X102805000Y-79370000D01*
X105545000Y-79370000D02*
X102805000Y-79370000D01*
%TO.C,R5*%
X121460000Y-85500000D02*
X122230000Y-85500000D01*
X122230000Y-84130000D02*
X122230000Y-86870000D01*
X122230000Y-86870000D02*
X128770000Y-86870000D01*
X128770000Y-84130000D02*
X122230000Y-84130000D01*
X128770000Y-86870000D02*
X128770000Y-84130000D01*
X129540000Y-85500000D02*
X128770000Y-85500000D01*
%TO.C,R18*%
X181500000Y-81540000D02*
X181500000Y-80770000D01*
X180130000Y-80770000D02*
X182870000Y-80770000D01*
X182870000Y-80770000D02*
X182870000Y-74230000D01*
X180130000Y-74230000D02*
X180130000Y-80770000D01*
X182870000Y-74230000D02*
X180130000Y-74230000D01*
X181500000Y-73460000D02*
X181500000Y-74230000D01*
%TO.C,R14*%
X154460000Y-93000000D02*
X155230000Y-93000000D01*
X155230000Y-91630000D02*
X155230000Y-94370000D01*
X155230000Y-94370000D02*
X161770000Y-94370000D01*
X161770000Y-91630000D02*
X155230000Y-91630000D01*
X161770000Y-94370000D02*
X161770000Y-91630000D01*
X162540000Y-93000000D02*
X161770000Y-93000000D01*
%TO.C,R9*%
X176500000Y-87540000D02*
X176500000Y-86770000D01*
X175130000Y-86770000D02*
X177870000Y-86770000D01*
X177870000Y-86770000D02*
X177870000Y-80230000D01*
X175130000Y-80230000D02*
X175130000Y-86770000D01*
X177870000Y-80230000D02*
X175130000Y-80230000D01*
X176500000Y-79460000D02*
X176500000Y-80230000D01*
%TO.C,R19*%
X154460000Y-88000000D02*
X155230000Y-88000000D01*
X155230000Y-86630000D02*
X155230000Y-89370000D01*
X155230000Y-89370000D02*
X161770000Y-89370000D01*
X161770000Y-86630000D02*
X155230000Y-86630000D01*
X161770000Y-89370000D02*
X161770000Y-86630000D01*
X162540000Y-88000000D02*
X161770000Y-88000000D01*
%TO.C,Q7*%
X177530000Y-94650000D02*
X173930000Y-94650000D01*
X175730000Y-99100000D02*
G75*
G03*
X177568478Y-94661522I0J2600000D01*
G01*
X173891522Y-94661522D02*
G75*
G03*
X175730000Y-99100000I1838478J-1838478D01*
G01*
%TD*%
M02*
