M48
; DRILL file {KiCad 7.0.1-0} date 2023 July 04, Tuesday 20:45:01
; FORMAT={-:-/ absolute / metric / decimal}
; #@! TF.CreationDate,2023-07-04T20:45:01+01:00
; #@! TF.GenerationSoftware,Kicad,Pcbnew,7.0.1-0
; #@! TF.FileFunction,MixedPlating,1,2
FMAT,2
METRIC
; #@! TA.AperFunction,Plated,PTH,ViaDrill
T1C0.400
; #@! TA.AperFunction,Plated,PTH,ComponentDrill
T2C0.750
; #@! TA.AperFunction,Plated,PTH,ComponentDrill
T3C0.800
; #@! TA.AperFunction,Plated,PTH,ComponentDrill
T4C1.000
; #@! TA.AperFunction,Plated,PTH,ComponentDrill
T5C1.100
; #@! TA.AperFunction,NonPlated,NPTH,ComponentDrill
T6C3.200
%
G90
G05
T1
X158.5Y-84.0
X158.5Y-92.5
T2
X112.96Y-89.5
X112.96Y-95.5
X114.23Y-89.5
X114.23Y-95.5
X115.5Y-89.5
X115.5Y-95.5
X122.5Y-76.96
X122.5Y-78.23
X122.5Y-79.5
X129.5Y-76.96
X129.5Y-78.23
X129.5Y-79.5
X139.46Y-94.5
X140.73Y-94.5
X142.0Y-94.5
X146.23Y-94.36
X147.5Y-94.36
X148.77Y-94.36
X174.46Y-96.5
X175.73Y-96.5
X177.0Y-96.5
T3
X83.92Y-88.5
X84.5Y-75.5
X86.5Y-75.5
X92.5Y-75.5
X94.08Y-88.5
X94.5Y-75.5
X98.42Y-88.5
X98.5Y-84.0
X99.0Y-68.42
X99.0Y-78.58
X103.5Y-84.0
X104.175Y-75.5
X104.175Y-78.0
X108.58Y-88.5
X108.675Y-68.8
X108.675Y-71.34
X108.675Y-73.88
X108.675Y-76.42
X108.675Y-78.96
X108.675Y-81.5
X108.675Y-84.04
X116.295Y-68.8
X116.295Y-71.34
X116.295Y-73.88
X116.295Y-76.42
X116.295Y-78.96
X116.295Y-81.5
X116.295Y-84.04
X120.34Y-90.5
X120.42Y-85.5
X120.42Y-95.5
X120.92Y-69.0
X120.92Y-73.0
X130.5Y-90.5
X130.58Y-85.5
X130.58Y-95.5
X131.08Y-69.0
X131.08Y-73.0
X134.42Y-73.0
X135.0Y-76.5
X135.0Y-81.5
X135.0Y-85.42
X135.0Y-95.58
X138.92Y-88.0
X139.5Y-77.0
X140.0Y-81.0
X140.0Y-83.5
X144.58Y-73.0
X148.42Y-73.0
X149.08Y-88.0
X149.66Y-77.0
X153.42Y-88.0
X153.42Y-93.0
X153.42Y-97.5
X158.58Y-73.0
X163.58Y-88.0
X163.58Y-93.0
X163.58Y-97.5
X163.675Y-72.7
X163.675Y-75.24
X163.675Y-77.78
X163.675Y-80.32
X171.295Y-72.7
X171.295Y-75.24
X171.295Y-77.78
X171.295Y-80.32
X176.5Y-78.42
X176.5Y-88.58
X181.5Y-72.42
X181.5Y-82.58
X181.5Y-85.92
X181.5Y-96.08
T4
X76.0Y-73.22
X76.0Y-75.76
X76.0Y-78.3
X76.0Y-80.84
X76.0Y-83.38
X76.0Y-85.92
X76.0Y-88.46
X76.0Y-91.0
X78.54Y-73.22
X78.54Y-75.76
X78.54Y-78.3
X78.54Y-80.84
X78.54Y-83.38
X78.54Y-85.92
X78.54Y-88.46
X78.54Y-91.0
X85.96Y-102.0
X88.5Y-102.0
X91.04Y-102.0
X110.92Y-102.5
X113.46Y-102.5
X116.0Y-102.5
X125.42Y-102.5
X127.96Y-102.5
X130.5Y-102.5
X141.92Y-102.5
X144.46Y-102.5
X147.0Y-102.5
X155.5Y-77.445
X155.5Y-79.985
X155.5Y-82.525
X159.96Y-102.5
X162.5Y-102.5
X165.04Y-102.5
T5
X84.42Y-69.0
X84.42Y-82.0
X94.58Y-69.0
X94.58Y-82.0
T6
X77.0Y-65.0
X77.0Y-102.0
X182.0Y-65.0
X182.0Y-102.0
T0
M30
